%TF.GenerationSoftware,KiCad,Pcbnew,(5.1.9)-1*%
%TF.CreationDate,2021-04-06T10:28:05-05:00*%
%TF.ProjectId,simple-gpsdo,73696d70-6c65-42d6-9770-73646f2e6b69,C*%
%TF.SameCoordinates,Original*%
%TF.FileFunction,Soldermask,Top*%
%TF.FilePolarity,Negative*%
%FSLAX46Y46*%
G04 Gerber Fmt 4.6, Leading zero omitted, Abs format (unit mm)*
G04 Created by KiCad (PCBNEW (5.1.9)-1) date 2021-04-06 10:28:05*
%MOMM*%
%LPD*%
G01*
G04 APERTURE LIST*
%ADD10C,1.624000*%
%ADD11C,2.700000*%
%ADD12C,2.350000*%
%ADD13C,2.132000*%
%ADD14O,1.800000X1.800000*%
%ADD15C,2.100000*%
%ADD16C,0.700000*%
G04 APERTURE END LIST*
D10*
%TO.C,Y2*%
X184700000Y-106890000D03*
X184700000Y-98000000D03*
X184700000Y-89110000D03*
X159300000Y-89110000D03*
X159300000Y-106890000D03*
%TD*%
%TO.C,U3*%
G36*
G01*
X147050000Y-102770000D02*
X147050000Y-103120000D01*
G75*
G02*
X146875000Y-103295000I-175000J0D01*
G01*
X145175000Y-103295000D01*
G75*
G02*
X145000000Y-103120000I0J175000D01*
G01*
X145000000Y-102770000D01*
G75*
G02*
X145175000Y-102595000I175000J0D01*
G01*
X146875000Y-102595000D01*
G75*
G02*
X147050000Y-102770000I0J-175000D01*
G01*
G37*
G36*
G01*
X147050000Y-101500000D02*
X147050000Y-101850000D01*
G75*
G02*
X146875000Y-102025000I-175000J0D01*
G01*
X145175000Y-102025000D01*
G75*
G02*
X145000000Y-101850000I0J175000D01*
G01*
X145000000Y-101500000D01*
G75*
G02*
X145175000Y-101325000I175000J0D01*
G01*
X146875000Y-101325000D01*
G75*
G02*
X147050000Y-101500000I0J-175000D01*
G01*
G37*
G36*
G01*
X147050000Y-100230000D02*
X147050000Y-100580000D01*
G75*
G02*
X146875000Y-100755000I-175000J0D01*
G01*
X145175000Y-100755000D01*
G75*
G02*
X145000000Y-100580000I0J175000D01*
G01*
X145000000Y-100230000D01*
G75*
G02*
X145175000Y-100055000I175000J0D01*
G01*
X146875000Y-100055000D01*
G75*
G02*
X147050000Y-100230000I0J-175000D01*
G01*
G37*
G36*
G01*
X147050000Y-98960000D02*
X147050000Y-99310000D01*
G75*
G02*
X146875000Y-99485000I-175000J0D01*
G01*
X145175000Y-99485000D01*
G75*
G02*
X145000000Y-99310000I0J175000D01*
G01*
X145000000Y-98960000D01*
G75*
G02*
X145175000Y-98785000I175000J0D01*
G01*
X146875000Y-98785000D01*
G75*
G02*
X147050000Y-98960000I0J-175000D01*
G01*
G37*
G36*
G01*
X147050000Y-97690000D02*
X147050000Y-98040000D01*
G75*
G02*
X146875000Y-98215000I-175000J0D01*
G01*
X145175000Y-98215000D01*
G75*
G02*
X145000000Y-98040000I0J175000D01*
G01*
X145000000Y-97690000D01*
G75*
G02*
X145175000Y-97515000I175000J0D01*
G01*
X146875000Y-97515000D01*
G75*
G02*
X147050000Y-97690000I0J-175000D01*
G01*
G37*
G36*
G01*
X147050000Y-96420000D02*
X147050000Y-96770000D01*
G75*
G02*
X146875000Y-96945000I-175000J0D01*
G01*
X145175000Y-96945000D01*
G75*
G02*
X145000000Y-96770000I0J175000D01*
G01*
X145000000Y-96420000D01*
G75*
G02*
X145175000Y-96245000I175000J0D01*
G01*
X146875000Y-96245000D01*
G75*
G02*
X147050000Y-96420000I0J-175000D01*
G01*
G37*
G36*
G01*
X147050000Y-95150000D02*
X147050000Y-95500000D01*
G75*
G02*
X146875000Y-95675000I-175000J0D01*
G01*
X145175000Y-95675000D01*
G75*
G02*
X145000000Y-95500000I0J175000D01*
G01*
X145000000Y-95150000D01*
G75*
G02*
X145175000Y-94975000I175000J0D01*
G01*
X146875000Y-94975000D01*
G75*
G02*
X147050000Y-95150000I0J-175000D01*
G01*
G37*
G36*
G01*
X147050000Y-93880000D02*
X147050000Y-94230000D01*
G75*
G02*
X146875000Y-94405000I-175000J0D01*
G01*
X145175000Y-94405000D01*
G75*
G02*
X145000000Y-94230000I0J175000D01*
G01*
X145000000Y-93880000D01*
G75*
G02*
X145175000Y-93705000I175000J0D01*
G01*
X146875000Y-93705000D01*
G75*
G02*
X147050000Y-93880000I0J-175000D01*
G01*
G37*
G36*
G01*
X152000000Y-93880000D02*
X152000000Y-94230000D01*
G75*
G02*
X151825000Y-94405000I-175000J0D01*
G01*
X150125000Y-94405000D01*
G75*
G02*
X149950000Y-94230000I0J175000D01*
G01*
X149950000Y-93880000D01*
G75*
G02*
X150125000Y-93705000I175000J0D01*
G01*
X151825000Y-93705000D01*
G75*
G02*
X152000000Y-93880000I0J-175000D01*
G01*
G37*
G36*
G01*
X152000000Y-95150000D02*
X152000000Y-95500000D01*
G75*
G02*
X151825000Y-95675000I-175000J0D01*
G01*
X150125000Y-95675000D01*
G75*
G02*
X149950000Y-95500000I0J175000D01*
G01*
X149950000Y-95150000D01*
G75*
G02*
X150125000Y-94975000I175000J0D01*
G01*
X151825000Y-94975000D01*
G75*
G02*
X152000000Y-95150000I0J-175000D01*
G01*
G37*
G36*
G01*
X152000000Y-96420000D02*
X152000000Y-96770000D01*
G75*
G02*
X151825000Y-96945000I-175000J0D01*
G01*
X150125000Y-96945000D01*
G75*
G02*
X149950000Y-96770000I0J175000D01*
G01*
X149950000Y-96420000D01*
G75*
G02*
X150125000Y-96245000I175000J0D01*
G01*
X151825000Y-96245000D01*
G75*
G02*
X152000000Y-96420000I0J-175000D01*
G01*
G37*
G36*
G01*
X152000000Y-97690000D02*
X152000000Y-98040000D01*
G75*
G02*
X151825000Y-98215000I-175000J0D01*
G01*
X150125000Y-98215000D01*
G75*
G02*
X149950000Y-98040000I0J175000D01*
G01*
X149950000Y-97690000D01*
G75*
G02*
X150125000Y-97515000I175000J0D01*
G01*
X151825000Y-97515000D01*
G75*
G02*
X152000000Y-97690000I0J-175000D01*
G01*
G37*
G36*
G01*
X152000000Y-98960000D02*
X152000000Y-99310000D01*
G75*
G02*
X151825000Y-99485000I-175000J0D01*
G01*
X150125000Y-99485000D01*
G75*
G02*
X149950000Y-99310000I0J175000D01*
G01*
X149950000Y-98960000D01*
G75*
G02*
X150125000Y-98785000I175000J0D01*
G01*
X151825000Y-98785000D01*
G75*
G02*
X152000000Y-98960000I0J-175000D01*
G01*
G37*
G36*
G01*
X152000000Y-100230000D02*
X152000000Y-100580000D01*
G75*
G02*
X151825000Y-100755000I-175000J0D01*
G01*
X150125000Y-100755000D01*
G75*
G02*
X149950000Y-100580000I0J175000D01*
G01*
X149950000Y-100230000D01*
G75*
G02*
X150125000Y-100055000I175000J0D01*
G01*
X151825000Y-100055000D01*
G75*
G02*
X152000000Y-100230000I0J-175000D01*
G01*
G37*
G36*
G01*
X152000000Y-101500000D02*
X152000000Y-101850000D01*
G75*
G02*
X151825000Y-102025000I-175000J0D01*
G01*
X150125000Y-102025000D01*
G75*
G02*
X149950000Y-101850000I0J175000D01*
G01*
X149950000Y-101500000D01*
G75*
G02*
X150125000Y-101325000I175000J0D01*
G01*
X151825000Y-101325000D01*
G75*
G02*
X152000000Y-101500000I0J-175000D01*
G01*
G37*
G36*
G01*
X152000000Y-102770000D02*
X152000000Y-103120000D01*
G75*
G02*
X151825000Y-103295000I-175000J0D01*
G01*
X150125000Y-103295000D01*
G75*
G02*
X149950000Y-103120000I0J175000D01*
G01*
X149950000Y-102770000D01*
G75*
G02*
X150125000Y-102595000I175000J0D01*
G01*
X151825000Y-102595000D01*
G75*
G02*
X152000000Y-102770000I0J-175000D01*
G01*
G37*
%TD*%
%TO.C,C1*%
G36*
G01*
X133978262Y-126600000D02*
X133021738Y-126600000D01*
G75*
G02*
X132750000Y-126328262I0J271738D01*
G01*
X132750000Y-125621738D01*
G75*
G02*
X133021738Y-125350000I271738J0D01*
G01*
X133978262Y-125350000D01*
G75*
G02*
X134250000Y-125621738I0J-271738D01*
G01*
X134250000Y-126328262D01*
G75*
G02*
X133978262Y-126600000I-271738J0D01*
G01*
G37*
G36*
G01*
X133978262Y-128650000D02*
X133021738Y-128650000D01*
G75*
G02*
X132750000Y-128378262I0J271738D01*
G01*
X132750000Y-127671738D01*
G75*
G02*
X133021738Y-127400000I271738J0D01*
G01*
X133978262Y-127400000D01*
G75*
G02*
X134250000Y-127671738I0J-271738D01*
G01*
X134250000Y-128378262D01*
G75*
G02*
X133978262Y-128650000I-271738J0D01*
G01*
G37*
%TD*%
%TO.C,C2*%
G36*
G01*
X123978262Y-128650000D02*
X123021738Y-128650000D01*
G75*
G02*
X122750000Y-128378262I0J271738D01*
G01*
X122750000Y-127671738D01*
G75*
G02*
X123021738Y-127400000I271738J0D01*
G01*
X123978262Y-127400000D01*
G75*
G02*
X124250000Y-127671738I0J-271738D01*
G01*
X124250000Y-128378262D01*
G75*
G02*
X123978262Y-128650000I-271738J0D01*
G01*
G37*
G36*
G01*
X123978262Y-126600000D02*
X123021738Y-126600000D01*
G75*
G02*
X122750000Y-126328262I0J271738D01*
G01*
X122750000Y-125621738D01*
G75*
G02*
X123021738Y-125350000I271738J0D01*
G01*
X123978262Y-125350000D01*
G75*
G02*
X124250000Y-125621738I0J-271738D01*
G01*
X124250000Y-126328262D01*
G75*
G02*
X123978262Y-126600000I-271738J0D01*
G01*
G37*
%TD*%
%TO.C,C9*%
G36*
G01*
X150150000Y-106021738D02*
X150150000Y-106978262D01*
G75*
G02*
X149878262Y-107250000I-271738J0D01*
G01*
X149171738Y-107250000D01*
G75*
G02*
X148900000Y-106978262I0J271738D01*
G01*
X148900000Y-106021738D01*
G75*
G02*
X149171738Y-105750000I271738J0D01*
G01*
X149878262Y-105750000D01*
G75*
G02*
X150150000Y-106021738I0J-271738D01*
G01*
G37*
G36*
G01*
X148100000Y-106021738D02*
X148100000Y-106978262D01*
G75*
G02*
X147828262Y-107250000I-271738J0D01*
G01*
X147121738Y-107250000D01*
G75*
G02*
X146850000Y-106978262I0J271738D01*
G01*
X146850000Y-106021738D01*
G75*
G02*
X147121738Y-105750000I271738J0D01*
G01*
X147828262Y-105750000D01*
G75*
G02*
X148100000Y-106021738I0J-271738D01*
G01*
G37*
%TD*%
%TO.C,C10*%
G36*
G01*
X137100000Y-106021738D02*
X137100000Y-106978262D01*
G75*
G02*
X136828262Y-107250000I-271738J0D01*
G01*
X136121738Y-107250000D01*
G75*
G02*
X135850000Y-106978262I0J271738D01*
G01*
X135850000Y-106021738D01*
G75*
G02*
X136121738Y-105750000I271738J0D01*
G01*
X136828262Y-105750000D01*
G75*
G02*
X137100000Y-106021738I0J-271738D01*
G01*
G37*
G36*
G01*
X139150000Y-106021738D02*
X139150000Y-106978262D01*
G75*
G02*
X138878262Y-107250000I-271738J0D01*
G01*
X138171738Y-107250000D01*
G75*
G02*
X137900000Y-106978262I0J271738D01*
G01*
X137900000Y-106021738D01*
G75*
G02*
X138171738Y-105750000I271738J0D01*
G01*
X138878262Y-105750000D01*
G75*
G02*
X139150000Y-106021738I0J-271738D01*
G01*
G37*
%TD*%
%TO.C,C13*%
G36*
G01*
X126021738Y-109400000D02*
X126978262Y-109400000D01*
G75*
G02*
X127250000Y-109671738I0J-271738D01*
G01*
X127250000Y-110378262D01*
G75*
G02*
X126978262Y-110650000I-271738J0D01*
G01*
X126021738Y-110650000D01*
G75*
G02*
X125750000Y-110378262I0J271738D01*
G01*
X125750000Y-109671738D01*
G75*
G02*
X126021738Y-109400000I271738J0D01*
G01*
G37*
G36*
G01*
X126021738Y-107350000D02*
X126978262Y-107350000D01*
G75*
G02*
X127250000Y-107621738I0J-271738D01*
G01*
X127250000Y-108328262D01*
G75*
G02*
X126978262Y-108600000I-271738J0D01*
G01*
X126021738Y-108600000D01*
G75*
G02*
X125750000Y-108328262I0J271738D01*
G01*
X125750000Y-107621738D01*
G75*
G02*
X126021738Y-107350000I271738J0D01*
G01*
G37*
%TD*%
%TO.C,C14*%
G36*
G01*
X119850000Y-102478262D02*
X119850000Y-101521738D01*
G75*
G02*
X120121738Y-101250000I271738J0D01*
G01*
X120828262Y-101250000D01*
G75*
G02*
X121100000Y-101521738I0J-271738D01*
G01*
X121100000Y-102478262D01*
G75*
G02*
X120828262Y-102750000I-271738J0D01*
G01*
X120121738Y-102750000D01*
G75*
G02*
X119850000Y-102478262I0J271738D01*
G01*
G37*
G36*
G01*
X121900000Y-102478262D02*
X121900000Y-101521738D01*
G75*
G02*
X122171738Y-101250000I271738J0D01*
G01*
X122878262Y-101250000D01*
G75*
G02*
X123150000Y-101521738I0J-271738D01*
G01*
X123150000Y-102478262D01*
G75*
G02*
X122878262Y-102750000I-271738J0D01*
G01*
X122171738Y-102750000D01*
G75*
G02*
X121900000Y-102478262I0J271738D01*
G01*
G37*
%TD*%
%TO.C,C15*%
G36*
G01*
X121900000Y-86478262D02*
X121900000Y-85521738D01*
G75*
G02*
X122171738Y-85250000I271738J0D01*
G01*
X122878262Y-85250000D01*
G75*
G02*
X123150000Y-85521738I0J-271738D01*
G01*
X123150000Y-86478262D01*
G75*
G02*
X122878262Y-86750000I-271738J0D01*
G01*
X122171738Y-86750000D01*
G75*
G02*
X121900000Y-86478262I0J271738D01*
G01*
G37*
G36*
G01*
X119850000Y-86478262D02*
X119850000Y-85521738D01*
G75*
G02*
X120121738Y-85250000I271738J0D01*
G01*
X120828262Y-85250000D01*
G75*
G02*
X121100000Y-85521738I0J-271738D01*
G01*
X121100000Y-86478262D01*
G75*
G02*
X120828262Y-86750000I-271738J0D01*
G01*
X120121738Y-86750000D01*
G75*
G02*
X119850000Y-86478262I0J271738D01*
G01*
G37*
%TD*%
%TO.C,C16*%
G36*
G01*
X109100000Y-96021738D02*
X109100000Y-96978262D01*
G75*
G02*
X108828262Y-97250000I-271738J0D01*
G01*
X108121738Y-97250000D01*
G75*
G02*
X107850000Y-96978262I0J271738D01*
G01*
X107850000Y-96021738D01*
G75*
G02*
X108121738Y-95750000I271738J0D01*
G01*
X108828262Y-95750000D01*
G75*
G02*
X109100000Y-96021738I0J-271738D01*
G01*
G37*
G36*
G01*
X111150000Y-96021738D02*
X111150000Y-96978262D01*
G75*
G02*
X110878262Y-97250000I-271738J0D01*
G01*
X110171738Y-97250000D01*
G75*
G02*
X109900000Y-96978262I0J271738D01*
G01*
X109900000Y-96021738D01*
G75*
G02*
X110171738Y-95750000I271738J0D01*
G01*
X110878262Y-95750000D01*
G75*
G02*
X111150000Y-96021738I0J-271738D01*
G01*
G37*
%TD*%
%TO.C,C17*%
G36*
G01*
X111150000Y-80021738D02*
X111150000Y-80978262D01*
G75*
G02*
X110878262Y-81250000I-271738J0D01*
G01*
X110171738Y-81250000D01*
G75*
G02*
X109900000Y-80978262I0J271738D01*
G01*
X109900000Y-80021738D01*
G75*
G02*
X110171738Y-79750000I271738J0D01*
G01*
X110878262Y-79750000D01*
G75*
G02*
X111150000Y-80021738I0J-271738D01*
G01*
G37*
G36*
G01*
X109100000Y-80021738D02*
X109100000Y-80978262D01*
G75*
G02*
X108828262Y-81250000I-271738J0D01*
G01*
X108121738Y-81250000D01*
G75*
G02*
X107850000Y-80978262I0J271738D01*
G01*
X107850000Y-80021738D01*
G75*
G02*
X108121738Y-79750000I271738J0D01*
G01*
X108828262Y-79750000D01*
G75*
G02*
X109100000Y-80021738I0J-271738D01*
G01*
G37*
%TD*%
%TO.C,C18*%
G36*
G01*
X102375000Y-111478262D02*
X102375000Y-110521738D01*
G75*
G02*
X102646738Y-110250000I271738J0D01*
G01*
X103353262Y-110250000D01*
G75*
G02*
X103625000Y-110521738I0J-271738D01*
G01*
X103625000Y-111478262D01*
G75*
G02*
X103353262Y-111750000I-271738J0D01*
G01*
X102646738Y-111750000D01*
G75*
G02*
X102375000Y-111478262I0J271738D01*
G01*
G37*
G36*
G01*
X100325000Y-111478262D02*
X100325000Y-110521738D01*
G75*
G02*
X100596738Y-110250000I271738J0D01*
G01*
X101303262Y-110250000D01*
G75*
G02*
X101575000Y-110521738I0J-271738D01*
G01*
X101575000Y-111478262D01*
G75*
G02*
X101303262Y-111750000I-271738J0D01*
G01*
X100596738Y-111750000D01*
G75*
G02*
X100325000Y-111478262I0J271738D01*
G01*
G37*
%TD*%
%TO.C,C19*%
G36*
G01*
X100325000Y-103478262D02*
X100325000Y-102521738D01*
G75*
G02*
X100596738Y-102250000I271738J0D01*
G01*
X101303262Y-102250000D01*
G75*
G02*
X101575000Y-102521738I0J-271738D01*
G01*
X101575000Y-103478262D01*
G75*
G02*
X101303262Y-103750000I-271738J0D01*
G01*
X100596738Y-103750000D01*
G75*
G02*
X100325000Y-103478262I0J271738D01*
G01*
G37*
G36*
G01*
X102375000Y-103478262D02*
X102375000Y-102521738D01*
G75*
G02*
X102646738Y-102250000I271738J0D01*
G01*
X103353262Y-102250000D01*
G75*
G02*
X103625000Y-102521738I0J-271738D01*
G01*
X103625000Y-103478262D01*
G75*
G02*
X103353262Y-103750000I-271738J0D01*
G01*
X102646738Y-103750000D01*
G75*
G02*
X102375000Y-103478262I0J271738D01*
G01*
G37*
%TD*%
%TO.C,C20*%
G36*
G01*
X102375000Y-91978262D02*
X102375000Y-91021738D01*
G75*
G02*
X102646738Y-90750000I271738J0D01*
G01*
X103353262Y-90750000D01*
G75*
G02*
X103625000Y-91021738I0J-271738D01*
G01*
X103625000Y-91978262D01*
G75*
G02*
X103353262Y-92250000I-271738J0D01*
G01*
X102646738Y-92250000D01*
G75*
G02*
X102375000Y-91978262I0J271738D01*
G01*
G37*
G36*
G01*
X100325000Y-91978262D02*
X100325000Y-91021738D01*
G75*
G02*
X100596738Y-90750000I271738J0D01*
G01*
X101303262Y-90750000D01*
G75*
G02*
X101575000Y-91021738I0J-271738D01*
G01*
X101575000Y-91978262D01*
G75*
G02*
X101303262Y-92250000I-271738J0D01*
G01*
X100596738Y-92250000D01*
G75*
G02*
X100325000Y-91978262I0J271738D01*
G01*
G37*
%TD*%
%TO.C,C21*%
G36*
G01*
X100325000Y-83978262D02*
X100325000Y-83021738D01*
G75*
G02*
X100596738Y-82750000I271738J0D01*
G01*
X101303262Y-82750000D01*
G75*
G02*
X101575000Y-83021738I0J-271738D01*
G01*
X101575000Y-83978262D01*
G75*
G02*
X101303262Y-84250000I-271738J0D01*
G01*
X100596738Y-84250000D01*
G75*
G02*
X100325000Y-83978262I0J271738D01*
G01*
G37*
G36*
G01*
X102375000Y-83978262D02*
X102375000Y-83021738D01*
G75*
G02*
X102646738Y-82750000I271738J0D01*
G01*
X103353262Y-82750000D01*
G75*
G02*
X103625000Y-83021738I0J-271738D01*
G01*
X103625000Y-83978262D01*
G75*
G02*
X103353262Y-84250000I-271738J0D01*
G01*
X102646738Y-84250000D01*
G75*
G02*
X102375000Y-83978262I0J271738D01*
G01*
G37*
%TD*%
%TO.C,D1*%
G36*
G01*
X130600000Y-105650000D02*
X129400000Y-105650000D01*
G75*
G02*
X129350000Y-105600000I0J50000D01*
G01*
X129350000Y-104700000D01*
G75*
G02*
X129400000Y-104650000I50000J0D01*
G01*
X130600000Y-104650000D01*
G75*
G02*
X130650000Y-104700000I0J-50000D01*
G01*
X130650000Y-105600000D01*
G75*
G02*
X130600000Y-105650000I-50000J0D01*
G01*
G37*
G36*
G01*
X130600000Y-102350000D02*
X129400000Y-102350000D01*
G75*
G02*
X129350000Y-102300000I0J50000D01*
G01*
X129350000Y-101400000D01*
G75*
G02*
X129400000Y-101350000I50000J0D01*
G01*
X130600000Y-101350000D01*
G75*
G02*
X130650000Y-101400000I0J-50000D01*
G01*
X130650000Y-102300000D01*
G75*
G02*
X130600000Y-102350000I-50000J0D01*
G01*
G37*
%TD*%
%TO.C,F1*%
G36*
G01*
X88342543Y-128012500D02*
X89657457Y-128012500D01*
G75*
G02*
X89925000Y-128280043I0J-267543D01*
G01*
X89925000Y-129269957D01*
G75*
G02*
X89657457Y-129537500I-267543J0D01*
G01*
X88342543Y-129537500D01*
G75*
G02*
X88075000Y-129269957I0J267543D01*
G01*
X88075000Y-128280043D01*
G75*
G02*
X88342543Y-128012500I267543J0D01*
G01*
G37*
G36*
G01*
X88342543Y-130987500D02*
X89657457Y-130987500D01*
G75*
G02*
X89925000Y-131255043I0J-267543D01*
G01*
X89925000Y-132244957D01*
G75*
G02*
X89657457Y-132512500I-267543J0D01*
G01*
X88342543Y-132512500D01*
G75*
G02*
X88075000Y-132244957I0J267543D01*
G01*
X88075000Y-131255043D01*
G75*
G02*
X88342543Y-130987500I267543J0D01*
G01*
G37*
%TD*%
%TO.C,J2*%
G36*
G01*
X83950000Y-129150000D02*
X86550000Y-129150000D01*
G75*
G02*
X86600000Y-129200000I0J-50000D01*
G01*
X86600000Y-131800000D01*
G75*
G02*
X86550000Y-131850000I-50000J0D01*
G01*
X83950000Y-131850000D01*
G75*
G02*
X83900000Y-131800000I0J50000D01*
G01*
X83900000Y-129200000D01*
G75*
G02*
X83950000Y-129150000I50000J0D01*
G01*
G37*
D11*
X79250000Y-130500000D03*
X82250000Y-135200000D03*
%TD*%
%TO.C,J3*%
G36*
G01*
X99850000Y-128960000D02*
X99850000Y-127960000D01*
G75*
G02*
X99900000Y-127910000I50000J0D01*
G01*
X103050000Y-127910000D01*
G75*
G02*
X103100000Y-127960000I0J-50000D01*
G01*
X103100000Y-128960000D01*
G75*
G02*
X103050000Y-129010000I-50000J0D01*
G01*
X99900000Y-129010000D01*
G75*
G02*
X99850000Y-128960000I0J50000D01*
G01*
G37*
G36*
G01*
X104900000Y-128960000D02*
X104900000Y-127960000D01*
G75*
G02*
X104950000Y-127910000I50000J0D01*
G01*
X108100000Y-127910000D01*
G75*
G02*
X108150000Y-127960000I0J-50000D01*
G01*
X108150000Y-128960000D01*
G75*
G02*
X108100000Y-129010000I-50000J0D01*
G01*
X104950000Y-129010000D01*
G75*
G02*
X104900000Y-128960000I0J50000D01*
G01*
G37*
G36*
G01*
X99850000Y-131500000D02*
X99850000Y-130500000D01*
G75*
G02*
X99900000Y-130450000I50000J0D01*
G01*
X103050000Y-130450000D01*
G75*
G02*
X103100000Y-130500000I0J-50000D01*
G01*
X103100000Y-131500000D01*
G75*
G02*
X103050000Y-131550000I-50000J0D01*
G01*
X99900000Y-131550000D01*
G75*
G02*
X99850000Y-131500000I0J50000D01*
G01*
G37*
G36*
G01*
X104900000Y-131500000D02*
X104900000Y-130500000D01*
G75*
G02*
X104950000Y-130450000I50000J0D01*
G01*
X108100000Y-130450000D01*
G75*
G02*
X108150000Y-130500000I0J-50000D01*
G01*
X108150000Y-131500000D01*
G75*
G02*
X108100000Y-131550000I-50000J0D01*
G01*
X104950000Y-131550000D01*
G75*
G02*
X104900000Y-131500000I0J50000D01*
G01*
G37*
G36*
G01*
X99850000Y-134040000D02*
X99850000Y-133040000D01*
G75*
G02*
X99900000Y-132990000I50000J0D01*
G01*
X103050000Y-132990000D01*
G75*
G02*
X103100000Y-133040000I0J-50000D01*
G01*
X103100000Y-134040000D01*
G75*
G02*
X103050000Y-134090000I-50000J0D01*
G01*
X99900000Y-134090000D01*
G75*
G02*
X99850000Y-134040000I0J50000D01*
G01*
G37*
G36*
G01*
X104900000Y-134040000D02*
X104900000Y-133040000D01*
G75*
G02*
X104950000Y-132990000I50000J0D01*
G01*
X108100000Y-132990000D01*
G75*
G02*
X108150000Y-133040000I0J-50000D01*
G01*
X108150000Y-134040000D01*
G75*
G02*
X108100000Y-134090000I-50000J0D01*
G01*
X104950000Y-134090000D01*
G75*
G02*
X104900000Y-134040000I0J50000D01*
G01*
G37*
%TD*%
%TO.C,J4*%
G36*
G01*
X121825000Y-144500000D02*
X121825000Y-143450000D01*
G75*
G02*
X121875000Y-143400000I50000J0D01*
G01*
X124075000Y-143400000D01*
G75*
G02*
X124125000Y-143450000I0J-50000D01*
G01*
X124125000Y-144500000D01*
G75*
G02*
X124075000Y-144550000I-50000J0D01*
G01*
X121875000Y-144550000D01*
G75*
G02*
X121825000Y-144500000I0J50000D01*
G01*
G37*
G36*
G01*
X120875000Y-143000000D02*
X120875000Y-142000000D01*
G75*
G02*
X120925000Y-141950000I50000J0D01*
G01*
X121975000Y-141950000D01*
G75*
G02*
X122025000Y-142000000I0J-50000D01*
G01*
X122025000Y-143000000D01*
G75*
G02*
X121975000Y-143050000I-50000J0D01*
G01*
X120925000Y-143050000D01*
G75*
G02*
X120875000Y-143000000I0J50000D01*
G01*
G37*
G36*
G01*
X121825000Y-141550000D02*
X121825000Y-140500000D01*
G75*
G02*
X121875000Y-140450000I50000J0D01*
G01*
X124075000Y-140450000D01*
G75*
G02*
X124125000Y-140500000I0J-50000D01*
G01*
X124125000Y-141550000D01*
G75*
G02*
X124075000Y-141600000I-50000J0D01*
G01*
X121875000Y-141600000D01*
G75*
G02*
X121825000Y-141550000I0J50000D01*
G01*
G37*
%TD*%
D12*
%TO.C,J5*%
X83540000Y-144040000D03*
X78460000Y-144040000D03*
X78460000Y-138960000D03*
X83540000Y-138960000D03*
X81000000Y-141500000D03*
%TD*%
%TO.C,JP1*%
G36*
G01*
X112600000Y-128750000D02*
X112600000Y-127250000D01*
G75*
G02*
X112650000Y-127200000I50000J0D01*
G01*
X113650000Y-127200000D01*
G75*
G02*
X113700000Y-127250000I0J-50000D01*
G01*
X113700000Y-128750000D01*
G75*
G02*
X113650000Y-128800000I-50000J0D01*
G01*
X112650000Y-128800000D01*
G75*
G02*
X112600000Y-128750000I0J50000D01*
G01*
G37*
G36*
G01*
X111300000Y-128750000D02*
X111300000Y-127250000D01*
G75*
G02*
X111350000Y-127200000I50000J0D01*
G01*
X112350000Y-127200000D01*
G75*
G02*
X112400000Y-127250000I0J-50000D01*
G01*
X112400000Y-128750000D01*
G75*
G02*
X112350000Y-128800000I-50000J0D01*
G01*
X111350000Y-128800000D01*
G75*
G02*
X111300000Y-128750000I0J50000D01*
G01*
G37*
%TD*%
%TO.C,R1*%
G36*
G01*
X89600000Y-120771738D02*
X89600000Y-121728262D01*
G75*
G02*
X89328262Y-122000000I-271738J0D01*
G01*
X88621738Y-122000000D01*
G75*
G02*
X88350000Y-121728262I0J271738D01*
G01*
X88350000Y-120771738D01*
G75*
G02*
X88621738Y-120500000I271738J0D01*
G01*
X89328262Y-120500000D01*
G75*
G02*
X89600000Y-120771738I0J-271738D01*
G01*
G37*
G36*
G01*
X91650000Y-120771738D02*
X91650000Y-121728262D01*
G75*
G02*
X91378262Y-122000000I-271738J0D01*
G01*
X90671738Y-122000000D01*
G75*
G02*
X90400000Y-121728262I0J271738D01*
G01*
X90400000Y-120771738D01*
G75*
G02*
X90671738Y-120500000I271738J0D01*
G01*
X91378262Y-120500000D01*
G75*
G02*
X91650000Y-120771738I0J-271738D01*
G01*
G37*
%TD*%
%TO.C,R2*%
G36*
G01*
X88375000Y-124728262D02*
X88375000Y-123771738D01*
G75*
G02*
X88646738Y-123500000I271738J0D01*
G01*
X89353262Y-123500000D01*
G75*
G02*
X89625000Y-123771738I0J-271738D01*
G01*
X89625000Y-124728262D01*
G75*
G02*
X89353262Y-125000000I-271738J0D01*
G01*
X88646738Y-125000000D01*
G75*
G02*
X88375000Y-124728262I0J271738D01*
G01*
G37*
G36*
G01*
X90425000Y-124728262D02*
X90425000Y-123771738D01*
G75*
G02*
X90696738Y-123500000I271738J0D01*
G01*
X91403262Y-123500000D01*
G75*
G02*
X91675000Y-123771738I0J-271738D01*
G01*
X91675000Y-124728262D01*
G75*
G02*
X91403262Y-125000000I-271738J0D01*
G01*
X90696738Y-125000000D01*
G75*
G02*
X90425000Y-124728262I0J271738D01*
G01*
G37*
%TD*%
%TO.C,R3*%
G36*
G01*
X103600000Y-137521738D02*
X103600000Y-138478262D01*
G75*
G02*
X103328262Y-138750000I-271738J0D01*
G01*
X102621738Y-138750000D01*
G75*
G02*
X102350000Y-138478262I0J271738D01*
G01*
X102350000Y-137521738D01*
G75*
G02*
X102621738Y-137250000I271738J0D01*
G01*
X103328262Y-137250000D01*
G75*
G02*
X103600000Y-137521738I0J-271738D01*
G01*
G37*
G36*
G01*
X105650000Y-137521738D02*
X105650000Y-138478262D01*
G75*
G02*
X105378262Y-138750000I-271738J0D01*
G01*
X104671738Y-138750000D01*
G75*
G02*
X104400000Y-138478262I0J271738D01*
G01*
X104400000Y-137521738D01*
G75*
G02*
X104671738Y-137250000I271738J0D01*
G01*
X105378262Y-137250000D01*
G75*
G02*
X105650000Y-137521738I0J-271738D01*
G01*
G37*
%TD*%
%TO.C,R8*%
G36*
G01*
X188125000Y-134021738D02*
X188125000Y-134978262D01*
G75*
G02*
X187853262Y-135250000I-271738J0D01*
G01*
X187146738Y-135250000D01*
G75*
G02*
X186875000Y-134978262I0J271738D01*
G01*
X186875000Y-134021738D01*
G75*
G02*
X187146738Y-133750000I271738J0D01*
G01*
X187853262Y-133750000D01*
G75*
G02*
X188125000Y-134021738I0J-271738D01*
G01*
G37*
G36*
G01*
X190175000Y-134021738D02*
X190175000Y-134978262D01*
G75*
G02*
X189903262Y-135250000I-271738J0D01*
G01*
X189196738Y-135250000D01*
G75*
G02*
X188925000Y-134978262I0J271738D01*
G01*
X188925000Y-134021738D01*
G75*
G02*
X189196738Y-133750000I271738J0D01*
G01*
X189903262Y-133750000D01*
G75*
G02*
X190175000Y-134021738I0J-271738D01*
G01*
G37*
%TD*%
%TO.C,R9*%
G36*
G01*
X188125000Y-119021738D02*
X188125000Y-119978262D01*
G75*
G02*
X187853262Y-120250000I-271738J0D01*
G01*
X187146738Y-120250000D01*
G75*
G02*
X186875000Y-119978262I0J271738D01*
G01*
X186875000Y-119021738D01*
G75*
G02*
X187146738Y-118750000I271738J0D01*
G01*
X187853262Y-118750000D01*
G75*
G02*
X188125000Y-119021738I0J-271738D01*
G01*
G37*
G36*
G01*
X190175000Y-119021738D02*
X190175000Y-119978262D01*
G75*
G02*
X189903262Y-120250000I-271738J0D01*
G01*
X189196738Y-120250000D01*
G75*
G02*
X188925000Y-119978262I0J271738D01*
G01*
X188925000Y-119021738D01*
G75*
G02*
X189196738Y-118750000I271738J0D01*
G01*
X189903262Y-118750000D01*
G75*
G02*
X190175000Y-119021738I0J-271738D01*
G01*
G37*
%TD*%
%TO.C,R11*%
G36*
G01*
X129521738Y-107350000D02*
X130478262Y-107350000D01*
G75*
G02*
X130750000Y-107621738I0J-271738D01*
G01*
X130750000Y-108328262D01*
G75*
G02*
X130478262Y-108600000I-271738J0D01*
G01*
X129521738Y-108600000D01*
G75*
G02*
X129250000Y-108328262I0J271738D01*
G01*
X129250000Y-107621738D01*
G75*
G02*
X129521738Y-107350000I271738J0D01*
G01*
G37*
G36*
G01*
X129521738Y-109400000D02*
X130478262Y-109400000D01*
G75*
G02*
X130750000Y-109671738I0J-271738D01*
G01*
X130750000Y-110378262D01*
G75*
G02*
X130478262Y-110650000I-271738J0D01*
G01*
X129521738Y-110650000D01*
G75*
G02*
X129250000Y-110378262I0J271738D01*
G01*
X129250000Y-109671738D01*
G75*
G02*
X129521738Y-109400000I271738J0D01*
G01*
G37*
%TD*%
%TO.C,R12*%
G36*
G01*
X133978262Y-108600000D02*
X133021738Y-108600000D01*
G75*
G02*
X132750000Y-108328262I0J271738D01*
G01*
X132750000Y-107621738D01*
G75*
G02*
X133021738Y-107350000I271738J0D01*
G01*
X133978262Y-107350000D01*
G75*
G02*
X134250000Y-107621738I0J-271738D01*
G01*
X134250000Y-108328262D01*
G75*
G02*
X133978262Y-108600000I-271738J0D01*
G01*
G37*
G36*
G01*
X133978262Y-110650000D02*
X133021738Y-110650000D01*
G75*
G02*
X132750000Y-110378262I0J271738D01*
G01*
X132750000Y-109671738D01*
G75*
G02*
X133021738Y-109400000I271738J0D01*
G01*
X133978262Y-109400000D01*
G75*
G02*
X134250000Y-109671738I0J-271738D01*
G01*
X134250000Y-110378262D01*
G75*
G02*
X133978262Y-110650000I-271738J0D01*
G01*
G37*
%TD*%
%TO.C,R13*%
G36*
G01*
X188125000Y-141521738D02*
X188125000Y-142478262D01*
G75*
G02*
X187853262Y-142750000I-271738J0D01*
G01*
X187146738Y-142750000D01*
G75*
G02*
X186875000Y-142478262I0J271738D01*
G01*
X186875000Y-141521738D01*
G75*
G02*
X187146738Y-141250000I271738J0D01*
G01*
X187853262Y-141250000D01*
G75*
G02*
X188125000Y-141521738I0J-271738D01*
G01*
G37*
G36*
G01*
X190175000Y-141521738D02*
X190175000Y-142478262D01*
G75*
G02*
X189903262Y-142750000I-271738J0D01*
G01*
X189196738Y-142750000D01*
G75*
G02*
X188925000Y-142478262I0J271738D01*
G01*
X188925000Y-141521738D01*
G75*
G02*
X189196738Y-141250000I271738J0D01*
G01*
X189903262Y-141250000D01*
G75*
G02*
X190175000Y-141521738I0J-271738D01*
G01*
G37*
%TD*%
%TO.C,R14*%
G36*
G01*
X190175000Y-126521738D02*
X190175000Y-127478262D01*
G75*
G02*
X189903262Y-127750000I-271738J0D01*
G01*
X189196738Y-127750000D01*
G75*
G02*
X188925000Y-127478262I0J271738D01*
G01*
X188925000Y-126521738D01*
G75*
G02*
X189196738Y-126250000I271738J0D01*
G01*
X189903262Y-126250000D01*
G75*
G02*
X190175000Y-126521738I0J-271738D01*
G01*
G37*
G36*
G01*
X188125000Y-126521738D02*
X188125000Y-127478262D01*
G75*
G02*
X187853262Y-127750000I-271738J0D01*
G01*
X187146738Y-127750000D01*
G75*
G02*
X186875000Y-127478262I0J271738D01*
G01*
X186875000Y-126521738D01*
G75*
G02*
X187146738Y-126250000I271738J0D01*
G01*
X187853262Y-126250000D01*
G75*
G02*
X188125000Y-126521738I0J-271738D01*
G01*
G37*
%TD*%
%TO.C,R17*%
G36*
G01*
X114850000Y-102478262D02*
X114850000Y-101521738D01*
G75*
G02*
X115121738Y-101250000I271738J0D01*
G01*
X115828262Y-101250000D01*
G75*
G02*
X116100000Y-101521738I0J-271738D01*
G01*
X116100000Y-102478262D01*
G75*
G02*
X115828262Y-102750000I-271738J0D01*
G01*
X115121738Y-102750000D01*
G75*
G02*
X114850000Y-102478262I0J271738D01*
G01*
G37*
G36*
G01*
X116900000Y-102478262D02*
X116900000Y-101521738D01*
G75*
G02*
X117171738Y-101250000I271738J0D01*
G01*
X117878262Y-101250000D01*
G75*
G02*
X118150000Y-101521738I0J-271738D01*
G01*
X118150000Y-102478262D01*
G75*
G02*
X117878262Y-102750000I-271738J0D01*
G01*
X117171738Y-102750000D01*
G75*
G02*
X116900000Y-102478262I0J271738D01*
G01*
G37*
%TD*%
%TO.C,R18*%
G36*
G01*
X116900000Y-86478262D02*
X116900000Y-85521738D01*
G75*
G02*
X117171738Y-85250000I271738J0D01*
G01*
X117878262Y-85250000D01*
G75*
G02*
X118150000Y-85521738I0J-271738D01*
G01*
X118150000Y-86478262D01*
G75*
G02*
X117878262Y-86750000I-271738J0D01*
G01*
X117171738Y-86750000D01*
G75*
G02*
X116900000Y-86478262I0J271738D01*
G01*
G37*
G36*
G01*
X114850000Y-86478262D02*
X114850000Y-85521738D01*
G75*
G02*
X115121738Y-85250000I271738J0D01*
G01*
X115828262Y-85250000D01*
G75*
G02*
X116100000Y-85521738I0J-271738D01*
G01*
X116100000Y-86478262D01*
G75*
G02*
X115828262Y-86750000I-271738J0D01*
G01*
X115121738Y-86750000D01*
G75*
G02*
X114850000Y-86478262I0J271738D01*
G01*
G37*
%TD*%
%TO.C,R19*%
G36*
G01*
X109900000Y-106478262D02*
X109900000Y-105521738D01*
G75*
G02*
X110171738Y-105250000I271738J0D01*
G01*
X110878262Y-105250000D01*
G75*
G02*
X111150000Y-105521738I0J-271738D01*
G01*
X111150000Y-106478262D01*
G75*
G02*
X110878262Y-106750000I-271738J0D01*
G01*
X110171738Y-106750000D01*
G75*
G02*
X109900000Y-106478262I0J271738D01*
G01*
G37*
G36*
G01*
X107850000Y-106478262D02*
X107850000Y-105521738D01*
G75*
G02*
X108121738Y-105250000I271738J0D01*
G01*
X108828262Y-105250000D01*
G75*
G02*
X109100000Y-105521738I0J-271738D01*
G01*
X109100000Y-106478262D01*
G75*
G02*
X108828262Y-106750000I-271738J0D01*
G01*
X108121738Y-106750000D01*
G75*
G02*
X107850000Y-106478262I0J271738D01*
G01*
G37*
%TD*%
%TO.C,R20*%
G36*
G01*
X107850000Y-90478262D02*
X107850000Y-89521738D01*
G75*
G02*
X108121738Y-89250000I271738J0D01*
G01*
X108828262Y-89250000D01*
G75*
G02*
X109100000Y-89521738I0J-271738D01*
G01*
X109100000Y-90478262D01*
G75*
G02*
X108828262Y-90750000I-271738J0D01*
G01*
X108121738Y-90750000D01*
G75*
G02*
X107850000Y-90478262I0J271738D01*
G01*
G37*
G36*
G01*
X109900000Y-90478262D02*
X109900000Y-89521738D01*
G75*
G02*
X110171738Y-89250000I271738J0D01*
G01*
X110878262Y-89250000D01*
G75*
G02*
X111150000Y-89521738I0J-271738D01*
G01*
X111150000Y-90478262D01*
G75*
G02*
X110878262Y-90750000I-271738J0D01*
G01*
X110171738Y-90750000D01*
G75*
G02*
X109900000Y-90478262I0J271738D01*
G01*
G37*
%TD*%
%TO.C,R21*%
G36*
G01*
X95350000Y-111478262D02*
X95350000Y-110521738D01*
G75*
G02*
X95621738Y-110250000I271738J0D01*
G01*
X96328262Y-110250000D01*
G75*
G02*
X96600000Y-110521738I0J-271738D01*
G01*
X96600000Y-111478262D01*
G75*
G02*
X96328262Y-111750000I-271738J0D01*
G01*
X95621738Y-111750000D01*
G75*
G02*
X95350000Y-111478262I0J271738D01*
G01*
G37*
G36*
G01*
X97400000Y-111478262D02*
X97400000Y-110521738D01*
G75*
G02*
X97671738Y-110250000I271738J0D01*
G01*
X98378262Y-110250000D01*
G75*
G02*
X98650000Y-110521738I0J-271738D01*
G01*
X98650000Y-111478262D01*
G75*
G02*
X98378262Y-111750000I-271738J0D01*
G01*
X97671738Y-111750000D01*
G75*
G02*
X97400000Y-111478262I0J271738D01*
G01*
G37*
%TD*%
%TO.C,R22*%
G36*
G01*
X97375000Y-103478262D02*
X97375000Y-102521738D01*
G75*
G02*
X97646738Y-102250000I271738J0D01*
G01*
X98353262Y-102250000D01*
G75*
G02*
X98625000Y-102521738I0J-271738D01*
G01*
X98625000Y-103478262D01*
G75*
G02*
X98353262Y-103750000I-271738J0D01*
G01*
X97646738Y-103750000D01*
G75*
G02*
X97375000Y-103478262I0J271738D01*
G01*
G37*
G36*
G01*
X95325000Y-103478262D02*
X95325000Y-102521738D01*
G75*
G02*
X95596738Y-102250000I271738J0D01*
G01*
X96303262Y-102250000D01*
G75*
G02*
X96575000Y-102521738I0J-271738D01*
G01*
X96575000Y-103478262D01*
G75*
G02*
X96303262Y-103750000I-271738J0D01*
G01*
X95596738Y-103750000D01*
G75*
G02*
X95325000Y-103478262I0J271738D01*
G01*
G37*
%TD*%
%TO.C,R23*%
G36*
G01*
X95325000Y-91978262D02*
X95325000Y-91021738D01*
G75*
G02*
X95596738Y-90750000I271738J0D01*
G01*
X96303262Y-90750000D01*
G75*
G02*
X96575000Y-91021738I0J-271738D01*
G01*
X96575000Y-91978262D01*
G75*
G02*
X96303262Y-92250000I-271738J0D01*
G01*
X95596738Y-92250000D01*
G75*
G02*
X95325000Y-91978262I0J271738D01*
G01*
G37*
G36*
G01*
X97375000Y-91978262D02*
X97375000Y-91021738D01*
G75*
G02*
X97646738Y-90750000I271738J0D01*
G01*
X98353262Y-90750000D01*
G75*
G02*
X98625000Y-91021738I0J-271738D01*
G01*
X98625000Y-91978262D01*
G75*
G02*
X98353262Y-92250000I-271738J0D01*
G01*
X97646738Y-92250000D01*
G75*
G02*
X97375000Y-91978262I0J271738D01*
G01*
G37*
%TD*%
%TO.C,R24*%
G36*
G01*
X97400000Y-83978262D02*
X97400000Y-83021738D01*
G75*
G02*
X97671738Y-82750000I271738J0D01*
G01*
X98378262Y-82750000D01*
G75*
G02*
X98650000Y-83021738I0J-271738D01*
G01*
X98650000Y-83978262D01*
G75*
G02*
X98378262Y-84250000I-271738J0D01*
G01*
X97671738Y-84250000D01*
G75*
G02*
X97400000Y-83978262I0J271738D01*
G01*
G37*
G36*
G01*
X95350000Y-83978262D02*
X95350000Y-83021738D01*
G75*
G02*
X95621738Y-82750000I271738J0D01*
G01*
X96328262Y-82750000D01*
G75*
G02*
X96600000Y-83021738I0J-271738D01*
G01*
X96600000Y-83978262D01*
G75*
G02*
X96328262Y-84250000I-271738J0D01*
G01*
X95621738Y-84250000D01*
G75*
G02*
X95350000Y-83978262I0J271738D01*
G01*
G37*
%TD*%
%TO.C,SW1*%
G36*
G01*
X133305000Y-131100000D02*
X133305000Y-132400000D01*
G75*
G02*
X133255000Y-132450000I-50000J0D01*
G01*
X131705000Y-132450000D01*
G75*
G02*
X131655000Y-132400000I0J50000D01*
G01*
X131655000Y-131100000D01*
G75*
G02*
X131705000Y-131050000I50000J0D01*
G01*
X133255000Y-131050000D01*
G75*
G02*
X133305000Y-131100000I0J-50000D01*
G01*
G37*
G36*
G01*
X133305000Y-135600000D02*
X133305000Y-136900000D01*
G75*
G02*
X133255000Y-136950000I-50000J0D01*
G01*
X131705000Y-136950000D01*
G75*
G02*
X131655000Y-136900000I0J50000D01*
G01*
X131655000Y-135600000D01*
G75*
G02*
X131705000Y-135550000I50000J0D01*
G01*
X133255000Y-135550000D01*
G75*
G02*
X133305000Y-135600000I0J-50000D01*
G01*
G37*
G36*
G01*
X125345000Y-135600000D02*
X125345000Y-136900000D01*
G75*
G02*
X125295000Y-136950000I-50000J0D01*
G01*
X123745000Y-136950000D01*
G75*
G02*
X123695000Y-136900000I0J50000D01*
G01*
X123695000Y-135600000D01*
G75*
G02*
X123745000Y-135550000I50000J0D01*
G01*
X125295000Y-135550000D01*
G75*
G02*
X125345000Y-135600000I0J-50000D01*
G01*
G37*
G36*
G01*
X125345000Y-131100000D02*
X125345000Y-132400000D01*
G75*
G02*
X125295000Y-132450000I-50000J0D01*
G01*
X123745000Y-132450000D01*
G75*
G02*
X123695000Y-132400000I0J50000D01*
G01*
X123695000Y-131100000D01*
G75*
G02*
X123745000Y-131050000I50000J0D01*
G01*
X125295000Y-131050000D01*
G75*
G02*
X125345000Y-131100000I0J-50000D01*
G01*
G37*
%TD*%
%TO.C,U2*%
G36*
G01*
X109769833Y-118962221D02*
X109380925Y-118573313D01*
G75*
G02*
X109380925Y-118502603I35355J35355D01*
G01*
X110441585Y-117441943D01*
G75*
G02*
X110512295Y-117441943I35355J-35355D01*
G01*
X110901203Y-117830851D01*
G75*
G02*
X110901203Y-117901561I-35355J-35355D01*
G01*
X109840543Y-118962221D01*
G75*
G02*
X109769833Y-118962221I-35355J35355D01*
G01*
G37*
G36*
G01*
X110335519Y-119527906D02*
X109946611Y-119138998D01*
G75*
G02*
X109946611Y-119068288I35355J35355D01*
G01*
X111007271Y-118007628D01*
G75*
G02*
X111077981Y-118007628I35355J-35355D01*
G01*
X111466889Y-118396536D01*
G75*
G02*
X111466889Y-118467246I-35355J-35355D01*
G01*
X110406229Y-119527906D01*
G75*
G02*
X110335519Y-119527906I-35355J35355D01*
G01*
G37*
G36*
G01*
X110901204Y-120093591D02*
X110512296Y-119704683D01*
G75*
G02*
X110512296Y-119633973I35355J35355D01*
G01*
X111572956Y-118573313D01*
G75*
G02*
X111643666Y-118573313I35355J-35355D01*
G01*
X112032574Y-118962221D01*
G75*
G02*
X112032574Y-119032931I-35355J-35355D01*
G01*
X110971914Y-120093591D01*
G75*
G02*
X110901204Y-120093591I-35355J35355D01*
G01*
G37*
G36*
G01*
X111466889Y-120659277D02*
X111077981Y-120270369D01*
G75*
G02*
X111077981Y-120199659I35355J35355D01*
G01*
X112138641Y-119138999D01*
G75*
G02*
X112209351Y-119138999I35355J-35355D01*
G01*
X112598259Y-119527907D01*
G75*
G02*
X112598259Y-119598617I-35355J-35355D01*
G01*
X111537599Y-120659277D01*
G75*
G02*
X111466889Y-120659277I-35355J35355D01*
G01*
G37*
G36*
G01*
X112032575Y-121224962D02*
X111643667Y-120836054D01*
G75*
G02*
X111643667Y-120765344I35355J35355D01*
G01*
X112704327Y-119704684D01*
G75*
G02*
X112775037Y-119704684I35355J-35355D01*
G01*
X113163945Y-120093592D01*
G75*
G02*
X113163945Y-120164302I-35355J-35355D01*
G01*
X112103285Y-121224962D01*
G75*
G02*
X112032575Y-121224962I-35355J35355D01*
G01*
G37*
G36*
G01*
X112598260Y-121790648D02*
X112209352Y-121401740D01*
G75*
G02*
X112209352Y-121331030I35355J35355D01*
G01*
X113270012Y-120270370D01*
G75*
G02*
X113340722Y-120270370I35355J-35355D01*
G01*
X113729630Y-120659278D01*
G75*
G02*
X113729630Y-120729988I-35355J-35355D01*
G01*
X112668970Y-121790648D01*
G75*
G02*
X112598260Y-121790648I-35355J35355D01*
G01*
G37*
G36*
G01*
X113163946Y-122356333D02*
X112775038Y-121967425D01*
G75*
G02*
X112775038Y-121896715I35355J35355D01*
G01*
X113835698Y-120836055D01*
G75*
G02*
X113906408Y-120836055I35355J-35355D01*
G01*
X114295316Y-121224963D01*
G75*
G02*
X114295316Y-121295673I-35355J-35355D01*
G01*
X113234656Y-122356333D01*
G75*
G02*
X113163946Y-122356333I-35355J35355D01*
G01*
G37*
G36*
G01*
X113729631Y-122922019D02*
X113340723Y-122533111D01*
G75*
G02*
X113340723Y-122462401I35355J35355D01*
G01*
X114401383Y-121401741D01*
G75*
G02*
X114472093Y-121401741I35355J-35355D01*
G01*
X114861001Y-121790649D01*
G75*
G02*
X114861001Y-121861359I-35355J-35355D01*
G01*
X113800341Y-122922019D01*
G75*
G02*
X113729631Y-122922019I-35355J35355D01*
G01*
G37*
G36*
G01*
X114295317Y-123487704D02*
X113906409Y-123098796D01*
G75*
G02*
X113906409Y-123028086I35355J35355D01*
G01*
X114967069Y-121967426D01*
G75*
G02*
X115037779Y-121967426I35355J-35355D01*
G01*
X115426687Y-122356334D01*
G75*
G02*
X115426687Y-122427044I-35355J-35355D01*
G01*
X114366027Y-123487704D01*
G75*
G02*
X114295317Y-123487704I-35355J35355D01*
G01*
G37*
G36*
G01*
X114861002Y-124053389D02*
X114472094Y-123664481D01*
G75*
G02*
X114472094Y-123593771I35355J35355D01*
G01*
X115532754Y-122533111D01*
G75*
G02*
X115603464Y-122533111I35355J-35355D01*
G01*
X115992372Y-122922019D01*
G75*
G02*
X115992372Y-122992729I-35355J-35355D01*
G01*
X114931712Y-124053389D01*
G75*
G02*
X114861002Y-124053389I-35355J35355D01*
G01*
G37*
G36*
G01*
X115426687Y-124619075D02*
X115037779Y-124230167D01*
G75*
G02*
X115037779Y-124159457I35355J35355D01*
G01*
X116098439Y-123098797D01*
G75*
G02*
X116169149Y-123098797I35355J-35355D01*
G01*
X116558057Y-123487705D01*
G75*
G02*
X116558057Y-123558415I-35355J-35355D01*
G01*
X115497397Y-124619075D01*
G75*
G02*
X115426687Y-124619075I-35355J35355D01*
G01*
G37*
G36*
G01*
X118962221Y-124230167D02*
X118573313Y-124619075D01*
G75*
G02*
X118502603Y-124619075I-35355J35355D01*
G01*
X117441943Y-123558415D01*
G75*
G02*
X117441943Y-123487705I35355J35355D01*
G01*
X117830851Y-123098797D01*
G75*
G02*
X117901561Y-123098797I35355J-35355D01*
G01*
X118962221Y-124159457D01*
G75*
G02*
X118962221Y-124230167I-35355J-35355D01*
G01*
G37*
G36*
G01*
X119527906Y-123664481D02*
X119138998Y-124053389D01*
G75*
G02*
X119068288Y-124053389I-35355J35355D01*
G01*
X118007628Y-122992729D01*
G75*
G02*
X118007628Y-122922019I35355J35355D01*
G01*
X118396536Y-122533111D01*
G75*
G02*
X118467246Y-122533111I35355J-35355D01*
G01*
X119527906Y-123593771D01*
G75*
G02*
X119527906Y-123664481I-35355J-35355D01*
G01*
G37*
G36*
G01*
X120093591Y-123098796D02*
X119704683Y-123487704D01*
G75*
G02*
X119633973Y-123487704I-35355J35355D01*
G01*
X118573313Y-122427044D01*
G75*
G02*
X118573313Y-122356334I35355J35355D01*
G01*
X118962221Y-121967426D01*
G75*
G02*
X119032931Y-121967426I35355J-35355D01*
G01*
X120093591Y-123028086D01*
G75*
G02*
X120093591Y-123098796I-35355J-35355D01*
G01*
G37*
G36*
G01*
X120659277Y-122533111D02*
X120270369Y-122922019D01*
G75*
G02*
X120199659Y-122922019I-35355J35355D01*
G01*
X119138999Y-121861359D01*
G75*
G02*
X119138999Y-121790649I35355J35355D01*
G01*
X119527907Y-121401741D01*
G75*
G02*
X119598617Y-121401741I35355J-35355D01*
G01*
X120659277Y-122462401D01*
G75*
G02*
X120659277Y-122533111I-35355J-35355D01*
G01*
G37*
G36*
G01*
X121224962Y-121967425D02*
X120836054Y-122356333D01*
G75*
G02*
X120765344Y-122356333I-35355J35355D01*
G01*
X119704684Y-121295673D01*
G75*
G02*
X119704684Y-121224963I35355J35355D01*
G01*
X120093592Y-120836055D01*
G75*
G02*
X120164302Y-120836055I35355J-35355D01*
G01*
X121224962Y-121896715D01*
G75*
G02*
X121224962Y-121967425I-35355J-35355D01*
G01*
G37*
G36*
G01*
X121790648Y-121401740D02*
X121401740Y-121790648D01*
G75*
G02*
X121331030Y-121790648I-35355J35355D01*
G01*
X120270370Y-120729988D01*
G75*
G02*
X120270370Y-120659278I35355J35355D01*
G01*
X120659278Y-120270370D01*
G75*
G02*
X120729988Y-120270370I35355J-35355D01*
G01*
X121790648Y-121331030D01*
G75*
G02*
X121790648Y-121401740I-35355J-35355D01*
G01*
G37*
G36*
G01*
X122356333Y-120836054D02*
X121967425Y-121224962D01*
G75*
G02*
X121896715Y-121224962I-35355J35355D01*
G01*
X120836055Y-120164302D01*
G75*
G02*
X120836055Y-120093592I35355J35355D01*
G01*
X121224963Y-119704684D01*
G75*
G02*
X121295673Y-119704684I35355J-35355D01*
G01*
X122356333Y-120765344D01*
G75*
G02*
X122356333Y-120836054I-35355J-35355D01*
G01*
G37*
G36*
G01*
X122922019Y-120270369D02*
X122533111Y-120659277D01*
G75*
G02*
X122462401Y-120659277I-35355J35355D01*
G01*
X121401741Y-119598617D01*
G75*
G02*
X121401741Y-119527907I35355J35355D01*
G01*
X121790649Y-119138999D01*
G75*
G02*
X121861359Y-119138999I35355J-35355D01*
G01*
X122922019Y-120199659D01*
G75*
G02*
X122922019Y-120270369I-35355J-35355D01*
G01*
G37*
G36*
G01*
X123487704Y-119704683D02*
X123098796Y-120093591D01*
G75*
G02*
X123028086Y-120093591I-35355J35355D01*
G01*
X121967426Y-119032931D01*
G75*
G02*
X121967426Y-118962221I35355J35355D01*
G01*
X122356334Y-118573313D01*
G75*
G02*
X122427044Y-118573313I35355J-35355D01*
G01*
X123487704Y-119633973D01*
G75*
G02*
X123487704Y-119704683I-35355J-35355D01*
G01*
G37*
G36*
G01*
X124053389Y-119138998D02*
X123664481Y-119527906D01*
G75*
G02*
X123593771Y-119527906I-35355J35355D01*
G01*
X122533111Y-118467246D01*
G75*
G02*
X122533111Y-118396536I35355J35355D01*
G01*
X122922019Y-118007628D01*
G75*
G02*
X122992729Y-118007628I35355J-35355D01*
G01*
X124053389Y-119068288D01*
G75*
G02*
X124053389Y-119138998I-35355J-35355D01*
G01*
G37*
G36*
G01*
X124619075Y-118573313D02*
X124230167Y-118962221D01*
G75*
G02*
X124159457Y-118962221I-35355J35355D01*
G01*
X123098797Y-117901561D01*
G75*
G02*
X123098797Y-117830851I35355J35355D01*
G01*
X123487705Y-117441943D01*
G75*
G02*
X123558415Y-117441943I35355J-35355D01*
G01*
X124619075Y-118502603D01*
G75*
G02*
X124619075Y-118573313I-35355J-35355D01*
G01*
G37*
G36*
G01*
X123487705Y-116558057D02*
X123098797Y-116169149D01*
G75*
G02*
X123098797Y-116098439I35355J35355D01*
G01*
X124159457Y-115037779D01*
G75*
G02*
X124230167Y-115037779I35355J-35355D01*
G01*
X124619075Y-115426687D01*
G75*
G02*
X124619075Y-115497397I-35355J-35355D01*
G01*
X123558415Y-116558057D01*
G75*
G02*
X123487705Y-116558057I-35355J35355D01*
G01*
G37*
G36*
G01*
X122922019Y-115992372D02*
X122533111Y-115603464D01*
G75*
G02*
X122533111Y-115532754I35355J35355D01*
G01*
X123593771Y-114472094D01*
G75*
G02*
X123664481Y-114472094I35355J-35355D01*
G01*
X124053389Y-114861002D01*
G75*
G02*
X124053389Y-114931712I-35355J-35355D01*
G01*
X122992729Y-115992372D01*
G75*
G02*
X122922019Y-115992372I-35355J35355D01*
G01*
G37*
G36*
G01*
X122356334Y-115426687D02*
X121967426Y-115037779D01*
G75*
G02*
X121967426Y-114967069I35355J35355D01*
G01*
X123028086Y-113906409D01*
G75*
G02*
X123098796Y-113906409I35355J-35355D01*
G01*
X123487704Y-114295317D01*
G75*
G02*
X123487704Y-114366027I-35355J-35355D01*
G01*
X122427044Y-115426687D01*
G75*
G02*
X122356334Y-115426687I-35355J35355D01*
G01*
G37*
G36*
G01*
X121790649Y-114861001D02*
X121401741Y-114472093D01*
G75*
G02*
X121401741Y-114401383I35355J35355D01*
G01*
X122462401Y-113340723D01*
G75*
G02*
X122533111Y-113340723I35355J-35355D01*
G01*
X122922019Y-113729631D01*
G75*
G02*
X122922019Y-113800341I-35355J-35355D01*
G01*
X121861359Y-114861001D01*
G75*
G02*
X121790649Y-114861001I-35355J35355D01*
G01*
G37*
G36*
G01*
X121224963Y-114295316D02*
X120836055Y-113906408D01*
G75*
G02*
X120836055Y-113835698I35355J35355D01*
G01*
X121896715Y-112775038D01*
G75*
G02*
X121967425Y-112775038I35355J-35355D01*
G01*
X122356333Y-113163946D01*
G75*
G02*
X122356333Y-113234656I-35355J-35355D01*
G01*
X121295673Y-114295316D01*
G75*
G02*
X121224963Y-114295316I-35355J35355D01*
G01*
G37*
G36*
G01*
X120659278Y-113729630D02*
X120270370Y-113340722D01*
G75*
G02*
X120270370Y-113270012I35355J35355D01*
G01*
X121331030Y-112209352D01*
G75*
G02*
X121401740Y-112209352I35355J-35355D01*
G01*
X121790648Y-112598260D01*
G75*
G02*
X121790648Y-112668970I-35355J-35355D01*
G01*
X120729988Y-113729630D01*
G75*
G02*
X120659278Y-113729630I-35355J35355D01*
G01*
G37*
G36*
G01*
X120093592Y-113163945D02*
X119704684Y-112775037D01*
G75*
G02*
X119704684Y-112704327I35355J35355D01*
G01*
X120765344Y-111643667D01*
G75*
G02*
X120836054Y-111643667I35355J-35355D01*
G01*
X121224962Y-112032575D01*
G75*
G02*
X121224962Y-112103285I-35355J-35355D01*
G01*
X120164302Y-113163945D01*
G75*
G02*
X120093592Y-113163945I-35355J35355D01*
G01*
G37*
G36*
G01*
X119527907Y-112598259D02*
X119138999Y-112209351D01*
G75*
G02*
X119138999Y-112138641I35355J35355D01*
G01*
X120199659Y-111077981D01*
G75*
G02*
X120270369Y-111077981I35355J-35355D01*
G01*
X120659277Y-111466889D01*
G75*
G02*
X120659277Y-111537599I-35355J-35355D01*
G01*
X119598617Y-112598259D01*
G75*
G02*
X119527907Y-112598259I-35355J35355D01*
G01*
G37*
G36*
G01*
X118962221Y-112032574D02*
X118573313Y-111643666D01*
G75*
G02*
X118573313Y-111572956I35355J35355D01*
G01*
X119633973Y-110512296D01*
G75*
G02*
X119704683Y-110512296I35355J-35355D01*
G01*
X120093591Y-110901204D01*
G75*
G02*
X120093591Y-110971914I-35355J-35355D01*
G01*
X119032931Y-112032574D01*
G75*
G02*
X118962221Y-112032574I-35355J35355D01*
G01*
G37*
G36*
G01*
X118396536Y-111466889D02*
X118007628Y-111077981D01*
G75*
G02*
X118007628Y-111007271I35355J35355D01*
G01*
X119068288Y-109946611D01*
G75*
G02*
X119138998Y-109946611I35355J-35355D01*
G01*
X119527906Y-110335519D01*
G75*
G02*
X119527906Y-110406229I-35355J-35355D01*
G01*
X118467246Y-111466889D01*
G75*
G02*
X118396536Y-111466889I-35355J35355D01*
G01*
G37*
G36*
G01*
X117830851Y-110901203D02*
X117441943Y-110512295D01*
G75*
G02*
X117441943Y-110441585I35355J35355D01*
G01*
X118502603Y-109380925D01*
G75*
G02*
X118573313Y-109380925I35355J-35355D01*
G01*
X118962221Y-109769833D01*
G75*
G02*
X118962221Y-109840543I-35355J-35355D01*
G01*
X117901561Y-110901203D01*
G75*
G02*
X117830851Y-110901203I-35355J35355D01*
G01*
G37*
G36*
G01*
X116558057Y-110512295D02*
X116169149Y-110901203D01*
G75*
G02*
X116098439Y-110901203I-35355J35355D01*
G01*
X115037779Y-109840543D01*
G75*
G02*
X115037779Y-109769833I35355J35355D01*
G01*
X115426687Y-109380925D01*
G75*
G02*
X115497397Y-109380925I35355J-35355D01*
G01*
X116558057Y-110441585D01*
G75*
G02*
X116558057Y-110512295I-35355J-35355D01*
G01*
G37*
G36*
G01*
X115992372Y-111077981D02*
X115603464Y-111466889D01*
G75*
G02*
X115532754Y-111466889I-35355J35355D01*
G01*
X114472094Y-110406229D01*
G75*
G02*
X114472094Y-110335519I35355J35355D01*
G01*
X114861002Y-109946611D01*
G75*
G02*
X114931712Y-109946611I35355J-35355D01*
G01*
X115992372Y-111007271D01*
G75*
G02*
X115992372Y-111077981I-35355J-35355D01*
G01*
G37*
G36*
G01*
X115426687Y-111643666D02*
X115037779Y-112032574D01*
G75*
G02*
X114967069Y-112032574I-35355J35355D01*
G01*
X113906409Y-110971914D01*
G75*
G02*
X113906409Y-110901204I35355J35355D01*
G01*
X114295317Y-110512296D01*
G75*
G02*
X114366027Y-110512296I35355J-35355D01*
G01*
X115426687Y-111572956D01*
G75*
G02*
X115426687Y-111643666I-35355J-35355D01*
G01*
G37*
G36*
G01*
X114861001Y-112209351D02*
X114472093Y-112598259D01*
G75*
G02*
X114401383Y-112598259I-35355J35355D01*
G01*
X113340723Y-111537599D01*
G75*
G02*
X113340723Y-111466889I35355J35355D01*
G01*
X113729631Y-111077981D01*
G75*
G02*
X113800341Y-111077981I35355J-35355D01*
G01*
X114861001Y-112138641D01*
G75*
G02*
X114861001Y-112209351I-35355J-35355D01*
G01*
G37*
G36*
G01*
X114295316Y-112775037D02*
X113906408Y-113163945D01*
G75*
G02*
X113835698Y-113163945I-35355J35355D01*
G01*
X112775038Y-112103285D01*
G75*
G02*
X112775038Y-112032575I35355J35355D01*
G01*
X113163946Y-111643667D01*
G75*
G02*
X113234656Y-111643667I35355J-35355D01*
G01*
X114295316Y-112704327D01*
G75*
G02*
X114295316Y-112775037I-35355J-35355D01*
G01*
G37*
G36*
G01*
X113729630Y-113340722D02*
X113340722Y-113729630D01*
G75*
G02*
X113270012Y-113729630I-35355J35355D01*
G01*
X112209352Y-112668970D01*
G75*
G02*
X112209352Y-112598260I35355J35355D01*
G01*
X112598260Y-112209352D01*
G75*
G02*
X112668970Y-112209352I35355J-35355D01*
G01*
X113729630Y-113270012D01*
G75*
G02*
X113729630Y-113340722I-35355J-35355D01*
G01*
G37*
G36*
G01*
X113163945Y-113906408D02*
X112775037Y-114295316D01*
G75*
G02*
X112704327Y-114295316I-35355J35355D01*
G01*
X111643667Y-113234656D01*
G75*
G02*
X111643667Y-113163946I35355J35355D01*
G01*
X112032575Y-112775038D01*
G75*
G02*
X112103285Y-112775038I35355J-35355D01*
G01*
X113163945Y-113835698D01*
G75*
G02*
X113163945Y-113906408I-35355J-35355D01*
G01*
G37*
G36*
G01*
X112598259Y-114472093D02*
X112209351Y-114861001D01*
G75*
G02*
X112138641Y-114861001I-35355J35355D01*
G01*
X111077981Y-113800341D01*
G75*
G02*
X111077981Y-113729631I35355J35355D01*
G01*
X111466889Y-113340723D01*
G75*
G02*
X111537599Y-113340723I35355J-35355D01*
G01*
X112598259Y-114401383D01*
G75*
G02*
X112598259Y-114472093I-35355J-35355D01*
G01*
G37*
G36*
G01*
X112032574Y-115037779D02*
X111643666Y-115426687D01*
G75*
G02*
X111572956Y-115426687I-35355J35355D01*
G01*
X110512296Y-114366027D01*
G75*
G02*
X110512296Y-114295317I35355J35355D01*
G01*
X110901204Y-113906409D01*
G75*
G02*
X110971914Y-113906409I35355J-35355D01*
G01*
X112032574Y-114967069D01*
G75*
G02*
X112032574Y-115037779I-35355J-35355D01*
G01*
G37*
G36*
G01*
X111466889Y-115603464D02*
X111077981Y-115992372D01*
G75*
G02*
X111007271Y-115992372I-35355J35355D01*
G01*
X109946611Y-114931712D01*
G75*
G02*
X109946611Y-114861002I35355J35355D01*
G01*
X110335519Y-114472094D01*
G75*
G02*
X110406229Y-114472094I35355J-35355D01*
G01*
X111466889Y-115532754D01*
G75*
G02*
X111466889Y-115603464I-35355J-35355D01*
G01*
G37*
G36*
G01*
X110901203Y-116169149D02*
X110512295Y-116558057D01*
G75*
G02*
X110441585Y-116558057I-35355J35355D01*
G01*
X109380925Y-115497397D01*
G75*
G02*
X109380925Y-115426687I35355J35355D01*
G01*
X109769833Y-115037779D01*
G75*
G02*
X109840543Y-115037779I35355J-35355D01*
G01*
X110901203Y-116098439D01*
G75*
G02*
X110901203Y-116169149I-35355J-35355D01*
G01*
G37*
%TD*%
%TO.C,U4*%
G36*
G01*
X141000000Y-102770000D02*
X141000000Y-103120000D01*
G75*
G02*
X140825000Y-103295000I-175000J0D01*
G01*
X139125000Y-103295000D01*
G75*
G02*
X138950000Y-103120000I0J175000D01*
G01*
X138950000Y-102770000D01*
G75*
G02*
X139125000Y-102595000I175000J0D01*
G01*
X140825000Y-102595000D01*
G75*
G02*
X141000000Y-102770000I0J-175000D01*
G01*
G37*
G36*
G01*
X141000000Y-101500000D02*
X141000000Y-101850000D01*
G75*
G02*
X140825000Y-102025000I-175000J0D01*
G01*
X139125000Y-102025000D01*
G75*
G02*
X138950000Y-101850000I0J175000D01*
G01*
X138950000Y-101500000D01*
G75*
G02*
X139125000Y-101325000I175000J0D01*
G01*
X140825000Y-101325000D01*
G75*
G02*
X141000000Y-101500000I0J-175000D01*
G01*
G37*
G36*
G01*
X141000000Y-100230000D02*
X141000000Y-100580000D01*
G75*
G02*
X140825000Y-100755000I-175000J0D01*
G01*
X139125000Y-100755000D01*
G75*
G02*
X138950000Y-100580000I0J175000D01*
G01*
X138950000Y-100230000D01*
G75*
G02*
X139125000Y-100055000I175000J0D01*
G01*
X140825000Y-100055000D01*
G75*
G02*
X141000000Y-100230000I0J-175000D01*
G01*
G37*
G36*
G01*
X141000000Y-98960000D02*
X141000000Y-99310000D01*
G75*
G02*
X140825000Y-99485000I-175000J0D01*
G01*
X139125000Y-99485000D01*
G75*
G02*
X138950000Y-99310000I0J175000D01*
G01*
X138950000Y-98960000D01*
G75*
G02*
X139125000Y-98785000I175000J0D01*
G01*
X140825000Y-98785000D01*
G75*
G02*
X141000000Y-98960000I0J-175000D01*
G01*
G37*
G36*
G01*
X141000000Y-97690000D02*
X141000000Y-98040000D01*
G75*
G02*
X140825000Y-98215000I-175000J0D01*
G01*
X139125000Y-98215000D01*
G75*
G02*
X138950000Y-98040000I0J175000D01*
G01*
X138950000Y-97690000D01*
G75*
G02*
X139125000Y-97515000I175000J0D01*
G01*
X140825000Y-97515000D01*
G75*
G02*
X141000000Y-97690000I0J-175000D01*
G01*
G37*
G36*
G01*
X141000000Y-96420000D02*
X141000000Y-96770000D01*
G75*
G02*
X140825000Y-96945000I-175000J0D01*
G01*
X139125000Y-96945000D01*
G75*
G02*
X138950000Y-96770000I0J175000D01*
G01*
X138950000Y-96420000D01*
G75*
G02*
X139125000Y-96245000I175000J0D01*
G01*
X140825000Y-96245000D01*
G75*
G02*
X141000000Y-96420000I0J-175000D01*
G01*
G37*
G36*
G01*
X141000000Y-95150000D02*
X141000000Y-95500000D01*
G75*
G02*
X140825000Y-95675000I-175000J0D01*
G01*
X139125000Y-95675000D01*
G75*
G02*
X138950000Y-95500000I0J175000D01*
G01*
X138950000Y-95150000D01*
G75*
G02*
X139125000Y-94975000I175000J0D01*
G01*
X140825000Y-94975000D01*
G75*
G02*
X141000000Y-95150000I0J-175000D01*
G01*
G37*
G36*
G01*
X141000000Y-93880000D02*
X141000000Y-94230000D01*
G75*
G02*
X140825000Y-94405000I-175000J0D01*
G01*
X139125000Y-94405000D01*
G75*
G02*
X138950000Y-94230000I0J175000D01*
G01*
X138950000Y-93880000D01*
G75*
G02*
X139125000Y-93705000I175000J0D01*
G01*
X140825000Y-93705000D01*
G75*
G02*
X141000000Y-93880000I0J-175000D01*
G01*
G37*
G36*
G01*
X136050000Y-93880000D02*
X136050000Y-94230000D01*
G75*
G02*
X135875000Y-94405000I-175000J0D01*
G01*
X134175000Y-94405000D01*
G75*
G02*
X134000000Y-94230000I0J175000D01*
G01*
X134000000Y-93880000D01*
G75*
G02*
X134175000Y-93705000I175000J0D01*
G01*
X135875000Y-93705000D01*
G75*
G02*
X136050000Y-93880000I0J-175000D01*
G01*
G37*
G36*
G01*
X136050000Y-95150000D02*
X136050000Y-95500000D01*
G75*
G02*
X135875000Y-95675000I-175000J0D01*
G01*
X134175000Y-95675000D01*
G75*
G02*
X134000000Y-95500000I0J175000D01*
G01*
X134000000Y-95150000D01*
G75*
G02*
X134175000Y-94975000I175000J0D01*
G01*
X135875000Y-94975000D01*
G75*
G02*
X136050000Y-95150000I0J-175000D01*
G01*
G37*
G36*
G01*
X136050000Y-96420000D02*
X136050000Y-96770000D01*
G75*
G02*
X135875000Y-96945000I-175000J0D01*
G01*
X134175000Y-96945000D01*
G75*
G02*
X134000000Y-96770000I0J175000D01*
G01*
X134000000Y-96420000D01*
G75*
G02*
X134175000Y-96245000I175000J0D01*
G01*
X135875000Y-96245000D01*
G75*
G02*
X136050000Y-96420000I0J-175000D01*
G01*
G37*
G36*
G01*
X136050000Y-97690000D02*
X136050000Y-98040000D01*
G75*
G02*
X135875000Y-98215000I-175000J0D01*
G01*
X134175000Y-98215000D01*
G75*
G02*
X134000000Y-98040000I0J175000D01*
G01*
X134000000Y-97690000D01*
G75*
G02*
X134175000Y-97515000I175000J0D01*
G01*
X135875000Y-97515000D01*
G75*
G02*
X136050000Y-97690000I0J-175000D01*
G01*
G37*
G36*
G01*
X136050000Y-98960000D02*
X136050000Y-99310000D01*
G75*
G02*
X135875000Y-99485000I-175000J0D01*
G01*
X134175000Y-99485000D01*
G75*
G02*
X134000000Y-99310000I0J175000D01*
G01*
X134000000Y-98960000D01*
G75*
G02*
X134175000Y-98785000I175000J0D01*
G01*
X135875000Y-98785000D01*
G75*
G02*
X136050000Y-98960000I0J-175000D01*
G01*
G37*
G36*
G01*
X136050000Y-100230000D02*
X136050000Y-100580000D01*
G75*
G02*
X135875000Y-100755000I-175000J0D01*
G01*
X134175000Y-100755000D01*
G75*
G02*
X134000000Y-100580000I0J175000D01*
G01*
X134000000Y-100230000D01*
G75*
G02*
X134175000Y-100055000I175000J0D01*
G01*
X135875000Y-100055000D01*
G75*
G02*
X136050000Y-100230000I0J-175000D01*
G01*
G37*
G36*
G01*
X136050000Y-101500000D02*
X136050000Y-101850000D01*
G75*
G02*
X135875000Y-102025000I-175000J0D01*
G01*
X134175000Y-102025000D01*
G75*
G02*
X134000000Y-101850000I0J175000D01*
G01*
X134000000Y-101500000D01*
G75*
G02*
X134175000Y-101325000I175000J0D01*
G01*
X135875000Y-101325000D01*
G75*
G02*
X136050000Y-101500000I0J-175000D01*
G01*
G37*
G36*
G01*
X136050000Y-102770000D02*
X136050000Y-103120000D01*
G75*
G02*
X135875000Y-103295000I-175000J0D01*
G01*
X134175000Y-103295000D01*
G75*
G02*
X134000000Y-103120000I0J175000D01*
G01*
X134000000Y-102770000D01*
G75*
G02*
X134175000Y-102595000I175000J0D01*
G01*
X135875000Y-102595000D01*
G75*
G02*
X136050000Y-102770000I0J-175000D01*
G01*
G37*
%TD*%
%TO.C,U6*%
G36*
G01*
X113000000Y-102730000D02*
X113000000Y-103080000D01*
G75*
G02*
X112825000Y-103255000I-175000J0D01*
G01*
X111125000Y-103255000D01*
G75*
G02*
X110950000Y-103080000I0J175000D01*
G01*
X110950000Y-102730000D01*
G75*
G02*
X111125000Y-102555000I175000J0D01*
G01*
X112825000Y-102555000D01*
G75*
G02*
X113000000Y-102730000I0J-175000D01*
G01*
G37*
G36*
G01*
X113000000Y-101460000D02*
X113000000Y-101810000D01*
G75*
G02*
X112825000Y-101985000I-175000J0D01*
G01*
X111125000Y-101985000D01*
G75*
G02*
X110950000Y-101810000I0J175000D01*
G01*
X110950000Y-101460000D01*
G75*
G02*
X111125000Y-101285000I175000J0D01*
G01*
X112825000Y-101285000D01*
G75*
G02*
X113000000Y-101460000I0J-175000D01*
G01*
G37*
G36*
G01*
X113000000Y-100190000D02*
X113000000Y-100540000D01*
G75*
G02*
X112825000Y-100715000I-175000J0D01*
G01*
X111125000Y-100715000D01*
G75*
G02*
X110950000Y-100540000I0J175000D01*
G01*
X110950000Y-100190000D01*
G75*
G02*
X111125000Y-100015000I175000J0D01*
G01*
X112825000Y-100015000D01*
G75*
G02*
X113000000Y-100190000I0J-175000D01*
G01*
G37*
G36*
G01*
X113000000Y-98920000D02*
X113000000Y-99270000D01*
G75*
G02*
X112825000Y-99445000I-175000J0D01*
G01*
X111125000Y-99445000D01*
G75*
G02*
X110950000Y-99270000I0J175000D01*
G01*
X110950000Y-98920000D01*
G75*
G02*
X111125000Y-98745000I175000J0D01*
G01*
X112825000Y-98745000D01*
G75*
G02*
X113000000Y-98920000I0J-175000D01*
G01*
G37*
G36*
G01*
X108050000Y-98920000D02*
X108050000Y-99270000D01*
G75*
G02*
X107875000Y-99445000I-175000J0D01*
G01*
X106175000Y-99445000D01*
G75*
G02*
X106000000Y-99270000I0J175000D01*
G01*
X106000000Y-98920000D01*
G75*
G02*
X106175000Y-98745000I175000J0D01*
G01*
X107875000Y-98745000D01*
G75*
G02*
X108050000Y-98920000I0J-175000D01*
G01*
G37*
G36*
G01*
X108050000Y-100190000D02*
X108050000Y-100540000D01*
G75*
G02*
X107875000Y-100715000I-175000J0D01*
G01*
X106175000Y-100715000D01*
G75*
G02*
X106000000Y-100540000I0J175000D01*
G01*
X106000000Y-100190000D01*
G75*
G02*
X106175000Y-100015000I175000J0D01*
G01*
X107875000Y-100015000D01*
G75*
G02*
X108050000Y-100190000I0J-175000D01*
G01*
G37*
G36*
G01*
X108050000Y-101460000D02*
X108050000Y-101810000D01*
G75*
G02*
X107875000Y-101985000I-175000J0D01*
G01*
X106175000Y-101985000D01*
G75*
G02*
X106000000Y-101810000I0J175000D01*
G01*
X106000000Y-101460000D01*
G75*
G02*
X106175000Y-101285000I175000J0D01*
G01*
X107875000Y-101285000D01*
G75*
G02*
X108050000Y-101460000I0J-175000D01*
G01*
G37*
G36*
G01*
X108050000Y-102730000D02*
X108050000Y-103080000D01*
G75*
G02*
X107875000Y-103255000I-175000J0D01*
G01*
X106175000Y-103255000D01*
G75*
G02*
X106000000Y-103080000I0J175000D01*
G01*
X106000000Y-102730000D01*
G75*
G02*
X106175000Y-102555000I175000J0D01*
G01*
X107875000Y-102555000D01*
G75*
G02*
X108050000Y-102730000I0J-175000D01*
G01*
G37*
%TD*%
%TO.C,U7*%
G36*
G01*
X108050000Y-86730000D02*
X108050000Y-87080000D01*
G75*
G02*
X107875000Y-87255000I-175000J0D01*
G01*
X106175000Y-87255000D01*
G75*
G02*
X106000000Y-87080000I0J175000D01*
G01*
X106000000Y-86730000D01*
G75*
G02*
X106175000Y-86555000I175000J0D01*
G01*
X107875000Y-86555000D01*
G75*
G02*
X108050000Y-86730000I0J-175000D01*
G01*
G37*
G36*
G01*
X108050000Y-85460000D02*
X108050000Y-85810000D01*
G75*
G02*
X107875000Y-85985000I-175000J0D01*
G01*
X106175000Y-85985000D01*
G75*
G02*
X106000000Y-85810000I0J175000D01*
G01*
X106000000Y-85460000D01*
G75*
G02*
X106175000Y-85285000I175000J0D01*
G01*
X107875000Y-85285000D01*
G75*
G02*
X108050000Y-85460000I0J-175000D01*
G01*
G37*
G36*
G01*
X108050000Y-84190000D02*
X108050000Y-84540000D01*
G75*
G02*
X107875000Y-84715000I-175000J0D01*
G01*
X106175000Y-84715000D01*
G75*
G02*
X106000000Y-84540000I0J175000D01*
G01*
X106000000Y-84190000D01*
G75*
G02*
X106175000Y-84015000I175000J0D01*
G01*
X107875000Y-84015000D01*
G75*
G02*
X108050000Y-84190000I0J-175000D01*
G01*
G37*
G36*
G01*
X108050000Y-82920000D02*
X108050000Y-83270000D01*
G75*
G02*
X107875000Y-83445000I-175000J0D01*
G01*
X106175000Y-83445000D01*
G75*
G02*
X106000000Y-83270000I0J175000D01*
G01*
X106000000Y-82920000D01*
G75*
G02*
X106175000Y-82745000I175000J0D01*
G01*
X107875000Y-82745000D01*
G75*
G02*
X108050000Y-82920000I0J-175000D01*
G01*
G37*
G36*
G01*
X113000000Y-82920000D02*
X113000000Y-83270000D01*
G75*
G02*
X112825000Y-83445000I-175000J0D01*
G01*
X111125000Y-83445000D01*
G75*
G02*
X110950000Y-83270000I0J175000D01*
G01*
X110950000Y-82920000D01*
G75*
G02*
X111125000Y-82745000I175000J0D01*
G01*
X112825000Y-82745000D01*
G75*
G02*
X113000000Y-82920000I0J-175000D01*
G01*
G37*
G36*
G01*
X113000000Y-84190000D02*
X113000000Y-84540000D01*
G75*
G02*
X112825000Y-84715000I-175000J0D01*
G01*
X111125000Y-84715000D01*
G75*
G02*
X110950000Y-84540000I0J175000D01*
G01*
X110950000Y-84190000D01*
G75*
G02*
X111125000Y-84015000I175000J0D01*
G01*
X112825000Y-84015000D01*
G75*
G02*
X113000000Y-84190000I0J-175000D01*
G01*
G37*
G36*
G01*
X113000000Y-85460000D02*
X113000000Y-85810000D01*
G75*
G02*
X112825000Y-85985000I-175000J0D01*
G01*
X111125000Y-85985000D01*
G75*
G02*
X110950000Y-85810000I0J175000D01*
G01*
X110950000Y-85460000D01*
G75*
G02*
X111125000Y-85285000I175000J0D01*
G01*
X112825000Y-85285000D01*
G75*
G02*
X113000000Y-85460000I0J-175000D01*
G01*
G37*
G36*
G01*
X113000000Y-86730000D02*
X113000000Y-87080000D01*
G75*
G02*
X112825000Y-87255000I-175000J0D01*
G01*
X111125000Y-87255000D01*
G75*
G02*
X110950000Y-87080000I0J175000D01*
G01*
X110950000Y-86730000D01*
G75*
G02*
X111125000Y-86555000I175000J0D01*
G01*
X112825000Y-86555000D01*
G75*
G02*
X113000000Y-86730000I0J-175000D01*
G01*
G37*
%TD*%
%TO.C,C5*%
G36*
G01*
X162600000Y-134021738D02*
X162600000Y-134978262D01*
G75*
G02*
X162328262Y-135250000I-271738J0D01*
G01*
X161621738Y-135250000D01*
G75*
G02*
X161350000Y-134978262I0J271738D01*
G01*
X161350000Y-134021738D01*
G75*
G02*
X161621738Y-133750000I271738J0D01*
G01*
X162328262Y-133750000D01*
G75*
G02*
X162600000Y-134021738I0J-271738D01*
G01*
G37*
G36*
G01*
X164650000Y-134021738D02*
X164650000Y-134978262D01*
G75*
G02*
X164378262Y-135250000I-271738J0D01*
G01*
X163671738Y-135250000D01*
G75*
G02*
X163400000Y-134978262I0J271738D01*
G01*
X163400000Y-134021738D01*
G75*
G02*
X163671738Y-133750000I271738J0D01*
G01*
X164378262Y-133750000D01*
G75*
G02*
X164650000Y-134021738I0J-271738D01*
G01*
G37*
%TD*%
%TO.C,C7*%
G36*
G01*
X162728262Y-130600000D02*
X161771738Y-130600000D01*
G75*
G02*
X161500000Y-130328262I0J271738D01*
G01*
X161500000Y-129621738D01*
G75*
G02*
X161771738Y-129350000I271738J0D01*
G01*
X162728262Y-129350000D01*
G75*
G02*
X163000000Y-129621738I0J-271738D01*
G01*
X163000000Y-130328262D01*
G75*
G02*
X162728262Y-130600000I-271738J0D01*
G01*
G37*
G36*
G01*
X162728262Y-132650000D02*
X161771738Y-132650000D01*
G75*
G02*
X161500000Y-132378262I0J271738D01*
G01*
X161500000Y-131671738D01*
G75*
G02*
X161771738Y-131400000I271738J0D01*
G01*
X162728262Y-131400000D01*
G75*
G02*
X163000000Y-131671738I0J-271738D01*
G01*
X163000000Y-132378262D01*
G75*
G02*
X162728262Y-132650000I-271738J0D01*
G01*
G37*
%TD*%
%TO.C,C11*%
G36*
G01*
X172750000Y-117342543D02*
X172750000Y-118657457D01*
G75*
G02*
X172482457Y-118925000I-267543J0D01*
G01*
X171492543Y-118925000D01*
G75*
G02*
X171225000Y-118657457I0J267543D01*
G01*
X171225000Y-117342543D01*
G75*
G02*
X171492543Y-117075000I267543J0D01*
G01*
X172482457Y-117075000D01*
G75*
G02*
X172750000Y-117342543I0J-267543D01*
G01*
G37*
G36*
G01*
X169775000Y-117342543D02*
X169775000Y-118657457D01*
G75*
G02*
X169507457Y-118925000I-267543J0D01*
G01*
X168517543Y-118925000D01*
G75*
G02*
X168250000Y-118657457I0J267543D01*
G01*
X168250000Y-117342543D01*
G75*
G02*
X168517543Y-117075000I267543J0D01*
G01*
X169507457Y-117075000D01*
G75*
G02*
X169775000Y-117342543I0J-267543D01*
G01*
G37*
%TD*%
%TO.C,C12*%
G36*
G01*
X178525001Y-117342543D02*
X178525001Y-118657457D01*
G75*
G02*
X178257458Y-118925000I-267543J0D01*
G01*
X177267544Y-118925000D01*
G75*
G02*
X177000001Y-118657457I0J267543D01*
G01*
X177000001Y-117342543D01*
G75*
G02*
X177267544Y-117075000I267543J0D01*
G01*
X178257458Y-117075000D01*
G75*
G02*
X178525001Y-117342543I0J-267543D01*
G01*
G37*
G36*
G01*
X175550001Y-117342543D02*
X175550001Y-118657457D01*
G75*
G02*
X175282458Y-118925000I-267543J0D01*
G01*
X174292544Y-118925000D01*
G75*
G02*
X174025001Y-118657457I0J267543D01*
G01*
X174025001Y-117342543D01*
G75*
G02*
X174292544Y-117075000I267543J0D01*
G01*
X175282458Y-117075000D01*
G75*
G02*
X175550001Y-117342543I0J-267543D01*
G01*
G37*
%TD*%
%TO.C,C22*%
G36*
G01*
X166021738Y-80400000D02*
X166978262Y-80400000D01*
G75*
G02*
X167250000Y-80671738I0J-271738D01*
G01*
X167250000Y-81378262D01*
G75*
G02*
X166978262Y-81650000I-271738J0D01*
G01*
X166021738Y-81650000D01*
G75*
G02*
X165750000Y-81378262I0J271738D01*
G01*
X165750000Y-80671738D01*
G75*
G02*
X166021738Y-80400000I271738J0D01*
G01*
G37*
G36*
G01*
X166021738Y-78350000D02*
X166978262Y-78350000D01*
G75*
G02*
X167250000Y-78621738I0J-271738D01*
G01*
X167250000Y-79328262D01*
G75*
G02*
X166978262Y-79600000I-271738J0D01*
G01*
X166021738Y-79600000D01*
G75*
G02*
X165750000Y-79328262I0J271738D01*
G01*
X165750000Y-78621738D01*
G75*
G02*
X166021738Y-78350000I271738J0D01*
G01*
G37*
%TD*%
%TO.C,C23*%
G36*
G01*
X191978262Y-98175000D02*
X191021738Y-98175000D01*
G75*
G02*
X190750000Y-97903262I0J271738D01*
G01*
X190750000Y-97196738D01*
G75*
G02*
X191021738Y-96925000I271738J0D01*
G01*
X191978262Y-96925000D01*
G75*
G02*
X192250000Y-97196738I0J-271738D01*
G01*
X192250000Y-97903262D01*
G75*
G02*
X191978262Y-98175000I-271738J0D01*
G01*
G37*
G36*
G01*
X191978262Y-96125000D02*
X191021738Y-96125000D01*
G75*
G02*
X190750000Y-95853262I0J271738D01*
G01*
X190750000Y-95146738D01*
G75*
G02*
X191021738Y-94875000I271738J0D01*
G01*
X191978262Y-94875000D01*
G75*
G02*
X192250000Y-95146738I0J-271738D01*
G01*
X192250000Y-95853262D01*
G75*
G02*
X191978262Y-96125000I-271738J0D01*
G01*
G37*
%TD*%
%TO.C,C24*%
G36*
G01*
X171900000Y-139478262D02*
X171900000Y-138521738D01*
G75*
G02*
X172171738Y-138250000I271738J0D01*
G01*
X172878262Y-138250000D01*
G75*
G02*
X173150000Y-138521738I0J-271738D01*
G01*
X173150000Y-139478262D01*
G75*
G02*
X172878262Y-139750000I-271738J0D01*
G01*
X172171738Y-139750000D01*
G75*
G02*
X171900000Y-139478262I0J271738D01*
G01*
G37*
G36*
G01*
X169850000Y-139478262D02*
X169850000Y-138521738D01*
G75*
G02*
X170121738Y-138250000I271738J0D01*
G01*
X170828262Y-138250000D01*
G75*
G02*
X171100000Y-138521738I0J-271738D01*
G01*
X171100000Y-139478262D01*
G75*
G02*
X170828262Y-139750000I-271738J0D01*
G01*
X170121738Y-139750000D01*
G75*
G02*
X169850000Y-139478262I0J271738D01*
G01*
G37*
%TD*%
%TO.C,C25*%
G36*
G01*
X117157457Y-132275000D02*
X115842543Y-132275000D01*
G75*
G02*
X115575000Y-132007457I0J267543D01*
G01*
X115575000Y-131017543D01*
G75*
G02*
X115842543Y-130750000I267543J0D01*
G01*
X117157457Y-130750000D01*
G75*
G02*
X117425000Y-131017543I0J-267543D01*
G01*
X117425000Y-132007457D01*
G75*
G02*
X117157457Y-132275000I-267543J0D01*
G01*
G37*
G36*
G01*
X117157457Y-135250000D02*
X115842543Y-135250000D01*
G75*
G02*
X115575000Y-134982457I0J267543D01*
G01*
X115575000Y-133992543D01*
G75*
G02*
X115842543Y-133725000I267543J0D01*
G01*
X117157457Y-133725000D01*
G75*
G02*
X117425000Y-133992543I0J-267543D01*
G01*
X117425000Y-134982457D01*
G75*
G02*
X117157457Y-135250000I-267543J0D01*
G01*
G37*
%TD*%
%TO.C,C26*%
G36*
G01*
X187125000Y-113521738D02*
X187125000Y-114478262D01*
G75*
G02*
X186853262Y-114750000I-271738J0D01*
G01*
X186146738Y-114750000D01*
G75*
G02*
X185875000Y-114478262I0J271738D01*
G01*
X185875000Y-113521738D01*
G75*
G02*
X186146738Y-113250000I271738J0D01*
G01*
X186853262Y-113250000D01*
G75*
G02*
X187125000Y-113521738I0J-271738D01*
G01*
G37*
G36*
G01*
X185075000Y-113521738D02*
X185075000Y-114478262D01*
G75*
G02*
X184803262Y-114750000I-271738J0D01*
G01*
X184096738Y-114750000D01*
G75*
G02*
X183825000Y-114478262I0J271738D01*
G01*
X183825000Y-113521738D01*
G75*
G02*
X184096738Y-113250000I271738J0D01*
G01*
X184803262Y-113250000D01*
G75*
G02*
X185075000Y-113521738I0J-271738D01*
G01*
G37*
%TD*%
%TO.C,D2*%
G36*
G01*
X193657457Y-138262500D02*
X192342543Y-138262500D01*
G75*
G02*
X192075000Y-137994957I0J267543D01*
G01*
X192075000Y-137005043D01*
G75*
G02*
X192342543Y-136737500I267543J0D01*
G01*
X193657457Y-136737500D01*
G75*
G02*
X193925000Y-137005043I0J-267543D01*
G01*
X193925000Y-137994957D01*
G75*
G02*
X193657457Y-138262500I-267543J0D01*
G01*
G37*
G36*
G01*
X193657457Y-135287500D02*
X192342543Y-135287500D01*
G75*
G02*
X192075000Y-135019957I0J267543D01*
G01*
X192075000Y-134030043D01*
G75*
G02*
X192342543Y-133762500I267543J0D01*
G01*
X193657457Y-133762500D01*
G75*
G02*
X193925000Y-134030043I0J-267543D01*
G01*
X193925000Y-135019957D01*
G75*
G02*
X193657457Y-135287500I-267543J0D01*
G01*
G37*
%TD*%
%TO.C,D3*%
G36*
G01*
X193657457Y-120287500D02*
X192342543Y-120287500D01*
G75*
G02*
X192075000Y-120019957I0J267543D01*
G01*
X192075000Y-119030043D01*
G75*
G02*
X192342543Y-118762500I267543J0D01*
G01*
X193657457Y-118762500D01*
G75*
G02*
X193925000Y-119030043I0J-267543D01*
G01*
X193925000Y-120019957D01*
G75*
G02*
X193657457Y-120287500I-267543J0D01*
G01*
G37*
G36*
G01*
X193657457Y-123262500D02*
X192342543Y-123262500D01*
G75*
G02*
X192075000Y-122994957I0J267543D01*
G01*
X192075000Y-122005043D01*
G75*
G02*
X192342543Y-121737500I267543J0D01*
G01*
X193657457Y-121737500D01*
G75*
G02*
X193925000Y-122005043I0J-267543D01*
G01*
X193925000Y-122994957D01*
G75*
G02*
X193657457Y-123262500I-267543J0D01*
G01*
G37*
%TD*%
%TO.C,D4*%
G36*
G01*
X193657457Y-142787500D02*
X192342543Y-142787500D01*
G75*
G02*
X192075000Y-142519957I0J267543D01*
G01*
X192075000Y-141530043D01*
G75*
G02*
X192342543Y-141262500I267543J0D01*
G01*
X193657457Y-141262500D01*
G75*
G02*
X193925000Y-141530043I0J-267543D01*
G01*
X193925000Y-142519957D01*
G75*
G02*
X193657457Y-142787500I-267543J0D01*
G01*
G37*
G36*
G01*
X193657457Y-145762500D02*
X192342543Y-145762500D01*
G75*
G02*
X192075000Y-145494957I0J267543D01*
G01*
X192075000Y-144505043D01*
G75*
G02*
X192342543Y-144237500I267543J0D01*
G01*
X193657457Y-144237500D01*
G75*
G02*
X193925000Y-144505043I0J-267543D01*
G01*
X193925000Y-145494957D01*
G75*
G02*
X193657457Y-145762500I-267543J0D01*
G01*
G37*
%TD*%
%TO.C,D5*%
G36*
G01*
X193657457Y-130762500D02*
X192342543Y-130762500D01*
G75*
G02*
X192075000Y-130494957I0J267543D01*
G01*
X192075000Y-129505043D01*
G75*
G02*
X192342543Y-129237500I267543J0D01*
G01*
X193657457Y-129237500D01*
G75*
G02*
X193925000Y-129505043I0J-267543D01*
G01*
X193925000Y-130494957D01*
G75*
G02*
X193657457Y-130762500I-267543J0D01*
G01*
G37*
G36*
G01*
X193657457Y-127787500D02*
X192342543Y-127787500D01*
G75*
G02*
X192075000Y-127519957I0J267543D01*
G01*
X192075000Y-126530043D01*
G75*
G02*
X192342543Y-126262500I267543J0D01*
G01*
X193657457Y-126262500D01*
G75*
G02*
X193925000Y-126530043I0J-267543D01*
G01*
X193925000Y-127519957D01*
G75*
G02*
X193657457Y-127787500I-267543J0D01*
G01*
G37*
%TD*%
%TO.C,FB1*%
G36*
G01*
X91592543Y-128012500D02*
X92907457Y-128012500D01*
G75*
G02*
X93175000Y-128280043I0J-267543D01*
G01*
X93175000Y-129269957D01*
G75*
G02*
X92907457Y-129537500I-267543J0D01*
G01*
X91592543Y-129537500D01*
G75*
G02*
X91325000Y-129269957I0J267543D01*
G01*
X91325000Y-128280043D01*
G75*
G02*
X91592543Y-128012500I267543J0D01*
G01*
G37*
G36*
G01*
X91592543Y-130987500D02*
X92907457Y-130987500D01*
G75*
G02*
X93175000Y-131255043I0J-267543D01*
G01*
X93175000Y-132244957D01*
G75*
G02*
X92907457Y-132512500I-267543J0D01*
G01*
X91592543Y-132512500D01*
G75*
G02*
X91325000Y-132244957I0J267543D01*
G01*
X91325000Y-131255043D01*
G75*
G02*
X91592543Y-130987500I267543J0D01*
G01*
G37*
%TD*%
%TO.C,FB2*%
G36*
G01*
X192157457Y-90287500D02*
X190842543Y-90287500D01*
G75*
G02*
X190575000Y-90019957I0J267543D01*
G01*
X190575000Y-89030043D01*
G75*
G02*
X190842543Y-88762500I267543J0D01*
G01*
X192157457Y-88762500D01*
G75*
G02*
X192425000Y-89030043I0J-267543D01*
G01*
X192425000Y-90019957D01*
G75*
G02*
X192157457Y-90287500I-267543J0D01*
G01*
G37*
G36*
G01*
X192157457Y-93262500D02*
X190842543Y-93262500D01*
G75*
G02*
X190575000Y-92994957I0J267543D01*
G01*
X190575000Y-92005043D01*
G75*
G02*
X190842543Y-91737500I267543J0D01*
G01*
X192157457Y-91737500D01*
G75*
G02*
X192425000Y-92005043I0J-267543D01*
G01*
X192425000Y-92994957D01*
G75*
G02*
X192157457Y-93262500I-267543J0D01*
G01*
G37*
%TD*%
%TO.C,J6*%
G36*
G01*
X77018400Y-99675000D02*
X79862400Y-99675000D01*
G75*
G02*
X80395400Y-100208000I0J-533000D01*
G01*
X80395400Y-101274000D01*
G75*
G02*
X79862400Y-101807000I-533000J0D01*
G01*
X77018400Y-101807000D01*
G75*
G02*
X76485400Y-101274000I0J533000D01*
G01*
X76485400Y-100208000D01*
G75*
G02*
X77018400Y-99675000I533000J0D01*
G01*
G37*
G36*
G01*
X77018400Y-116693000D02*
X79862400Y-116693000D01*
G75*
G02*
X80395400Y-117226000I0J-533000D01*
G01*
X80395400Y-118292000D01*
G75*
G02*
X79862400Y-118825000I-533000J0D01*
G01*
X77018400Y-118825000D01*
G75*
G02*
X76485400Y-118292000I0J533000D01*
G01*
X76485400Y-117226000D01*
G75*
G02*
X77018400Y-116693000I533000J0D01*
G01*
G37*
G36*
G01*
X87229200Y-99675000D02*
X90073200Y-99675000D01*
G75*
G02*
X90606200Y-100208000I0J-533000D01*
G01*
X90606200Y-101274000D01*
G75*
G02*
X90073200Y-101807000I-533000J0D01*
G01*
X87229200Y-101807000D01*
G75*
G02*
X86696200Y-101274000I0J533000D01*
G01*
X86696200Y-100208000D01*
G75*
G02*
X87229200Y-99675000I533000J0D01*
G01*
G37*
G36*
G01*
X87229200Y-116693000D02*
X90073200Y-116693000D01*
G75*
G02*
X90606200Y-117226000I0J-533000D01*
G01*
X90606200Y-118292000D01*
G75*
G02*
X90073200Y-118825000I-533000J0D01*
G01*
X87229200Y-118825000D01*
G75*
G02*
X86696200Y-118292000I0J533000D01*
G01*
X86696200Y-117226000D01*
G75*
G02*
X87229200Y-116693000I533000J0D01*
G01*
G37*
D13*
X94340800Y-109250000D03*
X91750000Y-109250000D03*
%TD*%
%TO.C,J7*%
G36*
G01*
X176350000Y-129920000D02*
X176350000Y-128920000D01*
G75*
G02*
X176400000Y-128870000I50000J0D01*
G01*
X178300000Y-128870000D01*
G75*
G02*
X178350000Y-128920000I0J-50000D01*
G01*
X178350000Y-129920000D01*
G75*
G02*
X178300000Y-129970000I-50000J0D01*
G01*
X176400000Y-129970000D01*
G75*
G02*
X176350000Y-129920000I0J50000D01*
G01*
G37*
G36*
G01*
X176350000Y-135000000D02*
X176350000Y-134000000D01*
G75*
G02*
X176400000Y-133950000I50000J0D01*
G01*
X178300000Y-133950000D01*
G75*
G02*
X178350000Y-134000000I0J-50000D01*
G01*
X178350000Y-135000000D01*
G75*
G02*
X178300000Y-135050000I-50000J0D01*
G01*
X176400000Y-135050000D01*
G75*
G02*
X176350000Y-135000000I0J50000D01*
G01*
G37*
G36*
G01*
X176350000Y-140080000D02*
X176350000Y-139080000D01*
G75*
G02*
X176400000Y-139030000I50000J0D01*
G01*
X178300000Y-139030000D01*
G75*
G02*
X178350000Y-139080000I0J-50000D01*
G01*
X178350000Y-140080000D01*
G75*
G02*
X178300000Y-140130000I-50000J0D01*
G01*
X176400000Y-140130000D01*
G75*
G02*
X176350000Y-140080000I0J50000D01*
G01*
G37*
G36*
G01*
X179650000Y-132460000D02*
X179650000Y-131460000D01*
G75*
G02*
X179700000Y-131410000I50000J0D01*
G01*
X181600000Y-131410000D01*
G75*
G02*
X181650000Y-131460000I0J-50000D01*
G01*
X181650000Y-132460000D01*
G75*
G02*
X181600000Y-132510000I-50000J0D01*
G01*
X179700000Y-132510000D01*
G75*
G02*
X179650000Y-132460000I0J50000D01*
G01*
G37*
G36*
G01*
X179650000Y-137540000D02*
X179650000Y-136540000D01*
G75*
G02*
X179700000Y-136490000I50000J0D01*
G01*
X181600000Y-136490000D01*
G75*
G02*
X181650000Y-136540000I0J-50000D01*
G01*
X181650000Y-137540000D01*
G75*
G02*
X181600000Y-137590000I-50000J0D01*
G01*
X179700000Y-137590000D01*
G75*
G02*
X179650000Y-137540000I0J50000D01*
G01*
G37*
%TD*%
%TO.C,J8*%
X91750000Y-89750000D03*
X94340800Y-89750000D03*
G36*
G01*
X87229200Y-97193000D02*
X90073200Y-97193000D01*
G75*
G02*
X90606200Y-97726000I0J-533000D01*
G01*
X90606200Y-98792000D01*
G75*
G02*
X90073200Y-99325000I-533000J0D01*
G01*
X87229200Y-99325000D01*
G75*
G02*
X86696200Y-98792000I0J533000D01*
G01*
X86696200Y-97726000D01*
G75*
G02*
X87229200Y-97193000I533000J0D01*
G01*
G37*
G36*
G01*
X87229200Y-80175000D02*
X90073200Y-80175000D01*
G75*
G02*
X90606200Y-80708000I0J-533000D01*
G01*
X90606200Y-81774000D01*
G75*
G02*
X90073200Y-82307000I-533000J0D01*
G01*
X87229200Y-82307000D01*
G75*
G02*
X86696200Y-81774000I0J533000D01*
G01*
X86696200Y-80708000D01*
G75*
G02*
X87229200Y-80175000I533000J0D01*
G01*
G37*
G36*
G01*
X77018400Y-97193000D02*
X79862400Y-97193000D01*
G75*
G02*
X80395400Y-97726000I0J-533000D01*
G01*
X80395400Y-98792000D01*
G75*
G02*
X79862400Y-99325000I-533000J0D01*
G01*
X77018400Y-99325000D01*
G75*
G02*
X76485400Y-98792000I0J533000D01*
G01*
X76485400Y-97726000D01*
G75*
G02*
X77018400Y-97193000I533000J0D01*
G01*
G37*
G36*
G01*
X77018400Y-80175000D02*
X79862400Y-80175000D01*
G75*
G02*
X80395400Y-80708000I0J-533000D01*
G01*
X80395400Y-81774000D01*
G75*
G02*
X79862400Y-82307000I-533000J0D01*
G01*
X77018400Y-82307000D01*
G75*
G02*
X76485400Y-81774000I0J533000D01*
G01*
X76485400Y-80708000D01*
G75*
G02*
X77018400Y-80175000I533000J0D01*
G01*
G37*
%TD*%
%TO.C,JP2*%
G36*
G01*
X113400000Y-133150000D02*
X113400000Y-134850000D01*
G75*
G02*
X113350000Y-134900000I-50000J0D01*
G01*
X111650000Y-134900000D01*
G75*
G02*
X111600000Y-134850000I0J50000D01*
G01*
X111600000Y-133150000D01*
G75*
G02*
X111650000Y-133100000I50000J0D01*
G01*
X113350000Y-133100000D01*
G75*
G02*
X113400000Y-133150000I0J-50000D01*
G01*
G37*
D14*
X112500000Y-131460000D03*
%TD*%
%TO.C,L1*%
G36*
G01*
X181762500Y-113342543D02*
X181762500Y-114657457D01*
G75*
G02*
X181494957Y-114925000I-267543J0D01*
G01*
X180505043Y-114925000D01*
G75*
G02*
X180237500Y-114657457I0J267543D01*
G01*
X180237500Y-113342543D01*
G75*
G02*
X180505043Y-113075000I267543J0D01*
G01*
X181494957Y-113075000D01*
G75*
G02*
X181762500Y-113342543I0J-267543D01*
G01*
G37*
G36*
G01*
X178787500Y-113342543D02*
X178787500Y-114657457D01*
G75*
G02*
X178519957Y-114925000I-267543J0D01*
G01*
X177530043Y-114925000D01*
G75*
G02*
X177262500Y-114657457I0J267543D01*
G01*
X177262500Y-113342543D01*
G75*
G02*
X177530043Y-113075000I267543J0D01*
G01*
X178519957Y-113075000D01*
G75*
G02*
X178787500Y-113342543I0J-267543D01*
G01*
G37*
%TD*%
%TO.C,R4*%
G36*
G01*
X169650000Y-113521738D02*
X169650000Y-114478262D01*
G75*
G02*
X169378262Y-114750000I-271738J0D01*
G01*
X168671738Y-114750000D01*
G75*
G02*
X168400000Y-114478262I0J271738D01*
G01*
X168400000Y-113521738D01*
G75*
G02*
X168671738Y-113250000I271738J0D01*
G01*
X169378262Y-113250000D01*
G75*
G02*
X169650000Y-113521738I0J-271738D01*
G01*
G37*
G36*
G01*
X167600000Y-113521738D02*
X167600000Y-114478262D01*
G75*
G02*
X167328262Y-114750000I-271738J0D01*
G01*
X166621738Y-114750000D01*
G75*
G02*
X166350000Y-114478262I0J271738D01*
G01*
X166350000Y-113521738D01*
G75*
G02*
X166621738Y-113250000I271738J0D01*
G01*
X167328262Y-113250000D01*
G75*
G02*
X167600000Y-113521738I0J-271738D01*
G01*
G37*
%TD*%
%TO.C,R5*%
G36*
G01*
X164575000Y-117521738D02*
X164575000Y-118478262D01*
G75*
G02*
X164303262Y-118750000I-271738J0D01*
G01*
X163596738Y-118750000D01*
G75*
G02*
X163325000Y-118478262I0J271738D01*
G01*
X163325000Y-117521738D01*
G75*
G02*
X163596738Y-117250000I271738J0D01*
G01*
X164303262Y-117250000D01*
G75*
G02*
X164575000Y-117521738I0J-271738D01*
G01*
G37*
G36*
G01*
X166625000Y-117521738D02*
X166625000Y-118478262D01*
G75*
G02*
X166353262Y-118750000I-271738J0D01*
G01*
X165646738Y-118750000D01*
G75*
G02*
X165375000Y-118478262I0J271738D01*
G01*
X165375000Y-117521738D01*
G75*
G02*
X165646738Y-117250000I271738J0D01*
G01*
X166353262Y-117250000D01*
G75*
G02*
X166625000Y-117521738I0J-271738D01*
G01*
G37*
%TD*%
%TO.C,R6*%
G36*
G01*
X175150000Y-113521738D02*
X175150000Y-114478262D01*
G75*
G02*
X174878262Y-114750000I-271738J0D01*
G01*
X174171738Y-114750000D01*
G75*
G02*
X173900000Y-114478262I0J271738D01*
G01*
X173900000Y-113521738D01*
G75*
G02*
X174171738Y-113250000I271738J0D01*
G01*
X174878262Y-113250000D01*
G75*
G02*
X175150000Y-113521738I0J-271738D01*
G01*
G37*
G36*
G01*
X173100000Y-113521738D02*
X173100000Y-114478262D01*
G75*
G02*
X172828262Y-114750000I-271738J0D01*
G01*
X172121738Y-114750000D01*
G75*
G02*
X171850000Y-114478262I0J271738D01*
G01*
X171850000Y-113521738D01*
G75*
G02*
X172121738Y-113250000I271738J0D01*
G01*
X172828262Y-113250000D01*
G75*
G02*
X173100000Y-113521738I0J-271738D01*
G01*
G37*
%TD*%
%TO.C,R7*%
G36*
G01*
X148900000Y-110478262D02*
X148900000Y-109521738D01*
G75*
G02*
X149171738Y-109250000I271738J0D01*
G01*
X149878262Y-109250000D01*
G75*
G02*
X150150000Y-109521738I0J-271738D01*
G01*
X150150000Y-110478262D01*
G75*
G02*
X149878262Y-110750000I-271738J0D01*
G01*
X149171738Y-110750000D01*
G75*
G02*
X148900000Y-110478262I0J271738D01*
G01*
G37*
G36*
G01*
X146850000Y-110478262D02*
X146850000Y-109521738D01*
G75*
G02*
X147121738Y-109250000I271738J0D01*
G01*
X147828262Y-109250000D01*
G75*
G02*
X148100000Y-109521738I0J-271738D01*
G01*
X148100000Y-110478262D01*
G75*
G02*
X147828262Y-110750000I-271738J0D01*
G01*
X147121738Y-110750000D01*
G75*
G02*
X146850000Y-110478262I0J271738D01*
G01*
G37*
%TD*%
%TO.C,R10*%
G36*
G01*
X149350000Y-89478262D02*
X149350000Y-88521738D01*
G75*
G02*
X149621738Y-88250000I271738J0D01*
G01*
X150328262Y-88250000D01*
G75*
G02*
X150600000Y-88521738I0J-271738D01*
G01*
X150600000Y-89478262D01*
G75*
G02*
X150328262Y-89750000I-271738J0D01*
G01*
X149621738Y-89750000D01*
G75*
G02*
X149350000Y-89478262I0J271738D01*
G01*
G37*
G36*
G01*
X151400000Y-89478262D02*
X151400000Y-88521738D01*
G75*
G02*
X151671738Y-88250000I271738J0D01*
G01*
X152378262Y-88250000D01*
G75*
G02*
X152650000Y-88521738I0J-271738D01*
G01*
X152650000Y-89478262D01*
G75*
G02*
X152378262Y-89750000I-271738J0D01*
G01*
X151671738Y-89750000D01*
G75*
G02*
X151400000Y-89478262I0J271738D01*
G01*
G37*
%TD*%
%TO.C,R15*%
G36*
G01*
X171900000Y-128978262D02*
X171900000Y-128021738D01*
G75*
G02*
X172171738Y-127750000I271738J0D01*
G01*
X172878262Y-127750000D01*
G75*
G02*
X173150000Y-128021738I0J-271738D01*
G01*
X173150000Y-128978262D01*
G75*
G02*
X172878262Y-129250000I-271738J0D01*
G01*
X172171738Y-129250000D01*
G75*
G02*
X171900000Y-128978262I0J271738D01*
G01*
G37*
G36*
G01*
X169850000Y-128978262D02*
X169850000Y-128021738D01*
G75*
G02*
X170121738Y-127750000I271738J0D01*
G01*
X170828262Y-127750000D01*
G75*
G02*
X171100000Y-128021738I0J-271738D01*
G01*
X171100000Y-128978262D01*
G75*
G02*
X170828262Y-129250000I-271738J0D01*
G01*
X170121738Y-129250000D01*
G75*
G02*
X169850000Y-128978262I0J271738D01*
G01*
G37*
%TD*%
%TO.C,R16*%
G36*
G01*
X171900000Y-135978262D02*
X171900000Y-135021738D01*
G75*
G02*
X172171738Y-134750000I271738J0D01*
G01*
X172878262Y-134750000D01*
G75*
G02*
X173150000Y-135021738I0J-271738D01*
G01*
X173150000Y-135978262D01*
G75*
G02*
X172878262Y-136250000I-271738J0D01*
G01*
X172171738Y-136250000D01*
G75*
G02*
X171900000Y-135978262I0J271738D01*
G01*
G37*
G36*
G01*
X169850000Y-135978262D02*
X169850000Y-135021738D01*
G75*
G02*
X170121738Y-134750000I271738J0D01*
G01*
X170828262Y-134750000D01*
G75*
G02*
X171100000Y-135021738I0J-271738D01*
G01*
X171100000Y-135978262D01*
G75*
G02*
X170828262Y-136250000I-271738J0D01*
G01*
X170121738Y-136250000D01*
G75*
G02*
X169850000Y-135978262I0J271738D01*
G01*
G37*
%TD*%
%TO.C,R25*%
G36*
G01*
X169850000Y-132478262D02*
X169850000Y-131521738D01*
G75*
G02*
X170121738Y-131250000I271738J0D01*
G01*
X170828262Y-131250000D01*
G75*
G02*
X171100000Y-131521738I0J-271738D01*
G01*
X171100000Y-132478262D01*
G75*
G02*
X170828262Y-132750000I-271738J0D01*
G01*
X170121738Y-132750000D01*
G75*
G02*
X169850000Y-132478262I0J271738D01*
G01*
G37*
G36*
G01*
X171900000Y-132478262D02*
X171900000Y-131521738D01*
G75*
G02*
X172171738Y-131250000I271738J0D01*
G01*
X172878262Y-131250000D01*
G75*
G02*
X173150000Y-131521738I0J-271738D01*
G01*
X173150000Y-132478262D01*
G75*
G02*
X172878262Y-132750000I-271738J0D01*
G01*
X172171738Y-132750000D01*
G75*
G02*
X171900000Y-132478262I0J271738D01*
G01*
G37*
%TD*%
D15*
%TO.C,TP1*%
X182750000Y-144750000D03*
%TD*%
%TO.C,TP2*%
X102000000Y-119500000D03*
%TD*%
%TO.C,TP3*%
X102000000Y-115500000D03*
%TD*%
%TO.C,U1*%
G36*
G01*
X139350000Y-83680000D02*
X139350000Y-84880000D01*
G75*
G02*
X139300000Y-84930000I-50000J0D01*
G01*
X137100000Y-84930000D01*
G75*
G02*
X137050000Y-84880000I0J50000D01*
G01*
X137050000Y-83680000D01*
G75*
G02*
X137100000Y-83630000I50000J0D01*
G01*
X139300000Y-83630000D01*
G75*
G02*
X139350000Y-83680000I0J-50000D01*
G01*
G37*
G36*
G01*
X139350000Y-79120000D02*
X139350000Y-80320000D01*
G75*
G02*
X139300000Y-80370000I-50000J0D01*
G01*
X137100000Y-80370000D01*
G75*
G02*
X137050000Y-80320000I0J50000D01*
G01*
X137050000Y-79120000D01*
G75*
G02*
X137100000Y-79070000I50000J0D01*
G01*
X139300000Y-79070000D01*
G75*
G02*
X139350000Y-79120000I0J-50000D01*
G01*
G37*
G36*
G01*
X135150000Y-79100000D02*
X135150000Y-84900000D01*
G75*
G02*
X135100000Y-84950000I-50000J0D01*
G01*
X128700000Y-84950000D01*
G75*
G02*
X128650000Y-84900000I0J50000D01*
G01*
X128650000Y-79100000D01*
G75*
G02*
X128700000Y-79050000I50000J0D01*
G01*
X135100000Y-79050000D01*
G75*
G02*
X135150000Y-79100000I0J-50000D01*
G01*
G37*
%TD*%
%TO.C,U5*%
G36*
G01*
X134925000Y-139575000D02*
X134925000Y-145375000D01*
G75*
G02*
X134875000Y-145425000I-50000J0D01*
G01*
X128475000Y-145425000D01*
G75*
G02*
X128425000Y-145375000I0J50000D01*
G01*
X128425000Y-139575000D01*
G75*
G02*
X128475000Y-139525000I50000J0D01*
G01*
X134875000Y-139525000D01*
G75*
G02*
X134925000Y-139575000I0J-50000D01*
G01*
G37*
G36*
G01*
X139125000Y-139595000D02*
X139125000Y-140795000D01*
G75*
G02*
X139075000Y-140845000I-50000J0D01*
G01*
X136875000Y-140845000D01*
G75*
G02*
X136825000Y-140795000I0J50000D01*
G01*
X136825000Y-139595000D01*
G75*
G02*
X136875000Y-139545000I50000J0D01*
G01*
X139075000Y-139545000D01*
G75*
G02*
X139125000Y-139595000I0J-50000D01*
G01*
G37*
G36*
G01*
X139125000Y-144155000D02*
X139125000Y-145355000D01*
G75*
G02*
X139075000Y-145405000I-50000J0D01*
G01*
X136875000Y-145405000D01*
G75*
G02*
X136825000Y-145355000I0J50000D01*
G01*
X136825000Y-144155000D01*
G75*
G02*
X136875000Y-144105000I50000J0D01*
G01*
X139075000Y-144105000D01*
G75*
G02*
X139125000Y-144155000I0J-50000D01*
G01*
G37*
%TD*%
%TO.C,U8*%
G36*
G01*
X175500000Y-82730000D02*
X175500000Y-83080000D01*
G75*
G02*
X175325000Y-83255000I-175000J0D01*
G01*
X173625000Y-83255000D01*
G75*
G02*
X173450000Y-83080000I0J175000D01*
G01*
X173450000Y-82730000D01*
G75*
G02*
X173625000Y-82555000I175000J0D01*
G01*
X175325000Y-82555000D01*
G75*
G02*
X175500000Y-82730000I0J-175000D01*
G01*
G37*
G36*
G01*
X175500000Y-81460000D02*
X175500000Y-81810000D01*
G75*
G02*
X175325000Y-81985000I-175000J0D01*
G01*
X173625000Y-81985000D01*
G75*
G02*
X173450000Y-81810000I0J175000D01*
G01*
X173450000Y-81460000D01*
G75*
G02*
X173625000Y-81285000I175000J0D01*
G01*
X175325000Y-81285000D01*
G75*
G02*
X175500000Y-81460000I0J-175000D01*
G01*
G37*
G36*
G01*
X175500000Y-80190000D02*
X175500000Y-80540000D01*
G75*
G02*
X175325000Y-80715000I-175000J0D01*
G01*
X173625000Y-80715000D01*
G75*
G02*
X173450000Y-80540000I0J175000D01*
G01*
X173450000Y-80190000D01*
G75*
G02*
X173625000Y-80015000I175000J0D01*
G01*
X175325000Y-80015000D01*
G75*
G02*
X175500000Y-80190000I0J-175000D01*
G01*
G37*
G36*
G01*
X175500000Y-78920000D02*
X175500000Y-79270000D01*
G75*
G02*
X175325000Y-79445000I-175000J0D01*
G01*
X173625000Y-79445000D01*
G75*
G02*
X173450000Y-79270000I0J175000D01*
G01*
X173450000Y-78920000D01*
G75*
G02*
X173625000Y-78745000I175000J0D01*
G01*
X175325000Y-78745000D01*
G75*
G02*
X175500000Y-78920000I0J-175000D01*
G01*
G37*
G36*
G01*
X170550000Y-78920000D02*
X170550000Y-79270000D01*
G75*
G02*
X170375000Y-79445000I-175000J0D01*
G01*
X168675000Y-79445000D01*
G75*
G02*
X168500000Y-79270000I0J175000D01*
G01*
X168500000Y-78920000D01*
G75*
G02*
X168675000Y-78745000I175000J0D01*
G01*
X170375000Y-78745000D01*
G75*
G02*
X170550000Y-78920000I0J-175000D01*
G01*
G37*
G36*
G01*
X170550000Y-80190000D02*
X170550000Y-80540000D01*
G75*
G02*
X170375000Y-80715000I-175000J0D01*
G01*
X168675000Y-80715000D01*
G75*
G02*
X168500000Y-80540000I0J175000D01*
G01*
X168500000Y-80190000D01*
G75*
G02*
X168675000Y-80015000I175000J0D01*
G01*
X170375000Y-80015000D01*
G75*
G02*
X170550000Y-80190000I0J-175000D01*
G01*
G37*
G36*
G01*
X170550000Y-81460000D02*
X170550000Y-81810000D01*
G75*
G02*
X170375000Y-81985000I-175000J0D01*
G01*
X168675000Y-81985000D01*
G75*
G02*
X168500000Y-81810000I0J175000D01*
G01*
X168500000Y-81460000D01*
G75*
G02*
X168675000Y-81285000I175000J0D01*
G01*
X170375000Y-81285000D01*
G75*
G02*
X170550000Y-81460000I0J-175000D01*
G01*
G37*
G36*
G01*
X170550000Y-82730000D02*
X170550000Y-83080000D01*
G75*
G02*
X170375000Y-83255000I-175000J0D01*
G01*
X168675000Y-83255000D01*
G75*
G02*
X168500000Y-83080000I0J175000D01*
G01*
X168500000Y-82730000D01*
G75*
G02*
X168675000Y-82555000I175000J0D01*
G01*
X170375000Y-82555000D01*
G75*
G02*
X170550000Y-82730000I0J-175000D01*
G01*
G37*
%TD*%
D16*
%TO.C,J9*%
X79450000Y-122390000D03*
X79000000Y-123110000D03*
X79900000Y-123110000D03*
X80800000Y-123110000D03*
X81700000Y-123110000D03*
X82600000Y-123110000D03*
X83500000Y-123110000D03*
X84400000Y-123110000D03*
X80350000Y-122390000D03*
X81250000Y-122390000D03*
X82150000Y-122390000D03*
X83050000Y-122390000D03*
X83950000Y-122390000D03*
X84850000Y-122390000D03*
G36*
G01*
X78750000Y-123680000D02*
X80250000Y-123680000D01*
G75*
G02*
X80500000Y-123930000I0J-250000D01*
G01*
X80500000Y-124430000D01*
G75*
G02*
X80250000Y-124680000I-250000J0D01*
G01*
X78750000Y-124680000D01*
G75*
G02*
X78500000Y-124430000I0J250000D01*
G01*
X78500000Y-123930000D01*
G75*
G02*
X78750000Y-123680000I250000J0D01*
G01*
G37*
G36*
G01*
X78750000Y-120820000D02*
X80250000Y-120820000D01*
G75*
G02*
X80500000Y-121070000I0J-250000D01*
G01*
X80500000Y-121570000D01*
G75*
G02*
X80250000Y-121820000I-250000J0D01*
G01*
X78750000Y-121820000D01*
G75*
G02*
X78500000Y-121570000I0J250000D01*
G01*
X78500000Y-121070000D01*
G75*
G02*
X78750000Y-120820000I250000J0D01*
G01*
G37*
G36*
G01*
X83550000Y-123680000D02*
X85050000Y-123680000D01*
G75*
G02*
X85300000Y-123930000I0J-250000D01*
G01*
X85300000Y-124430000D01*
G75*
G02*
X85050000Y-124680000I-250000J0D01*
G01*
X83550000Y-124680000D01*
G75*
G02*
X83300000Y-124430000I0J250000D01*
G01*
X83300000Y-123930000D01*
G75*
G02*
X83550000Y-123680000I250000J0D01*
G01*
G37*
G36*
G01*
X83550000Y-120820000D02*
X85050000Y-120820000D01*
G75*
G02*
X85300000Y-121070000I0J-250000D01*
G01*
X85300000Y-121570000D01*
G75*
G02*
X85050000Y-121820000I-250000J0D01*
G01*
X83550000Y-121820000D01*
G75*
G02*
X83300000Y-121570000I0J250000D01*
G01*
X83300000Y-121070000D01*
G75*
G02*
X83550000Y-120820000I250000J0D01*
G01*
G37*
%TD*%
%TO.C,Y1*%
G36*
G01*
X131050000Y-125050000D02*
X131050000Y-126775000D01*
G75*
G02*
X131000000Y-126825000I-50000J0D01*
G01*
X128900000Y-126825000D01*
G75*
G02*
X128850000Y-126775000I0J50000D01*
G01*
X128850000Y-125050000D01*
G75*
G02*
X128900000Y-125000000I50000J0D01*
G01*
X131000000Y-125000000D01*
G75*
G02*
X131050000Y-125050000I0J-50000D01*
G01*
G37*
G36*
G01*
X128150000Y-125050000D02*
X128150000Y-126775000D01*
G75*
G02*
X128100000Y-126825000I-50000J0D01*
G01*
X126000000Y-126825000D01*
G75*
G02*
X125950000Y-126775000I0J50000D01*
G01*
X125950000Y-125050000D01*
G75*
G02*
X126000000Y-125000000I50000J0D01*
G01*
X128100000Y-125000000D01*
G75*
G02*
X128150000Y-125050000I0J-50000D01*
G01*
G37*
G36*
G01*
X128150000Y-127225000D02*
X128150000Y-128950000D01*
G75*
G02*
X128100000Y-129000000I-50000J0D01*
G01*
X126000000Y-129000000D01*
G75*
G02*
X125950000Y-128950000I0J50000D01*
G01*
X125950000Y-127225000D01*
G75*
G02*
X126000000Y-127175000I50000J0D01*
G01*
X128100000Y-127175000D01*
G75*
G02*
X128150000Y-127225000I0J-50000D01*
G01*
G37*
G36*
G01*
X131050000Y-127225000D02*
X131050000Y-128950000D01*
G75*
G02*
X131000000Y-129000000I-50000J0D01*
G01*
X128900000Y-129000000D01*
G75*
G02*
X128850000Y-128950000I0J50000D01*
G01*
X128850000Y-127225000D01*
G75*
G02*
X128900000Y-127175000I50000J0D01*
G01*
X131000000Y-127175000D01*
G75*
G02*
X131050000Y-127225000I0J-50000D01*
G01*
G37*
%TD*%
%TO.C,C27*%
G36*
G01*
X148242543Y-128750000D02*
X149557457Y-128750000D01*
G75*
G02*
X149825000Y-129017543I0J-267543D01*
G01*
X149825000Y-130007457D01*
G75*
G02*
X149557457Y-130275000I-267543J0D01*
G01*
X148242543Y-130275000D01*
G75*
G02*
X147975000Y-130007457I0J267543D01*
G01*
X147975000Y-129017543D01*
G75*
G02*
X148242543Y-128750000I267543J0D01*
G01*
G37*
G36*
G01*
X148242543Y-131725000D02*
X149557457Y-131725000D01*
G75*
G02*
X149825000Y-131992543I0J-267543D01*
G01*
X149825000Y-132982457D01*
G75*
G02*
X149557457Y-133250000I-267543J0D01*
G01*
X148242543Y-133250000D01*
G75*
G02*
X147975000Y-132982457I0J267543D01*
G01*
X147975000Y-131992543D01*
G75*
G02*
X148242543Y-131725000I267543J0D01*
G01*
G37*
%TD*%
%TO.C,C28*%
G36*
G01*
X140521738Y-81600000D02*
X141478262Y-81600000D01*
G75*
G02*
X141750000Y-81871738I0J-271738D01*
G01*
X141750000Y-82578262D01*
G75*
G02*
X141478262Y-82850000I-271738J0D01*
G01*
X140521738Y-82850000D01*
G75*
G02*
X140250000Y-82578262I0J271738D01*
G01*
X140250000Y-81871738D01*
G75*
G02*
X140521738Y-81600000I271738J0D01*
G01*
G37*
G36*
G01*
X140521738Y-83650000D02*
X141478262Y-83650000D01*
G75*
G02*
X141750000Y-83921738I0J-271738D01*
G01*
X141750000Y-84628262D01*
G75*
G02*
X141478262Y-84900000I-271738J0D01*
G01*
X140521738Y-84900000D01*
G75*
G02*
X140250000Y-84628262I0J271738D01*
G01*
X140250000Y-83921738D01*
G75*
G02*
X140521738Y-83650000I271738J0D01*
G01*
G37*
%TD*%
%TO.C,C29*%
G36*
G01*
X140121738Y-144400000D02*
X141078262Y-144400000D01*
G75*
G02*
X141350000Y-144671738I0J-271738D01*
G01*
X141350000Y-145378262D01*
G75*
G02*
X141078262Y-145650000I-271738J0D01*
G01*
X140121738Y-145650000D01*
G75*
G02*
X139850000Y-145378262I0J271738D01*
G01*
X139850000Y-144671738D01*
G75*
G02*
X140121738Y-144400000I271738J0D01*
G01*
G37*
G36*
G01*
X140121738Y-142350000D02*
X141078262Y-142350000D01*
G75*
G02*
X141350000Y-142621738I0J-271738D01*
G01*
X141350000Y-143328262D01*
G75*
G02*
X141078262Y-143600000I-271738J0D01*
G01*
X140121738Y-143600000D01*
G75*
G02*
X139850000Y-143328262I0J271738D01*
G01*
X139850000Y-142621738D01*
G75*
G02*
X140121738Y-142350000I271738J0D01*
G01*
G37*
%TD*%
%TO.C,C30*%
G36*
G01*
X145842543Y-81725000D02*
X147157457Y-81725000D01*
G75*
G02*
X147425000Y-81992543I0J-267543D01*
G01*
X147425000Y-82982457D01*
G75*
G02*
X147157457Y-83250000I-267543J0D01*
G01*
X145842543Y-83250000D01*
G75*
G02*
X145575000Y-82982457I0J267543D01*
G01*
X145575000Y-81992543D01*
G75*
G02*
X145842543Y-81725000I267543J0D01*
G01*
G37*
G36*
G01*
X145842543Y-78750000D02*
X147157457Y-78750000D01*
G75*
G02*
X147425000Y-79017543I0J-267543D01*
G01*
X147425000Y-80007457D01*
G75*
G02*
X147157457Y-80275000I-267543J0D01*
G01*
X145842543Y-80275000D01*
G75*
G02*
X145575000Y-80007457I0J267543D01*
G01*
X145575000Y-79017543D01*
G75*
G02*
X145842543Y-78750000I267543J0D01*
G01*
G37*
%TD*%
%TO.C,C31*%
G36*
G01*
X143442543Y-139250000D02*
X144757457Y-139250000D01*
G75*
G02*
X145025000Y-139517543I0J-267543D01*
G01*
X145025000Y-140507457D01*
G75*
G02*
X144757457Y-140775000I-267543J0D01*
G01*
X143442543Y-140775000D01*
G75*
G02*
X143175000Y-140507457I0J267543D01*
G01*
X143175000Y-139517543D01*
G75*
G02*
X143442543Y-139250000I267543J0D01*
G01*
G37*
G36*
G01*
X143442543Y-142225000D02*
X144757457Y-142225000D01*
G75*
G02*
X145025000Y-142492543I0J-267543D01*
G01*
X145025000Y-143482457D01*
G75*
G02*
X144757457Y-143750000I-267543J0D01*
G01*
X143442543Y-143750000D01*
G75*
G02*
X143175000Y-143482457I0J267543D01*
G01*
X143175000Y-142492543D01*
G75*
G02*
X143442543Y-142225000I267543J0D01*
G01*
G37*
%TD*%
%TO.C,R26*%
G36*
G01*
X159021738Y-135850000D02*
X159978262Y-135850000D01*
G75*
G02*
X160250000Y-136121738I0J-271738D01*
G01*
X160250000Y-136828262D01*
G75*
G02*
X159978262Y-137100000I-271738J0D01*
G01*
X159021738Y-137100000D01*
G75*
G02*
X158750000Y-136828262I0J271738D01*
G01*
X158750000Y-136121738D01*
G75*
G02*
X159021738Y-135850000I271738J0D01*
G01*
G37*
G36*
G01*
X159021738Y-137900000D02*
X159978262Y-137900000D01*
G75*
G02*
X160250000Y-138171738I0J-271738D01*
G01*
X160250000Y-138878262D01*
G75*
G02*
X159978262Y-139150000I-271738J0D01*
G01*
X159021738Y-139150000D01*
G75*
G02*
X158750000Y-138878262I0J271738D01*
G01*
X158750000Y-138171738D01*
G75*
G02*
X159021738Y-137900000I271738J0D01*
G01*
G37*
%TD*%
%TO.C,R27*%
G36*
G01*
X163400000Y-137978262D02*
X163400000Y-137021738D01*
G75*
G02*
X163671738Y-136750000I271738J0D01*
G01*
X164378262Y-136750000D01*
G75*
G02*
X164650000Y-137021738I0J-271738D01*
G01*
X164650000Y-137978262D01*
G75*
G02*
X164378262Y-138250000I-271738J0D01*
G01*
X163671738Y-138250000D01*
G75*
G02*
X163400000Y-137978262I0J271738D01*
G01*
G37*
G36*
G01*
X161350000Y-137978262D02*
X161350000Y-137021738D01*
G75*
G02*
X161621738Y-136750000I271738J0D01*
G01*
X162328262Y-136750000D01*
G75*
G02*
X162600000Y-137021738I0J-271738D01*
G01*
X162600000Y-137978262D01*
G75*
G02*
X162328262Y-138250000I-271738J0D01*
G01*
X161621738Y-138250000D01*
G75*
G02*
X161350000Y-137978262I0J271738D01*
G01*
G37*
%TD*%
%TO.C,U9*%
G36*
G01*
X154740000Y-132875000D02*
X154740000Y-132225000D01*
G75*
G02*
X154790000Y-132175000I50000J0D01*
G01*
X156790000Y-132175000D01*
G75*
G02*
X156840000Y-132225000I0J-50000D01*
G01*
X156840000Y-132875000D01*
G75*
G02*
X156790000Y-132925000I-50000J0D01*
G01*
X154790000Y-132925000D01*
G75*
G02*
X154740000Y-132875000I0J50000D01*
G01*
G37*
G36*
G01*
X154740000Y-133825000D02*
X154740000Y-133175000D01*
G75*
G02*
X154790000Y-133125000I50000J0D01*
G01*
X156790000Y-133125000D01*
G75*
G02*
X156840000Y-133175000I0J-50000D01*
G01*
X156840000Y-133825000D01*
G75*
G02*
X156790000Y-133875000I-50000J0D01*
G01*
X154790000Y-133875000D01*
G75*
G02*
X154740000Y-133825000I0J50000D01*
G01*
G37*
G36*
G01*
X154740000Y-134775000D02*
X154740000Y-134125000D01*
G75*
G02*
X154790000Y-134075000I50000J0D01*
G01*
X156790000Y-134075000D01*
G75*
G02*
X156840000Y-134125000I0J-50000D01*
G01*
X156840000Y-134775000D01*
G75*
G02*
X156790000Y-134825000I-50000J0D01*
G01*
X154790000Y-134825000D01*
G75*
G02*
X154740000Y-134775000I0J50000D01*
G01*
G37*
G36*
G01*
X158160000Y-134775000D02*
X158160000Y-134125000D01*
G75*
G02*
X158210000Y-134075000I50000J0D01*
G01*
X160210000Y-134075000D01*
G75*
G02*
X160260000Y-134125000I0J-50000D01*
G01*
X160260000Y-134775000D01*
G75*
G02*
X160210000Y-134825000I-50000J0D01*
G01*
X158210000Y-134825000D01*
G75*
G02*
X158160000Y-134775000I0J50000D01*
G01*
G37*
G36*
G01*
X158160000Y-133825000D02*
X158160000Y-133175000D01*
G75*
G02*
X158210000Y-133125000I50000J0D01*
G01*
X160210000Y-133125000D01*
G75*
G02*
X160260000Y-133175000I0J-50000D01*
G01*
X160260000Y-133825000D01*
G75*
G02*
X160210000Y-133875000I-50000J0D01*
G01*
X158210000Y-133875000D01*
G75*
G02*
X158160000Y-133825000I0J50000D01*
G01*
G37*
G36*
G01*
X158160000Y-132875000D02*
X158160000Y-132225000D01*
G75*
G02*
X158210000Y-132175000I50000J0D01*
G01*
X160210000Y-132175000D01*
G75*
G02*
X160260000Y-132225000I0J-50000D01*
G01*
X160260000Y-132875000D01*
G75*
G02*
X160210000Y-132925000I-50000J0D01*
G01*
X158210000Y-132925000D01*
G75*
G02*
X158160000Y-132875000I0J50000D01*
G01*
G37*
%TD*%
%TO.C,C3*%
G36*
G01*
X151842543Y-137237500D02*
X153157457Y-137237500D01*
G75*
G02*
X153425000Y-137505043I0J-267543D01*
G01*
X153425000Y-138494957D01*
G75*
G02*
X153157457Y-138762500I-267543J0D01*
G01*
X151842543Y-138762500D01*
G75*
G02*
X151575000Y-138494957I0J267543D01*
G01*
X151575000Y-137505043D01*
G75*
G02*
X151842543Y-137237500I267543J0D01*
G01*
G37*
G36*
G01*
X151842543Y-134262500D02*
X153157457Y-134262500D01*
G75*
G02*
X153425000Y-134530043I0J-267543D01*
G01*
X153425000Y-135519957D01*
G75*
G02*
X153157457Y-135787500I-267543J0D01*
G01*
X151842543Y-135787500D01*
G75*
G02*
X151575000Y-135519957I0J267543D01*
G01*
X151575000Y-134530043D01*
G75*
G02*
X151842543Y-134262500I267543J0D01*
G01*
G37*
%TD*%
%TO.C,C8*%
G36*
G01*
X151842543Y-128750000D02*
X153157457Y-128750000D01*
G75*
G02*
X153425000Y-129017543I0J-267543D01*
G01*
X153425000Y-130007457D01*
G75*
G02*
X153157457Y-130275000I-267543J0D01*
G01*
X151842543Y-130275000D01*
G75*
G02*
X151575000Y-130007457I0J267543D01*
G01*
X151575000Y-129017543D01*
G75*
G02*
X151842543Y-128750000I267543J0D01*
G01*
G37*
G36*
G01*
X151842543Y-131725000D02*
X153157457Y-131725000D01*
G75*
G02*
X153425000Y-131992543I0J-267543D01*
G01*
X153425000Y-132982457D01*
G75*
G02*
X153157457Y-133250000I-267543J0D01*
G01*
X151842543Y-133250000D01*
G75*
G02*
X151575000Y-132982457I0J267543D01*
G01*
X151575000Y-131992543D01*
G75*
G02*
X151842543Y-131725000I267543J0D01*
G01*
G37*
%TD*%
%TO.C,L2*%
G36*
G01*
X161000000Y-126150000D02*
X161000000Y-130350000D01*
G75*
G02*
X160950000Y-130400000I-50000J0D01*
G01*
X158550000Y-130400000D01*
G75*
G02*
X158500000Y-130350000I0J50000D01*
G01*
X158500000Y-126150000D01*
G75*
G02*
X158550000Y-126100000I50000J0D01*
G01*
X160950000Y-126100000D01*
G75*
G02*
X161000000Y-126150000I0J-50000D01*
G01*
G37*
G36*
G01*
X156500000Y-126150000D02*
X156500000Y-130350000D01*
G75*
G02*
X156450000Y-130400000I-50000J0D01*
G01*
X154050000Y-130400000D01*
G75*
G02*
X154000000Y-130350000I0J50000D01*
G01*
X154000000Y-126150000D01*
G75*
G02*
X154050000Y-126100000I50000J0D01*
G01*
X156450000Y-126100000D01*
G75*
G02*
X156500000Y-126150000I0J-50000D01*
G01*
G37*
%TD*%
%TO.C,C32*%
G36*
G01*
X144500000Y-135907457D02*
X144500000Y-134592543D01*
G75*
G02*
X144767543Y-134325000I267543J0D01*
G01*
X145757457Y-134325000D01*
G75*
G02*
X146025000Y-134592543I0J-267543D01*
G01*
X146025000Y-135907457D01*
G75*
G02*
X145757457Y-136175000I-267543J0D01*
G01*
X144767543Y-136175000D01*
G75*
G02*
X144500000Y-135907457I0J267543D01*
G01*
G37*
G36*
G01*
X147475000Y-135907457D02*
X147475000Y-134592543D01*
G75*
G02*
X147742543Y-134325000I267543J0D01*
G01*
X148732457Y-134325000D01*
G75*
G02*
X149000000Y-134592543I0J-267543D01*
G01*
X149000000Y-135907457D01*
G75*
G02*
X148732457Y-136175000I-267543J0D01*
G01*
X147742543Y-136175000D01*
G75*
G02*
X147475000Y-135907457I0J267543D01*
G01*
G37*
%TD*%
%TO.C,C33*%
G36*
G01*
X140478262Y-131900000D02*
X139521738Y-131900000D01*
G75*
G02*
X139250000Y-131628262I0J271738D01*
G01*
X139250000Y-130921738D01*
G75*
G02*
X139521738Y-130650000I271738J0D01*
G01*
X140478262Y-130650000D01*
G75*
G02*
X140750000Y-130921738I0J-271738D01*
G01*
X140750000Y-131628262D01*
G75*
G02*
X140478262Y-131900000I-271738J0D01*
G01*
G37*
G36*
G01*
X140478262Y-129850000D02*
X139521738Y-129850000D01*
G75*
G02*
X139250000Y-129578262I0J271738D01*
G01*
X139250000Y-128871738D01*
G75*
G02*
X139521738Y-128600000I271738J0D01*
G01*
X140478262Y-128600000D01*
G75*
G02*
X140750000Y-128871738I0J-271738D01*
G01*
X140750000Y-129578262D01*
G75*
G02*
X140478262Y-129850000I-271738J0D01*
G01*
G37*
%TD*%
%TO.C,L3*%
G36*
G01*
X141900000Y-126500000D02*
X146100000Y-126500000D01*
G75*
G02*
X146150000Y-126550000I0J-50000D01*
G01*
X146150000Y-128950000D01*
G75*
G02*
X146100000Y-129000000I-50000J0D01*
G01*
X141900000Y-129000000D01*
G75*
G02*
X141850000Y-128950000I0J50000D01*
G01*
X141850000Y-126550000D01*
G75*
G02*
X141900000Y-126500000I50000J0D01*
G01*
G37*
G36*
G01*
X141900000Y-131000000D02*
X146100000Y-131000000D01*
G75*
G02*
X146150000Y-131050000I0J-50000D01*
G01*
X146150000Y-133450000D01*
G75*
G02*
X146100000Y-133500000I-50000J0D01*
G01*
X141900000Y-133500000D01*
G75*
G02*
X141850000Y-133450000I0J50000D01*
G01*
X141850000Y-131050000D01*
G75*
G02*
X141900000Y-131000000I50000J0D01*
G01*
G37*
%TD*%
%TO.C,Q1*%
G36*
G01*
X94500000Y-137050000D02*
X94500000Y-137850000D01*
G75*
G02*
X94450000Y-137900000I-50000J0D01*
G01*
X92550000Y-137900000D01*
G75*
G02*
X92500000Y-137850000I0J50000D01*
G01*
X92500000Y-137050000D01*
G75*
G02*
X92550000Y-137000000I50000J0D01*
G01*
X94450000Y-137000000D01*
G75*
G02*
X94500000Y-137050000I0J-50000D01*
G01*
G37*
G36*
G01*
X94500000Y-135150000D02*
X94500000Y-135950000D01*
G75*
G02*
X94450000Y-136000000I-50000J0D01*
G01*
X92550000Y-136000000D01*
G75*
G02*
X92500000Y-135950000I0J50000D01*
G01*
X92500000Y-135150000D01*
G75*
G02*
X92550000Y-135100000I50000J0D01*
G01*
X94450000Y-135100000D01*
G75*
G02*
X94500000Y-135150000I0J-50000D01*
G01*
G37*
G36*
G01*
X91500000Y-136100000D02*
X91500000Y-136900000D01*
G75*
G02*
X91450000Y-136950000I-50000J0D01*
G01*
X89550000Y-136950000D01*
G75*
G02*
X89500000Y-136900000I0J50000D01*
G01*
X89500000Y-136100000D01*
G75*
G02*
X89550000Y-136050000I50000J0D01*
G01*
X91450000Y-136050000D01*
G75*
G02*
X91500000Y-136100000I0J-50000D01*
G01*
G37*
%TD*%
%TO.C,J1*%
G36*
G01*
X94900000Y-128060000D02*
X96600000Y-128060000D01*
G75*
G02*
X96650000Y-128110000I0J-50000D01*
G01*
X96650000Y-129810000D01*
G75*
G02*
X96600000Y-129860000I-50000J0D01*
G01*
X94900000Y-129860000D01*
G75*
G02*
X94850000Y-129810000I0J50000D01*
G01*
X94850000Y-128110000D01*
G75*
G02*
X94900000Y-128060000I50000J0D01*
G01*
G37*
D14*
X95750000Y-131500000D03*
%TD*%
%TO.C,C34*%
G36*
G01*
X182907457Y-83250000D02*
X181592543Y-83250000D01*
G75*
G02*
X181325000Y-82982457I0J267543D01*
G01*
X181325000Y-81992543D01*
G75*
G02*
X181592543Y-81725000I267543J0D01*
G01*
X182907457Y-81725000D01*
G75*
G02*
X183175000Y-81992543I0J-267543D01*
G01*
X183175000Y-82982457D01*
G75*
G02*
X182907457Y-83250000I-267543J0D01*
G01*
G37*
G36*
G01*
X182907457Y-80275000D02*
X181592543Y-80275000D01*
G75*
G02*
X181325000Y-80007457I0J267543D01*
G01*
X181325000Y-79017543D01*
G75*
G02*
X181592543Y-78750000I267543J0D01*
G01*
X182907457Y-78750000D01*
G75*
G02*
X183175000Y-79017543I0J-267543D01*
G01*
X183175000Y-80007457D01*
G75*
G02*
X182907457Y-80275000I-267543J0D01*
G01*
G37*
%TD*%
%TO.C,C35*%
G36*
G01*
X170275000Y-145092543D02*
X170275000Y-146407457D01*
G75*
G02*
X170007457Y-146675000I-267543J0D01*
G01*
X169017543Y-146675000D01*
G75*
G02*
X168750000Y-146407457I0J267543D01*
G01*
X168750000Y-145092543D01*
G75*
G02*
X169017543Y-144825000I267543J0D01*
G01*
X170007457Y-144825000D01*
G75*
G02*
X170275000Y-145092543I0J-267543D01*
G01*
G37*
G36*
G01*
X173250000Y-145092543D02*
X173250000Y-146407457D01*
G75*
G02*
X172982457Y-146675000I-267543J0D01*
G01*
X171992543Y-146675000D01*
G75*
G02*
X171725000Y-146407457I0J267543D01*
G01*
X171725000Y-145092543D01*
G75*
G02*
X171992543Y-144825000I267543J0D01*
G01*
X172982457Y-144825000D01*
G75*
G02*
X173250000Y-145092543I0J-267543D01*
G01*
G37*
%TD*%
%TO.C,R28*%
G36*
G01*
X178978262Y-79850000D02*
X178021738Y-79850000D01*
G75*
G02*
X177750000Y-79578262I0J271738D01*
G01*
X177750000Y-78871738D01*
G75*
G02*
X178021738Y-78600000I271738J0D01*
G01*
X178978262Y-78600000D01*
G75*
G02*
X179250000Y-78871738I0J-271738D01*
G01*
X179250000Y-79578262D01*
G75*
G02*
X178978262Y-79850000I-271738J0D01*
G01*
G37*
G36*
G01*
X178978262Y-81900000D02*
X178021738Y-81900000D01*
G75*
G02*
X177750000Y-81628262I0J271738D01*
G01*
X177750000Y-80921738D01*
G75*
G02*
X178021738Y-80650000I271738J0D01*
G01*
X178978262Y-80650000D01*
G75*
G02*
X179250000Y-80921738I0J-271738D01*
G01*
X179250000Y-81628262D01*
G75*
G02*
X178978262Y-81900000I-271738J0D01*
G01*
G37*
%TD*%
%TO.C,R29*%
G36*
G01*
X169850000Y-142728262D02*
X169850000Y-141771738D01*
G75*
G02*
X170121738Y-141500000I271738J0D01*
G01*
X170828262Y-141500000D01*
G75*
G02*
X171100000Y-141771738I0J-271738D01*
G01*
X171100000Y-142728262D01*
G75*
G02*
X170828262Y-143000000I-271738J0D01*
G01*
X170121738Y-143000000D01*
G75*
G02*
X169850000Y-142728262I0J271738D01*
G01*
G37*
G36*
G01*
X171900000Y-142728262D02*
X171900000Y-141771738D01*
G75*
G02*
X172171738Y-141500000I271738J0D01*
G01*
X172878262Y-141500000D01*
G75*
G02*
X173150000Y-141771738I0J-271738D01*
G01*
X173150000Y-142728262D01*
G75*
G02*
X172878262Y-143000000I-271738J0D01*
G01*
X172171738Y-143000000D01*
G75*
G02*
X171900000Y-142728262I0J271738D01*
G01*
G37*
%TD*%
M02*
