%TF.GenerationSoftware,KiCad,Pcbnew,(5.1.9)-1*%
%TF.CreationDate,2021-10-22T11:21:13-05:00*%
%TF.ProjectId,simple-gpsdo,73696d70-6c65-42d6-9770-73646f2e6b69,C*%
%TF.SameCoordinates,Original*%
%TF.FileFunction,Copper,L2,Bot*%
%TF.FilePolarity,Positive*%
%FSLAX46Y46*%
G04 Gerber Fmt 4.6, Leading zero omitted, Abs format (unit mm)*
G04 Created by KiCad (PCBNEW (5.1.9)-1) date 2021-10-22 11:21:13*
%MOMM*%
%LPD*%
G01*
G04 APERTURE LIST*
%TA.AperFunction,ComponentPad*%
%ADD10C,1.524000*%
%TD*%
%TA.AperFunction,ComponentPad*%
%ADD11R,2.600000X2.600000*%
%TD*%
%TA.AperFunction,ComponentPad*%
%ADD12C,2.600000*%
%TD*%
%TA.AperFunction,ComponentPad*%
%ADD13C,2.032000*%
%TD*%
%TA.AperFunction,ComponentPad*%
%ADD14R,1.700000X1.700000*%
%TD*%
%TA.AperFunction,ComponentPad*%
%ADD15O,1.700000X1.700000*%
%TD*%
%TA.AperFunction,ComponentPad*%
%ADD16C,1.800000*%
%TD*%
%TA.AperFunction,ComponentPad*%
%ADD17R,1.800000X1.800000*%
%TD*%
%TA.AperFunction,ViaPad*%
%ADD18C,0.800000*%
%TD*%
%TA.AperFunction,ViaPad*%
%ADD19C,1.500000*%
%TD*%
%TA.AperFunction,Conductor*%
%ADD20C,0.500000*%
%TD*%
%TA.AperFunction,Conductor*%
%ADD21C,0.400000*%
%TD*%
%TA.AperFunction,Conductor*%
%ADD22C,2.000000*%
%TD*%
%TA.AperFunction,Conductor*%
%ADD23C,1.000000*%
%TD*%
%TA.AperFunction,Conductor*%
%ADD24C,1.500000*%
%TD*%
%TA.AperFunction,Conductor*%
%ADD25C,0.254000*%
%TD*%
%TA.AperFunction,Conductor*%
%ADD26C,0.100000*%
%TD*%
G04 APERTURE END LIST*
D10*
%TO.P,Y2,1*%
%TO.N,Net-(C26-Pad2)*%
X180200000Y-106640000D03*
%TO.P,Y2,2*%
%TO.N,Net-(Y2-Pad2)*%
X180200000Y-97750000D03*
%TO.P,Y2,3*%
%TO.N,Net-(FB2-Pad2)*%
X180200000Y-88860000D03*
%TO.P,Y2,4*%
%TO.N,Net-(R10-Pad2)*%
X154800000Y-88860000D03*
%TO.P,Y2,5*%
%TO.N,GND*%
X154800000Y-106640000D03*
%TD*%
%TO.P,C4,1*%
%TO.N,GND*%
%TA.AperFunction,SMDPad,CuDef*%
G36*
G01*
X136600000Y-121549999D02*
X136600000Y-122450001D01*
G75*
G02*
X136350001Y-122700000I-249999J0D01*
G01*
X135699999Y-122700000D01*
G75*
G02*
X135450000Y-122450001I0J249999D01*
G01*
X135450000Y-121549999D01*
G75*
G02*
X135699999Y-121300000I249999J0D01*
G01*
X136350001Y-121300000D01*
G75*
G02*
X136600000Y-121549999I0J-249999D01*
G01*
G37*
%TD.AperFunction*%
%TO.P,C4,2*%
%TO.N,Net-(C4-Pad2)*%
%TA.AperFunction,SMDPad,CuDef*%
G36*
G01*
X134550000Y-121549999D02*
X134550000Y-122450001D01*
G75*
G02*
X134300001Y-122700000I-249999J0D01*
G01*
X133649999Y-122700000D01*
G75*
G02*
X133400000Y-122450001I0J249999D01*
G01*
X133400000Y-121549999D01*
G75*
G02*
X133649999Y-121300000I249999J0D01*
G01*
X134300001Y-121300000D01*
G75*
G02*
X134550000Y-121549999I0J-249999D01*
G01*
G37*
%TD.AperFunction*%
%TD*%
%TO.P,C6,2*%
%TO.N,+5V*%
%TA.AperFunction,SMDPad,CuDef*%
G36*
G01*
X135450000Y-118450001D02*
X135450000Y-117549999D01*
G75*
G02*
X135699999Y-117300000I249999J0D01*
G01*
X136350001Y-117300000D01*
G75*
G02*
X136600000Y-117549999I0J-249999D01*
G01*
X136600000Y-118450001D01*
G75*
G02*
X136350001Y-118700000I-249999J0D01*
G01*
X135699999Y-118700000D01*
G75*
G02*
X135450000Y-118450001I0J249999D01*
G01*
G37*
%TD.AperFunction*%
%TO.P,C6,1*%
%TO.N,GND*%
%TA.AperFunction,SMDPad,CuDef*%
G36*
G01*
X133400000Y-118450001D02*
X133400000Y-117549999D01*
G75*
G02*
X133649999Y-117300000I249999J0D01*
G01*
X134300001Y-117300000D01*
G75*
G02*
X134550000Y-117549999I0J-249999D01*
G01*
X134550000Y-118450001D01*
G75*
G02*
X134300001Y-118700000I-249999J0D01*
G01*
X133649999Y-118700000D01*
G75*
G02*
X133400000Y-118450001I0J249999D01*
G01*
G37*
%TD.AperFunction*%
%TD*%
D11*
%TO.P,J2,1*%
%TO.N,Net-(F1-Pad2)*%
X83750000Y-137500000D03*
D12*
%TO.P,J2,2*%
%TO.N,GND*%
X77750000Y-137500000D03*
%TO.P,J2,3*%
X80750000Y-142200000D03*
%TD*%
D13*
%TO.P,J8,2*%
%TO.N,Net-(J8-Pad2)*%
X92000000Y-89500000D03*
%TO.P,J8,1*%
%TO.N,Net-(J8-Pad1)*%
X94590800Y-89500000D03*
%TO.P,J8,3*%
%TO.N,GND*%
%TA.AperFunction,ComponentPad*%
G36*
G01*
X87504200Y-96993000D02*
X90298200Y-96993000D01*
G75*
G02*
X90806200Y-97501000I0J-508000D01*
G01*
X90806200Y-98517000D01*
G75*
G02*
X90298200Y-99025000I-508000J0D01*
G01*
X87504200Y-99025000D01*
G75*
G02*
X86996200Y-98517000I0J508000D01*
G01*
X86996200Y-97501000D01*
G75*
G02*
X87504200Y-96993000I508000J0D01*
G01*
G37*
%TD.AperFunction*%
%TA.AperFunction,ComponentPad*%
G36*
G01*
X87504200Y-79975000D02*
X90298200Y-79975000D01*
G75*
G02*
X90806200Y-80483000I0J-508000D01*
G01*
X90806200Y-81499000D01*
G75*
G02*
X90298200Y-82007000I-508000J0D01*
G01*
X87504200Y-82007000D01*
G75*
G02*
X86996200Y-81499000I0J508000D01*
G01*
X86996200Y-80483000D01*
G75*
G02*
X87504200Y-79975000I508000J0D01*
G01*
G37*
%TD.AperFunction*%
%TA.AperFunction,ComponentPad*%
G36*
G01*
X77293400Y-96993000D02*
X80087400Y-96993000D01*
G75*
G02*
X80595400Y-97501000I0J-508000D01*
G01*
X80595400Y-98517000D01*
G75*
G02*
X80087400Y-99025000I-508000J0D01*
G01*
X77293400Y-99025000D01*
G75*
G02*
X76785400Y-98517000I0J508000D01*
G01*
X76785400Y-97501000D01*
G75*
G02*
X77293400Y-96993000I508000J0D01*
G01*
G37*
%TD.AperFunction*%
%TA.AperFunction,ComponentPad*%
G36*
G01*
X77293400Y-79975000D02*
X80087400Y-79975000D01*
G75*
G02*
X80595400Y-80483000I0J-508000D01*
G01*
X80595400Y-81499000D01*
G75*
G02*
X80087400Y-82007000I-508000J0D01*
G01*
X77293400Y-82007000D01*
G75*
G02*
X76785400Y-81499000I0J508000D01*
G01*
X76785400Y-80483000D01*
G75*
G02*
X77293400Y-79975000I508000J0D01*
G01*
G37*
%TD.AperFunction*%
%TD*%
D14*
%TO.P,JP2,1*%
%TO.N,Net-(C25-Pad1)*%
X117500000Y-124750000D03*
D15*
%TO.P,JP2,2*%
%TO.N,~RST*%
X114960000Y-124750000D03*
%TD*%
D14*
%TO.P,J1,1*%
%TO.N,GPS_PPS*%
X90000000Y-110000000D03*
D15*
%TO.P,J1,2*%
%TO.N,GND*%
X90000000Y-107460000D03*
%TD*%
D16*
%TO.P,D2,2*%
%TO.N,Net-(D2-Pad2)*%
X191500000Y-134960000D03*
D17*
%TO.P,D2,1*%
%TO.N,GND*%
X191500000Y-137500000D03*
%TD*%
%TO.P,D3,1*%
%TO.N,GND*%
X191500000Y-122500000D03*
D16*
%TO.P,D3,2*%
%TO.N,Net-(D3-Pad2)*%
X191500000Y-119960000D03*
%TD*%
%TO.P,D4,2*%
%TO.N,Net-(D4-Pad2)*%
X191500000Y-142460000D03*
D17*
%TO.P,D4,1*%
%TO.N,GND*%
X191500000Y-145000000D03*
%TD*%
%TO.P,D5,1*%
%TO.N,GND*%
X191500000Y-130000000D03*
D16*
%TO.P,D5,2*%
%TO.N,Net-(D5-Pad2)*%
X191500000Y-127460000D03*
%TD*%
D14*
%TO.P,SW1,1*%
%TO.N,GND*%
X107500000Y-124750000D03*
D15*
%TO.P,SW1,2*%
%TO.N,~RST*%
X110040000Y-124750000D03*
%TD*%
D17*
%TO.P,D6,1*%
%TO.N,GND*%
X191500000Y-115040000D03*
D16*
%TO.P,D6,2*%
%TO.N,Net-(D6-Pad2)*%
X191500000Y-112500000D03*
%TD*%
D18*
%TO.N,GND*%
X106750000Y-144000000D03*
X108000000Y-144000000D03*
X109250000Y-144000000D03*
X110500000Y-144000000D03*
X111750000Y-144000000D03*
X113000000Y-144000000D03*
X114250000Y-144000000D03*
X114250000Y-142750000D03*
X114250000Y-141500000D03*
X76500000Y-76250000D03*
X78000000Y-76250000D03*
X79500000Y-76250000D03*
X81000000Y-76250000D03*
X82500000Y-76250000D03*
X88500000Y-76250000D03*
X85500000Y-76250000D03*
X87000000Y-76250000D03*
X84000000Y-76250000D03*
X90000000Y-76250000D03*
X94500000Y-76250000D03*
X91500000Y-76250000D03*
X93000000Y-76250000D03*
X96000000Y-76250000D03*
X100500000Y-76250000D03*
X102000000Y-76250000D03*
X97500000Y-76250000D03*
X99000000Y-76250000D03*
X103500000Y-76250000D03*
X109500000Y-76250000D03*
X106500000Y-76250000D03*
X130500000Y-76250000D03*
X124500000Y-76250000D03*
X121500000Y-76250000D03*
X108000000Y-76250000D03*
X129000000Y-76250000D03*
X132000000Y-76250000D03*
X105000000Y-76250000D03*
X120000000Y-76250000D03*
X111000000Y-76250000D03*
X123000000Y-76250000D03*
X126000000Y-76250000D03*
X127500000Y-76250000D03*
X115500000Y-76250000D03*
X117000000Y-76250000D03*
X112500000Y-76250000D03*
X114000000Y-76250000D03*
X118500000Y-76250000D03*
X138000000Y-76250000D03*
X135000000Y-76250000D03*
X159000000Y-76250000D03*
X153000000Y-76250000D03*
X150000000Y-76250000D03*
X136500000Y-76250000D03*
X157500000Y-76250000D03*
X160500000Y-76250000D03*
X133500000Y-76250000D03*
X148500000Y-76250000D03*
X139500000Y-76250000D03*
X151500000Y-76250000D03*
X154500000Y-76250000D03*
X156000000Y-76250000D03*
X163500000Y-76250000D03*
X162000000Y-76250000D03*
X180000000Y-76250000D03*
X171000000Y-76250000D03*
X178500000Y-76250000D03*
X174000000Y-76250000D03*
X181500000Y-76250000D03*
X187500000Y-76250000D03*
X183000000Y-76250000D03*
X172500000Y-76250000D03*
X184500000Y-76250000D03*
X168000000Y-76250000D03*
X177000000Y-76250000D03*
X169500000Y-76250000D03*
X189000000Y-76250000D03*
X175500000Y-76250000D03*
X186000000Y-76250000D03*
X166500000Y-76250000D03*
X165000000Y-76250000D03*
X144000000Y-76250000D03*
X145500000Y-76250000D03*
X141000000Y-76250000D03*
X142500000Y-76250000D03*
X147000000Y-76250000D03*
X190500000Y-76250000D03*
X192000000Y-76250000D03*
X193500000Y-76250000D03*
X80750000Y-148250000D03*
X77750000Y-148250000D03*
X101750000Y-148250000D03*
X95750000Y-148250000D03*
X92750000Y-148250000D03*
X79250000Y-148250000D03*
X100250000Y-148250000D03*
X103250000Y-148250000D03*
X76250000Y-148250000D03*
X91250000Y-148250000D03*
X82250000Y-148250000D03*
X94250000Y-148250000D03*
X97250000Y-148250000D03*
X98750000Y-148250000D03*
X106250000Y-148250000D03*
X104750000Y-148250000D03*
X122750000Y-148250000D03*
X113750000Y-148250000D03*
X121250000Y-148250000D03*
X116750000Y-148250000D03*
X124250000Y-148250000D03*
X130250000Y-148250000D03*
X125750000Y-148250000D03*
X115250000Y-148250000D03*
X127250000Y-148250000D03*
X110750000Y-148250000D03*
X119750000Y-148250000D03*
X112250000Y-148250000D03*
X131750000Y-148250000D03*
X118250000Y-148250000D03*
X128750000Y-148250000D03*
X109250000Y-148250000D03*
X107750000Y-148250000D03*
X86750000Y-148250000D03*
X88250000Y-148250000D03*
X83750000Y-148250000D03*
X85250000Y-148250000D03*
X89750000Y-148250000D03*
X161750000Y-148250000D03*
X163250000Y-148250000D03*
X158750000Y-148250000D03*
X149750000Y-148250000D03*
X157250000Y-148250000D03*
X179750000Y-148250000D03*
X167750000Y-148250000D03*
X182750000Y-148250000D03*
X178250000Y-148250000D03*
X187250000Y-148250000D03*
X188750000Y-148250000D03*
X175250000Y-148250000D03*
X166250000Y-148250000D03*
X185750000Y-148250000D03*
X164750000Y-148250000D03*
X143750000Y-148250000D03*
X140750000Y-148250000D03*
X170750000Y-148250000D03*
X184250000Y-148250000D03*
X151250000Y-148250000D03*
X142250000Y-148250000D03*
X160250000Y-148250000D03*
X155750000Y-148250000D03*
X173750000Y-148250000D03*
X146750000Y-148250000D03*
X145250000Y-148250000D03*
X139250000Y-148250000D03*
X154250000Y-148250000D03*
X181250000Y-148250000D03*
X172250000Y-148250000D03*
X176750000Y-148250000D03*
X169250000Y-148250000D03*
X152750000Y-148250000D03*
X136250000Y-148250000D03*
X137750000Y-148250000D03*
X134750000Y-148250000D03*
X133250000Y-148250000D03*
X148250000Y-148250000D03*
X191750000Y-148250000D03*
X190250000Y-148250000D03*
X193250000Y-148250000D03*
X144500000Y-92250000D03*
X145750000Y-92250000D03*
X147000000Y-92250000D03*
X136250000Y-89250000D03*
X136250000Y-90500000D03*
X136250000Y-91750000D03*
X125500000Y-92250000D03*
X127000000Y-92250000D03*
X128500000Y-92250000D03*
X112500000Y-92250000D03*
X113750000Y-92250000D03*
X115000000Y-92000000D03*
X116000000Y-91000000D03*
X116500000Y-89750000D03*
X116500000Y-88500000D03*
X111500000Y-93000000D03*
X114000000Y-87250000D03*
X114000000Y-88500000D03*
X113500000Y-89750000D03*
X112250000Y-89750000D03*
X116500000Y-87250000D03*
X117750000Y-87250000D03*
X119000000Y-87250000D03*
X120250000Y-87250000D03*
X119750000Y-83750000D03*
X118500000Y-83750000D03*
X117250000Y-83750000D03*
X122500000Y-87250000D03*
X125250000Y-84750000D03*
X126500000Y-84750000D03*
X127750000Y-84750000D03*
X129000000Y-84750000D03*
X130250000Y-84750000D03*
X131500000Y-84750000D03*
X132750000Y-84750000D03*
X134000000Y-84750000D03*
X135250000Y-84750000D03*
X136500000Y-84750000D03*
X137750000Y-84750000D03*
X139000000Y-84750000D03*
X140250000Y-84750000D03*
X141500000Y-84750000D03*
X142750000Y-84750000D03*
X144000000Y-84750000D03*
X148250000Y-84750000D03*
X149500000Y-84750000D03*
X150750000Y-84750000D03*
X152000000Y-84750000D03*
X153250000Y-85250000D03*
X154250000Y-86250000D03*
X155250000Y-87250000D03*
X148250000Y-87250000D03*
X149500000Y-87250000D03*
X150750000Y-87250000D03*
X152000000Y-88000000D03*
X152750000Y-89000000D03*
X153500000Y-90250000D03*
X154750000Y-90750000D03*
X156000000Y-90500000D03*
X156750000Y-89500000D03*
X156500000Y-88250000D03*
X144000000Y-87250000D03*
X142750000Y-87250000D03*
X141500000Y-87250000D03*
X140250000Y-87250000D03*
X139000000Y-87250000D03*
X137750000Y-87250000D03*
X136500000Y-87250000D03*
X135250000Y-87250000D03*
X134000000Y-87250000D03*
X132750000Y-87250000D03*
X131500000Y-87250000D03*
X130250000Y-87250000D03*
X129000000Y-87250000D03*
X127750000Y-87250000D03*
X126500000Y-87250000D03*
X125250000Y-87250000D03*
X114000000Y-85000000D03*
X107250000Y-92250000D03*
X106000000Y-92250000D03*
X104750000Y-92250000D03*
X103750000Y-91250000D03*
X102750000Y-90250000D03*
X105750000Y-89750000D03*
X107250000Y-89750000D03*
X105000000Y-88750000D03*
X105000000Y-87500000D03*
X105000000Y-86250000D03*
X107500000Y-82000000D03*
X106000000Y-82000000D03*
X99500000Y-89000000D03*
X100750000Y-89000000D03*
X100750000Y-85500000D03*
X99500000Y-85500000D03*
X100750000Y-82250000D03*
X99500000Y-82250000D03*
X98250000Y-82250000D03*
X97000000Y-82250000D03*
X95750000Y-82250000D03*
X94500000Y-82250000D03*
X93500000Y-83000000D03*
X92500000Y-84000000D03*
X91500000Y-85000000D03*
X90500000Y-86000000D03*
X90500000Y-87250000D03*
X90250000Y-88500000D03*
X90000000Y-89750000D03*
X90500000Y-91000000D03*
X91750000Y-91750000D03*
X93250000Y-91250000D03*
X94750000Y-91750000D03*
X96000000Y-91250000D03*
X96750000Y-90250000D03*
X93250000Y-88000000D03*
X93500000Y-86750000D03*
X94500000Y-86000000D03*
X95750000Y-85500000D03*
X102000000Y-82250000D03*
X103250000Y-82250000D03*
X104500000Y-82250000D03*
X105250000Y-83500000D03*
X136000000Y-98000000D03*
X130750000Y-100250000D03*
X130750000Y-99000000D03*
X130750000Y-97750000D03*
X129500000Y-100250000D03*
X125750000Y-100250000D03*
X135500000Y-100250000D03*
X141750000Y-98250000D03*
X143000000Y-98250000D03*
X141750000Y-99500000D03*
X141750000Y-100750000D03*
X141750000Y-102000000D03*
X141750000Y-103250000D03*
X141750000Y-104500000D03*
X141750000Y-105750000D03*
X141750000Y-107000000D03*
X141750000Y-108250000D03*
X141750000Y-109500000D03*
X139750000Y-102000000D03*
X139750000Y-103250000D03*
X139750000Y-104500000D03*
X139750000Y-105750000D03*
X139750000Y-107000000D03*
X139750000Y-108250000D03*
X139750000Y-109500000D03*
X139750000Y-112000000D03*
X141750000Y-112000000D03*
X141750000Y-113250000D03*
X141750000Y-114500000D03*
X133250000Y-112750000D03*
X132000000Y-112750000D03*
X130750000Y-112750000D03*
X131000000Y-118750000D03*
X131000000Y-121250000D03*
X131000000Y-122500000D03*
X131000000Y-123750000D03*
X133750000Y-124000000D03*
X135000000Y-124000000D03*
X136250000Y-124000000D03*
X133750000Y-116000000D03*
X135000000Y-116000000D03*
X136250000Y-116000000D03*
X137500000Y-116000000D03*
X139750000Y-100750000D03*
X135500000Y-96750000D03*
X137000000Y-99000000D03*
X122500000Y-89250000D03*
X120250000Y-88500000D03*
X121250000Y-89250000D03*
X113000000Y-142750000D03*
X111750000Y-142750000D03*
X115500000Y-142750000D03*
X115500000Y-141500000D03*
X99750000Y-137000000D03*
X98500000Y-137000000D03*
X87750000Y-144250000D03*
X89000000Y-144250000D03*
X90250000Y-144250000D03*
X91500000Y-144250000D03*
X92750000Y-144250000D03*
%TO.N,GPS_PPS*%
X148250000Y-120000000D03*
X152500000Y-99000000D03*
X149250000Y-95750000D03*
X132000000Y-93350000D03*
%TO.N,Net-(C4-Pad2)*%
X132000000Y-120500000D03*
%TO.N,/PWM_D3*%
X145250000Y-128400010D03*
X159750000Y-114000000D03*
%TO.N,/PWM_D11*%
X146500000Y-111750000D03*
X129250000Y-125750000D03*
%TO.N,/ADC2*%
X131250000Y-106000000D03*
X178250000Y-84500000D03*
D19*
%TO.N,+5V*%
X129900000Y-135100000D03*
D18*
X135000000Y-120000000D03*
X122250000Y-112500000D03*
X126000000Y-112500000D03*
D19*
X164000000Y-92000000D03*
X149000000Y-98750000D03*
%TD*%
D20*
%TO.N,GPS_PPS*%
X148250000Y-120000000D02*
X152500000Y-115750000D01*
X152500000Y-115750000D02*
X152500000Y-99000000D01*
X149250000Y-95750000D02*
X146750000Y-93250000D01*
X132100000Y-93250000D02*
X132000000Y-93350000D01*
X146750000Y-93250000D02*
X132100000Y-93250000D01*
%TO.N,Net-(C4-Pad2)*%
X133500000Y-122000000D02*
X132000000Y-120500000D01*
X133975000Y-122000000D02*
X133500000Y-122000000D01*
D21*
%TO.N,/PWM_D3*%
X159650010Y-114000000D02*
X159750000Y-114000000D01*
X145250000Y-128400010D02*
X159650010Y-114000000D01*
%TO.N,/PWM_D11*%
X146500000Y-111750000D02*
X145750000Y-111000000D01*
X145750000Y-111000000D02*
X129750000Y-111000000D01*
X129750000Y-111000000D02*
X127000000Y-113750000D01*
X127000000Y-113750000D02*
X127000000Y-125000000D01*
X127750000Y-125750000D02*
X129250000Y-125750000D01*
X127000000Y-125000000D02*
X127750000Y-125750000D01*
D20*
%TO.N,/ADC2*%
X131250000Y-106000000D02*
X124500000Y-106000000D01*
X124500000Y-106000000D02*
X123750000Y-105250000D01*
X123750000Y-105250000D02*
X123750000Y-84500000D01*
X123750000Y-84500000D02*
X124500000Y-83750000D01*
X124500000Y-83750000D02*
X164000000Y-83750000D01*
X164000000Y-83750000D02*
X166750000Y-86500000D01*
X176250000Y-86500000D02*
X178250000Y-84500000D01*
X166750000Y-86500000D02*
X176250000Y-86500000D01*
D22*
%TO.N,+5V*%
X129900000Y-135100000D02*
X132650000Y-135100000D01*
X132650000Y-135100000D02*
X139000000Y-128750000D01*
X139000000Y-128750000D02*
X139000000Y-119750000D01*
X137250000Y-118000000D02*
X136025000Y-118000000D01*
X139000000Y-119750000D02*
X137250000Y-118000000D01*
D23*
X136025000Y-118975000D02*
X135000000Y-120000000D01*
X136025000Y-118000000D02*
X136025000Y-118975000D01*
D20*
X122250000Y-112500000D02*
X126000000Y-112500000D01*
D24*
X136025000Y-118000000D02*
X145000000Y-118000000D01*
X145000000Y-118000000D02*
X149000000Y-114000000D01*
X149000000Y-114000000D02*
X149000000Y-98750000D01*
X149000000Y-98750000D02*
X152500000Y-95250000D01*
X152500000Y-95250000D02*
X160750000Y-95250000D01*
X160750000Y-95250000D02*
X164000000Y-92000000D01*
X164000000Y-92000000D02*
X164000000Y-92000000D01*
X149000000Y-98750000D02*
X149000000Y-98750000D01*
%TD*%
D25*
%TO.N,GND*%
X194048001Y-149048000D02*
X75452000Y-149048000D01*
X75452000Y-145900000D01*
X190095571Y-145900000D01*
X190105263Y-145998409D01*
X190133968Y-146093037D01*
X190180583Y-146180246D01*
X190243315Y-146256685D01*
X190319754Y-146319417D01*
X190406963Y-146366032D01*
X190501591Y-146394737D01*
X190600000Y-146404429D01*
X191126500Y-146402000D01*
X191252000Y-146276500D01*
X191252000Y-145248000D01*
X191748000Y-145248000D01*
X191748000Y-146276500D01*
X191873500Y-146402000D01*
X192400000Y-146404429D01*
X192498409Y-146394737D01*
X192593037Y-146366032D01*
X192680246Y-146319417D01*
X192756685Y-146256685D01*
X192819417Y-146180246D01*
X192866032Y-146093037D01*
X192894737Y-145998409D01*
X192904429Y-145900000D01*
X192902000Y-145373500D01*
X192776500Y-145248000D01*
X191748000Y-145248000D01*
X191252000Y-145248000D01*
X190223500Y-145248000D01*
X190098000Y-145373500D01*
X190095571Y-145900000D01*
X75452000Y-145900000D01*
X75452000Y-144100000D01*
X190095571Y-144100000D01*
X190098000Y-144626500D01*
X190223500Y-144752000D01*
X191252000Y-144752000D01*
X191252000Y-144732000D01*
X191748000Y-144732000D01*
X191748000Y-144752000D01*
X192776500Y-144752000D01*
X192902000Y-144626500D01*
X192904429Y-144100000D01*
X192894737Y-144001591D01*
X192866032Y-143906963D01*
X192819417Y-143819754D01*
X192756685Y-143743315D01*
X192680246Y-143680583D01*
X192593037Y-143633968D01*
X192498409Y-143605263D01*
X192400000Y-143595571D01*
X192187568Y-143596551D01*
X192345913Y-143490748D01*
X192530748Y-143305913D01*
X192675972Y-143088570D01*
X192776004Y-142847072D01*
X192827000Y-142590698D01*
X192827000Y-142329302D01*
X192776004Y-142072928D01*
X192675972Y-141831430D01*
X192530748Y-141614087D01*
X192345913Y-141429252D01*
X192128570Y-141284028D01*
X191887072Y-141183996D01*
X191630698Y-141133000D01*
X191369302Y-141133000D01*
X191112928Y-141183996D01*
X190871430Y-141284028D01*
X190654087Y-141429252D01*
X190469252Y-141614087D01*
X190324028Y-141831430D01*
X190223996Y-142072928D01*
X190173000Y-142329302D01*
X190173000Y-142590698D01*
X190223996Y-142847072D01*
X190324028Y-143088570D01*
X190469252Y-143305913D01*
X190654087Y-143490748D01*
X190812432Y-143596551D01*
X190600000Y-143595571D01*
X190501591Y-143605263D01*
X190406963Y-143633968D01*
X190319754Y-143680583D01*
X190243315Y-143743315D01*
X190180583Y-143819754D01*
X190133968Y-143906963D01*
X190105263Y-144001591D01*
X190095571Y-144100000D01*
X75452000Y-144100000D01*
X75452000Y-143554018D01*
X79746707Y-143554018D01*
X79896352Y-143796868D01*
X80224289Y-143932723D01*
X80572428Y-144001990D01*
X80927390Y-144002008D01*
X81275537Y-143932776D01*
X81603486Y-143796954D01*
X81603648Y-143796868D01*
X81753293Y-143554018D01*
X80750000Y-142550725D01*
X79746707Y-143554018D01*
X75452000Y-143554018D01*
X75452000Y-142377390D01*
X78947992Y-142377390D01*
X79017224Y-142725537D01*
X79153046Y-143053486D01*
X79153132Y-143053648D01*
X79395982Y-143203293D01*
X80399275Y-142200000D01*
X81100725Y-142200000D01*
X82104018Y-143203293D01*
X82346868Y-143053648D01*
X82482723Y-142725711D01*
X82551990Y-142377572D01*
X82552008Y-142022610D01*
X82482776Y-141674463D01*
X82346954Y-141346514D01*
X82346868Y-141346352D01*
X82104018Y-141196707D01*
X81100725Y-142200000D01*
X80399275Y-142200000D01*
X79395982Y-141196707D01*
X79153132Y-141346352D01*
X79017277Y-141674289D01*
X78948010Y-142022428D01*
X78947992Y-142377390D01*
X75452000Y-142377390D01*
X75452000Y-140845982D01*
X79746707Y-140845982D01*
X80750000Y-141849275D01*
X81753293Y-140845982D01*
X81603648Y-140603132D01*
X81275711Y-140467277D01*
X80927572Y-140398010D01*
X80572610Y-140397992D01*
X80224463Y-140467224D01*
X79896514Y-140603046D01*
X79896352Y-140603132D01*
X79746707Y-140845982D01*
X75452000Y-140845982D01*
X75452000Y-138854018D01*
X76746707Y-138854018D01*
X76896352Y-139096868D01*
X77224289Y-139232723D01*
X77572428Y-139301990D01*
X77927390Y-139302008D01*
X78275537Y-139232776D01*
X78603486Y-139096954D01*
X78603648Y-139096868D01*
X78753293Y-138854018D01*
X77750000Y-137850725D01*
X76746707Y-138854018D01*
X75452000Y-138854018D01*
X75452000Y-137677390D01*
X75947992Y-137677390D01*
X76017224Y-138025537D01*
X76153046Y-138353486D01*
X76153132Y-138353648D01*
X76395982Y-138503293D01*
X77399275Y-137500000D01*
X78100725Y-137500000D01*
X79104018Y-138503293D01*
X79346868Y-138353648D01*
X79482723Y-138025711D01*
X79551990Y-137677572D01*
X79552008Y-137322610D01*
X79482776Y-136974463D01*
X79346954Y-136646514D01*
X79346868Y-136646352D01*
X79104018Y-136496707D01*
X78100725Y-137500000D01*
X77399275Y-137500000D01*
X76395982Y-136496707D01*
X76153132Y-136646352D01*
X76017277Y-136974289D01*
X75948010Y-137322428D01*
X75947992Y-137677390D01*
X75452000Y-137677390D01*
X75452000Y-136145982D01*
X76746707Y-136145982D01*
X77750000Y-137149275D01*
X78699275Y-136200000D01*
X82020934Y-136200000D01*
X82020934Y-138800000D01*
X82029178Y-138883707D01*
X82053595Y-138964196D01*
X82093245Y-139038376D01*
X82146605Y-139103395D01*
X82211624Y-139156755D01*
X82285804Y-139196405D01*
X82366293Y-139220822D01*
X82450000Y-139229066D01*
X85050000Y-139229066D01*
X85133707Y-139220822D01*
X85214196Y-139196405D01*
X85288376Y-139156755D01*
X85353395Y-139103395D01*
X85406755Y-139038376D01*
X85446405Y-138964196D01*
X85470822Y-138883707D01*
X85479066Y-138800000D01*
X85479066Y-138400000D01*
X190095571Y-138400000D01*
X190105263Y-138498409D01*
X190133968Y-138593037D01*
X190180583Y-138680246D01*
X190243315Y-138756685D01*
X190319754Y-138819417D01*
X190406963Y-138866032D01*
X190501591Y-138894737D01*
X190600000Y-138904429D01*
X191126500Y-138902000D01*
X191252000Y-138776500D01*
X191252000Y-137748000D01*
X191748000Y-137748000D01*
X191748000Y-138776500D01*
X191873500Y-138902000D01*
X192400000Y-138904429D01*
X192498409Y-138894737D01*
X192593037Y-138866032D01*
X192680246Y-138819417D01*
X192756685Y-138756685D01*
X192819417Y-138680246D01*
X192866032Y-138593037D01*
X192894737Y-138498409D01*
X192904429Y-138400000D01*
X192902000Y-137873500D01*
X192776500Y-137748000D01*
X191748000Y-137748000D01*
X191252000Y-137748000D01*
X190223500Y-137748000D01*
X190098000Y-137873500D01*
X190095571Y-138400000D01*
X85479066Y-138400000D01*
X85479066Y-136600000D01*
X190095571Y-136600000D01*
X190098000Y-137126500D01*
X190223500Y-137252000D01*
X191252000Y-137252000D01*
X191252000Y-137232000D01*
X191748000Y-137232000D01*
X191748000Y-137252000D01*
X192776500Y-137252000D01*
X192902000Y-137126500D01*
X192904429Y-136600000D01*
X192894737Y-136501591D01*
X192866032Y-136406963D01*
X192819417Y-136319754D01*
X192756685Y-136243315D01*
X192680246Y-136180583D01*
X192593037Y-136133968D01*
X192498409Y-136105263D01*
X192400000Y-136095571D01*
X192187568Y-136096551D01*
X192345913Y-135990748D01*
X192530748Y-135805913D01*
X192675972Y-135588570D01*
X192776004Y-135347072D01*
X192827000Y-135090698D01*
X192827000Y-134829302D01*
X192776004Y-134572928D01*
X192675972Y-134331430D01*
X192530748Y-134114087D01*
X192345913Y-133929252D01*
X192128570Y-133784028D01*
X191887072Y-133683996D01*
X191630698Y-133633000D01*
X191369302Y-133633000D01*
X191112928Y-133683996D01*
X190871430Y-133784028D01*
X190654087Y-133929252D01*
X190469252Y-134114087D01*
X190324028Y-134331430D01*
X190223996Y-134572928D01*
X190173000Y-134829302D01*
X190173000Y-135090698D01*
X190223996Y-135347072D01*
X190324028Y-135588570D01*
X190469252Y-135805913D01*
X190654087Y-135990748D01*
X190812432Y-136096551D01*
X190600000Y-136095571D01*
X190501591Y-136105263D01*
X190406963Y-136133968D01*
X190319754Y-136180583D01*
X190243315Y-136243315D01*
X190180583Y-136319754D01*
X190133968Y-136406963D01*
X190105263Y-136501591D01*
X190095571Y-136600000D01*
X85479066Y-136600000D01*
X85479066Y-136200000D01*
X85470822Y-136116293D01*
X85446405Y-136035804D01*
X85406755Y-135961624D01*
X85353395Y-135896605D01*
X85288376Y-135843245D01*
X85214196Y-135803595D01*
X85133707Y-135779178D01*
X85050000Y-135770934D01*
X82450000Y-135770934D01*
X82366293Y-135779178D01*
X82285804Y-135803595D01*
X82211624Y-135843245D01*
X82146605Y-135896605D01*
X82093245Y-135961624D01*
X82053595Y-136035804D01*
X82029178Y-136116293D01*
X82020934Y-136200000D01*
X78699275Y-136200000D01*
X78753293Y-136145982D01*
X78603648Y-135903132D01*
X78275711Y-135767277D01*
X77927572Y-135698010D01*
X77572610Y-135697992D01*
X77224463Y-135767224D01*
X76896514Y-135903046D01*
X76896352Y-135903132D01*
X76746707Y-136145982D01*
X75452000Y-136145982D01*
X75452000Y-135100000D01*
X128466096Y-135100000D01*
X128493648Y-135379741D01*
X128575245Y-135648731D01*
X128707752Y-135896634D01*
X128886077Y-136113923D01*
X129103366Y-136292248D01*
X129351269Y-136424755D01*
X129620259Y-136506352D01*
X129829902Y-136527000D01*
X132579912Y-136527000D01*
X132650000Y-136533903D01*
X132720088Y-136527000D01*
X132720098Y-136527000D01*
X132929741Y-136506352D01*
X133198731Y-136424755D01*
X133446634Y-136292248D01*
X133663923Y-136113923D01*
X133708609Y-136059473D01*
X138868082Y-130900000D01*
X190095571Y-130900000D01*
X190105263Y-130998409D01*
X190133968Y-131093037D01*
X190180583Y-131180246D01*
X190243315Y-131256685D01*
X190319754Y-131319417D01*
X190406963Y-131366032D01*
X190501591Y-131394737D01*
X190600000Y-131404429D01*
X191126500Y-131402000D01*
X191252000Y-131276500D01*
X191252000Y-130248000D01*
X191748000Y-130248000D01*
X191748000Y-131276500D01*
X191873500Y-131402000D01*
X192400000Y-131404429D01*
X192498409Y-131394737D01*
X192593037Y-131366032D01*
X192680246Y-131319417D01*
X192756685Y-131256685D01*
X192819417Y-131180246D01*
X192866032Y-131093037D01*
X192894737Y-130998409D01*
X192904429Y-130900000D01*
X192902000Y-130373500D01*
X192776500Y-130248000D01*
X191748000Y-130248000D01*
X191252000Y-130248000D01*
X190223500Y-130248000D01*
X190098000Y-130373500D01*
X190095571Y-130900000D01*
X138868082Y-130900000D01*
X139959483Y-129808600D01*
X140013922Y-129763923D01*
X140058601Y-129709482D01*
X140058608Y-129709475D01*
X140192247Y-129546635D01*
X140192248Y-129546634D01*
X140324755Y-129298731D01*
X140406352Y-129029741D01*
X140427000Y-128820098D01*
X140427000Y-128820089D01*
X140433903Y-128750001D01*
X140427000Y-128679913D01*
X140427000Y-128318558D01*
X144423000Y-128318558D01*
X144423000Y-128481462D01*
X144454782Y-128641237D01*
X144517123Y-128791741D01*
X144607628Y-128927191D01*
X144722819Y-129042382D01*
X144858269Y-129132887D01*
X145008773Y-129195228D01*
X145168548Y-129227010D01*
X145331452Y-129227010D01*
X145491227Y-129195228D01*
X145641731Y-129132887D01*
X145690949Y-129100000D01*
X190095571Y-129100000D01*
X190098000Y-129626500D01*
X190223500Y-129752000D01*
X191252000Y-129752000D01*
X191252000Y-129732000D01*
X191748000Y-129732000D01*
X191748000Y-129752000D01*
X192776500Y-129752000D01*
X192902000Y-129626500D01*
X192904429Y-129100000D01*
X192894737Y-129001591D01*
X192866032Y-128906963D01*
X192819417Y-128819754D01*
X192756685Y-128743315D01*
X192680246Y-128680583D01*
X192593037Y-128633968D01*
X192498409Y-128605263D01*
X192400000Y-128595571D01*
X192187568Y-128596551D01*
X192345913Y-128490748D01*
X192530748Y-128305913D01*
X192675972Y-128088570D01*
X192776004Y-127847072D01*
X192827000Y-127590698D01*
X192827000Y-127329302D01*
X192776004Y-127072928D01*
X192675972Y-126831430D01*
X192530748Y-126614087D01*
X192345913Y-126429252D01*
X192128570Y-126284028D01*
X191887072Y-126183996D01*
X191630698Y-126133000D01*
X191369302Y-126133000D01*
X191112928Y-126183996D01*
X190871430Y-126284028D01*
X190654087Y-126429252D01*
X190469252Y-126614087D01*
X190324028Y-126831430D01*
X190223996Y-127072928D01*
X190173000Y-127329302D01*
X190173000Y-127590698D01*
X190223996Y-127847072D01*
X190324028Y-128088570D01*
X190469252Y-128305913D01*
X190654087Y-128490748D01*
X190812432Y-128596551D01*
X190600000Y-128595571D01*
X190501591Y-128605263D01*
X190406963Y-128633968D01*
X190319754Y-128680583D01*
X190243315Y-128743315D01*
X190180583Y-128819754D01*
X190133968Y-128906963D01*
X190105263Y-129001591D01*
X190095571Y-129100000D01*
X145690949Y-129100000D01*
X145777181Y-129042382D01*
X145892372Y-128927191D01*
X145982877Y-128791741D01*
X146045218Y-128641237D01*
X146077000Y-128481462D01*
X146077000Y-128459721D01*
X151136721Y-123400000D01*
X190095571Y-123400000D01*
X190105263Y-123498409D01*
X190133968Y-123593037D01*
X190180583Y-123680246D01*
X190243315Y-123756685D01*
X190319754Y-123819417D01*
X190406963Y-123866032D01*
X190501591Y-123894737D01*
X190600000Y-123904429D01*
X191126500Y-123902000D01*
X191252000Y-123776500D01*
X191252000Y-122748000D01*
X191748000Y-122748000D01*
X191748000Y-123776500D01*
X191873500Y-123902000D01*
X192400000Y-123904429D01*
X192498409Y-123894737D01*
X192593037Y-123866032D01*
X192680246Y-123819417D01*
X192756685Y-123756685D01*
X192819417Y-123680246D01*
X192866032Y-123593037D01*
X192894737Y-123498409D01*
X192904429Y-123400000D01*
X192902000Y-122873500D01*
X192776500Y-122748000D01*
X191748000Y-122748000D01*
X191252000Y-122748000D01*
X190223500Y-122748000D01*
X190098000Y-122873500D01*
X190095571Y-123400000D01*
X151136721Y-123400000D01*
X152936721Y-121600000D01*
X190095571Y-121600000D01*
X190098000Y-122126500D01*
X190223500Y-122252000D01*
X191252000Y-122252000D01*
X191252000Y-122232000D01*
X191748000Y-122232000D01*
X191748000Y-122252000D01*
X192776500Y-122252000D01*
X192902000Y-122126500D01*
X192904429Y-121600000D01*
X192894737Y-121501591D01*
X192866032Y-121406963D01*
X192819417Y-121319754D01*
X192756685Y-121243315D01*
X192680246Y-121180583D01*
X192593037Y-121133968D01*
X192498409Y-121105263D01*
X192400000Y-121095571D01*
X192187568Y-121096551D01*
X192345913Y-120990748D01*
X192530748Y-120805913D01*
X192675972Y-120588570D01*
X192776004Y-120347072D01*
X192827000Y-120090698D01*
X192827000Y-119829302D01*
X192776004Y-119572928D01*
X192675972Y-119331430D01*
X192530748Y-119114087D01*
X192345913Y-118929252D01*
X192128570Y-118784028D01*
X191887072Y-118683996D01*
X191630698Y-118633000D01*
X191369302Y-118633000D01*
X191112928Y-118683996D01*
X190871430Y-118784028D01*
X190654087Y-118929252D01*
X190469252Y-119114087D01*
X190324028Y-119331430D01*
X190223996Y-119572928D01*
X190173000Y-119829302D01*
X190173000Y-120090698D01*
X190223996Y-120347072D01*
X190324028Y-120588570D01*
X190469252Y-120805913D01*
X190654087Y-120990748D01*
X190812432Y-121096551D01*
X190600000Y-121095571D01*
X190501591Y-121105263D01*
X190406963Y-121133968D01*
X190319754Y-121180583D01*
X190243315Y-121243315D01*
X190180583Y-121319754D01*
X190133968Y-121406963D01*
X190105263Y-121501591D01*
X190095571Y-121600000D01*
X152936721Y-121600000D01*
X158596721Y-115940000D01*
X190095571Y-115940000D01*
X190105263Y-116038409D01*
X190133968Y-116133037D01*
X190180583Y-116220246D01*
X190243315Y-116296685D01*
X190319754Y-116359417D01*
X190406963Y-116406032D01*
X190501591Y-116434737D01*
X190600000Y-116444429D01*
X191126500Y-116442000D01*
X191252000Y-116316500D01*
X191252000Y-115288000D01*
X191748000Y-115288000D01*
X191748000Y-116316500D01*
X191873500Y-116442000D01*
X192400000Y-116444429D01*
X192498409Y-116434737D01*
X192593037Y-116406032D01*
X192680246Y-116359417D01*
X192756685Y-116296685D01*
X192819417Y-116220246D01*
X192866032Y-116133037D01*
X192894737Y-116038409D01*
X192904429Y-115940000D01*
X192902000Y-115413500D01*
X192776500Y-115288000D01*
X191748000Y-115288000D01*
X191252000Y-115288000D01*
X190223500Y-115288000D01*
X190098000Y-115413500D01*
X190095571Y-115940000D01*
X158596721Y-115940000D01*
X159709722Y-114827000D01*
X159831452Y-114827000D01*
X159991227Y-114795218D01*
X160141731Y-114732877D01*
X160277181Y-114642372D01*
X160392372Y-114527181D01*
X160482877Y-114391731D01*
X160545218Y-114241227D01*
X160565353Y-114140000D01*
X190095571Y-114140000D01*
X190098000Y-114666500D01*
X190223500Y-114792000D01*
X191252000Y-114792000D01*
X191252000Y-114772000D01*
X191748000Y-114772000D01*
X191748000Y-114792000D01*
X192776500Y-114792000D01*
X192902000Y-114666500D01*
X192904429Y-114140000D01*
X192894737Y-114041591D01*
X192866032Y-113946963D01*
X192819417Y-113859754D01*
X192756685Y-113783315D01*
X192680246Y-113720583D01*
X192593037Y-113673968D01*
X192498409Y-113645263D01*
X192400000Y-113635571D01*
X192187568Y-113636551D01*
X192345913Y-113530748D01*
X192530748Y-113345913D01*
X192675972Y-113128570D01*
X192776004Y-112887072D01*
X192827000Y-112630698D01*
X192827000Y-112369302D01*
X192776004Y-112112928D01*
X192675972Y-111871430D01*
X192530748Y-111654087D01*
X192345913Y-111469252D01*
X192128570Y-111324028D01*
X191887072Y-111223996D01*
X191630698Y-111173000D01*
X191369302Y-111173000D01*
X191112928Y-111223996D01*
X190871430Y-111324028D01*
X190654087Y-111469252D01*
X190469252Y-111654087D01*
X190324028Y-111871430D01*
X190223996Y-112112928D01*
X190173000Y-112369302D01*
X190173000Y-112630698D01*
X190223996Y-112887072D01*
X190324028Y-113128570D01*
X190469252Y-113345913D01*
X190654087Y-113530748D01*
X190812432Y-113636551D01*
X190600000Y-113635571D01*
X190501591Y-113645263D01*
X190406963Y-113673968D01*
X190319754Y-113720583D01*
X190243315Y-113783315D01*
X190180583Y-113859754D01*
X190133968Y-113946963D01*
X190105263Y-114041591D01*
X190095571Y-114140000D01*
X160565353Y-114140000D01*
X160577000Y-114081452D01*
X160577000Y-113918548D01*
X160545218Y-113758773D01*
X160482877Y-113608269D01*
X160392372Y-113472819D01*
X160277181Y-113357628D01*
X160141731Y-113267123D01*
X159991227Y-113204782D01*
X159831452Y-113173000D01*
X159668548Y-113173000D01*
X159508773Y-113204782D01*
X159358269Y-113267123D01*
X159222819Y-113357628D01*
X159107628Y-113472819D01*
X159017123Y-113608269D01*
X158954782Y-113758773D01*
X158942430Y-113820868D01*
X145190289Y-127573010D01*
X145168548Y-127573010D01*
X145008773Y-127604792D01*
X144858269Y-127667133D01*
X144722819Y-127757638D01*
X144607628Y-127872829D01*
X144517123Y-128008279D01*
X144454782Y-128158783D01*
X144423000Y-128318558D01*
X140427000Y-128318558D01*
X140427000Y-119918548D01*
X147423000Y-119918548D01*
X147423000Y-120081452D01*
X147454782Y-120241227D01*
X147517123Y-120391731D01*
X147607628Y-120527181D01*
X147722819Y-120642372D01*
X147858269Y-120732877D01*
X148008773Y-120795218D01*
X148168548Y-120827000D01*
X148331452Y-120827000D01*
X148491227Y-120795218D01*
X148641731Y-120732877D01*
X148777181Y-120642372D01*
X148892372Y-120527181D01*
X148982877Y-120391731D01*
X149045218Y-120241227D01*
X149064840Y-120142582D01*
X152955206Y-116252217D01*
X152981026Y-116231027D01*
X153002218Y-116205205D01*
X153002224Y-116205199D01*
X153065628Y-116127941D01*
X153128492Y-116010330D01*
X153167204Y-115882715D01*
X153180275Y-115750000D01*
X153177000Y-115716748D01*
X153177000Y-107605502D01*
X154185223Y-107605502D01*
X154268450Y-107793538D01*
X154503707Y-107875073D01*
X154750351Y-107909145D01*
X154998903Y-107894445D01*
X155239811Y-107831537D01*
X155331550Y-107793538D01*
X155414777Y-107605502D01*
X154800000Y-106990725D01*
X154185223Y-107605502D01*
X153177000Y-107605502D01*
X153177000Y-106590351D01*
X153530855Y-106590351D01*
X153545555Y-106838903D01*
X153608463Y-107079811D01*
X153646462Y-107171550D01*
X153834498Y-107254777D01*
X154449275Y-106640000D01*
X155150725Y-106640000D01*
X155765502Y-107254777D01*
X155953538Y-107171550D01*
X156035073Y-106936293D01*
X156069145Y-106689649D01*
X156059283Y-106522894D01*
X179011000Y-106522894D01*
X179011000Y-106757106D01*
X179056693Y-106986818D01*
X179146322Y-107203203D01*
X179276443Y-107397943D01*
X179442057Y-107563557D01*
X179636797Y-107693678D01*
X179853182Y-107783307D01*
X180082894Y-107829000D01*
X180317106Y-107829000D01*
X180546818Y-107783307D01*
X180763203Y-107693678D01*
X180957943Y-107563557D01*
X181123557Y-107397943D01*
X181253678Y-107203203D01*
X181343307Y-106986818D01*
X181389000Y-106757106D01*
X181389000Y-106522894D01*
X181343307Y-106293182D01*
X181253678Y-106076797D01*
X181123557Y-105882057D01*
X180957943Y-105716443D01*
X180763203Y-105586322D01*
X180546818Y-105496693D01*
X180317106Y-105451000D01*
X180082894Y-105451000D01*
X179853182Y-105496693D01*
X179636797Y-105586322D01*
X179442057Y-105716443D01*
X179276443Y-105882057D01*
X179146322Y-106076797D01*
X179056693Y-106293182D01*
X179011000Y-106522894D01*
X156059283Y-106522894D01*
X156054445Y-106441097D01*
X155991537Y-106200189D01*
X155953538Y-106108450D01*
X155765502Y-106025223D01*
X155150725Y-106640000D01*
X154449275Y-106640000D01*
X153834498Y-106025223D01*
X153646462Y-106108450D01*
X153564927Y-106343707D01*
X153530855Y-106590351D01*
X153177000Y-106590351D01*
X153177000Y-105674498D01*
X154185223Y-105674498D01*
X154800000Y-106289275D01*
X155414777Y-105674498D01*
X155331550Y-105486462D01*
X155096293Y-105404927D01*
X154849649Y-105370855D01*
X154601097Y-105385555D01*
X154360189Y-105448463D01*
X154268450Y-105486462D01*
X154185223Y-105674498D01*
X153177000Y-105674498D01*
X153177000Y-99475357D01*
X153232877Y-99391731D01*
X153295218Y-99241227D01*
X153327000Y-99081452D01*
X153327000Y-98918548D01*
X153295218Y-98758773D01*
X153232877Y-98608269D01*
X153142372Y-98472819D01*
X153027181Y-98357628D01*
X152891731Y-98267123D01*
X152741227Y-98204782D01*
X152581452Y-98173000D01*
X152418548Y-98173000D01*
X152258773Y-98204782D01*
X152108269Y-98267123D01*
X151972819Y-98357628D01*
X151857628Y-98472819D01*
X151767123Y-98608269D01*
X151704782Y-98758773D01*
X151673000Y-98918548D01*
X151673000Y-99081452D01*
X151704782Y-99241227D01*
X151767123Y-99391731D01*
X151823001Y-99475358D01*
X151823000Y-115469577D01*
X148107418Y-119185160D01*
X148008773Y-119204782D01*
X147858269Y-119267123D01*
X147722819Y-119357628D01*
X147607628Y-119472819D01*
X147517123Y-119608269D01*
X147454782Y-119758773D01*
X147423000Y-119918548D01*
X140427000Y-119918548D01*
X140427000Y-119820090D01*
X140433903Y-119750000D01*
X140427000Y-119679910D01*
X140427000Y-119679902D01*
X140406352Y-119470259D01*
X140324755Y-119201269D01*
X140311783Y-119177000D01*
X144942188Y-119177000D01*
X145000000Y-119182694D01*
X145057812Y-119177000D01*
X145230732Y-119159969D01*
X145452597Y-119092667D01*
X145657070Y-118983374D01*
X145836291Y-118836291D01*
X145873151Y-118791377D01*
X149791384Y-114873145D01*
X149836291Y-114836291D01*
X149983374Y-114657070D01*
X150092667Y-114452597D01*
X150159969Y-114230732D01*
X150177000Y-114057812D01*
X150177000Y-114057803D01*
X150182693Y-114000001D01*
X150177000Y-113942199D01*
X150177000Y-99237528D01*
X151781634Y-97632894D01*
X179011000Y-97632894D01*
X179011000Y-97867106D01*
X179056693Y-98096818D01*
X179146322Y-98313203D01*
X179276443Y-98507943D01*
X179442057Y-98673557D01*
X179636797Y-98803678D01*
X179853182Y-98893307D01*
X180082894Y-98939000D01*
X180317106Y-98939000D01*
X180546818Y-98893307D01*
X180763203Y-98803678D01*
X180957943Y-98673557D01*
X181123557Y-98507943D01*
X181253678Y-98313203D01*
X181343307Y-98096818D01*
X181389000Y-97867106D01*
X181389000Y-97632894D01*
X181343307Y-97403182D01*
X181253678Y-97186797D01*
X181123557Y-96992057D01*
X180957943Y-96826443D01*
X180763203Y-96696322D01*
X180546818Y-96606693D01*
X180317106Y-96561000D01*
X180082894Y-96561000D01*
X179853182Y-96606693D01*
X179636797Y-96696322D01*
X179442057Y-96826443D01*
X179276443Y-96992057D01*
X179146322Y-97186797D01*
X179056693Y-97403182D01*
X179011000Y-97632894D01*
X151781634Y-97632894D01*
X152987529Y-96427000D01*
X160692188Y-96427000D01*
X160750000Y-96432694D01*
X160807812Y-96427000D01*
X160980732Y-96409969D01*
X161202597Y-96342667D01*
X161407070Y-96233374D01*
X161586291Y-96086291D01*
X161623151Y-96041377D01*
X164750291Y-92914238D01*
X164750294Y-92914236D01*
X164791388Y-92873142D01*
X164836291Y-92836291D01*
X164873144Y-92791386D01*
X164914236Y-92750294D01*
X164946523Y-92701973D01*
X164983374Y-92657070D01*
X165010757Y-92605840D01*
X165043044Y-92557519D01*
X165065284Y-92503827D01*
X165092667Y-92452597D01*
X165109529Y-92397009D01*
X165131769Y-92343318D01*
X165143106Y-92286321D01*
X165159969Y-92230732D01*
X165165663Y-92172920D01*
X165177000Y-92115924D01*
X165177000Y-92057812D01*
X165182694Y-92000000D01*
X165177000Y-91942188D01*
X165177000Y-91884076D01*
X165165663Y-91827080D01*
X165159969Y-91769268D01*
X165143106Y-91713679D01*
X165131769Y-91656682D01*
X165109529Y-91602991D01*
X165092667Y-91547403D01*
X165065284Y-91496173D01*
X165043044Y-91442481D01*
X165010757Y-91394160D01*
X164983374Y-91342930D01*
X164946523Y-91298027D01*
X164914236Y-91249706D01*
X164873142Y-91208612D01*
X164836291Y-91163709D01*
X164791387Y-91126857D01*
X164750294Y-91085764D01*
X164701973Y-91053477D01*
X164657070Y-91016626D01*
X164605840Y-90989243D01*
X164557519Y-90956956D01*
X164503827Y-90934716D01*
X164452597Y-90907333D01*
X164397009Y-90890471D01*
X164343318Y-90868231D01*
X164286321Y-90856894D01*
X164230732Y-90840031D01*
X164172920Y-90834337D01*
X164115924Y-90823000D01*
X164057811Y-90823000D01*
X163999999Y-90817306D01*
X163942187Y-90823000D01*
X163884076Y-90823000D01*
X163827081Y-90834337D01*
X163769268Y-90840031D01*
X163713679Y-90856894D01*
X163656682Y-90868231D01*
X163602991Y-90890471D01*
X163547403Y-90907333D01*
X163496173Y-90934716D01*
X163442481Y-90956956D01*
X163394160Y-90989243D01*
X163342930Y-91016626D01*
X163298027Y-91053477D01*
X163249706Y-91085764D01*
X163208613Y-91126857D01*
X163163709Y-91163709D01*
X163126858Y-91208612D01*
X163085764Y-91249706D01*
X163085762Y-91249709D01*
X160262472Y-94073000D01*
X152557801Y-94073000D01*
X152499999Y-94067307D01*
X152442197Y-94073000D01*
X152442188Y-94073000D01*
X152269268Y-94090031D01*
X152047403Y-94157333D01*
X151842930Y-94266626D01*
X151663709Y-94413709D01*
X151626856Y-94458615D01*
X150010551Y-96074921D01*
X150045218Y-95991227D01*
X150077000Y-95831452D01*
X150077000Y-95668548D01*
X150045218Y-95508773D01*
X149982877Y-95358269D01*
X149892372Y-95222819D01*
X149777181Y-95107628D01*
X149641731Y-95017123D01*
X149491227Y-94954782D01*
X149392583Y-94935160D01*
X147252226Y-92794804D01*
X147231027Y-92768973D01*
X147127941Y-92684372D01*
X147010330Y-92621508D01*
X146882715Y-92582796D01*
X146783252Y-92573000D01*
X146783245Y-92573000D01*
X146750000Y-92569726D01*
X146716755Y-92573000D01*
X132285209Y-92573000D01*
X132241227Y-92554782D01*
X132081452Y-92523000D01*
X131918548Y-92523000D01*
X131758773Y-92554782D01*
X131608269Y-92617123D01*
X131472819Y-92707628D01*
X131357628Y-92822819D01*
X131267123Y-92958269D01*
X131204782Y-93108773D01*
X131173000Y-93268548D01*
X131173000Y-93431452D01*
X131204782Y-93591227D01*
X131267123Y-93741731D01*
X131357628Y-93877181D01*
X131472819Y-93992372D01*
X131608269Y-94082877D01*
X131758773Y-94145218D01*
X131918548Y-94177000D01*
X132081452Y-94177000D01*
X132241227Y-94145218D01*
X132391731Y-94082877D01*
X132527181Y-93992372D01*
X132592553Y-93927000D01*
X146469578Y-93927000D01*
X148435160Y-95892583D01*
X148454782Y-95991227D01*
X148517123Y-96141731D01*
X148607628Y-96277181D01*
X148722819Y-96392372D01*
X148858269Y-96482877D01*
X149008773Y-96545218D01*
X149168548Y-96577000D01*
X149331452Y-96577000D01*
X149491227Y-96545218D01*
X149574921Y-96510551D01*
X148249712Y-97835760D01*
X148249706Y-97835764D01*
X148208612Y-97876858D01*
X148163709Y-97913709D01*
X148126858Y-97958612D01*
X148085764Y-97999706D01*
X148053477Y-98048027D01*
X148016626Y-98092930D01*
X147989243Y-98144160D01*
X147956956Y-98192481D01*
X147934716Y-98246173D01*
X147907333Y-98297403D01*
X147890471Y-98352991D01*
X147868231Y-98406682D01*
X147856894Y-98463679D01*
X147840031Y-98519268D01*
X147834337Y-98577080D01*
X147823000Y-98634076D01*
X147823000Y-98692188D01*
X147817306Y-98750000D01*
X147823000Y-98807812D01*
X147823000Y-98865924D01*
X147823001Y-98865929D01*
X147823000Y-113512471D01*
X144512472Y-116823000D01*
X138065214Y-116823000D01*
X138046634Y-116807752D01*
X137798731Y-116675245D01*
X137529741Y-116593648D01*
X137320098Y-116573000D01*
X137320088Y-116573000D01*
X137250000Y-116566097D01*
X137179912Y-116573000D01*
X135954902Y-116573000D01*
X135745259Y-116593648D01*
X135476269Y-116675245D01*
X135228366Y-116807752D01*
X135011077Y-116986077D01*
X134974948Y-117030101D01*
X134969417Y-117019754D01*
X134906685Y-116943315D01*
X134830246Y-116880583D01*
X134743037Y-116833968D01*
X134648409Y-116805263D01*
X134550000Y-116795571D01*
X134348500Y-116798000D01*
X134223000Y-116923500D01*
X134223000Y-117752000D01*
X134243000Y-117752000D01*
X134243000Y-118248000D01*
X134223000Y-118248000D01*
X134223000Y-119076500D01*
X134348500Y-119202000D01*
X134485375Y-119203650D01*
X134312312Y-119376713D01*
X134225499Y-119482495D01*
X134139420Y-119643537D01*
X134086414Y-119818277D01*
X134068516Y-120000000D01*
X134086414Y-120181723D01*
X134139420Y-120356463D01*
X134225499Y-120517505D01*
X134341341Y-120658659D01*
X134482495Y-120774501D01*
X134643537Y-120860580D01*
X134818277Y-120913586D01*
X135000000Y-120931484D01*
X135122423Y-120919426D01*
X135093315Y-120943315D01*
X135030583Y-121019754D01*
X134983968Y-121106963D01*
X134955263Y-121201591D01*
X134945571Y-121300000D01*
X134945953Y-121351376D01*
X134927375Y-121290132D01*
X134864623Y-121172731D01*
X134780172Y-121069828D01*
X134677269Y-120985377D01*
X134559868Y-120922625D01*
X134432480Y-120883982D01*
X134300001Y-120870934D01*
X133649999Y-120870934D01*
X133517520Y-120883982D01*
X133390132Y-120922625D01*
X133383560Y-120926138D01*
X132814840Y-120357418D01*
X132795218Y-120258773D01*
X132732877Y-120108269D01*
X132642372Y-119972819D01*
X132527181Y-119857628D01*
X132391731Y-119767123D01*
X132241227Y-119704782D01*
X132081452Y-119673000D01*
X131918548Y-119673000D01*
X131758773Y-119704782D01*
X131608269Y-119767123D01*
X131472819Y-119857628D01*
X131357628Y-119972819D01*
X131267123Y-120108269D01*
X131204782Y-120258773D01*
X131173000Y-120418548D01*
X131173000Y-120581452D01*
X131204782Y-120741227D01*
X131267123Y-120891731D01*
X131357628Y-121027181D01*
X131472819Y-121142372D01*
X131608269Y-121232877D01*
X131758773Y-121295218D01*
X131857418Y-121314840D01*
X132970934Y-122428356D01*
X132970934Y-122450001D01*
X132983982Y-122582480D01*
X133022625Y-122709868D01*
X133085377Y-122827269D01*
X133169828Y-122930172D01*
X133272731Y-123014623D01*
X133390132Y-123077375D01*
X133517520Y-123116018D01*
X133649999Y-123129066D01*
X134300001Y-123129066D01*
X134432480Y-123116018D01*
X134559868Y-123077375D01*
X134677269Y-123014623D01*
X134780172Y-122930172D01*
X134864623Y-122827269D01*
X134927375Y-122709868D01*
X134945953Y-122648624D01*
X134945571Y-122700000D01*
X134955263Y-122798409D01*
X134983968Y-122893037D01*
X135030583Y-122980246D01*
X135093315Y-123056685D01*
X135169754Y-123119417D01*
X135256963Y-123166032D01*
X135351591Y-123194737D01*
X135450000Y-123204429D01*
X135651500Y-123202000D01*
X135777000Y-123076500D01*
X135777000Y-122248000D01*
X136273000Y-122248000D01*
X136273000Y-123076500D01*
X136398500Y-123202000D01*
X136600000Y-123204429D01*
X136698409Y-123194737D01*
X136793037Y-123166032D01*
X136880246Y-123119417D01*
X136956685Y-123056685D01*
X137019417Y-122980246D01*
X137066032Y-122893037D01*
X137094737Y-122798409D01*
X137104429Y-122700000D01*
X137102000Y-122373500D01*
X136976500Y-122248000D01*
X136273000Y-122248000D01*
X135777000Y-122248000D01*
X135757000Y-122248000D01*
X135757000Y-121752000D01*
X135777000Y-121752000D01*
X135777000Y-120923500D01*
X136273000Y-120923500D01*
X136273000Y-121752000D01*
X136976500Y-121752000D01*
X137102000Y-121626500D01*
X137104429Y-121300000D01*
X137094737Y-121201591D01*
X137066032Y-121106963D01*
X137019417Y-121019754D01*
X136956685Y-120943315D01*
X136880246Y-120880583D01*
X136793037Y-120833968D01*
X136698409Y-120805263D01*
X136600000Y-120795571D01*
X136398500Y-120798000D01*
X136273000Y-120923500D01*
X135777000Y-120923500D01*
X135651500Y-120798000D01*
X135477466Y-120795902D01*
X135517505Y-120774501D01*
X135623287Y-120687688D01*
X136648292Y-119662684D01*
X136683659Y-119633659D01*
X136712684Y-119598292D01*
X136712688Y-119598288D01*
X136765660Y-119533742D01*
X137573001Y-120341084D01*
X137573000Y-128158917D01*
X132058918Y-133673000D01*
X129829902Y-133673000D01*
X129620259Y-133693648D01*
X129351269Y-133775245D01*
X129103366Y-133907752D01*
X128886077Y-134086077D01*
X128707752Y-134303366D01*
X128575245Y-134551269D01*
X128493648Y-134820259D01*
X128466096Y-135100000D01*
X75452000Y-135100000D01*
X75452000Y-125600000D01*
X106145571Y-125600000D01*
X106155263Y-125698409D01*
X106183968Y-125793037D01*
X106230583Y-125880246D01*
X106293315Y-125956685D01*
X106369754Y-126019417D01*
X106456963Y-126066032D01*
X106551591Y-126094737D01*
X106650000Y-126104429D01*
X107126500Y-126102000D01*
X107252000Y-125976500D01*
X107252000Y-124998000D01*
X106273500Y-124998000D01*
X106148000Y-125123500D01*
X106145571Y-125600000D01*
X75452000Y-125600000D01*
X75452000Y-124613623D01*
X79123000Y-124613623D01*
X79123000Y-124786377D01*
X79156703Y-124955811D01*
X79222813Y-125115415D01*
X79318790Y-125259055D01*
X79440945Y-125381210D01*
X79584585Y-125477187D01*
X79744189Y-125543297D01*
X79913623Y-125577000D01*
X80086377Y-125577000D01*
X80255811Y-125543297D01*
X80415415Y-125477187D01*
X80559055Y-125381210D01*
X80681210Y-125259055D01*
X80777187Y-125115415D01*
X80843297Y-124955811D01*
X80877000Y-124786377D01*
X80877000Y-124613623D01*
X80843297Y-124444189D01*
X80777187Y-124284585D01*
X80681210Y-124140945D01*
X80559055Y-124018790D01*
X80415415Y-123922813D01*
X80360340Y-123900000D01*
X106145571Y-123900000D01*
X106148000Y-124376500D01*
X106273500Y-124502000D01*
X107252000Y-124502000D01*
X107252000Y-123523500D01*
X107748000Y-123523500D01*
X107748000Y-124502000D01*
X107768000Y-124502000D01*
X107768000Y-124998000D01*
X107748000Y-124998000D01*
X107748000Y-125976500D01*
X107873500Y-126102000D01*
X108350000Y-126104429D01*
X108448409Y-126094737D01*
X108543037Y-126066032D01*
X108630246Y-126019417D01*
X108706685Y-125956685D01*
X108769417Y-125880246D01*
X108816032Y-125793037D01*
X108844737Y-125698409D01*
X108854429Y-125600000D01*
X108852492Y-125220065D01*
X108908337Y-125354886D01*
X109048089Y-125564040D01*
X109225960Y-125741911D01*
X109435114Y-125881663D01*
X109667513Y-125977926D01*
X109914226Y-126027000D01*
X110165774Y-126027000D01*
X110412487Y-125977926D01*
X110644886Y-125881663D01*
X110854040Y-125741911D01*
X111031911Y-125564040D01*
X111171663Y-125354886D01*
X111267926Y-125122487D01*
X111317000Y-124875774D01*
X111317000Y-124624226D01*
X113683000Y-124624226D01*
X113683000Y-124875774D01*
X113732074Y-125122487D01*
X113828337Y-125354886D01*
X113968089Y-125564040D01*
X114145960Y-125741911D01*
X114355114Y-125881663D01*
X114587513Y-125977926D01*
X114834226Y-126027000D01*
X115085774Y-126027000D01*
X115332487Y-125977926D01*
X115564886Y-125881663D01*
X115774040Y-125741911D01*
X115951911Y-125564040D01*
X116091663Y-125354886D01*
X116187926Y-125122487D01*
X116220934Y-124956544D01*
X116220934Y-125600000D01*
X116229178Y-125683707D01*
X116253595Y-125764196D01*
X116293245Y-125838376D01*
X116346605Y-125903395D01*
X116411624Y-125956755D01*
X116485804Y-125996405D01*
X116566293Y-126020822D01*
X116650000Y-126029066D01*
X118350000Y-126029066D01*
X118433707Y-126020822D01*
X118514196Y-125996405D01*
X118588376Y-125956755D01*
X118653395Y-125903395D01*
X118706755Y-125838376D01*
X118746405Y-125764196D01*
X118770822Y-125683707D01*
X118779066Y-125600000D01*
X118779066Y-123900000D01*
X118770822Y-123816293D01*
X118746405Y-123735804D01*
X118706755Y-123661624D01*
X118653395Y-123596605D01*
X118588376Y-123543245D01*
X118514196Y-123503595D01*
X118433707Y-123479178D01*
X118350000Y-123470934D01*
X116650000Y-123470934D01*
X116566293Y-123479178D01*
X116485804Y-123503595D01*
X116411624Y-123543245D01*
X116346605Y-123596605D01*
X116293245Y-123661624D01*
X116253595Y-123735804D01*
X116229178Y-123816293D01*
X116220934Y-123900000D01*
X116220934Y-124543456D01*
X116187926Y-124377513D01*
X116091663Y-124145114D01*
X115951911Y-123935960D01*
X115774040Y-123758089D01*
X115564886Y-123618337D01*
X115332487Y-123522074D01*
X115085774Y-123473000D01*
X114834226Y-123473000D01*
X114587513Y-123522074D01*
X114355114Y-123618337D01*
X114145960Y-123758089D01*
X113968089Y-123935960D01*
X113828337Y-124145114D01*
X113732074Y-124377513D01*
X113683000Y-124624226D01*
X111317000Y-124624226D01*
X111267926Y-124377513D01*
X111171663Y-124145114D01*
X111031911Y-123935960D01*
X110854040Y-123758089D01*
X110644886Y-123618337D01*
X110412487Y-123522074D01*
X110165774Y-123473000D01*
X109914226Y-123473000D01*
X109667513Y-123522074D01*
X109435114Y-123618337D01*
X109225960Y-123758089D01*
X109048089Y-123935960D01*
X108908337Y-124145114D01*
X108852492Y-124279935D01*
X108854429Y-123900000D01*
X108844737Y-123801591D01*
X108816032Y-123706963D01*
X108769417Y-123619754D01*
X108706685Y-123543315D01*
X108630246Y-123480583D01*
X108543037Y-123433968D01*
X108448409Y-123405263D01*
X108350000Y-123395571D01*
X107873500Y-123398000D01*
X107748000Y-123523500D01*
X107252000Y-123523500D01*
X107126500Y-123398000D01*
X106650000Y-123395571D01*
X106551591Y-123405263D01*
X106456963Y-123433968D01*
X106369754Y-123480583D01*
X106293315Y-123543315D01*
X106230583Y-123619754D01*
X106183968Y-123706963D01*
X106155263Y-123801591D01*
X106145571Y-123900000D01*
X80360340Y-123900000D01*
X80255811Y-123856703D01*
X80086377Y-123823000D01*
X79913623Y-123823000D01*
X79744189Y-123856703D01*
X79584585Y-123922813D01*
X79440945Y-124018790D01*
X79318790Y-124140945D01*
X79222813Y-124284585D01*
X79156703Y-124444189D01*
X79123000Y-124613623D01*
X75452000Y-124613623D01*
X75452000Y-120213623D01*
X79123000Y-120213623D01*
X79123000Y-120386377D01*
X79156703Y-120555811D01*
X79222813Y-120715415D01*
X79318790Y-120859055D01*
X79440945Y-120981210D01*
X79584585Y-121077187D01*
X79744189Y-121143297D01*
X79913623Y-121177000D01*
X80086377Y-121177000D01*
X80255811Y-121143297D01*
X80415415Y-121077187D01*
X80559055Y-120981210D01*
X80681210Y-120859055D01*
X80777187Y-120715415D01*
X80843297Y-120555811D01*
X80877000Y-120386377D01*
X80877000Y-120213623D01*
X80843297Y-120044189D01*
X80777187Y-119884585D01*
X80681210Y-119740945D01*
X80559055Y-119618790D01*
X80415415Y-119522813D01*
X80255811Y-119456703D01*
X80086377Y-119423000D01*
X79913623Y-119423000D01*
X79744189Y-119456703D01*
X79584585Y-119522813D01*
X79440945Y-119618790D01*
X79318790Y-119740945D01*
X79222813Y-119884585D01*
X79156703Y-120044189D01*
X79123000Y-120213623D01*
X75452000Y-120213623D01*
X75452000Y-113750000D01*
X126369967Y-113750000D01*
X126373000Y-113780794D01*
X126373001Y-124969196D01*
X126369967Y-125000000D01*
X126382073Y-125122912D01*
X126395728Y-125167925D01*
X126417926Y-125241103D01*
X126476148Y-125350028D01*
X126554500Y-125445501D01*
X126578422Y-125465133D01*
X127284866Y-126171578D01*
X127304499Y-126195501D01*
X127399972Y-126273853D01*
X127508897Y-126332075D01*
X127627087Y-126367927D01*
X127749999Y-126380033D01*
X127780793Y-126377000D01*
X128707447Y-126377000D01*
X128722819Y-126392372D01*
X128858269Y-126482877D01*
X129008773Y-126545218D01*
X129168548Y-126577000D01*
X129331452Y-126577000D01*
X129491227Y-126545218D01*
X129641731Y-126482877D01*
X129777181Y-126392372D01*
X129892372Y-126277181D01*
X129982877Y-126141731D01*
X130045218Y-125991227D01*
X130077000Y-125831452D01*
X130077000Y-125668548D01*
X130045218Y-125508773D01*
X129982877Y-125358269D01*
X129892372Y-125222819D01*
X129777181Y-125107628D01*
X129641731Y-125017123D01*
X129491227Y-124954782D01*
X129331452Y-124923000D01*
X129168548Y-124923000D01*
X129008773Y-124954782D01*
X128858269Y-125017123D01*
X128722819Y-125107628D01*
X128707447Y-125123000D01*
X128009712Y-125123000D01*
X127627000Y-124740289D01*
X127627000Y-118700000D01*
X132895571Y-118700000D01*
X132905263Y-118798409D01*
X132933968Y-118893037D01*
X132980583Y-118980246D01*
X133043315Y-119056685D01*
X133119754Y-119119417D01*
X133206963Y-119166032D01*
X133301591Y-119194737D01*
X133400000Y-119204429D01*
X133601500Y-119202000D01*
X133727000Y-119076500D01*
X133727000Y-118248000D01*
X133023500Y-118248000D01*
X132898000Y-118373500D01*
X132895571Y-118700000D01*
X127627000Y-118700000D01*
X127627000Y-117300000D01*
X132895571Y-117300000D01*
X132898000Y-117626500D01*
X133023500Y-117752000D01*
X133727000Y-117752000D01*
X133727000Y-116923500D01*
X133601500Y-116798000D01*
X133400000Y-116795571D01*
X133301591Y-116805263D01*
X133206963Y-116833968D01*
X133119754Y-116880583D01*
X133043315Y-116943315D01*
X132980583Y-117019754D01*
X132933968Y-117106963D01*
X132905263Y-117201591D01*
X132895571Y-117300000D01*
X127627000Y-117300000D01*
X127627000Y-114009711D01*
X130009712Y-111627000D01*
X145490289Y-111627000D01*
X145673000Y-111809711D01*
X145673000Y-111831452D01*
X145704782Y-111991227D01*
X145767123Y-112141731D01*
X145857628Y-112277181D01*
X145972819Y-112392372D01*
X146108269Y-112482877D01*
X146258773Y-112545218D01*
X146418548Y-112577000D01*
X146581452Y-112577000D01*
X146741227Y-112545218D01*
X146891731Y-112482877D01*
X147027181Y-112392372D01*
X147142372Y-112277181D01*
X147232877Y-112141731D01*
X147295218Y-111991227D01*
X147327000Y-111831452D01*
X147327000Y-111668548D01*
X147295218Y-111508773D01*
X147232877Y-111358269D01*
X147142372Y-111222819D01*
X147027181Y-111107628D01*
X146891731Y-111017123D01*
X146741227Y-110954782D01*
X146581452Y-110923000D01*
X146559711Y-110923000D01*
X146215138Y-110578427D01*
X146195501Y-110554499D01*
X146100028Y-110476147D01*
X145991103Y-110417925D01*
X145872913Y-110382073D01*
X145780794Y-110373000D01*
X145750000Y-110369967D01*
X145719206Y-110373000D01*
X129780791Y-110373000D01*
X129749999Y-110369967D01*
X129719207Y-110373000D01*
X129719206Y-110373000D01*
X129627087Y-110382073D01*
X129508897Y-110417925D01*
X129399972Y-110476147D01*
X129304499Y-110554499D01*
X129284866Y-110578422D01*
X126578427Y-113284862D01*
X126554499Y-113304499D01*
X126476147Y-113399973D01*
X126417925Y-113508898D01*
X126404092Y-113554500D01*
X126382073Y-113627088D01*
X126369967Y-113750000D01*
X75452000Y-113750000D01*
X75452000Y-112418548D01*
X121423000Y-112418548D01*
X121423000Y-112581452D01*
X121454782Y-112741227D01*
X121517123Y-112891731D01*
X121607628Y-113027181D01*
X121722819Y-113142372D01*
X121858269Y-113232877D01*
X122008773Y-113295218D01*
X122168548Y-113327000D01*
X122331452Y-113327000D01*
X122491227Y-113295218D01*
X122641731Y-113232877D01*
X122725357Y-113177000D01*
X125524643Y-113177000D01*
X125608269Y-113232877D01*
X125758773Y-113295218D01*
X125918548Y-113327000D01*
X126081452Y-113327000D01*
X126241227Y-113295218D01*
X126391731Y-113232877D01*
X126527181Y-113142372D01*
X126642372Y-113027181D01*
X126732877Y-112891731D01*
X126795218Y-112741227D01*
X126827000Y-112581452D01*
X126827000Y-112418548D01*
X126795218Y-112258773D01*
X126732877Y-112108269D01*
X126642372Y-111972819D01*
X126527181Y-111857628D01*
X126391731Y-111767123D01*
X126241227Y-111704782D01*
X126081452Y-111673000D01*
X125918548Y-111673000D01*
X125758773Y-111704782D01*
X125608269Y-111767123D01*
X125524643Y-111823000D01*
X122725357Y-111823000D01*
X122641731Y-111767123D01*
X122491227Y-111704782D01*
X122331452Y-111673000D01*
X122168548Y-111673000D01*
X122008773Y-111704782D01*
X121858269Y-111767123D01*
X121722819Y-111857628D01*
X121607628Y-111972819D01*
X121517123Y-112108269D01*
X121454782Y-112258773D01*
X121423000Y-112418548D01*
X75452000Y-112418548D01*
X75452000Y-109150000D01*
X88720934Y-109150000D01*
X88720934Y-110850000D01*
X88729178Y-110933707D01*
X88753595Y-111014196D01*
X88793245Y-111088376D01*
X88846605Y-111153395D01*
X88911624Y-111206755D01*
X88985804Y-111246405D01*
X89066293Y-111270822D01*
X89150000Y-111279066D01*
X90850000Y-111279066D01*
X90933707Y-111270822D01*
X91014196Y-111246405D01*
X91088376Y-111206755D01*
X91153395Y-111153395D01*
X91206755Y-111088376D01*
X91246405Y-111014196D01*
X91270822Y-110933707D01*
X91279066Y-110850000D01*
X91279066Y-109150000D01*
X91270822Y-109066293D01*
X91246405Y-108985804D01*
X91206755Y-108911624D01*
X91153395Y-108846605D01*
X91088376Y-108793245D01*
X91014196Y-108753595D01*
X90933707Y-108729178D01*
X90850000Y-108720934D01*
X90484169Y-108720934D01*
X90580572Y-108681011D01*
X90807624Y-108544286D01*
X91003639Y-108365892D01*
X91161085Y-108152685D01*
X91273911Y-107912859D01*
X91203570Y-107708000D01*
X90248000Y-107708000D01*
X90248000Y-107728000D01*
X89752000Y-107728000D01*
X89752000Y-107708000D01*
X88796430Y-107708000D01*
X88726089Y-107912859D01*
X88838915Y-108152685D01*
X88996361Y-108365892D01*
X89192376Y-108544286D01*
X89419428Y-108681011D01*
X89515831Y-108720934D01*
X89150000Y-108720934D01*
X89066293Y-108729178D01*
X88985804Y-108753595D01*
X88911624Y-108793245D01*
X88846605Y-108846605D01*
X88793245Y-108911624D01*
X88753595Y-108985804D01*
X88729178Y-109066293D01*
X88720934Y-109150000D01*
X75452000Y-109150000D01*
X75452000Y-107007141D01*
X88726089Y-107007141D01*
X88796430Y-107212000D01*
X89752000Y-107212000D01*
X89752000Y-106258835D01*
X90248000Y-106258835D01*
X90248000Y-107212000D01*
X91203570Y-107212000D01*
X91273911Y-107007141D01*
X91161085Y-106767315D01*
X91003639Y-106554108D01*
X90807624Y-106375714D01*
X90580572Y-106238989D01*
X90452857Y-106186099D01*
X90248000Y-106258835D01*
X89752000Y-106258835D01*
X89547143Y-106186099D01*
X89419428Y-106238989D01*
X89192376Y-106375714D01*
X88996361Y-106554108D01*
X88838915Y-106767315D01*
X88726089Y-107007141D01*
X75452000Y-107007141D01*
X75452000Y-99025000D01*
X76280971Y-99025000D01*
X76290663Y-99123409D01*
X76319368Y-99218037D01*
X76365983Y-99305246D01*
X76428715Y-99381685D01*
X76505154Y-99444417D01*
X76592363Y-99491032D01*
X76686991Y-99519737D01*
X76785400Y-99529429D01*
X78316900Y-99527000D01*
X78442400Y-99401500D01*
X78442400Y-98257000D01*
X78938400Y-98257000D01*
X78938400Y-99401500D01*
X79063900Y-99527000D01*
X80595400Y-99529429D01*
X80693809Y-99519737D01*
X80788437Y-99491032D01*
X80875646Y-99444417D01*
X80952085Y-99381685D01*
X81014817Y-99305246D01*
X81061432Y-99218037D01*
X81090137Y-99123409D01*
X81099829Y-99025000D01*
X86491771Y-99025000D01*
X86501463Y-99123409D01*
X86530168Y-99218037D01*
X86576783Y-99305246D01*
X86639515Y-99381685D01*
X86715954Y-99444417D01*
X86803163Y-99491032D01*
X86897791Y-99519737D01*
X86996200Y-99529429D01*
X88527700Y-99527000D01*
X88653200Y-99401500D01*
X88653200Y-98257000D01*
X89149200Y-98257000D01*
X89149200Y-99401500D01*
X89274700Y-99527000D01*
X90806200Y-99529429D01*
X90904609Y-99519737D01*
X90999237Y-99491032D01*
X91086446Y-99444417D01*
X91162885Y-99381685D01*
X91225617Y-99305246D01*
X91272232Y-99218037D01*
X91300937Y-99123409D01*
X91310629Y-99025000D01*
X91308200Y-98382500D01*
X91182700Y-98257000D01*
X89149200Y-98257000D01*
X88653200Y-98257000D01*
X86619700Y-98257000D01*
X86494200Y-98382500D01*
X86491771Y-99025000D01*
X81099829Y-99025000D01*
X81097400Y-98382500D01*
X80971900Y-98257000D01*
X78938400Y-98257000D01*
X78442400Y-98257000D01*
X76408900Y-98257000D01*
X76283400Y-98382500D01*
X76280971Y-99025000D01*
X75452000Y-99025000D01*
X75452000Y-96993000D01*
X76280971Y-96993000D01*
X76283400Y-97635500D01*
X76408900Y-97761000D01*
X78442400Y-97761000D01*
X78442400Y-96616500D01*
X78938400Y-96616500D01*
X78938400Y-97761000D01*
X80971900Y-97761000D01*
X81097400Y-97635500D01*
X81099829Y-96993000D01*
X86491771Y-96993000D01*
X86494200Y-97635500D01*
X86619700Y-97761000D01*
X88653200Y-97761000D01*
X88653200Y-96616500D01*
X89149200Y-96616500D01*
X89149200Y-97761000D01*
X91182700Y-97761000D01*
X91308200Y-97635500D01*
X91310629Y-96993000D01*
X91300937Y-96894591D01*
X91272232Y-96799963D01*
X91225617Y-96712754D01*
X91162885Y-96636315D01*
X91086446Y-96573583D01*
X90999237Y-96526968D01*
X90904609Y-96498263D01*
X90806200Y-96488571D01*
X89274700Y-96491000D01*
X89149200Y-96616500D01*
X88653200Y-96616500D01*
X88527700Y-96491000D01*
X86996200Y-96488571D01*
X86897791Y-96498263D01*
X86803163Y-96526968D01*
X86715954Y-96573583D01*
X86639515Y-96636315D01*
X86576783Y-96712754D01*
X86530168Y-96799963D01*
X86501463Y-96894591D01*
X86491771Y-96993000D01*
X81099829Y-96993000D01*
X81090137Y-96894591D01*
X81061432Y-96799963D01*
X81014817Y-96712754D01*
X80952085Y-96636315D01*
X80875646Y-96573583D01*
X80788437Y-96526968D01*
X80693809Y-96498263D01*
X80595400Y-96488571D01*
X79063900Y-96491000D01*
X78938400Y-96616500D01*
X78442400Y-96616500D01*
X78316900Y-96491000D01*
X76785400Y-96488571D01*
X76686991Y-96498263D01*
X76592363Y-96526968D01*
X76505154Y-96573583D01*
X76428715Y-96636315D01*
X76365983Y-96712754D01*
X76319368Y-96799963D01*
X76290663Y-96894591D01*
X76280971Y-96993000D01*
X75452000Y-96993000D01*
X75452000Y-89357877D01*
X90557000Y-89357877D01*
X90557000Y-89642123D01*
X90612454Y-89920908D01*
X90721230Y-90183517D01*
X90879149Y-90419859D01*
X91080141Y-90620851D01*
X91316483Y-90778770D01*
X91579092Y-90887546D01*
X91857877Y-90943000D01*
X92142123Y-90943000D01*
X92420908Y-90887546D01*
X92683517Y-90778770D01*
X92919859Y-90620851D01*
X93120851Y-90419859D01*
X93278770Y-90183517D01*
X93295400Y-90143369D01*
X93312030Y-90183517D01*
X93469949Y-90419859D01*
X93670941Y-90620851D01*
X93907283Y-90778770D01*
X94169892Y-90887546D01*
X94448677Y-90943000D01*
X94732923Y-90943000D01*
X95011708Y-90887546D01*
X95274317Y-90778770D01*
X95510659Y-90620851D01*
X95711651Y-90419859D01*
X95869570Y-90183517D01*
X95978346Y-89920908D01*
X96033800Y-89642123D01*
X96033800Y-89357877D01*
X95978346Y-89079092D01*
X95869570Y-88816483D01*
X95711651Y-88580141D01*
X95510659Y-88379149D01*
X95274317Y-88221230D01*
X95011708Y-88112454D01*
X94732923Y-88057000D01*
X94448677Y-88057000D01*
X94169892Y-88112454D01*
X93907283Y-88221230D01*
X93670941Y-88379149D01*
X93469949Y-88580141D01*
X93312030Y-88816483D01*
X93295400Y-88856631D01*
X93278770Y-88816483D01*
X93120851Y-88580141D01*
X92919859Y-88379149D01*
X92683517Y-88221230D01*
X92420908Y-88112454D01*
X92142123Y-88057000D01*
X91857877Y-88057000D01*
X91579092Y-88112454D01*
X91316483Y-88221230D01*
X91080141Y-88379149D01*
X90879149Y-88580141D01*
X90721230Y-88816483D01*
X90612454Y-89079092D01*
X90557000Y-89357877D01*
X75452000Y-89357877D01*
X75452000Y-84500000D01*
X123069726Y-84500000D01*
X123073001Y-84533255D01*
X123073000Y-105216755D01*
X123069726Y-105250000D01*
X123073000Y-105283245D01*
X123073000Y-105283251D01*
X123082796Y-105382714D01*
X123121508Y-105510329D01*
X123184372Y-105627940D01*
X123268973Y-105731026D01*
X123294800Y-105752222D01*
X123997774Y-106455196D01*
X124018973Y-106481027D01*
X124122059Y-106565628D01*
X124239670Y-106628492D01*
X124367285Y-106667204D01*
X124466748Y-106677000D01*
X124466757Y-106677000D01*
X124499999Y-106680274D01*
X124533241Y-106677000D01*
X130774643Y-106677000D01*
X130858269Y-106732877D01*
X131008773Y-106795218D01*
X131168548Y-106827000D01*
X131331452Y-106827000D01*
X131491227Y-106795218D01*
X131641731Y-106732877D01*
X131777181Y-106642372D01*
X131892372Y-106527181D01*
X131982877Y-106391731D01*
X132045218Y-106241227D01*
X132077000Y-106081452D01*
X132077000Y-105918548D01*
X132045218Y-105758773D01*
X131982877Y-105608269D01*
X131892372Y-105472819D01*
X131777181Y-105357628D01*
X131641731Y-105267123D01*
X131491227Y-105204782D01*
X131331452Y-105173000D01*
X131168548Y-105173000D01*
X131008773Y-105204782D01*
X130858269Y-105267123D01*
X130774643Y-105323000D01*
X124780422Y-105323000D01*
X124427000Y-104969578D01*
X124427000Y-88742894D01*
X153611000Y-88742894D01*
X153611000Y-88977106D01*
X153656693Y-89206818D01*
X153746322Y-89423203D01*
X153876443Y-89617943D01*
X154042057Y-89783557D01*
X154236797Y-89913678D01*
X154453182Y-90003307D01*
X154682894Y-90049000D01*
X154917106Y-90049000D01*
X155146818Y-90003307D01*
X155363203Y-89913678D01*
X155557943Y-89783557D01*
X155723557Y-89617943D01*
X155853678Y-89423203D01*
X155943307Y-89206818D01*
X155989000Y-88977106D01*
X155989000Y-88742894D01*
X179011000Y-88742894D01*
X179011000Y-88977106D01*
X179056693Y-89206818D01*
X179146322Y-89423203D01*
X179276443Y-89617943D01*
X179442057Y-89783557D01*
X179636797Y-89913678D01*
X179853182Y-90003307D01*
X180082894Y-90049000D01*
X180317106Y-90049000D01*
X180546818Y-90003307D01*
X180763203Y-89913678D01*
X180957943Y-89783557D01*
X181123557Y-89617943D01*
X181253678Y-89423203D01*
X181343307Y-89206818D01*
X181389000Y-88977106D01*
X181389000Y-88742894D01*
X181343307Y-88513182D01*
X181253678Y-88296797D01*
X181123557Y-88102057D01*
X180957943Y-87936443D01*
X180763203Y-87806322D01*
X180546818Y-87716693D01*
X180317106Y-87671000D01*
X180082894Y-87671000D01*
X179853182Y-87716693D01*
X179636797Y-87806322D01*
X179442057Y-87936443D01*
X179276443Y-88102057D01*
X179146322Y-88296797D01*
X179056693Y-88513182D01*
X179011000Y-88742894D01*
X155989000Y-88742894D01*
X155943307Y-88513182D01*
X155853678Y-88296797D01*
X155723557Y-88102057D01*
X155557943Y-87936443D01*
X155363203Y-87806322D01*
X155146818Y-87716693D01*
X154917106Y-87671000D01*
X154682894Y-87671000D01*
X154453182Y-87716693D01*
X154236797Y-87806322D01*
X154042057Y-87936443D01*
X153876443Y-88102057D01*
X153746322Y-88296797D01*
X153656693Y-88513182D01*
X153611000Y-88742894D01*
X124427000Y-88742894D01*
X124427000Y-84780422D01*
X124780422Y-84427000D01*
X163719578Y-84427000D01*
X166247774Y-86955196D01*
X166268973Y-86981027D01*
X166372059Y-87065628D01*
X166489670Y-87128492D01*
X166617285Y-87167204D01*
X166716748Y-87177000D01*
X166716757Y-87177000D01*
X166749999Y-87180274D01*
X166783241Y-87177000D01*
X176216755Y-87177000D01*
X176250000Y-87180274D01*
X176283245Y-87177000D01*
X176283252Y-87177000D01*
X176382715Y-87167204D01*
X176510330Y-87128492D01*
X176627941Y-87065628D01*
X176731027Y-86981027D01*
X176752226Y-86955196D01*
X178392582Y-85314840D01*
X178491227Y-85295218D01*
X178641731Y-85232877D01*
X178777181Y-85142372D01*
X178892372Y-85027181D01*
X178982877Y-84891731D01*
X179045218Y-84741227D01*
X179077000Y-84581452D01*
X179077000Y-84418548D01*
X179045218Y-84258773D01*
X178982877Y-84108269D01*
X178892372Y-83972819D01*
X178777181Y-83857628D01*
X178641731Y-83767123D01*
X178491227Y-83704782D01*
X178331452Y-83673000D01*
X178168548Y-83673000D01*
X178008773Y-83704782D01*
X177858269Y-83767123D01*
X177722819Y-83857628D01*
X177607628Y-83972819D01*
X177517123Y-84108269D01*
X177454782Y-84258773D01*
X177435160Y-84357418D01*
X175969578Y-85823000D01*
X167030422Y-85823000D01*
X164502226Y-83294804D01*
X164481027Y-83268973D01*
X164377941Y-83184372D01*
X164260330Y-83121508D01*
X164132715Y-83082796D01*
X164033252Y-83073000D01*
X164033245Y-83073000D01*
X164000000Y-83069726D01*
X163966755Y-83073000D01*
X124533241Y-83073000D01*
X124499999Y-83069726D01*
X124466757Y-83073000D01*
X124466748Y-83073000D01*
X124367285Y-83082796D01*
X124239670Y-83121508D01*
X124122059Y-83184372D01*
X124018973Y-83268973D01*
X123997774Y-83294804D01*
X123294801Y-83997777D01*
X123268974Y-84018973D01*
X123247779Y-84044799D01*
X123247776Y-84044802D01*
X123184372Y-84122060D01*
X123121508Y-84239671D01*
X123082796Y-84367286D01*
X123069726Y-84500000D01*
X75452000Y-84500000D01*
X75452000Y-82007000D01*
X76280971Y-82007000D01*
X76290663Y-82105409D01*
X76319368Y-82200037D01*
X76365983Y-82287246D01*
X76428715Y-82363685D01*
X76505154Y-82426417D01*
X76592363Y-82473032D01*
X76686991Y-82501737D01*
X76785400Y-82511429D01*
X78316900Y-82509000D01*
X78442400Y-82383500D01*
X78442400Y-81239000D01*
X78938400Y-81239000D01*
X78938400Y-82383500D01*
X79063900Y-82509000D01*
X80595400Y-82511429D01*
X80693809Y-82501737D01*
X80788437Y-82473032D01*
X80875646Y-82426417D01*
X80952085Y-82363685D01*
X81014817Y-82287246D01*
X81061432Y-82200037D01*
X81090137Y-82105409D01*
X81099829Y-82007000D01*
X86491771Y-82007000D01*
X86501463Y-82105409D01*
X86530168Y-82200037D01*
X86576783Y-82287246D01*
X86639515Y-82363685D01*
X86715954Y-82426417D01*
X86803163Y-82473032D01*
X86897791Y-82501737D01*
X86996200Y-82511429D01*
X88527700Y-82509000D01*
X88653200Y-82383500D01*
X88653200Y-81239000D01*
X89149200Y-81239000D01*
X89149200Y-82383500D01*
X89274700Y-82509000D01*
X90806200Y-82511429D01*
X90904609Y-82501737D01*
X90999237Y-82473032D01*
X91086446Y-82426417D01*
X91162885Y-82363685D01*
X91225617Y-82287246D01*
X91272232Y-82200037D01*
X91300937Y-82105409D01*
X91310629Y-82007000D01*
X91308200Y-81364500D01*
X91182700Y-81239000D01*
X89149200Y-81239000D01*
X88653200Y-81239000D01*
X86619700Y-81239000D01*
X86494200Y-81364500D01*
X86491771Y-82007000D01*
X81099829Y-82007000D01*
X81097400Y-81364500D01*
X80971900Y-81239000D01*
X78938400Y-81239000D01*
X78442400Y-81239000D01*
X76408900Y-81239000D01*
X76283400Y-81364500D01*
X76280971Y-82007000D01*
X75452000Y-82007000D01*
X75452000Y-79975000D01*
X76280971Y-79975000D01*
X76283400Y-80617500D01*
X76408900Y-80743000D01*
X78442400Y-80743000D01*
X78442400Y-79598500D01*
X78938400Y-79598500D01*
X78938400Y-80743000D01*
X80971900Y-80743000D01*
X81097400Y-80617500D01*
X81099829Y-79975000D01*
X86491771Y-79975000D01*
X86494200Y-80617500D01*
X86619700Y-80743000D01*
X88653200Y-80743000D01*
X88653200Y-79598500D01*
X89149200Y-79598500D01*
X89149200Y-80743000D01*
X91182700Y-80743000D01*
X91308200Y-80617500D01*
X91310629Y-79975000D01*
X91300937Y-79876591D01*
X91272232Y-79781963D01*
X91225617Y-79694754D01*
X91162885Y-79618315D01*
X91086446Y-79555583D01*
X90999237Y-79508968D01*
X90904609Y-79480263D01*
X90806200Y-79470571D01*
X89274700Y-79473000D01*
X89149200Y-79598500D01*
X88653200Y-79598500D01*
X88527700Y-79473000D01*
X86996200Y-79470571D01*
X86897791Y-79480263D01*
X86803163Y-79508968D01*
X86715954Y-79555583D01*
X86639515Y-79618315D01*
X86576783Y-79694754D01*
X86530168Y-79781963D01*
X86501463Y-79876591D01*
X86491771Y-79975000D01*
X81099829Y-79975000D01*
X81090137Y-79876591D01*
X81061432Y-79781963D01*
X81014817Y-79694754D01*
X80952085Y-79618315D01*
X80875646Y-79555583D01*
X80788437Y-79508968D01*
X80693809Y-79480263D01*
X80595400Y-79470571D01*
X79063900Y-79473000D01*
X78938400Y-79598500D01*
X78442400Y-79598500D01*
X78316900Y-79473000D01*
X76785400Y-79470571D01*
X76686991Y-79480263D01*
X76592363Y-79508968D01*
X76505154Y-79555583D01*
X76428715Y-79618315D01*
X76365983Y-79694754D01*
X76319368Y-79781963D01*
X76290663Y-79876591D01*
X76280971Y-79975000D01*
X75452000Y-79975000D01*
X75452000Y-75452000D01*
X194048000Y-75452000D01*
X194048001Y-149048000D01*
%TA.AperFunction,Conductor*%
D26*
G36*
X194048001Y-149048000D02*
G01*
X75452000Y-149048000D01*
X75452000Y-145900000D01*
X190095571Y-145900000D01*
X190105263Y-145998409D01*
X190133968Y-146093037D01*
X190180583Y-146180246D01*
X190243315Y-146256685D01*
X190319754Y-146319417D01*
X190406963Y-146366032D01*
X190501591Y-146394737D01*
X190600000Y-146404429D01*
X191126500Y-146402000D01*
X191252000Y-146276500D01*
X191252000Y-145248000D01*
X191748000Y-145248000D01*
X191748000Y-146276500D01*
X191873500Y-146402000D01*
X192400000Y-146404429D01*
X192498409Y-146394737D01*
X192593037Y-146366032D01*
X192680246Y-146319417D01*
X192756685Y-146256685D01*
X192819417Y-146180246D01*
X192866032Y-146093037D01*
X192894737Y-145998409D01*
X192904429Y-145900000D01*
X192902000Y-145373500D01*
X192776500Y-145248000D01*
X191748000Y-145248000D01*
X191252000Y-145248000D01*
X190223500Y-145248000D01*
X190098000Y-145373500D01*
X190095571Y-145900000D01*
X75452000Y-145900000D01*
X75452000Y-144100000D01*
X190095571Y-144100000D01*
X190098000Y-144626500D01*
X190223500Y-144752000D01*
X191252000Y-144752000D01*
X191252000Y-144732000D01*
X191748000Y-144732000D01*
X191748000Y-144752000D01*
X192776500Y-144752000D01*
X192902000Y-144626500D01*
X192904429Y-144100000D01*
X192894737Y-144001591D01*
X192866032Y-143906963D01*
X192819417Y-143819754D01*
X192756685Y-143743315D01*
X192680246Y-143680583D01*
X192593037Y-143633968D01*
X192498409Y-143605263D01*
X192400000Y-143595571D01*
X192187568Y-143596551D01*
X192345913Y-143490748D01*
X192530748Y-143305913D01*
X192675972Y-143088570D01*
X192776004Y-142847072D01*
X192827000Y-142590698D01*
X192827000Y-142329302D01*
X192776004Y-142072928D01*
X192675972Y-141831430D01*
X192530748Y-141614087D01*
X192345913Y-141429252D01*
X192128570Y-141284028D01*
X191887072Y-141183996D01*
X191630698Y-141133000D01*
X191369302Y-141133000D01*
X191112928Y-141183996D01*
X190871430Y-141284028D01*
X190654087Y-141429252D01*
X190469252Y-141614087D01*
X190324028Y-141831430D01*
X190223996Y-142072928D01*
X190173000Y-142329302D01*
X190173000Y-142590698D01*
X190223996Y-142847072D01*
X190324028Y-143088570D01*
X190469252Y-143305913D01*
X190654087Y-143490748D01*
X190812432Y-143596551D01*
X190600000Y-143595571D01*
X190501591Y-143605263D01*
X190406963Y-143633968D01*
X190319754Y-143680583D01*
X190243315Y-143743315D01*
X190180583Y-143819754D01*
X190133968Y-143906963D01*
X190105263Y-144001591D01*
X190095571Y-144100000D01*
X75452000Y-144100000D01*
X75452000Y-143554018D01*
X79746707Y-143554018D01*
X79896352Y-143796868D01*
X80224289Y-143932723D01*
X80572428Y-144001990D01*
X80927390Y-144002008D01*
X81275537Y-143932776D01*
X81603486Y-143796954D01*
X81603648Y-143796868D01*
X81753293Y-143554018D01*
X80750000Y-142550725D01*
X79746707Y-143554018D01*
X75452000Y-143554018D01*
X75452000Y-142377390D01*
X78947992Y-142377390D01*
X79017224Y-142725537D01*
X79153046Y-143053486D01*
X79153132Y-143053648D01*
X79395982Y-143203293D01*
X80399275Y-142200000D01*
X81100725Y-142200000D01*
X82104018Y-143203293D01*
X82346868Y-143053648D01*
X82482723Y-142725711D01*
X82551990Y-142377572D01*
X82552008Y-142022610D01*
X82482776Y-141674463D01*
X82346954Y-141346514D01*
X82346868Y-141346352D01*
X82104018Y-141196707D01*
X81100725Y-142200000D01*
X80399275Y-142200000D01*
X79395982Y-141196707D01*
X79153132Y-141346352D01*
X79017277Y-141674289D01*
X78948010Y-142022428D01*
X78947992Y-142377390D01*
X75452000Y-142377390D01*
X75452000Y-140845982D01*
X79746707Y-140845982D01*
X80750000Y-141849275D01*
X81753293Y-140845982D01*
X81603648Y-140603132D01*
X81275711Y-140467277D01*
X80927572Y-140398010D01*
X80572610Y-140397992D01*
X80224463Y-140467224D01*
X79896514Y-140603046D01*
X79896352Y-140603132D01*
X79746707Y-140845982D01*
X75452000Y-140845982D01*
X75452000Y-138854018D01*
X76746707Y-138854018D01*
X76896352Y-139096868D01*
X77224289Y-139232723D01*
X77572428Y-139301990D01*
X77927390Y-139302008D01*
X78275537Y-139232776D01*
X78603486Y-139096954D01*
X78603648Y-139096868D01*
X78753293Y-138854018D01*
X77750000Y-137850725D01*
X76746707Y-138854018D01*
X75452000Y-138854018D01*
X75452000Y-137677390D01*
X75947992Y-137677390D01*
X76017224Y-138025537D01*
X76153046Y-138353486D01*
X76153132Y-138353648D01*
X76395982Y-138503293D01*
X77399275Y-137500000D01*
X78100725Y-137500000D01*
X79104018Y-138503293D01*
X79346868Y-138353648D01*
X79482723Y-138025711D01*
X79551990Y-137677572D01*
X79552008Y-137322610D01*
X79482776Y-136974463D01*
X79346954Y-136646514D01*
X79346868Y-136646352D01*
X79104018Y-136496707D01*
X78100725Y-137500000D01*
X77399275Y-137500000D01*
X76395982Y-136496707D01*
X76153132Y-136646352D01*
X76017277Y-136974289D01*
X75948010Y-137322428D01*
X75947992Y-137677390D01*
X75452000Y-137677390D01*
X75452000Y-136145982D01*
X76746707Y-136145982D01*
X77750000Y-137149275D01*
X78699275Y-136200000D01*
X82020934Y-136200000D01*
X82020934Y-138800000D01*
X82029178Y-138883707D01*
X82053595Y-138964196D01*
X82093245Y-139038376D01*
X82146605Y-139103395D01*
X82211624Y-139156755D01*
X82285804Y-139196405D01*
X82366293Y-139220822D01*
X82450000Y-139229066D01*
X85050000Y-139229066D01*
X85133707Y-139220822D01*
X85214196Y-139196405D01*
X85288376Y-139156755D01*
X85353395Y-139103395D01*
X85406755Y-139038376D01*
X85446405Y-138964196D01*
X85470822Y-138883707D01*
X85479066Y-138800000D01*
X85479066Y-138400000D01*
X190095571Y-138400000D01*
X190105263Y-138498409D01*
X190133968Y-138593037D01*
X190180583Y-138680246D01*
X190243315Y-138756685D01*
X190319754Y-138819417D01*
X190406963Y-138866032D01*
X190501591Y-138894737D01*
X190600000Y-138904429D01*
X191126500Y-138902000D01*
X191252000Y-138776500D01*
X191252000Y-137748000D01*
X191748000Y-137748000D01*
X191748000Y-138776500D01*
X191873500Y-138902000D01*
X192400000Y-138904429D01*
X192498409Y-138894737D01*
X192593037Y-138866032D01*
X192680246Y-138819417D01*
X192756685Y-138756685D01*
X192819417Y-138680246D01*
X192866032Y-138593037D01*
X192894737Y-138498409D01*
X192904429Y-138400000D01*
X192902000Y-137873500D01*
X192776500Y-137748000D01*
X191748000Y-137748000D01*
X191252000Y-137748000D01*
X190223500Y-137748000D01*
X190098000Y-137873500D01*
X190095571Y-138400000D01*
X85479066Y-138400000D01*
X85479066Y-136600000D01*
X190095571Y-136600000D01*
X190098000Y-137126500D01*
X190223500Y-137252000D01*
X191252000Y-137252000D01*
X191252000Y-137232000D01*
X191748000Y-137232000D01*
X191748000Y-137252000D01*
X192776500Y-137252000D01*
X192902000Y-137126500D01*
X192904429Y-136600000D01*
X192894737Y-136501591D01*
X192866032Y-136406963D01*
X192819417Y-136319754D01*
X192756685Y-136243315D01*
X192680246Y-136180583D01*
X192593037Y-136133968D01*
X192498409Y-136105263D01*
X192400000Y-136095571D01*
X192187568Y-136096551D01*
X192345913Y-135990748D01*
X192530748Y-135805913D01*
X192675972Y-135588570D01*
X192776004Y-135347072D01*
X192827000Y-135090698D01*
X192827000Y-134829302D01*
X192776004Y-134572928D01*
X192675972Y-134331430D01*
X192530748Y-134114087D01*
X192345913Y-133929252D01*
X192128570Y-133784028D01*
X191887072Y-133683996D01*
X191630698Y-133633000D01*
X191369302Y-133633000D01*
X191112928Y-133683996D01*
X190871430Y-133784028D01*
X190654087Y-133929252D01*
X190469252Y-134114087D01*
X190324028Y-134331430D01*
X190223996Y-134572928D01*
X190173000Y-134829302D01*
X190173000Y-135090698D01*
X190223996Y-135347072D01*
X190324028Y-135588570D01*
X190469252Y-135805913D01*
X190654087Y-135990748D01*
X190812432Y-136096551D01*
X190600000Y-136095571D01*
X190501591Y-136105263D01*
X190406963Y-136133968D01*
X190319754Y-136180583D01*
X190243315Y-136243315D01*
X190180583Y-136319754D01*
X190133968Y-136406963D01*
X190105263Y-136501591D01*
X190095571Y-136600000D01*
X85479066Y-136600000D01*
X85479066Y-136200000D01*
X85470822Y-136116293D01*
X85446405Y-136035804D01*
X85406755Y-135961624D01*
X85353395Y-135896605D01*
X85288376Y-135843245D01*
X85214196Y-135803595D01*
X85133707Y-135779178D01*
X85050000Y-135770934D01*
X82450000Y-135770934D01*
X82366293Y-135779178D01*
X82285804Y-135803595D01*
X82211624Y-135843245D01*
X82146605Y-135896605D01*
X82093245Y-135961624D01*
X82053595Y-136035804D01*
X82029178Y-136116293D01*
X82020934Y-136200000D01*
X78699275Y-136200000D01*
X78753293Y-136145982D01*
X78603648Y-135903132D01*
X78275711Y-135767277D01*
X77927572Y-135698010D01*
X77572610Y-135697992D01*
X77224463Y-135767224D01*
X76896514Y-135903046D01*
X76896352Y-135903132D01*
X76746707Y-136145982D01*
X75452000Y-136145982D01*
X75452000Y-135100000D01*
X128466096Y-135100000D01*
X128493648Y-135379741D01*
X128575245Y-135648731D01*
X128707752Y-135896634D01*
X128886077Y-136113923D01*
X129103366Y-136292248D01*
X129351269Y-136424755D01*
X129620259Y-136506352D01*
X129829902Y-136527000D01*
X132579912Y-136527000D01*
X132650000Y-136533903D01*
X132720088Y-136527000D01*
X132720098Y-136527000D01*
X132929741Y-136506352D01*
X133198731Y-136424755D01*
X133446634Y-136292248D01*
X133663923Y-136113923D01*
X133708609Y-136059473D01*
X138868082Y-130900000D01*
X190095571Y-130900000D01*
X190105263Y-130998409D01*
X190133968Y-131093037D01*
X190180583Y-131180246D01*
X190243315Y-131256685D01*
X190319754Y-131319417D01*
X190406963Y-131366032D01*
X190501591Y-131394737D01*
X190600000Y-131404429D01*
X191126500Y-131402000D01*
X191252000Y-131276500D01*
X191252000Y-130248000D01*
X191748000Y-130248000D01*
X191748000Y-131276500D01*
X191873500Y-131402000D01*
X192400000Y-131404429D01*
X192498409Y-131394737D01*
X192593037Y-131366032D01*
X192680246Y-131319417D01*
X192756685Y-131256685D01*
X192819417Y-131180246D01*
X192866032Y-131093037D01*
X192894737Y-130998409D01*
X192904429Y-130900000D01*
X192902000Y-130373500D01*
X192776500Y-130248000D01*
X191748000Y-130248000D01*
X191252000Y-130248000D01*
X190223500Y-130248000D01*
X190098000Y-130373500D01*
X190095571Y-130900000D01*
X138868082Y-130900000D01*
X139959483Y-129808600D01*
X140013922Y-129763923D01*
X140058601Y-129709482D01*
X140058608Y-129709475D01*
X140192247Y-129546635D01*
X140192248Y-129546634D01*
X140324755Y-129298731D01*
X140406352Y-129029741D01*
X140427000Y-128820098D01*
X140427000Y-128820089D01*
X140433903Y-128750001D01*
X140427000Y-128679913D01*
X140427000Y-128318558D01*
X144423000Y-128318558D01*
X144423000Y-128481462D01*
X144454782Y-128641237D01*
X144517123Y-128791741D01*
X144607628Y-128927191D01*
X144722819Y-129042382D01*
X144858269Y-129132887D01*
X145008773Y-129195228D01*
X145168548Y-129227010D01*
X145331452Y-129227010D01*
X145491227Y-129195228D01*
X145641731Y-129132887D01*
X145690949Y-129100000D01*
X190095571Y-129100000D01*
X190098000Y-129626500D01*
X190223500Y-129752000D01*
X191252000Y-129752000D01*
X191252000Y-129732000D01*
X191748000Y-129732000D01*
X191748000Y-129752000D01*
X192776500Y-129752000D01*
X192902000Y-129626500D01*
X192904429Y-129100000D01*
X192894737Y-129001591D01*
X192866032Y-128906963D01*
X192819417Y-128819754D01*
X192756685Y-128743315D01*
X192680246Y-128680583D01*
X192593037Y-128633968D01*
X192498409Y-128605263D01*
X192400000Y-128595571D01*
X192187568Y-128596551D01*
X192345913Y-128490748D01*
X192530748Y-128305913D01*
X192675972Y-128088570D01*
X192776004Y-127847072D01*
X192827000Y-127590698D01*
X192827000Y-127329302D01*
X192776004Y-127072928D01*
X192675972Y-126831430D01*
X192530748Y-126614087D01*
X192345913Y-126429252D01*
X192128570Y-126284028D01*
X191887072Y-126183996D01*
X191630698Y-126133000D01*
X191369302Y-126133000D01*
X191112928Y-126183996D01*
X190871430Y-126284028D01*
X190654087Y-126429252D01*
X190469252Y-126614087D01*
X190324028Y-126831430D01*
X190223996Y-127072928D01*
X190173000Y-127329302D01*
X190173000Y-127590698D01*
X190223996Y-127847072D01*
X190324028Y-128088570D01*
X190469252Y-128305913D01*
X190654087Y-128490748D01*
X190812432Y-128596551D01*
X190600000Y-128595571D01*
X190501591Y-128605263D01*
X190406963Y-128633968D01*
X190319754Y-128680583D01*
X190243315Y-128743315D01*
X190180583Y-128819754D01*
X190133968Y-128906963D01*
X190105263Y-129001591D01*
X190095571Y-129100000D01*
X145690949Y-129100000D01*
X145777181Y-129042382D01*
X145892372Y-128927191D01*
X145982877Y-128791741D01*
X146045218Y-128641237D01*
X146077000Y-128481462D01*
X146077000Y-128459721D01*
X151136721Y-123400000D01*
X190095571Y-123400000D01*
X190105263Y-123498409D01*
X190133968Y-123593037D01*
X190180583Y-123680246D01*
X190243315Y-123756685D01*
X190319754Y-123819417D01*
X190406963Y-123866032D01*
X190501591Y-123894737D01*
X190600000Y-123904429D01*
X191126500Y-123902000D01*
X191252000Y-123776500D01*
X191252000Y-122748000D01*
X191748000Y-122748000D01*
X191748000Y-123776500D01*
X191873500Y-123902000D01*
X192400000Y-123904429D01*
X192498409Y-123894737D01*
X192593037Y-123866032D01*
X192680246Y-123819417D01*
X192756685Y-123756685D01*
X192819417Y-123680246D01*
X192866032Y-123593037D01*
X192894737Y-123498409D01*
X192904429Y-123400000D01*
X192902000Y-122873500D01*
X192776500Y-122748000D01*
X191748000Y-122748000D01*
X191252000Y-122748000D01*
X190223500Y-122748000D01*
X190098000Y-122873500D01*
X190095571Y-123400000D01*
X151136721Y-123400000D01*
X152936721Y-121600000D01*
X190095571Y-121600000D01*
X190098000Y-122126500D01*
X190223500Y-122252000D01*
X191252000Y-122252000D01*
X191252000Y-122232000D01*
X191748000Y-122232000D01*
X191748000Y-122252000D01*
X192776500Y-122252000D01*
X192902000Y-122126500D01*
X192904429Y-121600000D01*
X192894737Y-121501591D01*
X192866032Y-121406963D01*
X192819417Y-121319754D01*
X192756685Y-121243315D01*
X192680246Y-121180583D01*
X192593037Y-121133968D01*
X192498409Y-121105263D01*
X192400000Y-121095571D01*
X192187568Y-121096551D01*
X192345913Y-120990748D01*
X192530748Y-120805913D01*
X192675972Y-120588570D01*
X192776004Y-120347072D01*
X192827000Y-120090698D01*
X192827000Y-119829302D01*
X192776004Y-119572928D01*
X192675972Y-119331430D01*
X192530748Y-119114087D01*
X192345913Y-118929252D01*
X192128570Y-118784028D01*
X191887072Y-118683996D01*
X191630698Y-118633000D01*
X191369302Y-118633000D01*
X191112928Y-118683996D01*
X190871430Y-118784028D01*
X190654087Y-118929252D01*
X190469252Y-119114087D01*
X190324028Y-119331430D01*
X190223996Y-119572928D01*
X190173000Y-119829302D01*
X190173000Y-120090698D01*
X190223996Y-120347072D01*
X190324028Y-120588570D01*
X190469252Y-120805913D01*
X190654087Y-120990748D01*
X190812432Y-121096551D01*
X190600000Y-121095571D01*
X190501591Y-121105263D01*
X190406963Y-121133968D01*
X190319754Y-121180583D01*
X190243315Y-121243315D01*
X190180583Y-121319754D01*
X190133968Y-121406963D01*
X190105263Y-121501591D01*
X190095571Y-121600000D01*
X152936721Y-121600000D01*
X158596721Y-115940000D01*
X190095571Y-115940000D01*
X190105263Y-116038409D01*
X190133968Y-116133037D01*
X190180583Y-116220246D01*
X190243315Y-116296685D01*
X190319754Y-116359417D01*
X190406963Y-116406032D01*
X190501591Y-116434737D01*
X190600000Y-116444429D01*
X191126500Y-116442000D01*
X191252000Y-116316500D01*
X191252000Y-115288000D01*
X191748000Y-115288000D01*
X191748000Y-116316500D01*
X191873500Y-116442000D01*
X192400000Y-116444429D01*
X192498409Y-116434737D01*
X192593037Y-116406032D01*
X192680246Y-116359417D01*
X192756685Y-116296685D01*
X192819417Y-116220246D01*
X192866032Y-116133037D01*
X192894737Y-116038409D01*
X192904429Y-115940000D01*
X192902000Y-115413500D01*
X192776500Y-115288000D01*
X191748000Y-115288000D01*
X191252000Y-115288000D01*
X190223500Y-115288000D01*
X190098000Y-115413500D01*
X190095571Y-115940000D01*
X158596721Y-115940000D01*
X159709722Y-114827000D01*
X159831452Y-114827000D01*
X159991227Y-114795218D01*
X160141731Y-114732877D01*
X160277181Y-114642372D01*
X160392372Y-114527181D01*
X160482877Y-114391731D01*
X160545218Y-114241227D01*
X160565353Y-114140000D01*
X190095571Y-114140000D01*
X190098000Y-114666500D01*
X190223500Y-114792000D01*
X191252000Y-114792000D01*
X191252000Y-114772000D01*
X191748000Y-114772000D01*
X191748000Y-114792000D01*
X192776500Y-114792000D01*
X192902000Y-114666500D01*
X192904429Y-114140000D01*
X192894737Y-114041591D01*
X192866032Y-113946963D01*
X192819417Y-113859754D01*
X192756685Y-113783315D01*
X192680246Y-113720583D01*
X192593037Y-113673968D01*
X192498409Y-113645263D01*
X192400000Y-113635571D01*
X192187568Y-113636551D01*
X192345913Y-113530748D01*
X192530748Y-113345913D01*
X192675972Y-113128570D01*
X192776004Y-112887072D01*
X192827000Y-112630698D01*
X192827000Y-112369302D01*
X192776004Y-112112928D01*
X192675972Y-111871430D01*
X192530748Y-111654087D01*
X192345913Y-111469252D01*
X192128570Y-111324028D01*
X191887072Y-111223996D01*
X191630698Y-111173000D01*
X191369302Y-111173000D01*
X191112928Y-111223996D01*
X190871430Y-111324028D01*
X190654087Y-111469252D01*
X190469252Y-111654087D01*
X190324028Y-111871430D01*
X190223996Y-112112928D01*
X190173000Y-112369302D01*
X190173000Y-112630698D01*
X190223996Y-112887072D01*
X190324028Y-113128570D01*
X190469252Y-113345913D01*
X190654087Y-113530748D01*
X190812432Y-113636551D01*
X190600000Y-113635571D01*
X190501591Y-113645263D01*
X190406963Y-113673968D01*
X190319754Y-113720583D01*
X190243315Y-113783315D01*
X190180583Y-113859754D01*
X190133968Y-113946963D01*
X190105263Y-114041591D01*
X190095571Y-114140000D01*
X160565353Y-114140000D01*
X160577000Y-114081452D01*
X160577000Y-113918548D01*
X160545218Y-113758773D01*
X160482877Y-113608269D01*
X160392372Y-113472819D01*
X160277181Y-113357628D01*
X160141731Y-113267123D01*
X159991227Y-113204782D01*
X159831452Y-113173000D01*
X159668548Y-113173000D01*
X159508773Y-113204782D01*
X159358269Y-113267123D01*
X159222819Y-113357628D01*
X159107628Y-113472819D01*
X159017123Y-113608269D01*
X158954782Y-113758773D01*
X158942430Y-113820868D01*
X145190289Y-127573010D01*
X145168548Y-127573010D01*
X145008773Y-127604792D01*
X144858269Y-127667133D01*
X144722819Y-127757638D01*
X144607628Y-127872829D01*
X144517123Y-128008279D01*
X144454782Y-128158783D01*
X144423000Y-128318558D01*
X140427000Y-128318558D01*
X140427000Y-119918548D01*
X147423000Y-119918548D01*
X147423000Y-120081452D01*
X147454782Y-120241227D01*
X147517123Y-120391731D01*
X147607628Y-120527181D01*
X147722819Y-120642372D01*
X147858269Y-120732877D01*
X148008773Y-120795218D01*
X148168548Y-120827000D01*
X148331452Y-120827000D01*
X148491227Y-120795218D01*
X148641731Y-120732877D01*
X148777181Y-120642372D01*
X148892372Y-120527181D01*
X148982877Y-120391731D01*
X149045218Y-120241227D01*
X149064840Y-120142582D01*
X152955206Y-116252217D01*
X152981026Y-116231027D01*
X153002218Y-116205205D01*
X153002224Y-116205199D01*
X153065628Y-116127941D01*
X153128492Y-116010330D01*
X153167204Y-115882715D01*
X153180275Y-115750000D01*
X153177000Y-115716748D01*
X153177000Y-107605502D01*
X154185223Y-107605502D01*
X154268450Y-107793538D01*
X154503707Y-107875073D01*
X154750351Y-107909145D01*
X154998903Y-107894445D01*
X155239811Y-107831537D01*
X155331550Y-107793538D01*
X155414777Y-107605502D01*
X154800000Y-106990725D01*
X154185223Y-107605502D01*
X153177000Y-107605502D01*
X153177000Y-106590351D01*
X153530855Y-106590351D01*
X153545555Y-106838903D01*
X153608463Y-107079811D01*
X153646462Y-107171550D01*
X153834498Y-107254777D01*
X154449275Y-106640000D01*
X155150725Y-106640000D01*
X155765502Y-107254777D01*
X155953538Y-107171550D01*
X156035073Y-106936293D01*
X156069145Y-106689649D01*
X156059283Y-106522894D01*
X179011000Y-106522894D01*
X179011000Y-106757106D01*
X179056693Y-106986818D01*
X179146322Y-107203203D01*
X179276443Y-107397943D01*
X179442057Y-107563557D01*
X179636797Y-107693678D01*
X179853182Y-107783307D01*
X180082894Y-107829000D01*
X180317106Y-107829000D01*
X180546818Y-107783307D01*
X180763203Y-107693678D01*
X180957943Y-107563557D01*
X181123557Y-107397943D01*
X181253678Y-107203203D01*
X181343307Y-106986818D01*
X181389000Y-106757106D01*
X181389000Y-106522894D01*
X181343307Y-106293182D01*
X181253678Y-106076797D01*
X181123557Y-105882057D01*
X180957943Y-105716443D01*
X180763203Y-105586322D01*
X180546818Y-105496693D01*
X180317106Y-105451000D01*
X180082894Y-105451000D01*
X179853182Y-105496693D01*
X179636797Y-105586322D01*
X179442057Y-105716443D01*
X179276443Y-105882057D01*
X179146322Y-106076797D01*
X179056693Y-106293182D01*
X179011000Y-106522894D01*
X156059283Y-106522894D01*
X156054445Y-106441097D01*
X155991537Y-106200189D01*
X155953538Y-106108450D01*
X155765502Y-106025223D01*
X155150725Y-106640000D01*
X154449275Y-106640000D01*
X153834498Y-106025223D01*
X153646462Y-106108450D01*
X153564927Y-106343707D01*
X153530855Y-106590351D01*
X153177000Y-106590351D01*
X153177000Y-105674498D01*
X154185223Y-105674498D01*
X154800000Y-106289275D01*
X155414777Y-105674498D01*
X155331550Y-105486462D01*
X155096293Y-105404927D01*
X154849649Y-105370855D01*
X154601097Y-105385555D01*
X154360189Y-105448463D01*
X154268450Y-105486462D01*
X154185223Y-105674498D01*
X153177000Y-105674498D01*
X153177000Y-99475357D01*
X153232877Y-99391731D01*
X153295218Y-99241227D01*
X153327000Y-99081452D01*
X153327000Y-98918548D01*
X153295218Y-98758773D01*
X153232877Y-98608269D01*
X153142372Y-98472819D01*
X153027181Y-98357628D01*
X152891731Y-98267123D01*
X152741227Y-98204782D01*
X152581452Y-98173000D01*
X152418548Y-98173000D01*
X152258773Y-98204782D01*
X152108269Y-98267123D01*
X151972819Y-98357628D01*
X151857628Y-98472819D01*
X151767123Y-98608269D01*
X151704782Y-98758773D01*
X151673000Y-98918548D01*
X151673000Y-99081452D01*
X151704782Y-99241227D01*
X151767123Y-99391731D01*
X151823001Y-99475358D01*
X151823000Y-115469577D01*
X148107418Y-119185160D01*
X148008773Y-119204782D01*
X147858269Y-119267123D01*
X147722819Y-119357628D01*
X147607628Y-119472819D01*
X147517123Y-119608269D01*
X147454782Y-119758773D01*
X147423000Y-119918548D01*
X140427000Y-119918548D01*
X140427000Y-119820090D01*
X140433903Y-119750000D01*
X140427000Y-119679910D01*
X140427000Y-119679902D01*
X140406352Y-119470259D01*
X140324755Y-119201269D01*
X140311783Y-119177000D01*
X144942188Y-119177000D01*
X145000000Y-119182694D01*
X145057812Y-119177000D01*
X145230732Y-119159969D01*
X145452597Y-119092667D01*
X145657070Y-118983374D01*
X145836291Y-118836291D01*
X145873151Y-118791377D01*
X149791384Y-114873145D01*
X149836291Y-114836291D01*
X149983374Y-114657070D01*
X150092667Y-114452597D01*
X150159969Y-114230732D01*
X150177000Y-114057812D01*
X150177000Y-114057803D01*
X150182693Y-114000001D01*
X150177000Y-113942199D01*
X150177000Y-99237528D01*
X151781634Y-97632894D01*
X179011000Y-97632894D01*
X179011000Y-97867106D01*
X179056693Y-98096818D01*
X179146322Y-98313203D01*
X179276443Y-98507943D01*
X179442057Y-98673557D01*
X179636797Y-98803678D01*
X179853182Y-98893307D01*
X180082894Y-98939000D01*
X180317106Y-98939000D01*
X180546818Y-98893307D01*
X180763203Y-98803678D01*
X180957943Y-98673557D01*
X181123557Y-98507943D01*
X181253678Y-98313203D01*
X181343307Y-98096818D01*
X181389000Y-97867106D01*
X181389000Y-97632894D01*
X181343307Y-97403182D01*
X181253678Y-97186797D01*
X181123557Y-96992057D01*
X180957943Y-96826443D01*
X180763203Y-96696322D01*
X180546818Y-96606693D01*
X180317106Y-96561000D01*
X180082894Y-96561000D01*
X179853182Y-96606693D01*
X179636797Y-96696322D01*
X179442057Y-96826443D01*
X179276443Y-96992057D01*
X179146322Y-97186797D01*
X179056693Y-97403182D01*
X179011000Y-97632894D01*
X151781634Y-97632894D01*
X152987529Y-96427000D01*
X160692188Y-96427000D01*
X160750000Y-96432694D01*
X160807812Y-96427000D01*
X160980732Y-96409969D01*
X161202597Y-96342667D01*
X161407070Y-96233374D01*
X161586291Y-96086291D01*
X161623151Y-96041377D01*
X164750291Y-92914238D01*
X164750294Y-92914236D01*
X164791388Y-92873142D01*
X164836291Y-92836291D01*
X164873144Y-92791386D01*
X164914236Y-92750294D01*
X164946523Y-92701973D01*
X164983374Y-92657070D01*
X165010757Y-92605840D01*
X165043044Y-92557519D01*
X165065284Y-92503827D01*
X165092667Y-92452597D01*
X165109529Y-92397009D01*
X165131769Y-92343318D01*
X165143106Y-92286321D01*
X165159969Y-92230732D01*
X165165663Y-92172920D01*
X165177000Y-92115924D01*
X165177000Y-92057812D01*
X165182694Y-92000000D01*
X165177000Y-91942188D01*
X165177000Y-91884076D01*
X165165663Y-91827080D01*
X165159969Y-91769268D01*
X165143106Y-91713679D01*
X165131769Y-91656682D01*
X165109529Y-91602991D01*
X165092667Y-91547403D01*
X165065284Y-91496173D01*
X165043044Y-91442481D01*
X165010757Y-91394160D01*
X164983374Y-91342930D01*
X164946523Y-91298027D01*
X164914236Y-91249706D01*
X164873142Y-91208612D01*
X164836291Y-91163709D01*
X164791387Y-91126857D01*
X164750294Y-91085764D01*
X164701973Y-91053477D01*
X164657070Y-91016626D01*
X164605840Y-90989243D01*
X164557519Y-90956956D01*
X164503827Y-90934716D01*
X164452597Y-90907333D01*
X164397009Y-90890471D01*
X164343318Y-90868231D01*
X164286321Y-90856894D01*
X164230732Y-90840031D01*
X164172920Y-90834337D01*
X164115924Y-90823000D01*
X164057811Y-90823000D01*
X163999999Y-90817306D01*
X163942187Y-90823000D01*
X163884076Y-90823000D01*
X163827081Y-90834337D01*
X163769268Y-90840031D01*
X163713679Y-90856894D01*
X163656682Y-90868231D01*
X163602991Y-90890471D01*
X163547403Y-90907333D01*
X163496173Y-90934716D01*
X163442481Y-90956956D01*
X163394160Y-90989243D01*
X163342930Y-91016626D01*
X163298027Y-91053477D01*
X163249706Y-91085764D01*
X163208613Y-91126857D01*
X163163709Y-91163709D01*
X163126858Y-91208612D01*
X163085764Y-91249706D01*
X163085762Y-91249709D01*
X160262472Y-94073000D01*
X152557801Y-94073000D01*
X152499999Y-94067307D01*
X152442197Y-94073000D01*
X152442188Y-94073000D01*
X152269268Y-94090031D01*
X152047403Y-94157333D01*
X151842930Y-94266626D01*
X151663709Y-94413709D01*
X151626856Y-94458615D01*
X150010551Y-96074921D01*
X150045218Y-95991227D01*
X150077000Y-95831452D01*
X150077000Y-95668548D01*
X150045218Y-95508773D01*
X149982877Y-95358269D01*
X149892372Y-95222819D01*
X149777181Y-95107628D01*
X149641731Y-95017123D01*
X149491227Y-94954782D01*
X149392583Y-94935160D01*
X147252226Y-92794804D01*
X147231027Y-92768973D01*
X147127941Y-92684372D01*
X147010330Y-92621508D01*
X146882715Y-92582796D01*
X146783252Y-92573000D01*
X146783245Y-92573000D01*
X146750000Y-92569726D01*
X146716755Y-92573000D01*
X132285209Y-92573000D01*
X132241227Y-92554782D01*
X132081452Y-92523000D01*
X131918548Y-92523000D01*
X131758773Y-92554782D01*
X131608269Y-92617123D01*
X131472819Y-92707628D01*
X131357628Y-92822819D01*
X131267123Y-92958269D01*
X131204782Y-93108773D01*
X131173000Y-93268548D01*
X131173000Y-93431452D01*
X131204782Y-93591227D01*
X131267123Y-93741731D01*
X131357628Y-93877181D01*
X131472819Y-93992372D01*
X131608269Y-94082877D01*
X131758773Y-94145218D01*
X131918548Y-94177000D01*
X132081452Y-94177000D01*
X132241227Y-94145218D01*
X132391731Y-94082877D01*
X132527181Y-93992372D01*
X132592553Y-93927000D01*
X146469578Y-93927000D01*
X148435160Y-95892583D01*
X148454782Y-95991227D01*
X148517123Y-96141731D01*
X148607628Y-96277181D01*
X148722819Y-96392372D01*
X148858269Y-96482877D01*
X149008773Y-96545218D01*
X149168548Y-96577000D01*
X149331452Y-96577000D01*
X149491227Y-96545218D01*
X149574921Y-96510551D01*
X148249712Y-97835760D01*
X148249706Y-97835764D01*
X148208612Y-97876858D01*
X148163709Y-97913709D01*
X148126858Y-97958612D01*
X148085764Y-97999706D01*
X148053477Y-98048027D01*
X148016626Y-98092930D01*
X147989243Y-98144160D01*
X147956956Y-98192481D01*
X147934716Y-98246173D01*
X147907333Y-98297403D01*
X147890471Y-98352991D01*
X147868231Y-98406682D01*
X147856894Y-98463679D01*
X147840031Y-98519268D01*
X147834337Y-98577080D01*
X147823000Y-98634076D01*
X147823000Y-98692188D01*
X147817306Y-98750000D01*
X147823000Y-98807812D01*
X147823000Y-98865924D01*
X147823001Y-98865929D01*
X147823000Y-113512471D01*
X144512472Y-116823000D01*
X138065214Y-116823000D01*
X138046634Y-116807752D01*
X137798731Y-116675245D01*
X137529741Y-116593648D01*
X137320098Y-116573000D01*
X137320088Y-116573000D01*
X137250000Y-116566097D01*
X137179912Y-116573000D01*
X135954902Y-116573000D01*
X135745259Y-116593648D01*
X135476269Y-116675245D01*
X135228366Y-116807752D01*
X135011077Y-116986077D01*
X134974948Y-117030101D01*
X134969417Y-117019754D01*
X134906685Y-116943315D01*
X134830246Y-116880583D01*
X134743037Y-116833968D01*
X134648409Y-116805263D01*
X134550000Y-116795571D01*
X134348500Y-116798000D01*
X134223000Y-116923500D01*
X134223000Y-117752000D01*
X134243000Y-117752000D01*
X134243000Y-118248000D01*
X134223000Y-118248000D01*
X134223000Y-119076500D01*
X134348500Y-119202000D01*
X134485375Y-119203650D01*
X134312312Y-119376713D01*
X134225499Y-119482495D01*
X134139420Y-119643537D01*
X134086414Y-119818277D01*
X134068516Y-120000000D01*
X134086414Y-120181723D01*
X134139420Y-120356463D01*
X134225499Y-120517505D01*
X134341341Y-120658659D01*
X134482495Y-120774501D01*
X134643537Y-120860580D01*
X134818277Y-120913586D01*
X135000000Y-120931484D01*
X135122423Y-120919426D01*
X135093315Y-120943315D01*
X135030583Y-121019754D01*
X134983968Y-121106963D01*
X134955263Y-121201591D01*
X134945571Y-121300000D01*
X134945953Y-121351376D01*
X134927375Y-121290132D01*
X134864623Y-121172731D01*
X134780172Y-121069828D01*
X134677269Y-120985377D01*
X134559868Y-120922625D01*
X134432480Y-120883982D01*
X134300001Y-120870934D01*
X133649999Y-120870934D01*
X133517520Y-120883982D01*
X133390132Y-120922625D01*
X133383560Y-120926138D01*
X132814840Y-120357418D01*
X132795218Y-120258773D01*
X132732877Y-120108269D01*
X132642372Y-119972819D01*
X132527181Y-119857628D01*
X132391731Y-119767123D01*
X132241227Y-119704782D01*
X132081452Y-119673000D01*
X131918548Y-119673000D01*
X131758773Y-119704782D01*
X131608269Y-119767123D01*
X131472819Y-119857628D01*
X131357628Y-119972819D01*
X131267123Y-120108269D01*
X131204782Y-120258773D01*
X131173000Y-120418548D01*
X131173000Y-120581452D01*
X131204782Y-120741227D01*
X131267123Y-120891731D01*
X131357628Y-121027181D01*
X131472819Y-121142372D01*
X131608269Y-121232877D01*
X131758773Y-121295218D01*
X131857418Y-121314840D01*
X132970934Y-122428356D01*
X132970934Y-122450001D01*
X132983982Y-122582480D01*
X133022625Y-122709868D01*
X133085377Y-122827269D01*
X133169828Y-122930172D01*
X133272731Y-123014623D01*
X133390132Y-123077375D01*
X133517520Y-123116018D01*
X133649999Y-123129066D01*
X134300001Y-123129066D01*
X134432480Y-123116018D01*
X134559868Y-123077375D01*
X134677269Y-123014623D01*
X134780172Y-122930172D01*
X134864623Y-122827269D01*
X134927375Y-122709868D01*
X134945953Y-122648624D01*
X134945571Y-122700000D01*
X134955263Y-122798409D01*
X134983968Y-122893037D01*
X135030583Y-122980246D01*
X135093315Y-123056685D01*
X135169754Y-123119417D01*
X135256963Y-123166032D01*
X135351591Y-123194737D01*
X135450000Y-123204429D01*
X135651500Y-123202000D01*
X135777000Y-123076500D01*
X135777000Y-122248000D01*
X136273000Y-122248000D01*
X136273000Y-123076500D01*
X136398500Y-123202000D01*
X136600000Y-123204429D01*
X136698409Y-123194737D01*
X136793037Y-123166032D01*
X136880246Y-123119417D01*
X136956685Y-123056685D01*
X137019417Y-122980246D01*
X137066032Y-122893037D01*
X137094737Y-122798409D01*
X137104429Y-122700000D01*
X137102000Y-122373500D01*
X136976500Y-122248000D01*
X136273000Y-122248000D01*
X135777000Y-122248000D01*
X135757000Y-122248000D01*
X135757000Y-121752000D01*
X135777000Y-121752000D01*
X135777000Y-120923500D01*
X136273000Y-120923500D01*
X136273000Y-121752000D01*
X136976500Y-121752000D01*
X137102000Y-121626500D01*
X137104429Y-121300000D01*
X137094737Y-121201591D01*
X137066032Y-121106963D01*
X137019417Y-121019754D01*
X136956685Y-120943315D01*
X136880246Y-120880583D01*
X136793037Y-120833968D01*
X136698409Y-120805263D01*
X136600000Y-120795571D01*
X136398500Y-120798000D01*
X136273000Y-120923500D01*
X135777000Y-120923500D01*
X135651500Y-120798000D01*
X135477466Y-120795902D01*
X135517505Y-120774501D01*
X135623287Y-120687688D01*
X136648292Y-119662684D01*
X136683659Y-119633659D01*
X136712684Y-119598292D01*
X136712688Y-119598288D01*
X136765660Y-119533742D01*
X137573001Y-120341084D01*
X137573000Y-128158917D01*
X132058918Y-133673000D01*
X129829902Y-133673000D01*
X129620259Y-133693648D01*
X129351269Y-133775245D01*
X129103366Y-133907752D01*
X128886077Y-134086077D01*
X128707752Y-134303366D01*
X128575245Y-134551269D01*
X128493648Y-134820259D01*
X128466096Y-135100000D01*
X75452000Y-135100000D01*
X75452000Y-125600000D01*
X106145571Y-125600000D01*
X106155263Y-125698409D01*
X106183968Y-125793037D01*
X106230583Y-125880246D01*
X106293315Y-125956685D01*
X106369754Y-126019417D01*
X106456963Y-126066032D01*
X106551591Y-126094737D01*
X106650000Y-126104429D01*
X107126500Y-126102000D01*
X107252000Y-125976500D01*
X107252000Y-124998000D01*
X106273500Y-124998000D01*
X106148000Y-125123500D01*
X106145571Y-125600000D01*
X75452000Y-125600000D01*
X75452000Y-124613623D01*
X79123000Y-124613623D01*
X79123000Y-124786377D01*
X79156703Y-124955811D01*
X79222813Y-125115415D01*
X79318790Y-125259055D01*
X79440945Y-125381210D01*
X79584585Y-125477187D01*
X79744189Y-125543297D01*
X79913623Y-125577000D01*
X80086377Y-125577000D01*
X80255811Y-125543297D01*
X80415415Y-125477187D01*
X80559055Y-125381210D01*
X80681210Y-125259055D01*
X80777187Y-125115415D01*
X80843297Y-124955811D01*
X80877000Y-124786377D01*
X80877000Y-124613623D01*
X80843297Y-124444189D01*
X80777187Y-124284585D01*
X80681210Y-124140945D01*
X80559055Y-124018790D01*
X80415415Y-123922813D01*
X80360340Y-123900000D01*
X106145571Y-123900000D01*
X106148000Y-124376500D01*
X106273500Y-124502000D01*
X107252000Y-124502000D01*
X107252000Y-123523500D01*
X107748000Y-123523500D01*
X107748000Y-124502000D01*
X107768000Y-124502000D01*
X107768000Y-124998000D01*
X107748000Y-124998000D01*
X107748000Y-125976500D01*
X107873500Y-126102000D01*
X108350000Y-126104429D01*
X108448409Y-126094737D01*
X108543037Y-126066032D01*
X108630246Y-126019417D01*
X108706685Y-125956685D01*
X108769417Y-125880246D01*
X108816032Y-125793037D01*
X108844737Y-125698409D01*
X108854429Y-125600000D01*
X108852492Y-125220065D01*
X108908337Y-125354886D01*
X109048089Y-125564040D01*
X109225960Y-125741911D01*
X109435114Y-125881663D01*
X109667513Y-125977926D01*
X109914226Y-126027000D01*
X110165774Y-126027000D01*
X110412487Y-125977926D01*
X110644886Y-125881663D01*
X110854040Y-125741911D01*
X111031911Y-125564040D01*
X111171663Y-125354886D01*
X111267926Y-125122487D01*
X111317000Y-124875774D01*
X111317000Y-124624226D01*
X113683000Y-124624226D01*
X113683000Y-124875774D01*
X113732074Y-125122487D01*
X113828337Y-125354886D01*
X113968089Y-125564040D01*
X114145960Y-125741911D01*
X114355114Y-125881663D01*
X114587513Y-125977926D01*
X114834226Y-126027000D01*
X115085774Y-126027000D01*
X115332487Y-125977926D01*
X115564886Y-125881663D01*
X115774040Y-125741911D01*
X115951911Y-125564040D01*
X116091663Y-125354886D01*
X116187926Y-125122487D01*
X116220934Y-124956544D01*
X116220934Y-125600000D01*
X116229178Y-125683707D01*
X116253595Y-125764196D01*
X116293245Y-125838376D01*
X116346605Y-125903395D01*
X116411624Y-125956755D01*
X116485804Y-125996405D01*
X116566293Y-126020822D01*
X116650000Y-126029066D01*
X118350000Y-126029066D01*
X118433707Y-126020822D01*
X118514196Y-125996405D01*
X118588376Y-125956755D01*
X118653395Y-125903395D01*
X118706755Y-125838376D01*
X118746405Y-125764196D01*
X118770822Y-125683707D01*
X118779066Y-125600000D01*
X118779066Y-123900000D01*
X118770822Y-123816293D01*
X118746405Y-123735804D01*
X118706755Y-123661624D01*
X118653395Y-123596605D01*
X118588376Y-123543245D01*
X118514196Y-123503595D01*
X118433707Y-123479178D01*
X118350000Y-123470934D01*
X116650000Y-123470934D01*
X116566293Y-123479178D01*
X116485804Y-123503595D01*
X116411624Y-123543245D01*
X116346605Y-123596605D01*
X116293245Y-123661624D01*
X116253595Y-123735804D01*
X116229178Y-123816293D01*
X116220934Y-123900000D01*
X116220934Y-124543456D01*
X116187926Y-124377513D01*
X116091663Y-124145114D01*
X115951911Y-123935960D01*
X115774040Y-123758089D01*
X115564886Y-123618337D01*
X115332487Y-123522074D01*
X115085774Y-123473000D01*
X114834226Y-123473000D01*
X114587513Y-123522074D01*
X114355114Y-123618337D01*
X114145960Y-123758089D01*
X113968089Y-123935960D01*
X113828337Y-124145114D01*
X113732074Y-124377513D01*
X113683000Y-124624226D01*
X111317000Y-124624226D01*
X111267926Y-124377513D01*
X111171663Y-124145114D01*
X111031911Y-123935960D01*
X110854040Y-123758089D01*
X110644886Y-123618337D01*
X110412487Y-123522074D01*
X110165774Y-123473000D01*
X109914226Y-123473000D01*
X109667513Y-123522074D01*
X109435114Y-123618337D01*
X109225960Y-123758089D01*
X109048089Y-123935960D01*
X108908337Y-124145114D01*
X108852492Y-124279935D01*
X108854429Y-123900000D01*
X108844737Y-123801591D01*
X108816032Y-123706963D01*
X108769417Y-123619754D01*
X108706685Y-123543315D01*
X108630246Y-123480583D01*
X108543037Y-123433968D01*
X108448409Y-123405263D01*
X108350000Y-123395571D01*
X107873500Y-123398000D01*
X107748000Y-123523500D01*
X107252000Y-123523500D01*
X107126500Y-123398000D01*
X106650000Y-123395571D01*
X106551591Y-123405263D01*
X106456963Y-123433968D01*
X106369754Y-123480583D01*
X106293315Y-123543315D01*
X106230583Y-123619754D01*
X106183968Y-123706963D01*
X106155263Y-123801591D01*
X106145571Y-123900000D01*
X80360340Y-123900000D01*
X80255811Y-123856703D01*
X80086377Y-123823000D01*
X79913623Y-123823000D01*
X79744189Y-123856703D01*
X79584585Y-123922813D01*
X79440945Y-124018790D01*
X79318790Y-124140945D01*
X79222813Y-124284585D01*
X79156703Y-124444189D01*
X79123000Y-124613623D01*
X75452000Y-124613623D01*
X75452000Y-120213623D01*
X79123000Y-120213623D01*
X79123000Y-120386377D01*
X79156703Y-120555811D01*
X79222813Y-120715415D01*
X79318790Y-120859055D01*
X79440945Y-120981210D01*
X79584585Y-121077187D01*
X79744189Y-121143297D01*
X79913623Y-121177000D01*
X80086377Y-121177000D01*
X80255811Y-121143297D01*
X80415415Y-121077187D01*
X80559055Y-120981210D01*
X80681210Y-120859055D01*
X80777187Y-120715415D01*
X80843297Y-120555811D01*
X80877000Y-120386377D01*
X80877000Y-120213623D01*
X80843297Y-120044189D01*
X80777187Y-119884585D01*
X80681210Y-119740945D01*
X80559055Y-119618790D01*
X80415415Y-119522813D01*
X80255811Y-119456703D01*
X80086377Y-119423000D01*
X79913623Y-119423000D01*
X79744189Y-119456703D01*
X79584585Y-119522813D01*
X79440945Y-119618790D01*
X79318790Y-119740945D01*
X79222813Y-119884585D01*
X79156703Y-120044189D01*
X79123000Y-120213623D01*
X75452000Y-120213623D01*
X75452000Y-113750000D01*
X126369967Y-113750000D01*
X126373000Y-113780794D01*
X126373001Y-124969196D01*
X126369967Y-125000000D01*
X126382073Y-125122912D01*
X126395728Y-125167925D01*
X126417926Y-125241103D01*
X126476148Y-125350028D01*
X126554500Y-125445501D01*
X126578422Y-125465133D01*
X127284866Y-126171578D01*
X127304499Y-126195501D01*
X127399972Y-126273853D01*
X127508897Y-126332075D01*
X127627087Y-126367927D01*
X127749999Y-126380033D01*
X127780793Y-126377000D01*
X128707447Y-126377000D01*
X128722819Y-126392372D01*
X128858269Y-126482877D01*
X129008773Y-126545218D01*
X129168548Y-126577000D01*
X129331452Y-126577000D01*
X129491227Y-126545218D01*
X129641731Y-126482877D01*
X129777181Y-126392372D01*
X129892372Y-126277181D01*
X129982877Y-126141731D01*
X130045218Y-125991227D01*
X130077000Y-125831452D01*
X130077000Y-125668548D01*
X130045218Y-125508773D01*
X129982877Y-125358269D01*
X129892372Y-125222819D01*
X129777181Y-125107628D01*
X129641731Y-125017123D01*
X129491227Y-124954782D01*
X129331452Y-124923000D01*
X129168548Y-124923000D01*
X129008773Y-124954782D01*
X128858269Y-125017123D01*
X128722819Y-125107628D01*
X128707447Y-125123000D01*
X128009712Y-125123000D01*
X127627000Y-124740289D01*
X127627000Y-118700000D01*
X132895571Y-118700000D01*
X132905263Y-118798409D01*
X132933968Y-118893037D01*
X132980583Y-118980246D01*
X133043315Y-119056685D01*
X133119754Y-119119417D01*
X133206963Y-119166032D01*
X133301591Y-119194737D01*
X133400000Y-119204429D01*
X133601500Y-119202000D01*
X133727000Y-119076500D01*
X133727000Y-118248000D01*
X133023500Y-118248000D01*
X132898000Y-118373500D01*
X132895571Y-118700000D01*
X127627000Y-118700000D01*
X127627000Y-117300000D01*
X132895571Y-117300000D01*
X132898000Y-117626500D01*
X133023500Y-117752000D01*
X133727000Y-117752000D01*
X133727000Y-116923500D01*
X133601500Y-116798000D01*
X133400000Y-116795571D01*
X133301591Y-116805263D01*
X133206963Y-116833968D01*
X133119754Y-116880583D01*
X133043315Y-116943315D01*
X132980583Y-117019754D01*
X132933968Y-117106963D01*
X132905263Y-117201591D01*
X132895571Y-117300000D01*
X127627000Y-117300000D01*
X127627000Y-114009711D01*
X130009712Y-111627000D01*
X145490289Y-111627000D01*
X145673000Y-111809711D01*
X145673000Y-111831452D01*
X145704782Y-111991227D01*
X145767123Y-112141731D01*
X145857628Y-112277181D01*
X145972819Y-112392372D01*
X146108269Y-112482877D01*
X146258773Y-112545218D01*
X146418548Y-112577000D01*
X146581452Y-112577000D01*
X146741227Y-112545218D01*
X146891731Y-112482877D01*
X147027181Y-112392372D01*
X147142372Y-112277181D01*
X147232877Y-112141731D01*
X147295218Y-111991227D01*
X147327000Y-111831452D01*
X147327000Y-111668548D01*
X147295218Y-111508773D01*
X147232877Y-111358269D01*
X147142372Y-111222819D01*
X147027181Y-111107628D01*
X146891731Y-111017123D01*
X146741227Y-110954782D01*
X146581452Y-110923000D01*
X146559711Y-110923000D01*
X146215138Y-110578427D01*
X146195501Y-110554499D01*
X146100028Y-110476147D01*
X145991103Y-110417925D01*
X145872913Y-110382073D01*
X145780794Y-110373000D01*
X145750000Y-110369967D01*
X145719206Y-110373000D01*
X129780791Y-110373000D01*
X129749999Y-110369967D01*
X129719207Y-110373000D01*
X129719206Y-110373000D01*
X129627087Y-110382073D01*
X129508897Y-110417925D01*
X129399972Y-110476147D01*
X129304499Y-110554499D01*
X129284866Y-110578422D01*
X126578427Y-113284862D01*
X126554499Y-113304499D01*
X126476147Y-113399973D01*
X126417925Y-113508898D01*
X126404092Y-113554500D01*
X126382073Y-113627088D01*
X126369967Y-113750000D01*
X75452000Y-113750000D01*
X75452000Y-112418548D01*
X121423000Y-112418548D01*
X121423000Y-112581452D01*
X121454782Y-112741227D01*
X121517123Y-112891731D01*
X121607628Y-113027181D01*
X121722819Y-113142372D01*
X121858269Y-113232877D01*
X122008773Y-113295218D01*
X122168548Y-113327000D01*
X122331452Y-113327000D01*
X122491227Y-113295218D01*
X122641731Y-113232877D01*
X122725357Y-113177000D01*
X125524643Y-113177000D01*
X125608269Y-113232877D01*
X125758773Y-113295218D01*
X125918548Y-113327000D01*
X126081452Y-113327000D01*
X126241227Y-113295218D01*
X126391731Y-113232877D01*
X126527181Y-113142372D01*
X126642372Y-113027181D01*
X126732877Y-112891731D01*
X126795218Y-112741227D01*
X126827000Y-112581452D01*
X126827000Y-112418548D01*
X126795218Y-112258773D01*
X126732877Y-112108269D01*
X126642372Y-111972819D01*
X126527181Y-111857628D01*
X126391731Y-111767123D01*
X126241227Y-111704782D01*
X126081452Y-111673000D01*
X125918548Y-111673000D01*
X125758773Y-111704782D01*
X125608269Y-111767123D01*
X125524643Y-111823000D01*
X122725357Y-111823000D01*
X122641731Y-111767123D01*
X122491227Y-111704782D01*
X122331452Y-111673000D01*
X122168548Y-111673000D01*
X122008773Y-111704782D01*
X121858269Y-111767123D01*
X121722819Y-111857628D01*
X121607628Y-111972819D01*
X121517123Y-112108269D01*
X121454782Y-112258773D01*
X121423000Y-112418548D01*
X75452000Y-112418548D01*
X75452000Y-109150000D01*
X88720934Y-109150000D01*
X88720934Y-110850000D01*
X88729178Y-110933707D01*
X88753595Y-111014196D01*
X88793245Y-111088376D01*
X88846605Y-111153395D01*
X88911624Y-111206755D01*
X88985804Y-111246405D01*
X89066293Y-111270822D01*
X89150000Y-111279066D01*
X90850000Y-111279066D01*
X90933707Y-111270822D01*
X91014196Y-111246405D01*
X91088376Y-111206755D01*
X91153395Y-111153395D01*
X91206755Y-111088376D01*
X91246405Y-111014196D01*
X91270822Y-110933707D01*
X91279066Y-110850000D01*
X91279066Y-109150000D01*
X91270822Y-109066293D01*
X91246405Y-108985804D01*
X91206755Y-108911624D01*
X91153395Y-108846605D01*
X91088376Y-108793245D01*
X91014196Y-108753595D01*
X90933707Y-108729178D01*
X90850000Y-108720934D01*
X90484169Y-108720934D01*
X90580572Y-108681011D01*
X90807624Y-108544286D01*
X91003639Y-108365892D01*
X91161085Y-108152685D01*
X91273911Y-107912859D01*
X91203570Y-107708000D01*
X90248000Y-107708000D01*
X90248000Y-107728000D01*
X89752000Y-107728000D01*
X89752000Y-107708000D01*
X88796430Y-107708000D01*
X88726089Y-107912859D01*
X88838915Y-108152685D01*
X88996361Y-108365892D01*
X89192376Y-108544286D01*
X89419428Y-108681011D01*
X89515831Y-108720934D01*
X89150000Y-108720934D01*
X89066293Y-108729178D01*
X88985804Y-108753595D01*
X88911624Y-108793245D01*
X88846605Y-108846605D01*
X88793245Y-108911624D01*
X88753595Y-108985804D01*
X88729178Y-109066293D01*
X88720934Y-109150000D01*
X75452000Y-109150000D01*
X75452000Y-107007141D01*
X88726089Y-107007141D01*
X88796430Y-107212000D01*
X89752000Y-107212000D01*
X89752000Y-106258835D01*
X90248000Y-106258835D01*
X90248000Y-107212000D01*
X91203570Y-107212000D01*
X91273911Y-107007141D01*
X91161085Y-106767315D01*
X91003639Y-106554108D01*
X90807624Y-106375714D01*
X90580572Y-106238989D01*
X90452857Y-106186099D01*
X90248000Y-106258835D01*
X89752000Y-106258835D01*
X89547143Y-106186099D01*
X89419428Y-106238989D01*
X89192376Y-106375714D01*
X88996361Y-106554108D01*
X88838915Y-106767315D01*
X88726089Y-107007141D01*
X75452000Y-107007141D01*
X75452000Y-99025000D01*
X76280971Y-99025000D01*
X76290663Y-99123409D01*
X76319368Y-99218037D01*
X76365983Y-99305246D01*
X76428715Y-99381685D01*
X76505154Y-99444417D01*
X76592363Y-99491032D01*
X76686991Y-99519737D01*
X76785400Y-99529429D01*
X78316900Y-99527000D01*
X78442400Y-99401500D01*
X78442400Y-98257000D01*
X78938400Y-98257000D01*
X78938400Y-99401500D01*
X79063900Y-99527000D01*
X80595400Y-99529429D01*
X80693809Y-99519737D01*
X80788437Y-99491032D01*
X80875646Y-99444417D01*
X80952085Y-99381685D01*
X81014817Y-99305246D01*
X81061432Y-99218037D01*
X81090137Y-99123409D01*
X81099829Y-99025000D01*
X86491771Y-99025000D01*
X86501463Y-99123409D01*
X86530168Y-99218037D01*
X86576783Y-99305246D01*
X86639515Y-99381685D01*
X86715954Y-99444417D01*
X86803163Y-99491032D01*
X86897791Y-99519737D01*
X86996200Y-99529429D01*
X88527700Y-99527000D01*
X88653200Y-99401500D01*
X88653200Y-98257000D01*
X89149200Y-98257000D01*
X89149200Y-99401500D01*
X89274700Y-99527000D01*
X90806200Y-99529429D01*
X90904609Y-99519737D01*
X90999237Y-99491032D01*
X91086446Y-99444417D01*
X91162885Y-99381685D01*
X91225617Y-99305246D01*
X91272232Y-99218037D01*
X91300937Y-99123409D01*
X91310629Y-99025000D01*
X91308200Y-98382500D01*
X91182700Y-98257000D01*
X89149200Y-98257000D01*
X88653200Y-98257000D01*
X86619700Y-98257000D01*
X86494200Y-98382500D01*
X86491771Y-99025000D01*
X81099829Y-99025000D01*
X81097400Y-98382500D01*
X80971900Y-98257000D01*
X78938400Y-98257000D01*
X78442400Y-98257000D01*
X76408900Y-98257000D01*
X76283400Y-98382500D01*
X76280971Y-99025000D01*
X75452000Y-99025000D01*
X75452000Y-96993000D01*
X76280971Y-96993000D01*
X76283400Y-97635500D01*
X76408900Y-97761000D01*
X78442400Y-97761000D01*
X78442400Y-96616500D01*
X78938400Y-96616500D01*
X78938400Y-97761000D01*
X80971900Y-97761000D01*
X81097400Y-97635500D01*
X81099829Y-96993000D01*
X86491771Y-96993000D01*
X86494200Y-97635500D01*
X86619700Y-97761000D01*
X88653200Y-97761000D01*
X88653200Y-96616500D01*
X89149200Y-96616500D01*
X89149200Y-97761000D01*
X91182700Y-97761000D01*
X91308200Y-97635500D01*
X91310629Y-96993000D01*
X91300937Y-96894591D01*
X91272232Y-96799963D01*
X91225617Y-96712754D01*
X91162885Y-96636315D01*
X91086446Y-96573583D01*
X90999237Y-96526968D01*
X90904609Y-96498263D01*
X90806200Y-96488571D01*
X89274700Y-96491000D01*
X89149200Y-96616500D01*
X88653200Y-96616500D01*
X88527700Y-96491000D01*
X86996200Y-96488571D01*
X86897791Y-96498263D01*
X86803163Y-96526968D01*
X86715954Y-96573583D01*
X86639515Y-96636315D01*
X86576783Y-96712754D01*
X86530168Y-96799963D01*
X86501463Y-96894591D01*
X86491771Y-96993000D01*
X81099829Y-96993000D01*
X81090137Y-96894591D01*
X81061432Y-96799963D01*
X81014817Y-96712754D01*
X80952085Y-96636315D01*
X80875646Y-96573583D01*
X80788437Y-96526968D01*
X80693809Y-96498263D01*
X80595400Y-96488571D01*
X79063900Y-96491000D01*
X78938400Y-96616500D01*
X78442400Y-96616500D01*
X78316900Y-96491000D01*
X76785400Y-96488571D01*
X76686991Y-96498263D01*
X76592363Y-96526968D01*
X76505154Y-96573583D01*
X76428715Y-96636315D01*
X76365983Y-96712754D01*
X76319368Y-96799963D01*
X76290663Y-96894591D01*
X76280971Y-96993000D01*
X75452000Y-96993000D01*
X75452000Y-89357877D01*
X90557000Y-89357877D01*
X90557000Y-89642123D01*
X90612454Y-89920908D01*
X90721230Y-90183517D01*
X90879149Y-90419859D01*
X91080141Y-90620851D01*
X91316483Y-90778770D01*
X91579092Y-90887546D01*
X91857877Y-90943000D01*
X92142123Y-90943000D01*
X92420908Y-90887546D01*
X92683517Y-90778770D01*
X92919859Y-90620851D01*
X93120851Y-90419859D01*
X93278770Y-90183517D01*
X93295400Y-90143369D01*
X93312030Y-90183517D01*
X93469949Y-90419859D01*
X93670941Y-90620851D01*
X93907283Y-90778770D01*
X94169892Y-90887546D01*
X94448677Y-90943000D01*
X94732923Y-90943000D01*
X95011708Y-90887546D01*
X95274317Y-90778770D01*
X95510659Y-90620851D01*
X95711651Y-90419859D01*
X95869570Y-90183517D01*
X95978346Y-89920908D01*
X96033800Y-89642123D01*
X96033800Y-89357877D01*
X95978346Y-89079092D01*
X95869570Y-88816483D01*
X95711651Y-88580141D01*
X95510659Y-88379149D01*
X95274317Y-88221230D01*
X95011708Y-88112454D01*
X94732923Y-88057000D01*
X94448677Y-88057000D01*
X94169892Y-88112454D01*
X93907283Y-88221230D01*
X93670941Y-88379149D01*
X93469949Y-88580141D01*
X93312030Y-88816483D01*
X93295400Y-88856631D01*
X93278770Y-88816483D01*
X93120851Y-88580141D01*
X92919859Y-88379149D01*
X92683517Y-88221230D01*
X92420908Y-88112454D01*
X92142123Y-88057000D01*
X91857877Y-88057000D01*
X91579092Y-88112454D01*
X91316483Y-88221230D01*
X91080141Y-88379149D01*
X90879149Y-88580141D01*
X90721230Y-88816483D01*
X90612454Y-89079092D01*
X90557000Y-89357877D01*
X75452000Y-89357877D01*
X75452000Y-84500000D01*
X123069726Y-84500000D01*
X123073001Y-84533255D01*
X123073000Y-105216755D01*
X123069726Y-105250000D01*
X123073000Y-105283245D01*
X123073000Y-105283251D01*
X123082796Y-105382714D01*
X123121508Y-105510329D01*
X123184372Y-105627940D01*
X123268973Y-105731026D01*
X123294800Y-105752222D01*
X123997774Y-106455196D01*
X124018973Y-106481027D01*
X124122059Y-106565628D01*
X124239670Y-106628492D01*
X124367285Y-106667204D01*
X124466748Y-106677000D01*
X124466757Y-106677000D01*
X124499999Y-106680274D01*
X124533241Y-106677000D01*
X130774643Y-106677000D01*
X130858269Y-106732877D01*
X131008773Y-106795218D01*
X131168548Y-106827000D01*
X131331452Y-106827000D01*
X131491227Y-106795218D01*
X131641731Y-106732877D01*
X131777181Y-106642372D01*
X131892372Y-106527181D01*
X131982877Y-106391731D01*
X132045218Y-106241227D01*
X132077000Y-106081452D01*
X132077000Y-105918548D01*
X132045218Y-105758773D01*
X131982877Y-105608269D01*
X131892372Y-105472819D01*
X131777181Y-105357628D01*
X131641731Y-105267123D01*
X131491227Y-105204782D01*
X131331452Y-105173000D01*
X131168548Y-105173000D01*
X131008773Y-105204782D01*
X130858269Y-105267123D01*
X130774643Y-105323000D01*
X124780422Y-105323000D01*
X124427000Y-104969578D01*
X124427000Y-88742894D01*
X153611000Y-88742894D01*
X153611000Y-88977106D01*
X153656693Y-89206818D01*
X153746322Y-89423203D01*
X153876443Y-89617943D01*
X154042057Y-89783557D01*
X154236797Y-89913678D01*
X154453182Y-90003307D01*
X154682894Y-90049000D01*
X154917106Y-90049000D01*
X155146818Y-90003307D01*
X155363203Y-89913678D01*
X155557943Y-89783557D01*
X155723557Y-89617943D01*
X155853678Y-89423203D01*
X155943307Y-89206818D01*
X155989000Y-88977106D01*
X155989000Y-88742894D01*
X179011000Y-88742894D01*
X179011000Y-88977106D01*
X179056693Y-89206818D01*
X179146322Y-89423203D01*
X179276443Y-89617943D01*
X179442057Y-89783557D01*
X179636797Y-89913678D01*
X179853182Y-90003307D01*
X180082894Y-90049000D01*
X180317106Y-90049000D01*
X180546818Y-90003307D01*
X180763203Y-89913678D01*
X180957943Y-89783557D01*
X181123557Y-89617943D01*
X181253678Y-89423203D01*
X181343307Y-89206818D01*
X181389000Y-88977106D01*
X181389000Y-88742894D01*
X181343307Y-88513182D01*
X181253678Y-88296797D01*
X181123557Y-88102057D01*
X180957943Y-87936443D01*
X180763203Y-87806322D01*
X180546818Y-87716693D01*
X180317106Y-87671000D01*
X180082894Y-87671000D01*
X179853182Y-87716693D01*
X179636797Y-87806322D01*
X179442057Y-87936443D01*
X179276443Y-88102057D01*
X179146322Y-88296797D01*
X179056693Y-88513182D01*
X179011000Y-88742894D01*
X155989000Y-88742894D01*
X155943307Y-88513182D01*
X155853678Y-88296797D01*
X155723557Y-88102057D01*
X155557943Y-87936443D01*
X155363203Y-87806322D01*
X155146818Y-87716693D01*
X154917106Y-87671000D01*
X154682894Y-87671000D01*
X154453182Y-87716693D01*
X154236797Y-87806322D01*
X154042057Y-87936443D01*
X153876443Y-88102057D01*
X153746322Y-88296797D01*
X153656693Y-88513182D01*
X153611000Y-88742894D01*
X124427000Y-88742894D01*
X124427000Y-84780422D01*
X124780422Y-84427000D01*
X163719578Y-84427000D01*
X166247774Y-86955196D01*
X166268973Y-86981027D01*
X166372059Y-87065628D01*
X166489670Y-87128492D01*
X166617285Y-87167204D01*
X166716748Y-87177000D01*
X166716757Y-87177000D01*
X166749999Y-87180274D01*
X166783241Y-87177000D01*
X176216755Y-87177000D01*
X176250000Y-87180274D01*
X176283245Y-87177000D01*
X176283252Y-87177000D01*
X176382715Y-87167204D01*
X176510330Y-87128492D01*
X176627941Y-87065628D01*
X176731027Y-86981027D01*
X176752226Y-86955196D01*
X178392582Y-85314840D01*
X178491227Y-85295218D01*
X178641731Y-85232877D01*
X178777181Y-85142372D01*
X178892372Y-85027181D01*
X178982877Y-84891731D01*
X179045218Y-84741227D01*
X179077000Y-84581452D01*
X179077000Y-84418548D01*
X179045218Y-84258773D01*
X178982877Y-84108269D01*
X178892372Y-83972819D01*
X178777181Y-83857628D01*
X178641731Y-83767123D01*
X178491227Y-83704782D01*
X178331452Y-83673000D01*
X178168548Y-83673000D01*
X178008773Y-83704782D01*
X177858269Y-83767123D01*
X177722819Y-83857628D01*
X177607628Y-83972819D01*
X177517123Y-84108269D01*
X177454782Y-84258773D01*
X177435160Y-84357418D01*
X175969578Y-85823000D01*
X167030422Y-85823000D01*
X164502226Y-83294804D01*
X164481027Y-83268973D01*
X164377941Y-83184372D01*
X164260330Y-83121508D01*
X164132715Y-83082796D01*
X164033252Y-83073000D01*
X164033245Y-83073000D01*
X164000000Y-83069726D01*
X163966755Y-83073000D01*
X124533241Y-83073000D01*
X124499999Y-83069726D01*
X124466757Y-83073000D01*
X124466748Y-83073000D01*
X124367285Y-83082796D01*
X124239670Y-83121508D01*
X124122059Y-83184372D01*
X124018973Y-83268973D01*
X123997774Y-83294804D01*
X123294801Y-83997777D01*
X123268974Y-84018973D01*
X123247779Y-84044799D01*
X123247776Y-84044802D01*
X123184372Y-84122060D01*
X123121508Y-84239671D01*
X123082796Y-84367286D01*
X123069726Y-84500000D01*
X75452000Y-84500000D01*
X75452000Y-82007000D01*
X76280971Y-82007000D01*
X76290663Y-82105409D01*
X76319368Y-82200037D01*
X76365983Y-82287246D01*
X76428715Y-82363685D01*
X76505154Y-82426417D01*
X76592363Y-82473032D01*
X76686991Y-82501737D01*
X76785400Y-82511429D01*
X78316900Y-82509000D01*
X78442400Y-82383500D01*
X78442400Y-81239000D01*
X78938400Y-81239000D01*
X78938400Y-82383500D01*
X79063900Y-82509000D01*
X80595400Y-82511429D01*
X80693809Y-82501737D01*
X80788437Y-82473032D01*
X80875646Y-82426417D01*
X80952085Y-82363685D01*
X81014817Y-82287246D01*
X81061432Y-82200037D01*
X81090137Y-82105409D01*
X81099829Y-82007000D01*
X86491771Y-82007000D01*
X86501463Y-82105409D01*
X86530168Y-82200037D01*
X86576783Y-82287246D01*
X86639515Y-82363685D01*
X86715954Y-82426417D01*
X86803163Y-82473032D01*
X86897791Y-82501737D01*
X86996200Y-82511429D01*
X88527700Y-82509000D01*
X88653200Y-82383500D01*
X88653200Y-81239000D01*
X89149200Y-81239000D01*
X89149200Y-82383500D01*
X89274700Y-82509000D01*
X90806200Y-82511429D01*
X90904609Y-82501737D01*
X90999237Y-82473032D01*
X91086446Y-82426417D01*
X91162885Y-82363685D01*
X91225617Y-82287246D01*
X91272232Y-82200037D01*
X91300937Y-82105409D01*
X91310629Y-82007000D01*
X91308200Y-81364500D01*
X91182700Y-81239000D01*
X89149200Y-81239000D01*
X88653200Y-81239000D01*
X86619700Y-81239000D01*
X86494200Y-81364500D01*
X86491771Y-82007000D01*
X81099829Y-82007000D01*
X81097400Y-81364500D01*
X80971900Y-81239000D01*
X78938400Y-81239000D01*
X78442400Y-81239000D01*
X76408900Y-81239000D01*
X76283400Y-81364500D01*
X76280971Y-82007000D01*
X75452000Y-82007000D01*
X75452000Y-79975000D01*
X76280971Y-79975000D01*
X76283400Y-80617500D01*
X76408900Y-80743000D01*
X78442400Y-80743000D01*
X78442400Y-79598500D01*
X78938400Y-79598500D01*
X78938400Y-80743000D01*
X80971900Y-80743000D01*
X81097400Y-80617500D01*
X81099829Y-79975000D01*
X86491771Y-79975000D01*
X86494200Y-80617500D01*
X86619700Y-80743000D01*
X88653200Y-80743000D01*
X88653200Y-79598500D01*
X89149200Y-79598500D01*
X89149200Y-80743000D01*
X91182700Y-80743000D01*
X91308200Y-80617500D01*
X91310629Y-79975000D01*
X91300937Y-79876591D01*
X91272232Y-79781963D01*
X91225617Y-79694754D01*
X91162885Y-79618315D01*
X91086446Y-79555583D01*
X90999237Y-79508968D01*
X90904609Y-79480263D01*
X90806200Y-79470571D01*
X89274700Y-79473000D01*
X89149200Y-79598500D01*
X88653200Y-79598500D01*
X88527700Y-79473000D01*
X86996200Y-79470571D01*
X86897791Y-79480263D01*
X86803163Y-79508968D01*
X86715954Y-79555583D01*
X86639515Y-79618315D01*
X86576783Y-79694754D01*
X86530168Y-79781963D01*
X86501463Y-79876591D01*
X86491771Y-79975000D01*
X81099829Y-79975000D01*
X81090137Y-79876591D01*
X81061432Y-79781963D01*
X81014817Y-79694754D01*
X80952085Y-79618315D01*
X80875646Y-79555583D01*
X80788437Y-79508968D01*
X80693809Y-79480263D01*
X80595400Y-79470571D01*
X79063900Y-79473000D01*
X78938400Y-79598500D01*
X78442400Y-79598500D01*
X78316900Y-79473000D01*
X76785400Y-79470571D01*
X76686991Y-79480263D01*
X76592363Y-79508968D01*
X76505154Y-79555583D01*
X76428715Y-79618315D01*
X76365983Y-79694754D01*
X76319368Y-79781963D01*
X76290663Y-79876591D01*
X76280971Y-79975000D01*
X75452000Y-79975000D01*
X75452000Y-75452000D01*
X194048000Y-75452000D01*
X194048001Y-149048000D01*
G37*
%TD.AperFunction*%
%TD*%
M02*
