M48
; DRILL file {KiCad (5.1.9)-1} date 11/11/21 08:41:08
; FORMAT={-:-/ absolute / inch / decimal}
; #@! TF.CreationDate,2021-11-11T08:41:08-06:00
; #@! TF.GenerationSoftware,Kicad,Pcbnew,(5.1.9)-1
; #@! TF.FileFunction,Plated,1,2,PTH
FMAT,2
INCH
T1C0.0157
T2C0.0295
T3C0.0350
T4C0.0354
T5C0.0394
T6C0.0450
T7C0.0500
T8C0.0630
%
G90
G05
T1
X3.002Y-5.8366
X3.0118Y-3.002
X3.061Y-5.8366
X3.0709Y-3.002
X3.1201Y-5.8366
X3.1299Y-3.002
X3.1791Y-5.8366
X3.189Y-3.002
X3.2382Y-5.8366
X3.248Y-3.002
X3.2972Y-5.8366
X3.3071Y-3.002
X3.3563Y-5.8366
X3.3661Y-3.002
X3.4154Y-5.8366
X3.4252Y-3.002
X3.4547Y-5.6791
X3.4744Y-5.8366
X3.4843Y-3.002
X3.5039Y-3.622
X3.5039Y-5.6791
X3.5138Y-3.6713
X3.5236Y-3.5236
X3.5236Y-3.5728
X3.5335Y-3.4744
X3.5335Y-5.8366
X3.5433Y-3.002
X3.5531Y-5.6791
X3.563Y-3.6909
X3.5728Y-3.435
X3.5925Y-5.8366
X3.6024Y-3.002
X3.6024Y-5.6791
X3.6122Y-3.3957
X3.6122Y-3.6909
X3.6319Y-3.5531
X3.6516Y-3.5039
X3.6516Y-5.6791
X3.6516Y-5.8366
X3.6614Y-3.002
X3.6614Y-3.3858
X3.6614Y-3.6909
X3.7106Y-3.3858
X3.7106Y-3.6909
X3.7106Y-5.8366
X3.7205Y-3.002
X3.75Y-3.5728
X3.7598Y-3.3661
X3.7598Y-3.6713
X3.7697Y-3.622
X3.7697Y-5.8366
X3.7795Y-3.002
X3.7894Y-3.3268
X3.8091Y-3.5925
X3.8287Y-5.8366
X3.8386Y-3.002
X3.8386Y-3.3268
X3.8386Y-3.4744
X3.8583Y-3.622
X3.878Y-3.6713
X3.878Y-5.3937
X3.8878Y-3.3268
X3.8878Y-3.4646
X3.8878Y-5.8366
X3.8976Y-3.002
X3.9272Y-5.3937
X3.937Y-3.4646
X3.9469Y-5.8366
X3.9567Y-3.002
X4.0059Y-5.8366
X4.0157Y-3.002
X4.0551Y-3.3268
X4.065Y-5.8366
X4.0748Y-3.002
X4.1043Y-3.3268
X4.1043Y-3.4646
X4.1043Y-3.6122
X4.1043Y-3.6713
X4.124Y-5.8366
X4.1339Y-3.002
X4.1535Y-3.3268
X4.1535Y-3.4646
X4.1535Y-3.6122
X4.1535Y-3.6713
X4.1831Y-5.8366
X4.1929Y-3.002
X4.2028Y-3.4646
X4.2028Y-3.6713
X4.2028Y-5.6693
X4.2421Y-5.8366
X4.252Y-3.002
X4.252Y-3.4646
X4.252Y-3.6713
X4.252Y-5.6693
X4.3012Y-3.2972
X4.3012Y-3.4646
X4.3012Y-3.6713
X4.3012Y-5.6693
X4.3012Y-5.8366
X4.311Y-3.002
X4.3504Y-3.2382
X4.3504Y-3.2972
X4.3504Y-3.4154
X4.3504Y-3.4646
X4.3504Y-3.5138
X4.3504Y-3.563
X4.3504Y-3.6122
X4.3504Y-3.6713
X4.3504Y-5.6693
X4.3602Y-5.8366
X4.3701Y-3.002
X4.3996Y-3.5138
X4.3996Y-3.563
X4.3996Y-3.6122
X4.3996Y-5.6201
X4.3996Y-5.6693
X4.4094Y-3.2382
X4.4193Y-5.8366
X4.4291Y-3.002
X4.4488Y-3.5138
X4.4488Y-5.6201
X4.4488Y-5.6693
X4.4685Y-3.2382
X4.4783Y-5.8366
X4.4882Y-3.002
X4.498Y-5.5709
X4.498Y-5.6201
X4.498Y-5.6693
X4.5079Y-3.2972
X4.5374Y-5.8366
X4.5472Y-3.002
X4.5472Y-3.3268
X4.5472Y-5.5709
X4.5472Y-5.6201
X4.5866Y-3.2382
X4.5965Y-5.8366
X4.6063Y-3.002
X4.6161Y-3.5039
X4.6358Y-3.5531
X4.6457Y-3.2382
X4.6555Y-5.8366
X4.6654Y-3.002
X4.6752Y-3.5039
X4.7047Y-3.2382
X4.7047Y-3.2972
X4.7047Y-3.4055
X4.7047Y-3.4547
X4.7146Y-5.8366
X4.7244Y-3.002
X4.7539Y-3.4252
X4.7638Y-3.2972
X4.7736Y-5.8366
X4.7835Y-3.002
X4.813Y-4.4291
X4.8228Y-3.3366
X4.8228Y-3.435
X4.8327Y-5.8366
X4.8425Y-3.002
X4.8917Y-5.8366
X4.9016Y-3.002
X4.9311Y-3.3366
X4.9311Y-3.435
X4.9409Y-3.6319
X4.9508Y-3.9469
X4.9508Y-5.8366
X4.9606Y-3.002
X4.9606Y-4.4291
X4.9803Y-3.3366
X4.9803Y-3.435
X5.0Y-3.6319
X5.0098Y-5.8366
X5.0197Y-3.002
X5.0295Y-3.3366
X5.0295Y-3.435
X5.0591Y-3.6319
X5.0689Y-5.8366
X5.0787Y-3.002
X5.0787Y-3.3366
X5.0787Y-3.435
X5.0787Y-5.0945
X5.0787Y-5.1378
X5.0886Y-4.9508
X5.0945Y-5.0551
X5.0945Y-5.4882
X5.0945Y-5.5669
X5.0945Y-5.6417
X5.0984Y-3.9469
X5.1181Y-5.5276
X5.1181Y-5.6063
X5.128Y-3.3366
X5.128Y-3.435
X5.128Y-5.8366
X5.1378Y-3.002
X5.1378Y-5.0551
X5.1417Y-5.4882
X5.1417Y-5.5669
X5.1417Y-5.6417
X5.1476Y-3.8484
X5.1476Y-3.8976
X5.1476Y-3.9469
X5.1575Y-4.6752
X5.1575Y-4.7736
X5.1575Y-4.8228
X5.1575Y-4.872
X5.1654Y-5.5276
X5.1654Y-5.6063
X5.1673Y-4.1732
X5.1772Y-3.3366
X5.1772Y-3.435
X5.187Y-5.8366
X5.189Y-5.4882
X5.189Y-5.5669
X5.189Y-5.6417
X5.1969Y-3.002
X5.1969Y-3.6752
X5.1969Y-4.7441
X5.2126Y-5.5276
X5.2126Y-5.6063
X5.2165Y-4.5669
X5.2264Y-3.3366
X5.2264Y-3.435
X5.2362Y-5.4882
X5.2362Y-5.5669
X5.2362Y-5.6417
X5.2461Y-5.8366
X5.2559Y-3.002
X5.2598Y-5.5276
X5.2598Y-5.6063
X5.2657Y-4.5669
X5.2657Y-4.8819
X5.2756Y-3.3366
X5.2756Y-3.435
X5.2835Y-5.4882
X5.2835Y-5.5669
X5.2835Y-5.6417
X5.3051Y-5.8366
X5.315Y-3.002
X5.315Y-4.5669
X5.315Y-4.7244
X5.315Y-4.8819
X5.3248Y-3.3366
X5.3248Y-3.435
X5.3346Y-3.8091
X5.3346Y-3.9469
X5.3543Y-3.8583
X5.3642Y-3.5138
X5.3642Y-3.563
X5.3642Y-3.6122
X5.3642Y-4.5669
X5.3642Y-4.8819
X5.3642Y-5.8366
X5.374Y-3.002
X5.374Y-3.3366
X5.374Y-3.435
X5.3937Y-3.8976
X5.4134Y-4.5669
X5.4232Y-3.3366
X5.4232Y-3.435
X5.4232Y-5.8366
X5.4331Y-3.002
X5.4724Y-3.3366
X5.4724Y-3.435
X5.4823Y-5.8366
X5.4921Y-3.002
X5.502Y-3.9665
X5.502Y-4.0157
X5.502Y-4.065
X5.502Y-4.1142
X5.502Y-4.1634
X5.502Y-4.2126
X5.502Y-4.2618
X5.502Y-4.311
X5.502Y-4.4094
X5.5217Y-3.3366
X5.5217Y-3.435
X5.5315Y-5.3346
X5.5413Y-5.8366
X5.5512Y-3.002
X5.563Y-5.1024
X5.563Y-5.1496
X5.563Y-5.1969
X5.5709Y-3.3366
X5.5709Y-3.435
X5.5709Y-5.3346
X5.5807Y-3.8681
X5.5807Y-3.9173
X5.5807Y-3.9665
X5.5807Y-4.0157
X5.5807Y-4.065
X5.5807Y-4.1142
X5.5807Y-4.1634
X5.5807Y-4.2126
X5.5807Y-4.2618
X5.5807Y-4.311
X5.5807Y-4.4094
X5.5807Y-4.4587
X5.5807Y-4.5079
X5.6004Y-5.8366
X5.6024Y-5.126
X5.6024Y-5.1732
X5.6102Y-3.002
X5.6102Y-5.3346
X5.6201Y-3.3366
X5.6201Y-3.435
X5.6201Y-4.8228
X5.6201Y-4.8819
X5.6201Y-4.9311
X5.6299Y-3.8681
X5.6378Y-5.1024
X5.6378Y-5.1496
X5.6378Y-5.1969
X5.6594Y-5.8366
X5.6693Y-3.002
X5.6693Y-3.3366
X5.6693Y-3.435
X5.6693Y-4.8819
X5.6693Y-4.9311
X5.689Y-3.6319
X5.7185Y-4.8819
X5.7185Y-4.9311
X5.7185Y-5.0551
X5.7185Y-5.8366
X5.7283Y-3.002
X5.7382Y-3.6319
X5.7677Y-4.3996
X5.7677Y-4.8819
X5.7776Y-5.8366
X5.7874Y-3.002
X5.7874Y-3.6319
X5.8366Y-3.3366
X5.8366Y-3.435
X5.8366Y-4.7244
X5.8366Y-5.8366
X5.8465Y-3.002
X5.876Y-3.7697
X5.8858Y-3.3366
X5.8858Y-3.435
X5.8957Y-5.8366
X5.9055Y-3.002
X5.935Y-3.3366
X5.935Y-3.435
X5.9547Y-5.8366
X5.9646Y-3.002
X5.9843Y-3.3366
X5.9843Y-3.4646
X6.0039Y-3.8976
X6.0138Y-3.5039
X6.0138Y-5.8366
X6.0236Y-3.002
X6.0335Y-3.3563
X6.0433Y-3.5531
X6.0728Y-3.3957
X6.0728Y-5.8366
X6.0827Y-3.002
X6.0925Y-3.5728
X6.1122Y-3.435
X6.1319Y-5.8366
X6.1417Y-3.002
X6.1417Y-3.563
X6.1614Y-3.4744
X6.1713Y-3.5236
X6.1909Y-5.8366
X6.2008Y-3.002
X6.25Y-5.8366
X6.2598Y-3.002
X6.2894Y-4.4882
X6.3091Y-5.8366
X6.3189Y-3.002
X6.3681Y-5.8366
X6.378Y-3.002
X6.4272Y-5.8366
X6.437Y-3.002
X6.4862Y-5.8366
X6.4961Y-3.002
X6.5453Y-5.8366
X6.5551Y-3.002
X6.6043Y-5.8366
X6.6142Y-3.002
X6.6634Y-5.8366
X6.6732Y-3.002
X6.7224Y-5.8366
X6.7323Y-3.002
X6.7815Y-5.8366
X6.7913Y-3.002
X6.8406Y-5.8366
X6.8504Y-3.002
X6.8996Y-5.8366
X6.9094Y-3.002
X6.9587Y-5.8366
X6.9685Y-3.002
X7.0177Y-3.3268
X7.0177Y-5.8366
X7.0276Y-3.002
X7.0768Y-5.8366
X7.0866Y-3.002
X7.1358Y-5.8366
X7.1457Y-3.002
X7.1949Y-5.8366
X7.2047Y-3.002
X7.2539Y-5.8366
X7.2638Y-3.002
X7.313Y-5.8366
X7.3228Y-3.002
X7.372Y-5.8366
X7.3819Y-3.002
X7.4311Y-5.8366
X7.4409Y-3.002
X7.4902Y-5.8366
X7.5Y-3.002
X7.5492Y-5.8366
X7.5591Y-3.002
X7.6083Y-5.8366
X7.6181Y-3.002
T2
X5.1142Y-5.3189
X5.8661Y-3.8878
X6.4567Y-3.622
T3
X6.0945Y-3.4984
X6.0945Y-4.1984
X7.0945Y-3.4984
X7.0945Y-3.8484
X7.0945Y-4.1984
T4
X7.4803Y-4.4307
X7.4803Y-4.5291
X7.4803Y-4.7244
X7.4803Y-4.8228
X7.4803Y-5.0197
X7.4803Y-5.1181
X7.4803Y-5.315
X7.4803Y-5.4134
X7.4803Y-5.6102
X7.4803Y-5.7087
T5
X3.5433Y-4.2307
X3.5433Y-4.3307
X4.2323Y-4.9114
X4.3323Y-4.9114
X4.526Y-4.9114
X4.626Y-4.9114
T7
X3.5827Y-3.6122
X3.6847Y-3.6122
T8
X3.0512Y-5.4134
X3.1693Y-5.5984
X3.2874Y-5.4134
T6
G00X3.0962Y-3.2772
M15
G01X3.0212Y-3.2772
M16
G05
G00X3.0962Y-3.9472
M15
G01X3.0212Y-3.9472
M16
G05
G00X3.4982Y-3.2772
M15
G01X3.4232Y-3.2772
M16
G05
G00X3.4982Y-3.9472
M15
G01X3.4232Y-3.9472
M16
G05
T0
M30
