%TF.GenerationSoftware,KiCad,Pcbnew,(5.1.6)-1*%
%TF.CreationDate,2020-10-16T13:50:53-05:00*%
%TF.ProjectId,simple-gpsdo,73696d70-6c65-42d6-9770-73646f2e6b69,C*%
%TF.SameCoordinates,Original*%
%TF.FileFunction,Soldermask,Bot*%
%TF.FilePolarity,Negative*%
%FSLAX46Y46*%
G04 Gerber Fmt 4.6, Leading zero omitted, Abs format (unit mm)*
G04 Created by KiCad (PCBNEW (5.1.6)-1) date 2020-10-16 13:50:53*
%MOMM*%
%LPD*%
G01*
G04 APERTURE LIST*
%ADD10C,1.624000*%
%ADD11R,2.700000X2.700000*%
%ADD12C,2.700000*%
%ADD13C,2.350000*%
%ADD14C,2.132000*%
%ADD15R,1.800000X1.800000*%
%ADD16O,1.800000X1.800000*%
%ADD17C,0.700000*%
G04 APERTURE END LIST*
D10*
%TO.C,Y2*%
X184700000Y-106890000D03*
X184700000Y-98000000D03*
X184700000Y-89110000D03*
X159300000Y-89110000D03*
X159300000Y-106890000D03*
%TD*%
%TO.C,C4*%
G36*
G01*
X118625000Y-119021738D02*
X118625000Y-119978262D01*
G75*
G02*
X118353262Y-120250000I-271738J0D01*
G01*
X117646738Y-120250000D01*
G75*
G02*
X117375000Y-119978262I0J271738D01*
G01*
X117375000Y-119021738D01*
G75*
G02*
X117646738Y-118750000I271738J0D01*
G01*
X118353262Y-118750000D01*
G75*
G02*
X118625000Y-119021738I0J-271738D01*
G01*
G37*
G36*
G01*
X116575000Y-119021738D02*
X116575000Y-119978262D01*
G75*
G02*
X116303262Y-120250000I-271738J0D01*
G01*
X115596738Y-120250000D01*
G75*
G02*
X115325000Y-119978262I0J271738D01*
G01*
X115325000Y-119021738D01*
G75*
G02*
X115596738Y-118750000I271738J0D01*
G01*
X116303262Y-118750000D01*
G75*
G02*
X116575000Y-119021738I0J-271738D01*
G01*
G37*
%TD*%
%TO.C,C6*%
G36*
G01*
X117375000Y-115478262D02*
X117375000Y-114521738D01*
G75*
G02*
X117646738Y-114250000I271738J0D01*
G01*
X118353262Y-114250000D01*
G75*
G02*
X118625000Y-114521738I0J-271738D01*
G01*
X118625000Y-115478262D01*
G75*
G02*
X118353262Y-115750000I-271738J0D01*
G01*
X117646738Y-115750000D01*
G75*
G02*
X117375000Y-115478262I0J271738D01*
G01*
G37*
G36*
G01*
X115325000Y-115478262D02*
X115325000Y-114521738D01*
G75*
G02*
X115596738Y-114250000I271738J0D01*
G01*
X116303262Y-114250000D01*
G75*
G02*
X116575000Y-114521738I0J-271738D01*
G01*
X116575000Y-115478262D01*
G75*
G02*
X116303262Y-115750000I-271738J0D01*
G01*
X115596738Y-115750000D01*
G75*
G02*
X115325000Y-115478262I0J271738D01*
G01*
G37*
%TD*%
D11*
%TO.C,J2*%
X85250000Y-130500000D03*
D12*
X79250000Y-130500000D03*
X82250000Y-135200000D03*
%TD*%
D13*
%TO.C,J5*%
X83540000Y-144040000D03*
X78460000Y-144040000D03*
X78460000Y-138960000D03*
X83540000Y-138960000D03*
X81000000Y-141500000D03*
%TD*%
%TO.C,J6*%
G36*
G01*
X76768400Y-99675000D02*
X79612400Y-99675000D01*
G75*
G02*
X80145400Y-100208000I0J-533000D01*
G01*
X80145400Y-101274000D01*
G75*
G02*
X79612400Y-101807000I-533000J0D01*
G01*
X76768400Y-101807000D01*
G75*
G02*
X76235400Y-101274000I0J533000D01*
G01*
X76235400Y-100208000D01*
G75*
G02*
X76768400Y-99675000I533000J0D01*
G01*
G37*
G36*
G01*
X76768400Y-116693000D02*
X79612400Y-116693000D01*
G75*
G02*
X80145400Y-117226000I0J-533000D01*
G01*
X80145400Y-118292000D01*
G75*
G02*
X79612400Y-118825000I-533000J0D01*
G01*
X76768400Y-118825000D01*
G75*
G02*
X76235400Y-118292000I0J533000D01*
G01*
X76235400Y-117226000D01*
G75*
G02*
X76768400Y-116693000I533000J0D01*
G01*
G37*
G36*
G01*
X86979200Y-99675000D02*
X89823200Y-99675000D01*
G75*
G02*
X90356200Y-100208000I0J-533000D01*
G01*
X90356200Y-101274000D01*
G75*
G02*
X89823200Y-101807000I-533000J0D01*
G01*
X86979200Y-101807000D01*
G75*
G02*
X86446200Y-101274000I0J533000D01*
G01*
X86446200Y-100208000D01*
G75*
G02*
X86979200Y-99675000I533000J0D01*
G01*
G37*
G36*
G01*
X86979200Y-116693000D02*
X89823200Y-116693000D01*
G75*
G02*
X90356200Y-117226000I0J-533000D01*
G01*
X90356200Y-118292000D01*
G75*
G02*
X89823200Y-118825000I-533000J0D01*
G01*
X86979200Y-118825000D01*
G75*
G02*
X86446200Y-118292000I0J533000D01*
G01*
X86446200Y-117226000D01*
G75*
G02*
X86979200Y-116693000I533000J0D01*
G01*
G37*
D14*
X94090800Y-109250000D03*
X91500000Y-109250000D03*
%TD*%
%TO.C,J8*%
X91500000Y-89750000D03*
X94090800Y-89750000D03*
G36*
G01*
X86979200Y-97193000D02*
X89823200Y-97193000D01*
G75*
G02*
X90356200Y-97726000I0J-533000D01*
G01*
X90356200Y-98792000D01*
G75*
G02*
X89823200Y-99325000I-533000J0D01*
G01*
X86979200Y-99325000D01*
G75*
G02*
X86446200Y-98792000I0J533000D01*
G01*
X86446200Y-97726000D01*
G75*
G02*
X86979200Y-97193000I533000J0D01*
G01*
G37*
G36*
G01*
X86979200Y-80175000D02*
X89823200Y-80175000D01*
G75*
G02*
X90356200Y-80708000I0J-533000D01*
G01*
X90356200Y-81774000D01*
G75*
G02*
X89823200Y-82307000I-533000J0D01*
G01*
X86979200Y-82307000D01*
G75*
G02*
X86446200Y-81774000I0J533000D01*
G01*
X86446200Y-80708000D01*
G75*
G02*
X86979200Y-80175000I533000J0D01*
G01*
G37*
G36*
G01*
X76768400Y-97193000D02*
X79612400Y-97193000D01*
G75*
G02*
X80145400Y-97726000I0J-533000D01*
G01*
X80145400Y-98792000D01*
G75*
G02*
X79612400Y-99325000I-533000J0D01*
G01*
X76768400Y-99325000D01*
G75*
G02*
X76235400Y-98792000I0J533000D01*
G01*
X76235400Y-97726000D01*
G75*
G02*
X76768400Y-97193000I533000J0D01*
G01*
G37*
G36*
G01*
X76768400Y-80175000D02*
X79612400Y-80175000D01*
G75*
G02*
X80145400Y-80708000I0J-533000D01*
G01*
X80145400Y-81774000D01*
G75*
G02*
X79612400Y-82307000I-533000J0D01*
G01*
X76768400Y-82307000D01*
G75*
G02*
X76235400Y-81774000I0J533000D01*
G01*
X76235400Y-80708000D01*
G75*
G02*
X76768400Y-80175000I533000J0D01*
G01*
G37*
%TD*%
D15*
%TO.C,JP2*%
X112500000Y-134000000D03*
D16*
X112500000Y-131460000D03*
%TD*%
D17*
%TO.C,J9*%
X79450000Y-122390000D03*
X79000000Y-123110000D03*
X79900000Y-123110000D03*
X80800000Y-123110000D03*
X81700000Y-123110000D03*
X82600000Y-123110000D03*
X83500000Y-123110000D03*
X84400000Y-123110000D03*
X80350000Y-122390000D03*
X81250000Y-122390000D03*
X82150000Y-122390000D03*
X83050000Y-122390000D03*
X83950000Y-122390000D03*
X84850000Y-122390000D03*
G36*
G01*
X78750000Y-123680000D02*
X80250000Y-123680000D01*
G75*
G02*
X80500000Y-123930000I0J-250000D01*
G01*
X80500000Y-124430000D01*
G75*
G02*
X80250000Y-124680000I-250000J0D01*
G01*
X78750000Y-124680000D01*
G75*
G02*
X78500000Y-124430000I0J250000D01*
G01*
X78500000Y-123930000D01*
G75*
G02*
X78750000Y-123680000I250000J0D01*
G01*
G37*
G36*
G01*
X78750000Y-120820000D02*
X80250000Y-120820000D01*
G75*
G02*
X80500000Y-121070000I0J-250000D01*
G01*
X80500000Y-121570000D01*
G75*
G02*
X80250000Y-121820000I-250000J0D01*
G01*
X78750000Y-121820000D01*
G75*
G02*
X78500000Y-121570000I0J250000D01*
G01*
X78500000Y-121070000D01*
G75*
G02*
X78750000Y-120820000I250000J0D01*
G01*
G37*
G36*
G01*
X83550000Y-123680000D02*
X85050000Y-123680000D01*
G75*
G02*
X85300000Y-123930000I0J-250000D01*
G01*
X85300000Y-124430000D01*
G75*
G02*
X85050000Y-124680000I-250000J0D01*
G01*
X83550000Y-124680000D01*
G75*
G02*
X83300000Y-124430000I0J250000D01*
G01*
X83300000Y-123930000D01*
G75*
G02*
X83550000Y-123680000I250000J0D01*
G01*
G37*
G36*
G01*
X83550000Y-120820000D02*
X85050000Y-120820000D01*
G75*
G02*
X85300000Y-121070000I0J-250000D01*
G01*
X85300000Y-121570000D01*
G75*
G02*
X85050000Y-121820000I-250000J0D01*
G01*
X83550000Y-121820000D01*
G75*
G02*
X83300000Y-121570000I0J250000D01*
G01*
X83300000Y-121070000D01*
G75*
G02*
X83550000Y-120820000I250000J0D01*
G01*
G37*
%TD*%
D15*
%TO.C,J1*%
X95750000Y-128960000D03*
D16*
X95750000Y-131500000D03*
%TD*%
M02*
