%TF.GenerationSoftware,KiCad,Pcbnew,(5.1.6)-1*%
%TF.CreationDate,2020-10-16T13:03:48-05:00*%
%TF.ProjectId,simple-gpsdo,73696d70-6c65-42d6-9770-73646f2e6b69,C*%
%TF.SameCoordinates,Original*%
%TF.FileFunction,Legend,Bot*%
%TF.FilePolarity,Positive*%
%FSLAX46Y46*%
G04 Gerber Fmt 4.6, Leading zero omitted, Abs format (unit mm)*
G04 Created by KiCad (PCBNEW (5.1.6)-1) date 2020-10-16 13:03:48*
%MOMM*%
%LPD*%
G01*
G04 APERTURE LIST*
%ADD10C,0.120000*%
%ADD11C,0.150000*%
G04 APERTURE END LIST*
D10*
%TO.C,C4*%
X117236252Y-118790000D02*
X116713748Y-118790000D01*
X117236252Y-120210000D02*
X116713748Y-120210000D01*
%TO.C,C6*%
X116713748Y-114290000D02*
X117236252Y-114290000D01*
X116713748Y-115710000D02*
X117236252Y-115710000D01*
%TO.C,C4*%
D11*
X117141666Y-118207142D02*
X117189285Y-118254761D01*
X117332142Y-118302380D01*
X117427380Y-118302380D01*
X117570238Y-118254761D01*
X117665476Y-118159523D01*
X117713095Y-118064285D01*
X117760714Y-117873809D01*
X117760714Y-117730952D01*
X117713095Y-117540476D01*
X117665476Y-117445238D01*
X117570238Y-117350000D01*
X117427380Y-117302380D01*
X117332142Y-117302380D01*
X117189285Y-117350000D01*
X117141666Y-117397619D01*
X116284523Y-117635714D02*
X116284523Y-118302380D01*
X116522619Y-117254761D02*
X116760714Y-117969047D01*
X116141666Y-117969047D01*
%TO.C,C6*%
X117141666Y-113857142D02*
X117189285Y-113904761D01*
X117332142Y-113952380D01*
X117427380Y-113952380D01*
X117570238Y-113904761D01*
X117665476Y-113809523D01*
X117713095Y-113714285D01*
X117760714Y-113523809D01*
X117760714Y-113380952D01*
X117713095Y-113190476D01*
X117665476Y-113095238D01*
X117570238Y-113000000D01*
X117427380Y-112952380D01*
X117332142Y-112952380D01*
X117189285Y-113000000D01*
X117141666Y-113047619D01*
X116284523Y-112952380D02*
X116475000Y-112952380D01*
X116570238Y-113000000D01*
X116617857Y-113047619D01*
X116713095Y-113190476D01*
X116760714Y-113380952D01*
X116760714Y-113761904D01*
X116713095Y-113857142D01*
X116665476Y-113904761D01*
X116570238Y-113952380D01*
X116379761Y-113952380D01*
X116284523Y-113904761D01*
X116236904Y-113857142D01*
X116189285Y-113761904D01*
X116189285Y-113523809D01*
X116236904Y-113428571D01*
X116284523Y-113380952D01*
X116379761Y-113333333D01*
X116570238Y-113333333D01*
X116665476Y-113380952D01*
X116713095Y-113428571D01*
X116760714Y-113523809D01*
%TD*%
M02*
