%TF.GenerationSoftware,KiCad,Pcbnew,(5.1.6)-1*%
%TF.CreationDate,2020-10-16T14:10:30-05:00*%
%TF.ProjectId,simple-gpsdo,73696d70-6c65-42d6-9770-73646f2e6b69,C*%
%TF.SameCoordinates,Original*%
%TF.FileFunction,Copper,L2,Bot*%
%TF.FilePolarity,Positive*%
%FSLAX46Y46*%
G04 Gerber Fmt 4.6, Leading zero omitted, Abs format (unit mm)*
G04 Created by KiCad (PCBNEW (5.1.6)-1) date 2020-10-16 14:10:30*
%MOMM*%
%LPD*%
G01*
G04 APERTURE LIST*
%TA.AperFunction,ComponentPad*%
%ADD10C,1.524000*%
%TD*%
%TA.AperFunction,ComponentPad*%
%ADD11R,2.600000X2.600000*%
%TD*%
%TA.AperFunction,ComponentPad*%
%ADD12C,2.600000*%
%TD*%
%TA.AperFunction,ComponentPad*%
%ADD13C,2.250000*%
%TD*%
%TA.AperFunction,ComponentPad*%
%ADD14C,2.032000*%
%TD*%
%TA.AperFunction,ComponentPad*%
%ADD15R,1.700000X1.700000*%
%TD*%
%TA.AperFunction,ComponentPad*%
%ADD16O,1.700000X1.700000*%
%TD*%
%TA.AperFunction,ComponentPad*%
%ADD17C,0.600000*%
%TD*%
%TA.AperFunction,ViaPad*%
%ADD18C,0.800000*%
%TD*%
%TA.AperFunction,ViaPad*%
%ADD19C,0.600000*%
%TD*%
%TA.AperFunction,ViaPad*%
%ADD20C,1.500000*%
%TD*%
%TA.AperFunction,Conductor*%
%ADD21C,0.500000*%
%TD*%
%TA.AperFunction,Conductor*%
%ADD22C,2.000000*%
%TD*%
%TA.AperFunction,Conductor*%
%ADD23C,0.750000*%
%TD*%
%TA.AperFunction,Conductor*%
%ADD24C,0.300000*%
%TD*%
%TA.AperFunction,Conductor*%
%ADD25C,1.500000*%
%TD*%
%TA.AperFunction,Conductor*%
%ADD26C,0.254000*%
%TD*%
G04 APERTURE END LIST*
D10*
%TO.P,Y2,1*%
%TO.N,Net-(C26-Pad2)*%
X184700000Y-106890000D03*
%TO.P,Y2,2*%
%TO.N,Net-(Y2-Pad2)*%
X184700000Y-98000000D03*
%TO.P,Y2,3*%
%TO.N,Net-(FB2-Pad2)*%
X184700000Y-89110000D03*
%TO.P,Y2,4*%
%TO.N,Net-(R10-Pad2)*%
X159300000Y-89110000D03*
%TO.P,Y2,5*%
%TO.N,GND*%
X159300000Y-106890000D03*
%TD*%
%TO.P,C4,1*%
%TO.N,GND*%
%TA.AperFunction,SMDPad,CuDef*%
G36*
G01*
X118575000Y-119049999D02*
X118575000Y-119950001D01*
G75*
G02*
X118325001Y-120200000I-249999J0D01*
G01*
X117674999Y-120200000D01*
G75*
G02*
X117425000Y-119950001I0J249999D01*
G01*
X117425000Y-119049999D01*
G75*
G02*
X117674999Y-118800000I249999J0D01*
G01*
X118325001Y-118800000D01*
G75*
G02*
X118575000Y-119049999I0J-249999D01*
G01*
G37*
%TD.AperFunction*%
%TO.P,C4,2*%
%TO.N,Net-(C4-Pad2)*%
%TA.AperFunction,SMDPad,CuDef*%
G36*
G01*
X116525000Y-119049999D02*
X116525000Y-119950001D01*
G75*
G02*
X116275001Y-120200000I-249999J0D01*
G01*
X115624999Y-120200000D01*
G75*
G02*
X115375000Y-119950001I0J249999D01*
G01*
X115375000Y-119049999D01*
G75*
G02*
X115624999Y-118800000I249999J0D01*
G01*
X116275001Y-118800000D01*
G75*
G02*
X116525000Y-119049999I0J-249999D01*
G01*
G37*
%TD.AperFunction*%
%TD*%
%TO.P,C6,2*%
%TO.N,+5VD*%
%TA.AperFunction,SMDPad,CuDef*%
G36*
G01*
X117425000Y-115450001D02*
X117425000Y-114549999D01*
G75*
G02*
X117674999Y-114300000I249999J0D01*
G01*
X118325001Y-114300000D01*
G75*
G02*
X118575000Y-114549999I0J-249999D01*
G01*
X118575000Y-115450001D01*
G75*
G02*
X118325001Y-115700000I-249999J0D01*
G01*
X117674999Y-115700000D01*
G75*
G02*
X117425000Y-115450001I0J249999D01*
G01*
G37*
%TD.AperFunction*%
%TO.P,C6,1*%
%TO.N,GND*%
%TA.AperFunction,SMDPad,CuDef*%
G36*
G01*
X115375000Y-115450001D02*
X115375000Y-114549999D01*
G75*
G02*
X115624999Y-114300000I249999J0D01*
G01*
X116275001Y-114300000D01*
G75*
G02*
X116525000Y-114549999I0J-249999D01*
G01*
X116525000Y-115450001D01*
G75*
G02*
X116275001Y-115700000I-249999J0D01*
G01*
X115624999Y-115700000D01*
G75*
G02*
X115375000Y-115450001I0J249999D01*
G01*
G37*
%TD.AperFunction*%
%TD*%
D11*
%TO.P,J2,1*%
%TO.N,Net-(F1-Pad2)*%
X85250000Y-130500000D03*
D12*
%TO.P,J2,2*%
%TO.N,GND*%
X79250000Y-130500000D03*
%TO.P,J2,3*%
X82250000Y-135200000D03*
%TD*%
D13*
%TO.P,J5,2*%
%TO.N,GND*%
X83540000Y-144040000D03*
X78460000Y-144040000D03*
X78460000Y-138960000D03*
X83540000Y-138960000D03*
%TO.P,J5,1*%
%TO.N,Net-(J4-Pad1)*%
X81000000Y-141500000D03*
%TD*%
%TO.P,J6,3*%
%TO.N,GND*%
%TA.AperFunction,ComponentPad*%
G36*
G01*
X77043400Y-99725000D02*
X79837400Y-99725000D01*
G75*
G02*
X80345400Y-100233000I0J-508000D01*
G01*
X80345400Y-101249000D01*
G75*
G02*
X79837400Y-101757000I-508000J0D01*
G01*
X77043400Y-101757000D01*
G75*
G02*
X76535400Y-101249000I0J508000D01*
G01*
X76535400Y-100233000D01*
G75*
G02*
X77043400Y-99725000I508000J0D01*
G01*
G37*
%TD.AperFunction*%
%TA.AperFunction,ComponentPad*%
G36*
G01*
X77043400Y-116743000D02*
X79837400Y-116743000D01*
G75*
G02*
X80345400Y-117251000I0J-508000D01*
G01*
X80345400Y-118267000D01*
G75*
G02*
X79837400Y-118775000I-508000J0D01*
G01*
X77043400Y-118775000D01*
G75*
G02*
X76535400Y-118267000I0J508000D01*
G01*
X76535400Y-117251000D01*
G75*
G02*
X77043400Y-116743000I508000J0D01*
G01*
G37*
%TD.AperFunction*%
%TA.AperFunction,ComponentPad*%
G36*
G01*
X87254200Y-99725000D02*
X90048200Y-99725000D01*
G75*
G02*
X90556200Y-100233000I0J-508000D01*
G01*
X90556200Y-101249000D01*
G75*
G02*
X90048200Y-101757000I-508000J0D01*
G01*
X87254200Y-101757000D01*
G75*
G02*
X86746200Y-101249000I0J508000D01*
G01*
X86746200Y-100233000D01*
G75*
G02*
X87254200Y-99725000I508000J0D01*
G01*
G37*
%TD.AperFunction*%
%TA.AperFunction,ComponentPad*%
G36*
G01*
X87254200Y-116743000D02*
X90048200Y-116743000D01*
G75*
G02*
X90556200Y-117251000I0J-508000D01*
G01*
X90556200Y-118267000D01*
G75*
G02*
X90048200Y-118775000I-508000J0D01*
G01*
X87254200Y-118775000D01*
G75*
G02*
X86746200Y-118267000I0J508000D01*
G01*
X86746200Y-117251000D01*
G75*
G02*
X87254200Y-116743000I508000J0D01*
G01*
G37*
%TD.AperFunction*%
D14*
%TO.P,J6,1*%
%TO.N,Net-(J6-Pad1)*%
X94340800Y-109250000D03*
%TO.P,J6,2*%
%TO.N,Net-(J6-Pad2)*%
X91750000Y-109250000D03*
%TD*%
%TO.P,J8,2*%
%TO.N,Net-(J8-Pad2)*%
X91750000Y-89750000D03*
%TO.P,J8,1*%
%TO.N,Net-(J8-Pad1)*%
X94340800Y-89750000D03*
%TO.P,J8,3*%
%TO.N,GND*%
%TA.AperFunction,ComponentPad*%
G36*
G01*
X87254200Y-97243000D02*
X90048200Y-97243000D01*
G75*
G02*
X90556200Y-97751000I0J-508000D01*
G01*
X90556200Y-98767000D01*
G75*
G02*
X90048200Y-99275000I-508000J0D01*
G01*
X87254200Y-99275000D01*
G75*
G02*
X86746200Y-98767000I0J508000D01*
G01*
X86746200Y-97751000D01*
G75*
G02*
X87254200Y-97243000I508000J0D01*
G01*
G37*
%TD.AperFunction*%
%TA.AperFunction,ComponentPad*%
G36*
G01*
X87254200Y-80225000D02*
X90048200Y-80225000D01*
G75*
G02*
X90556200Y-80733000I0J-508000D01*
G01*
X90556200Y-81749000D01*
G75*
G02*
X90048200Y-82257000I-508000J0D01*
G01*
X87254200Y-82257000D01*
G75*
G02*
X86746200Y-81749000I0J508000D01*
G01*
X86746200Y-80733000D01*
G75*
G02*
X87254200Y-80225000I508000J0D01*
G01*
G37*
%TD.AperFunction*%
%TA.AperFunction,ComponentPad*%
G36*
G01*
X77043400Y-97243000D02*
X79837400Y-97243000D01*
G75*
G02*
X80345400Y-97751000I0J-508000D01*
G01*
X80345400Y-98767000D01*
G75*
G02*
X79837400Y-99275000I-508000J0D01*
G01*
X77043400Y-99275000D01*
G75*
G02*
X76535400Y-98767000I0J508000D01*
G01*
X76535400Y-97751000D01*
G75*
G02*
X77043400Y-97243000I508000J0D01*
G01*
G37*
%TD.AperFunction*%
%TA.AperFunction,ComponentPad*%
G36*
G01*
X77043400Y-80225000D02*
X79837400Y-80225000D01*
G75*
G02*
X80345400Y-80733000I0J-508000D01*
G01*
X80345400Y-81749000D01*
G75*
G02*
X79837400Y-82257000I-508000J0D01*
G01*
X77043400Y-82257000D01*
G75*
G02*
X76535400Y-81749000I0J508000D01*
G01*
X76535400Y-80733000D01*
G75*
G02*
X77043400Y-80225000I508000J0D01*
G01*
G37*
%TD.AperFunction*%
%TD*%
D15*
%TO.P,JP2,1*%
%TO.N,Net-(C25-Pad1)*%
X112500000Y-134000000D03*
D16*
%TO.P,JP2,2*%
%TO.N,~RST*%
X112500000Y-131460000D03*
%TD*%
D17*
%TO.P,J9,A1*%
%TO.N,GND*%
X79450000Y-122390000D03*
%TO.P,J9,B12*%
X79000000Y-123110000D03*
%TO.P,J9,B9*%
%TO.N,Net-(J9-PadA4)*%
X79900000Y-123110000D03*
%TO.P,J9,B7*%
%TO.N,Net-(J9-PadA7)*%
X80800000Y-123110000D03*
%TO.P,J9,B6*%
%TO.N,Net-(J9-PadA6)*%
X81700000Y-123110000D03*
%TO.P,J9,B5*%
%TO.N,Net-(J9-PadB5)*%
X82600000Y-123110000D03*
%TO.P,J9,B4*%
%TO.N,Net-(J9-PadA4)*%
X83500000Y-123110000D03*
%TO.P,J9,B1*%
%TO.N,GND*%
X84400000Y-123110000D03*
%TO.P,J9,A4*%
%TO.N,Net-(J9-PadA4)*%
X80350000Y-122390000D03*
%TO.P,J9,A5*%
%TO.N,Net-(J9-PadA5)*%
X81250000Y-122390000D03*
%TO.P,J9,A6*%
%TO.N,Net-(J9-PadA6)*%
X82150000Y-122390000D03*
%TO.P,J9,A7*%
%TO.N,Net-(J9-PadA7)*%
X83050000Y-122390000D03*
%TO.P,J9,A9*%
%TO.N,Net-(J9-PadA4)*%
X83950000Y-122390000D03*
%TO.P,J9,A12*%
%TO.N,GND*%
X84850000Y-122390000D03*
%TO.P,J9,S1*%
%TA.AperFunction,ComponentPad*%
G36*
G01*
X78775000Y-123730000D02*
X80225000Y-123730000D01*
G75*
G02*
X80450000Y-123955000I0J-225000D01*
G01*
X80450000Y-124405000D01*
G75*
G02*
X80225000Y-124630000I-225000J0D01*
G01*
X78775000Y-124630000D01*
G75*
G02*
X78550000Y-124405000I0J225000D01*
G01*
X78550000Y-123955000D01*
G75*
G02*
X78775000Y-123730000I225000J0D01*
G01*
G37*
%TD.AperFunction*%
%TA.AperFunction,ComponentPad*%
G36*
G01*
X78775000Y-120870000D02*
X80225000Y-120870000D01*
G75*
G02*
X80450000Y-121095000I0J-225000D01*
G01*
X80450000Y-121545000D01*
G75*
G02*
X80225000Y-121770000I-225000J0D01*
G01*
X78775000Y-121770000D01*
G75*
G02*
X78550000Y-121545000I0J225000D01*
G01*
X78550000Y-121095000D01*
G75*
G02*
X78775000Y-120870000I225000J0D01*
G01*
G37*
%TD.AperFunction*%
%TA.AperFunction,ComponentPad*%
G36*
G01*
X83575000Y-123730000D02*
X85025000Y-123730000D01*
G75*
G02*
X85250000Y-123955000I0J-225000D01*
G01*
X85250000Y-124405000D01*
G75*
G02*
X85025000Y-124630000I-225000J0D01*
G01*
X83575000Y-124630000D01*
G75*
G02*
X83350000Y-124405000I0J225000D01*
G01*
X83350000Y-123955000D01*
G75*
G02*
X83575000Y-123730000I225000J0D01*
G01*
G37*
%TD.AperFunction*%
%TA.AperFunction,ComponentPad*%
G36*
G01*
X83575000Y-120870000D02*
X85025000Y-120870000D01*
G75*
G02*
X85250000Y-121095000I0J-225000D01*
G01*
X85250000Y-121545000D01*
G75*
G02*
X85025000Y-121770000I-225000J0D01*
G01*
X83575000Y-121770000D01*
G75*
G02*
X83350000Y-121545000I0J225000D01*
G01*
X83350000Y-121095000D01*
G75*
G02*
X83575000Y-120870000I225000J0D01*
G01*
G37*
%TD.AperFunction*%
%TD*%
D15*
%TO.P,J1,1*%
%TO.N,GPS_PPS*%
X95750000Y-128960000D03*
D16*
%TO.P,J1,2*%
%TO.N,GND*%
X95750000Y-131500000D03*
%TD*%
D18*
%TO.N,GND*%
X130500000Y-128500000D03*
X129500000Y-127500000D03*
X126500000Y-125500000D03*
X127500000Y-126500000D03*
X134250000Y-145000000D03*
X132750000Y-145000000D03*
X131250000Y-145000000D03*
X129750000Y-145000000D03*
X133500000Y-144000000D03*
X132000000Y-144000000D03*
X130500000Y-144000000D03*
X129000000Y-144000000D03*
X134250000Y-143000000D03*
X132750000Y-143000000D03*
X131250000Y-143000000D03*
X129750000Y-143000000D03*
X133500000Y-142000000D03*
X132000000Y-142000000D03*
X130500000Y-142000000D03*
X129000000Y-142000000D03*
X134250000Y-141000000D03*
X132750000Y-141000000D03*
X131250000Y-141000000D03*
X129750000Y-141000000D03*
X133500000Y-140000000D03*
X132000000Y-140000000D03*
X130500000Y-140000000D03*
X129000000Y-140000000D03*
X97000000Y-141000000D03*
X98500000Y-141000000D03*
X100000000Y-141000000D03*
X101500000Y-141000000D03*
X103000000Y-141000000D03*
X104500000Y-141000000D03*
X106000000Y-141000000D03*
X107500000Y-141000000D03*
X109000000Y-141000000D03*
X110500000Y-141000000D03*
X112000000Y-141000000D03*
X113500000Y-141000000D03*
X115000000Y-141000000D03*
X116500000Y-141000000D03*
X118000000Y-141000000D03*
X119500000Y-141000000D03*
X121000000Y-141000000D03*
X121000000Y-144000000D03*
X119500000Y-144000000D03*
X118000000Y-144000000D03*
X116500000Y-144000000D03*
X115000000Y-144000000D03*
X113500000Y-144000000D03*
X112000000Y-144000000D03*
X110500000Y-144000000D03*
X109000000Y-144000000D03*
X107500000Y-144000000D03*
X106000000Y-144000000D03*
X104500000Y-144000000D03*
X103000000Y-144000000D03*
X101500000Y-144000000D03*
X100000000Y-144000000D03*
X98500000Y-144000000D03*
X97000000Y-144000000D03*
X95500000Y-144000000D03*
X94000000Y-143000000D03*
X95500000Y-140000000D03*
X94000000Y-140000000D03*
X92500000Y-143000000D03*
X91000000Y-143000000D03*
X89500000Y-143000000D03*
X88000000Y-143000000D03*
X86500000Y-143000000D03*
X92500000Y-140000000D03*
X91000000Y-140000000D03*
X89500000Y-140000000D03*
X88000000Y-140000000D03*
X86500000Y-140000000D03*
X123000000Y-142500000D03*
X124500000Y-142500000D03*
X124500000Y-141000000D03*
X124500000Y-144000000D03*
X86000000Y-144500000D03*
X86000000Y-138500000D03*
X85000000Y-137500000D03*
X85000000Y-145500000D03*
X83500000Y-146000000D03*
X82000000Y-137500000D03*
X82000000Y-145500000D03*
X81000000Y-144500000D03*
X81000000Y-138500000D03*
X80000000Y-145500000D03*
X78500000Y-146000000D03*
X77000000Y-137500000D03*
X77000000Y-145500000D03*
X76000000Y-144500000D03*
X76000000Y-138500000D03*
X76000000Y-140000000D03*
X76000000Y-141500000D03*
X76000000Y-143000000D03*
X77500000Y-141500000D03*
X79000000Y-141500000D03*
X135000000Y-140000000D03*
X135000000Y-142000000D03*
X135000000Y-144000000D03*
X135000000Y-83500000D03*
X130500000Y-83500000D03*
X132750000Y-82500000D03*
X132000000Y-83500000D03*
X131250000Y-84500000D03*
X130500000Y-81500000D03*
X134250000Y-84500000D03*
X129750000Y-82500000D03*
X129000000Y-79500000D03*
X129000000Y-81500000D03*
X129750000Y-84500000D03*
X130500000Y-79500000D03*
X129000000Y-83500000D03*
X132000000Y-79500000D03*
X129750000Y-80500000D03*
X132750000Y-80500000D03*
X131250000Y-80500000D03*
X134250000Y-80500000D03*
X132750000Y-84500000D03*
X134250000Y-82500000D03*
X135000000Y-79500000D03*
X133500000Y-81500000D03*
X135000000Y-81500000D03*
X131250000Y-82500000D03*
X133500000Y-79500000D03*
X133500000Y-83500000D03*
X132000000Y-81500000D03*
X120000000Y-106500000D03*
X116000000Y-104500000D03*
X117500000Y-104500000D03*
X119000000Y-104500000D03*
X120500000Y-104500000D03*
X122000000Y-105500000D03*
X123000000Y-106500000D03*
X125000000Y-108500000D03*
X121000000Y-107500000D03*
X118500000Y-106500000D03*
X117000000Y-106500000D03*
X115500000Y-107000000D03*
X114500000Y-108000000D03*
X114500000Y-105000000D03*
X113500000Y-106000000D03*
X112500000Y-107000000D03*
X117000000Y-109500000D03*
X117000000Y-108000000D03*
X109500000Y-114000000D03*
X111500000Y-121500000D03*
D19*
X78500000Y-125250000D03*
X79500000Y-125250000D03*
X80500000Y-125250000D03*
X83250000Y-125250000D03*
X84250000Y-125250000D03*
X85250000Y-125250000D03*
X86250000Y-125250000D03*
X86250000Y-124250000D03*
X86250000Y-123250000D03*
X86250000Y-122250000D03*
X86250000Y-121250000D03*
X78500000Y-120250000D03*
X79500000Y-120250000D03*
X80500000Y-120250000D03*
D18*
X76000000Y-148500000D03*
X78000000Y-148500000D03*
X80000000Y-148500000D03*
X82000000Y-148500000D03*
X84000000Y-148500000D03*
X86000000Y-148500000D03*
X88000000Y-148500000D03*
X90000000Y-148500000D03*
X92000000Y-148500000D03*
X94000000Y-148500000D03*
X96000000Y-148500000D03*
X98000000Y-148500000D03*
X100000000Y-148500000D03*
X102000000Y-148500000D03*
X116000000Y-148500000D03*
X128000000Y-148500000D03*
X110000000Y-148500000D03*
X122000000Y-148500000D03*
X126000000Y-148500000D03*
X130000000Y-148500000D03*
X106000000Y-148500000D03*
X114000000Y-148500000D03*
X120000000Y-148500000D03*
X104000000Y-148500000D03*
X108000000Y-148500000D03*
X124000000Y-148500000D03*
X112000000Y-148500000D03*
X118000000Y-148500000D03*
X136000000Y-148500000D03*
X140000000Y-148500000D03*
X142000000Y-148500000D03*
X148000000Y-148500000D03*
X152000000Y-148500000D03*
X132000000Y-148500000D03*
X146000000Y-148500000D03*
X134000000Y-148500000D03*
X138000000Y-148500000D03*
X154000000Y-148500000D03*
X158000000Y-148500000D03*
X150000000Y-148500000D03*
X156000000Y-148500000D03*
X144000000Y-148500000D03*
X164000000Y-148500000D03*
X176000000Y-148500000D03*
X180000000Y-148500000D03*
X160000000Y-148500000D03*
X162000000Y-148500000D03*
X184000000Y-148500000D03*
X178000000Y-148500000D03*
X166000000Y-148500000D03*
X170000000Y-148500000D03*
X168000000Y-148500000D03*
X174000000Y-148500000D03*
X182000000Y-148500000D03*
X186000000Y-148500000D03*
X172000000Y-148500000D03*
X188000000Y-148500000D03*
X190000000Y-148500000D03*
X192000000Y-148500000D03*
X137500000Y-76000000D03*
X177500000Y-76000000D03*
X181500000Y-76000000D03*
X109500000Y-76000000D03*
X149500000Y-76000000D03*
X113500000Y-76000000D03*
X153500000Y-76000000D03*
X115500000Y-76000000D03*
X133500000Y-76000000D03*
X121500000Y-76000000D03*
X135500000Y-76000000D03*
X157500000Y-76000000D03*
X125500000Y-76000000D03*
X151500000Y-76000000D03*
X165500000Y-76000000D03*
X139500000Y-76000000D03*
X143500000Y-76000000D03*
X105500000Y-76000000D03*
X141500000Y-76000000D03*
X119500000Y-76000000D03*
X147500000Y-76000000D03*
X155500000Y-76000000D03*
X107500000Y-76000000D03*
X159500000Y-76000000D03*
X145500000Y-76000000D03*
X175500000Y-76000000D03*
X187500000Y-76000000D03*
X191500000Y-76000000D03*
X193500000Y-76000000D03*
X183500000Y-76000000D03*
X185500000Y-76000000D03*
X161500000Y-76000000D03*
X179500000Y-76000000D03*
X189500000Y-76000000D03*
X169500000Y-76000000D03*
X163500000Y-76000000D03*
X167500000Y-76000000D03*
X173500000Y-76000000D03*
X171500000Y-76000000D03*
X89500000Y-76000000D03*
X111500000Y-76000000D03*
X101500000Y-76000000D03*
X83500000Y-76000000D03*
X95500000Y-76000000D03*
X127500000Y-76000000D03*
X131500000Y-76000000D03*
X99500000Y-76000000D03*
X123500000Y-76000000D03*
X103500000Y-76000000D03*
X129500000Y-76000000D03*
X79500000Y-76000000D03*
X117500000Y-76000000D03*
X87500000Y-76000000D03*
X93500000Y-76000000D03*
X77500000Y-76000000D03*
X81500000Y-76000000D03*
X97500000Y-76000000D03*
X85500000Y-76000000D03*
X91500000Y-76000000D03*
D19*
X76500000Y-125250000D03*
X76500000Y-124250000D03*
X76500000Y-123250000D03*
X76500000Y-122250000D03*
X76500000Y-121250000D03*
X76500000Y-120250000D03*
D18*
X153500000Y-94000000D03*
X155500000Y-94000000D03*
X155500000Y-96000000D03*
X153500000Y-96000000D03*
X154500000Y-95000000D03*
X155500000Y-98000000D03*
X153500000Y-98000000D03*
X154500000Y-97000000D03*
X154500000Y-99000000D03*
X153500000Y-100000000D03*
X155500000Y-100000000D03*
X154500000Y-101000000D03*
X154500000Y-93000000D03*
X157500000Y-87500000D03*
X155500000Y-87500000D03*
X153500000Y-87500000D03*
X151500000Y-87500000D03*
X152500000Y-86500000D03*
X154500000Y-86500000D03*
X156500000Y-86500000D03*
X158500000Y-86500000D03*
X150500000Y-86500000D03*
X149500000Y-87500000D03*
X148500000Y-86500000D03*
X147500000Y-87500000D03*
X146500000Y-86500000D03*
X145500000Y-87500000D03*
X144500000Y-86500000D03*
X142000000Y-87500000D03*
X141000000Y-86500000D03*
X140000000Y-87500000D03*
X142000000Y-90500000D03*
X141000000Y-91500000D03*
X140000000Y-92500000D03*
X126000000Y-90000000D03*
X125000000Y-89000000D03*
X124000000Y-88000000D03*
X126000000Y-93000000D03*
X128000000Y-93000000D03*
X130000000Y-93000000D03*
X132000000Y-93000000D03*
X134000000Y-93000000D03*
X136000000Y-93000000D03*
X138000000Y-93000000D03*
X128000000Y-90000000D03*
X130000000Y-90000000D03*
X132000000Y-90000000D03*
X134000000Y-90000000D03*
X136000000Y-90000000D03*
X139000000Y-88500000D03*
X138000000Y-89500000D03*
X127000000Y-89000000D03*
X129000000Y-89000000D03*
X131000000Y-89000000D03*
X133000000Y-89000000D03*
X135000000Y-89000000D03*
X127000000Y-94000000D03*
X129000000Y-94000000D03*
X131000000Y-94000000D03*
X133000000Y-94000000D03*
X125000000Y-94000000D03*
X124000000Y-93000000D03*
X124000000Y-95000000D03*
X125000000Y-96000000D03*
X121000000Y-93000000D03*
X121000000Y-95000000D03*
X121000000Y-99000000D03*
X120000000Y-96000000D03*
X120000000Y-94000000D03*
X121000000Y-91000000D03*
X120000000Y-92000000D03*
X120000000Y-90000000D03*
X121000000Y-89000000D03*
X120000000Y-88000000D03*
X120000000Y-100000000D03*
X119000000Y-99000000D03*
X118000000Y-100000000D03*
X117000000Y-99000000D03*
X116000000Y-100000000D03*
X115000000Y-99000000D03*
X114000000Y-100000000D03*
X119000000Y-89000000D03*
X118000000Y-88000000D03*
X117000000Y-89000000D03*
X116000000Y-90000000D03*
X115000000Y-91000000D03*
X118000000Y-84000000D03*
X120000000Y-84000000D03*
X122000000Y-84000000D03*
X116000000Y-84000000D03*
X114000000Y-84000000D03*
X115000000Y-83000000D03*
X117000000Y-83000000D03*
X119000000Y-83000000D03*
X121000000Y-83000000D03*
X123000000Y-83000000D03*
X124000000Y-84000000D03*
X113500000Y-91500000D03*
X112000000Y-91500000D03*
X112000000Y-88500000D03*
X113500000Y-88500000D03*
X104500000Y-93000000D03*
X106500000Y-93000000D03*
X108500000Y-93000000D03*
X107500000Y-94000000D03*
X105500000Y-94000000D03*
X104500000Y-90000000D03*
X106500000Y-90000000D03*
X105500000Y-89000000D03*
X102500000Y-93000000D03*
X103500000Y-94000000D03*
X101500000Y-94000000D03*
X99500000Y-94000000D03*
X100500000Y-93000000D03*
X98500000Y-93000000D03*
X97500000Y-94000000D03*
X96500000Y-93000000D03*
X95500000Y-94000000D03*
X94500000Y-93000000D03*
X93500000Y-92000000D03*
X104500000Y-88000000D03*
X104500000Y-86000000D03*
X96000000Y-82000000D03*
X98000000Y-82000000D03*
X100000000Y-82000000D03*
X102000000Y-82000000D03*
X101000000Y-81000000D03*
X99000000Y-81000000D03*
X97000000Y-81000000D03*
X103000000Y-81000000D03*
X104000000Y-82000000D03*
X105000000Y-83000000D03*
X95000000Y-81000000D03*
X94000000Y-82000000D03*
X106500000Y-95000000D03*
X106500000Y-97000000D03*
X105500000Y-96000000D03*
X101000000Y-101500000D03*
X99000000Y-101500000D03*
X97000000Y-101500000D03*
X95000000Y-101500000D03*
X96000000Y-100500000D03*
X98000000Y-100500000D03*
X100000000Y-100500000D03*
X102000000Y-100500000D03*
X103000000Y-99500000D03*
X104000000Y-98500000D03*
X97000000Y-104500000D03*
X99000000Y-104500000D03*
X101000000Y-104500000D03*
X95000000Y-104500000D03*
X96000000Y-105500000D03*
X98000000Y-105500000D03*
X100000000Y-105500000D03*
X101000000Y-106500000D03*
X101000000Y-108500000D03*
X100000000Y-107500000D03*
X100000000Y-109500000D03*
X98000000Y-109500000D03*
X99000000Y-108500000D03*
X97000000Y-108500000D03*
X97000000Y-112500000D03*
X99000000Y-112500000D03*
X101000000Y-112500000D03*
X103000000Y-112500000D03*
X100000000Y-113500000D03*
X98000000Y-113500000D03*
X102000000Y-113500000D03*
X96000000Y-113500000D03*
X95000000Y-112500000D03*
X94000000Y-111500000D03*
X92000000Y-111500000D03*
X93000000Y-112500000D03*
X94000000Y-113500000D03*
X95000000Y-114500000D03*
X97000000Y-114500000D03*
X99000000Y-114500000D03*
X98000000Y-107500000D03*
X99000000Y-106500000D03*
X97000000Y-106500000D03*
X96000000Y-107500000D03*
X104500000Y-109500000D03*
X104500000Y-107500000D03*
X105500000Y-108500000D03*
X106500000Y-109500000D03*
X106500000Y-107500000D03*
X107500000Y-108500000D03*
X108500000Y-107500000D03*
X108500000Y-109500000D03*
X109500000Y-108500000D03*
X110500000Y-107500000D03*
X111500000Y-108500000D03*
X107500000Y-110500000D03*
X106500000Y-111500000D03*
X105500000Y-112500000D03*
X104500000Y-113500000D03*
X105500000Y-110500000D03*
X104500000Y-111500000D03*
X105000000Y-104500000D03*
X106500000Y-104500000D03*
X108000000Y-104500000D03*
X109500000Y-104500000D03*
X111000000Y-104500000D03*
X105000000Y-102000000D03*
X109500000Y-103000000D03*
X92500000Y-93000000D03*
X93500000Y-94000000D03*
X94500000Y-95000000D03*
X96500000Y-95000000D03*
X98500000Y-95000000D03*
X100500000Y-95000000D03*
X102500000Y-95000000D03*
X104500000Y-95000000D03*
X146500000Y-90500000D03*
X145500000Y-92500000D03*
X144500000Y-90500000D03*
X153500000Y-92000000D03*
X151500000Y-92000000D03*
X152500000Y-93000000D03*
X149500000Y-92000000D03*
X150500000Y-93000000D03*
X148500000Y-91000000D03*
X159500000Y-87500000D03*
X160500000Y-86500000D03*
X142500000Y-111000000D03*
X144500000Y-111000000D03*
X146500000Y-111000000D03*
X145500000Y-112000000D03*
X143500000Y-112000000D03*
X147500000Y-112000000D03*
X141500000Y-112000000D03*
X144500000Y-109000000D03*
X142500000Y-109000000D03*
X146500000Y-109000000D03*
X146500000Y-113000000D03*
X124000000Y-105500000D03*
X123000000Y-104500000D03*
X124000000Y-103500000D03*
X125000000Y-104500000D03*
X102000000Y-98500000D03*
X101000000Y-99500000D03*
X103000000Y-97500000D03*
X104000000Y-96500000D03*
X105000000Y-97500000D03*
X125000000Y-102500000D03*
X124000000Y-101500000D03*
X125000000Y-100500000D03*
X124000000Y-99500000D03*
X126000000Y-101500000D03*
X126000000Y-97000000D03*
X127000000Y-98000000D03*
X128000000Y-99000000D03*
X126000000Y-95000000D03*
X127000000Y-96000000D03*
X128000000Y-97000000D03*
X129000000Y-98000000D03*
X131000000Y-98000000D03*
X130000000Y-99000000D03*
X133000000Y-98000000D03*
X132000000Y-99000000D03*
X119500000Y-120000000D03*
X119500000Y-118000000D03*
X120500000Y-119000000D03*
X121500000Y-118000000D03*
X114500000Y-118000000D03*
X112500000Y-118000000D03*
X113500000Y-119000000D03*
X134500000Y-137000000D03*
X136500000Y-137000000D03*
X135500000Y-136000000D03*
X131000000Y-137000000D03*
X129000000Y-137000000D03*
X127000000Y-137000000D03*
X126000000Y-136000000D03*
X128000000Y-136000000D03*
X130000000Y-136000000D03*
X122500000Y-136000000D03*
X121500000Y-137000000D03*
X120500000Y-136000000D03*
X150750000Y-133000000D03*
X150750000Y-131750000D03*
X125500000Y-115000000D03*
X127500000Y-115000000D03*
X129500000Y-115000000D03*
X131500000Y-115000000D03*
X126500000Y-116000000D03*
X128500000Y-116000000D03*
X130500000Y-116000000D03*
X132500000Y-116000000D03*
X153000000Y-113000000D03*
X151000000Y-113000000D03*
X156500000Y-113000000D03*
X158500000Y-113000000D03*
X160500000Y-113000000D03*
X162500000Y-113000000D03*
X164500000Y-113000000D03*
X157500000Y-114000000D03*
X159500000Y-114000000D03*
X161500000Y-114000000D03*
X156500000Y-111000000D03*
X158500000Y-111000000D03*
X160500000Y-111000000D03*
X162500000Y-111000000D03*
X164500000Y-111000000D03*
X163500000Y-110000000D03*
X161500000Y-110000000D03*
X159500000Y-110000000D03*
X157500000Y-110000000D03*
X155500000Y-110000000D03*
X154500000Y-111000000D03*
X153500000Y-110000000D03*
X153500000Y-108000000D03*
X153500000Y-106000000D03*
X153500000Y-104000000D03*
X154500000Y-105000000D03*
X154500000Y-107000000D03*
X154500000Y-109000000D03*
X155500000Y-104000000D03*
X156500000Y-105000000D03*
X157500000Y-104000000D03*
X158500000Y-103000000D03*
X158500000Y-101000000D03*
X158500000Y-99000000D03*
X159500000Y-100000000D03*
X159500000Y-102000000D03*
X158500000Y-97000000D03*
X159500000Y-98000000D03*
X158500000Y-95000000D03*
X159500000Y-96000000D03*
X158500000Y-93000000D03*
X159500000Y-94000000D03*
X158500000Y-91000000D03*
X159500000Y-92000000D03*
X160500000Y-91000000D03*
X161500000Y-90000000D03*
X161500000Y-88000000D03*
X162500000Y-89000000D03*
X162500000Y-87000000D03*
X157000000Y-90500000D03*
X101500000Y-90000000D03*
X101500000Y-88000000D03*
X101500000Y-86000000D03*
X100500000Y-85000000D03*
X100500000Y-87000000D03*
X100500000Y-89000000D03*
X99500000Y-90000000D03*
X97500000Y-90000000D03*
X98500000Y-89000000D03*
X96500000Y-89000000D03*
X99500000Y-86000000D03*
X98500000Y-85000000D03*
X97500000Y-86000000D03*
X96500000Y-85000000D03*
X95500000Y-86000000D03*
X94500000Y-85000000D03*
X106500000Y-88000000D03*
X117000000Y-91000000D03*
X118000000Y-90000000D03*
X116000000Y-92000000D03*
X90000000Y-111500000D03*
X91000000Y-112500000D03*
X89000000Y-110500000D03*
X89000000Y-108500000D03*
X90000000Y-107500000D03*
X90000000Y-105500000D03*
X89000000Y-106500000D03*
X90000000Y-103500000D03*
X91000000Y-102500000D03*
X92000000Y-101500000D03*
X93500000Y-101500000D03*
X89000000Y-104500000D03*
X94500000Y-100500000D03*
X91500000Y-92000000D03*
X90500000Y-93000000D03*
X89500000Y-92000000D03*
X89500000Y-90000000D03*
X88500000Y-91000000D03*
X89500000Y-88000000D03*
X88500000Y-89000000D03*
X89500000Y-86000000D03*
X88500000Y-87000000D03*
X90500000Y-85000000D03*
X91500000Y-84000000D03*
X92500000Y-83000000D03*
X89500000Y-84000000D03*
X90500000Y-83000000D03*
X91500000Y-82000000D03*
X93000000Y-81000000D03*
%TO.N,~RST*%
X120500000Y-131000000D03*
%TO.N,GPS_PPS*%
X122500000Y-112000000D03*
X132500000Y-100500000D03*
X163000000Y-122000000D03*
X156500000Y-118500000D03*
X147000000Y-114000000D03*
X179000000Y-144500000D03*
%TO.N,GPS_RX*%
X152500000Y-119500000D03*
X168500000Y-132000000D03*
%TO.N,GPS_TX*%
X151500000Y-120000000D03*
X168500000Y-135500000D03*
%TO.N,OVEN_TEMP*%
X153500000Y-118500000D03*
X185500000Y-134500000D03*
%TO.N,POWER_OK*%
X149000000Y-117000000D03*
X185000000Y-142000000D03*
%TO.N,GPS_LOCK*%
X154500000Y-118000000D03*
X186000000Y-125500000D03*
D20*
%TO.N,Net-(C3-Pad1)*%
X139750000Y-137250000D03*
X98000000Y-137000000D03*
D18*
%TO.N,Net-(C4-Pad2)*%
X114000000Y-120000000D03*
%TO.N,+5VD*%
X118000000Y-117000000D03*
%TO.N,+5VA*%
X143500000Y-94000000D03*
X113000000Y-94500000D03*
X124500000Y-97500000D03*
X143000000Y-82000000D03*
%TO.N,/PWM_D11*%
X138000000Y-127500000D03*
X119000000Y-127000000D03*
%TO.N,TIME_LOCK*%
X140000000Y-109500000D03*
X153000000Y-111000000D03*
X157500000Y-115500000D03*
X185500000Y-119500000D03*
%TO.N,/ADC2*%
X116500000Y-113000000D03*
X174500000Y-85500000D03*
%TO.N,Net-(J9-PadA4)*%
X93500000Y-123250000D03*
D19*
%TO.N,+6V*%
X138000000Y-142500000D03*
D20*
X138000000Y-87000000D03*
X141000000Y-135000000D03*
%TD*%
D21*
%TO.N,~RST*%
X112500000Y-131460000D02*
X120040000Y-131460000D01*
X120040000Y-131460000D02*
X120500000Y-131000000D01*
%TO.N,GPS_PPS*%
X122500000Y-112000000D02*
X122000000Y-111500000D01*
X122850001Y-110649999D02*
X122850001Y-109149999D01*
X122000000Y-111500000D02*
X122850001Y-110649999D01*
X122850001Y-109149999D02*
X126500000Y-105500000D01*
X126500000Y-105500000D02*
X126500000Y-103500000D01*
X126500000Y-103500000D02*
X129500000Y-100500000D01*
X129500000Y-100500000D02*
X132500000Y-100500000D01*
X163000000Y-122000000D02*
X159500000Y-118500000D01*
X159500000Y-118500000D02*
X156500000Y-118500000D01*
X132500000Y-104500000D02*
X132500000Y-100500000D01*
X147000000Y-114000000D02*
X142000000Y-114000000D01*
X142000000Y-114000000D02*
X132500000Y-104500000D01*
X97050001Y-130260001D02*
X97050001Y-130300001D01*
X95750000Y-128960000D02*
X97050001Y-130260001D01*
X97050001Y-130300001D02*
X97500000Y-130750000D01*
X97500000Y-130750000D02*
X97500000Y-132750000D01*
X97500000Y-132750000D02*
X96000000Y-134250000D01*
X96000000Y-134250000D02*
X96000000Y-138250000D01*
X96000000Y-138250000D02*
X97500000Y-139750000D01*
X97500000Y-139750000D02*
X125500000Y-139750000D01*
X125500000Y-139750000D02*
X126500000Y-140750000D01*
X126500000Y-140750000D02*
X126500000Y-146750000D01*
X126500000Y-146750000D02*
X127000000Y-147250000D01*
X127000000Y-147250000D02*
X176500000Y-147250000D01*
X176500000Y-147250000D02*
X179000000Y-144750000D01*
X179000000Y-144750000D02*
X179000000Y-144500000D01*
%TO.N,GPS_RX*%
X152500000Y-119500000D02*
X165000000Y-132000000D01*
X165000000Y-132000000D02*
X168500000Y-132000000D01*
%TO.N,GPS_TX*%
X151500000Y-120000000D02*
X167000000Y-135500000D01*
X167000000Y-135500000D02*
X168500000Y-135500000D01*
%TO.N,OVEN_TEMP*%
X153500000Y-118500000D02*
X159000000Y-124000000D01*
X159000000Y-124000000D02*
X181500000Y-124000000D01*
X181500000Y-124000000D02*
X184500000Y-127000000D01*
X184500000Y-127000000D02*
X184500000Y-133500000D01*
X184500000Y-133500000D02*
X185500000Y-134500000D01*
%TO.N,POWER_OK*%
X149000000Y-117000000D02*
X149000000Y-121000000D01*
X149000000Y-121000000D02*
X170000000Y-142000000D01*
X170000000Y-142000000D02*
X185000000Y-142000000D01*
%TO.N,GPS_LOCK*%
X154500000Y-118000000D02*
X159500000Y-123000000D01*
X159500000Y-123000000D02*
X183500000Y-123000000D01*
X183500000Y-123000000D02*
X186000000Y-125500000D01*
D22*
%TO.N,Net-(C3-Pad1)*%
X136250000Y-133750000D02*
X139750000Y-137250000D01*
X118250000Y-133750000D02*
X136250000Y-133750000D01*
X115000000Y-137000000D02*
X118250000Y-133750000D01*
X98000000Y-137000000D02*
X115000000Y-137000000D01*
D21*
%TO.N,Net-(C4-Pad2)*%
X115950000Y-119500000D02*
X114500000Y-119500000D01*
X114500000Y-119500000D02*
X114000000Y-120000000D01*
%TO.N,+5VD*%
X118000000Y-117000000D02*
X118000000Y-115000000D01*
D23*
%TO.N,+5VA*%
X143500000Y-94000000D02*
X143500000Y-87500000D01*
X143000000Y-87000000D02*
X143000000Y-83500000D01*
X143500000Y-87500000D02*
X143000000Y-87000000D01*
X116000000Y-97500000D02*
X113000000Y-94500000D01*
X116000000Y-97500000D02*
X124500000Y-97500000D01*
X143000000Y-83500000D02*
X143000000Y-82000000D01*
D21*
%TO.N,/PWM_D11*%
X138000000Y-127500000D02*
X136500000Y-127500000D01*
X136500000Y-127500000D02*
X133000000Y-131000000D01*
X133000000Y-131000000D02*
X123000000Y-131000000D01*
X123000000Y-131000000D02*
X119000000Y-127000000D01*
%TO.N,TIME_LOCK*%
X157500000Y-115500000D02*
X158500000Y-116500000D01*
X158500000Y-116500000D02*
X160000000Y-116500000D01*
X160000000Y-116500000D02*
X165000000Y-121500000D01*
X165000000Y-121500000D02*
X183500000Y-121500000D01*
X183500000Y-121500000D02*
X185500000Y-119500000D01*
X141000000Y-108500000D02*
X140000000Y-109500000D01*
X141500000Y-108000000D02*
X141000000Y-108500000D01*
X153000000Y-111000000D02*
X150000000Y-108000000D01*
X150000000Y-108000000D02*
X141500000Y-108000000D01*
%TO.N,/ADC2*%
X121000000Y-113000000D02*
X116500000Y-113000000D01*
X125000000Y-117000000D02*
X121000000Y-113000000D01*
X174500000Y-103500000D02*
X166000000Y-112000000D01*
X174500000Y-85500000D02*
X174500000Y-103500000D01*
X150500000Y-112000000D02*
X145500000Y-117000000D01*
X166000000Y-112000000D02*
X150500000Y-112000000D01*
X145500000Y-117000000D02*
X125000000Y-117000000D01*
D24*
%TO.N,Net-(J9-PadA4)*%
X83500000Y-123216810D02*
X80966810Y-125750000D01*
X83500000Y-123110000D02*
X83500000Y-123216810D01*
X81466810Y-126250000D02*
X80966810Y-125750000D01*
X93500000Y-123250000D02*
X90500000Y-126250000D01*
X90500000Y-126250000D02*
X81466810Y-126250000D01*
X80350000Y-122233190D02*
X81500000Y-121083190D01*
X81500000Y-121083190D02*
X81500000Y-120250000D01*
X80350000Y-122390000D02*
X80350000Y-122233190D01*
X81500000Y-120250000D02*
X80750000Y-119500000D01*
X78250000Y-119500000D02*
X78000000Y-119500000D01*
X80750000Y-119500000D02*
X78250000Y-119500000D01*
X80966810Y-125783190D02*
X80966810Y-125750000D01*
X80500000Y-126250000D02*
X80966810Y-125783190D01*
X76250000Y-119500000D02*
X75500000Y-120250000D01*
X75500000Y-120250000D02*
X75500000Y-125750000D01*
X78250000Y-119500000D02*
X76250000Y-119500000D01*
X75500000Y-125750000D02*
X76000000Y-126250000D01*
X76000000Y-126250000D02*
X80500000Y-126250000D01*
D25*
%TO.N,+6V*%
X140000000Y-126000000D02*
X140000000Y-129800000D01*
X114498002Y-122500000D02*
X136500000Y-122500000D01*
X83000000Y-114000000D02*
X84000000Y-115000000D01*
X136500000Y-122500000D02*
X140000000Y-126000000D01*
X125500000Y-82500000D02*
X121500000Y-78500000D01*
X84000000Y-115000000D02*
X92000000Y-115000000D01*
X84500000Y-78500000D02*
X83000000Y-80000000D01*
X121500000Y-78500000D02*
X84500000Y-78500000D01*
X138000000Y-87000000D02*
X125500000Y-87000000D01*
X110998002Y-119000000D02*
X114498002Y-122500000D01*
X125500000Y-87000000D02*
X125500000Y-82500000D01*
X92000000Y-115000000D02*
X96000000Y-119000000D01*
X83000000Y-80000000D02*
X83000000Y-114000000D01*
X96000000Y-119000000D02*
X110998002Y-119000000D01*
X138000000Y-142500000D02*
X142000000Y-138500000D01*
X140000000Y-134000000D02*
X140000000Y-129800000D01*
X142000000Y-138500000D02*
X142000000Y-136000000D01*
X142000000Y-136000000D02*
X141000000Y-135000000D01*
X141000000Y-135000000D02*
X140000000Y-134000000D01*
%TD*%
D26*
%TO.N,GND*%
G36*
X194048001Y-149048000D02*
G01*
X75452000Y-149048000D01*
X75452000Y-145268145D01*
X77582580Y-145268145D01*
X77710803Y-145493103D01*
X78008686Y-145611343D01*
X78323911Y-145669197D01*
X78644367Y-145664442D01*
X78957737Y-145597261D01*
X79209197Y-145493103D01*
X79337420Y-145268145D01*
X82662580Y-145268145D01*
X82790803Y-145493103D01*
X83088686Y-145611343D01*
X83403911Y-145669197D01*
X83724367Y-145664442D01*
X84037737Y-145597261D01*
X84289197Y-145493103D01*
X84417420Y-145268145D01*
X83540000Y-144390725D01*
X82662580Y-145268145D01*
X79337420Y-145268145D01*
X78460000Y-144390725D01*
X77582580Y-145268145D01*
X75452000Y-145268145D01*
X75452000Y-143903911D01*
X76830803Y-143903911D01*
X76835558Y-144224367D01*
X76902739Y-144537737D01*
X77006897Y-144789197D01*
X77231855Y-144917420D01*
X78109275Y-144040000D01*
X78810725Y-144040000D01*
X79688145Y-144917420D01*
X79913103Y-144789197D01*
X80031343Y-144491314D01*
X80089197Y-144176089D01*
X80085159Y-143903911D01*
X81910803Y-143903911D01*
X81915558Y-144224367D01*
X81982739Y-144537737D01*
X82086897Y-144789197D01*
X82311855Y-144917420D01*
X83189275Y-144040000D01*
X83890725Y-144040000D01*
X84768145Y-144917420D01*
X84993103Y-144789197D01*
X85111343Y-144491314D01*
X85169197Y-144176089D01*
X85164442Y-143855633D01*
X85097261Y-143542263D01*
X84993103Y-143290803D01*
X84768145Y-143162580D01*
X83890725Y-144040000D01*
X83189275Y-144040000D01*
X82311855Y-143162580D01*
X82086897Y-143290803D01*
X81968657Y-143588686D01*
X81910803Y-143903911D01*
X80085159Y-143903911D01*
X80084442Y-143855633D01*
X80017261Y-143542263D01*
X79913103Y-143290803D01*
X79688145Y-143162580D01*
X78810725Y-144040000D01*
X78109275Y-144040000D01*
X77231855Y-143162580D01*
X77006897Y-143290803D01*
X76888657Y-143588686D01*
X76830803Y-143903911D01*
X75452000Y-143903911D01*
X75452000Y-142811855D01*
X77582580Y-142811855D01*
X78460000Y-143689275D01*
X79337420Y-142811855D01*
X79209197Y-142586897D01*
X78911314Y-142468657D01*
X78596089Y-142410803D01*
X78275633Y-142415558D01*
X77962263Y-142482739D01*
X77710803Y-142586897D01*
X77582580Y-142811855D01*
X75452000Y-142811855D01*
X75452000Y-141347141D01*
X79448000Y-141347141D01*
X79448000Y-141652859D01*
X79507643Y-141952702D01*
X79624636Y-142235147D01*
X79794483Y-142489342D01*
X80010658Y-142705517D01*
X80264853Y-142875364D01*
X80547298Y-142992357D01*
X80847141Y-143052000D01*
X81152859Y-143052000D01*
X81452702Y-142992357D01*
X81735147Y-142875364D01*
X81830195Y-142811855D01*
X82662580Y-142811855D01*
X83540000Y-143689275D01*
X84417420Y-142811855D01*
X84289197Y-142586897D01*
X83991314Y-142468657D01*
X83676089Y-142410803D01*
X83355633Y-142415558D01*
X83042263Y-142482739D01*
X82790803Y-142586897D01*
X82662580Y-142811855D01*
X81830195Y-142811855D01*
X81989342Y-142705517D01*
X82205517Y-142489342D01*
X82375364Y-142235147D01*
X82492357Y-141952702D01*
X82552000Y-141652859D01*
X82552000Y-141347141D01*
X82492357Y-141047298D01*
X82375364Y-140764853D01*
X82205517Y-140510658D01*
X81989342Y-140294483D01*
X81830196Y-140188145D01*
X82662580Y-140188145D01*
X82790803Y-140413103D01*
X83088686Y-140531343D01*
X83403911Y-140589197D01*
X83724367Y-140584442D01*
X84037737Y-140517261D01*
X84289197Y-140413103D01*
X84417420Y-140188145D01*
X83540000Y-139310725D01*
X82662580Y-140188145D01*
X81830196Y-140188145D01*
X81735147Y-140124636D01*
X81452702Y-140007643D01*
X81152859Y-139948000D01*
X80847141Y-139948000D01*
X80547298Y-140007643D01*
X80264853Y-140124636D01*
X80010658Y-140294483D01*
X79794483Y-140510658D01*
X79624636Y-140764853D01*
X79507643Y-141047298D01*
X79448000Y-141347141D01*
X75452000Y-141347141D01*
X75452000Y-140188145D01*
X77582580Y-140188145D01*
X77710803Y-140413103D01*
X78008686Y-140531343D01*
X78323911Y-140589197D01*
X78644367Y-140584442D01*
X78957737Y-140517261D01*
X79209197Y-140413103D01*
X79337420Y-140188145D01*
X78460000Y-139310725D01*
X77582580Y-140188145D01*
X75452000Y-140188145D01*
X75452000Y-138823911D01*
X76830803Y-138823911D01*
X76835558Y-139144367D01*
X76902739Y-139457737D01*
X77006897Y-139709197D01*
X77231855Y-139837420D01*
X78109275Y-138960000D01*
X78810725Y-138960000D01*
X79688145Y-139837420D01*
X79913103Y-139709197D01*
X80031343Y-139411314D01*
X80089197Y-139096089D01*
X80085159Y-138823911D01*
X81910803Y-138823911D01*
X81915558Y-139144367D01*
X81982739Y-139457737D01*
X82086897Y-139709197D01*
X82311855Y-139837420D01*
X83189275Y-138960000D01*
X83890725Y-138960000D01*
X84768145Y-139837420D01*
X84993103Y-139709197D01*
X85111343Y-139411314D01*
X85169197Y-139096089D01*
X85164442Y-138775633D01*
X85097261Y-138462263D01*
X84993103Y-138210803D01*
X84768145Y-138082580D01*
X83890725Y-138960000D01*
X83189275Y-138960000D01*
X82311855Y-138082580D01*
X82086897Y-138210803D01*
X81968657Y-138508686D01*
X81910803Y-138823911D01*
X80085159Y-138823911D01*
X80084442Y-138775633D01*
X80017261Y-138462263D01*
X79913103Y-138210803D01*
X79688145Y-138082580D01*
X78810725Y-138960000D01*
X78109275Y-138960000D01*
X77231855Y-138082580D01*
X77006897Y-138210803D01*
X76888657Y-138508686D01*
X76830803Y-138823911D01*
X75452000Y-138823911D01*
X75452000Y-137731855D01*
X77582580Y-137731855D01*
X78460000Y-138609275D01*
X79337420Y-137731855D01*
X82662580Y-137731855D01*
X83540000Y-138609275D01*
X84417420Y-137731855D01*
X84289197Y-137506897D01*
X83991314Y-137388657D01*
X83676089Y-137330803D01*
X83355633Y-137335558D01*
X83042263Y-137402739D01*
X82790803Y-137506897D01*
X82662580Y-137731855D01*
X79337420Y-137731855D01*
X79209197Y-137506897D01*
X78911314Y-137388657D01*
X78596089Y-137330803D01*
X78275633Y-137335558D01*
X77962263Y-137402739D01*
X77710803Y-137506897D01*
X77582580Y-137731855D01*
X75452000Y-137731855D01*
X75452000Y-136554018D01*
X81246707Y-136554018D01*
X81396352Y-136796868D01*
X81724289Y-136932723D01*
X82072428Y-137001990D01*
X82427390Y-137002008D01*
X82775537Y-136932776D01*
X83103486Y-136796954D01*
X83103648Y-136796868D01*
X83253293Y-136554018D01*
X82250000Y-135550725D01*
X81246707Y-136554018D01*
X75452000Y-136554018D01*
X75452000Y-135377390D01*
X80447992Y-135377390D01*
X80517224Y-135725537D01*
X80653046Y-136053486D01*
X80653132Y-136053648D01*
X80895982Y-136203293D01*
X81899275Y-135200000D01*
X82600725Y-135200000D01*
X83604018Y-136203293D01*
X83846868Y-136053648D01*
X83982723Y-135725711D01*
X84051990Y-135377572D01*
X84052008Y-135022610D01*
X83982776Y-134674463D01*
X83846954Y-134346514D01*
X83846868Y-134346352D01*
X83604018Y-134196707D01*
X82600725Y-135200000D01*
X81899275Y-135200000D01*
X80895982Y-134196707D01*
X80653132Y-134346352D01*
X80517277Y-134674289D01*
X80448010Y-135022428D01*
X80447992Y-135377390D01*
X75452000Y-135377390D01*
X75452000Y-133845982D01*
X81246707Y-133845982D01*
X82250000Y-134849275D01*
X83253293Y-133845982D01*
X83103648Y-133603132D01*
X82775711Y-133467277D01*
X82427572Y-133398010D01*
X82072610Y-133397992D01*
X81724463Y-133467224D01*
X81396514Y-133603046D01*
X81396352Y-133603132D01*
X81246707Y-133845982D01*
X75452000Y-133845982D01*
X75452000Y-131854018D01*
X78246707Y-131854018D01*
X78396352Y-132096868D01*
X78724289Y-132232723D01*
X79072428Y-132301990D01*
X79427390Y-132302008D01*
X79775537Y-132232776D01*
X80103486Y-132096954D01*
X80103648Y-132096868D01*
X80253293Y-131854018D01*
X79250000Y-130850725D01*
X78246707Y-131854018D01*
X75452000Y-131854018D01*
X75452000Y-130677390D01*
X77447992Y-130677390D01*
X77517224Y-131025537D01*
X77653046Y-131353486D01*
X77653132Y-131353648D01*
X77895982Y-131503293D01*
X78899275Y-130500000D01*
X79600725Y-130500000D01*
X80604018Y-131503293D01*
X80846868Y-131353648D01*
X80982723Y-131025711D01*
X81051990Y-130677572D01*
X81052008Y-130322610D01*
X80982776Y-129974463D01*
X80846954Y-129646514D01*
X80846868Y-129646352D01*
X80604018Y-129496707D01*
X79600725Y-130500000D01*
X78899275Y-130500000D01*
X77895982Y-129496707D01*
X77653132Y-129646352D01*
X77517277Y-129974289D01*
X77448010Y-130322428D01*
X77447992Y-130677390D01*
X75452000Y-130677390D01*
X75452000Y-129145982D01*
X78246707Y-129145982D01*
X79250000Y-130149275D01*
X80199275Y-129200000D01*
X83520934Y-129200000D01*
X83520934Y-131800000D01*
X83529178Y-131883707D01*
X83553595Y-131964196D01*
X83593245Y-132038376D01*
X83646605Y-132103395D01*
X83711624Y-132156755D01*
X83785804Y-132196405D01*
X83866293Y-132220822D01*
X83950000Y-132229066D01*
X86550000Y-132229066D01*
X86633707Y-132220822D01*
X86714196Y-132196405D01*
X86788376Y-132156755D01*
X86853395Y-132103395D01*
X86906755Y-132038376D01*
X86946405Y-131964196D01*
X86949844Y-131952859D01*
X94476089Y-131952859D01*
X94588915Y-132192685D01*
X94746361Y-132405892D01*
X94942376Y-132584286D01*
X95169428Y-132721011D01*
X95297143Y-132773901D01*
X95502000Y-132701165D01*
X95502000Y-131748000D01*
X94546430Y-131748000D01*
X94476089Y-131952859D01*
X86949844Y-131952859D01*
X86970822Y-131883707D01*
X86979066Y-131800000D01*
X86979066Y-129200000D01*
X86970822Y-129116293D01*
X86946405Y-129035804D01*
X86906755Y-128961624D01*
X86853395Y-128896605D01*
X86788376Y-128843245D01*
X86714196Y-128803595D01*
X86633707Y-128779178D01*
X86550000Y-128770934D01*
X83950000Y-128770934D01*
X83866293Y-128779178D01*
X83785804Y-128803595D01*
X83711624Y-128843245D01*
X83646605Y-128896605D01*
X83593245Y-128961624D01*
X83553595Y-129035804D01*
X83529178Y-129116293D01*
X83520934Y-129200000D01*
X80199275Y-129200000D01*
X80253293Y-129145982D01*
X80103648Y-128903132D01*
X79775711Y-128767277D01*
X79427572Y-128698010D01*
X79072610Y-128697992D01*
X78724463Y-128767224D01*
X78396514Y-128903046D01*
X78396352Y-128903132D01*
X78246707Y-129145982D01*
X75452000Y-129145982D01*
X75452000Y-126518001D01*
X75571961Y-126637962D01*
X75590026Y-126659974D01*
X75677885Y-126732079D01*
X75778124Y-126785657D01*
X75822782Y-126799204D01*
X75886888Y-126818651D01*
X75944886Y-126824363D01*
X75971664Y-126827000D01*
X75971669Y-126827000D01*
X76000000Y-126829790D01*
X76028331Y-126827000D01*
X80471669Y-126827000D01*
X80500000Y-126829790D01*
X80528331Y-126827000D01*
X80528336Y-126827000D01*
X80558045Y-126824074D01*
X80613111Y-126818651D01*
X80657770Y-126805103D01*
X80721876Y-126785657D01*
X80822115Y-126732079D01*
X80909974Y-126659974D01*
X80928039Y-126637962D01*
X80983405Y-126582596D01*
X81038771Y-126637962D01*
X81056836Y-126659974D01*
X81144695Y-126732079D01*
X81244934Y-126785657D01*
X81289592Y-126799204D01*
X81353698Y-126818651D01*
X81411696Y-126824363D01*
X81438474Y-126827000D01*
X81438479Y-126827000D01*
X81466810Y-126829790D01*
X81495141Y-126827000D01*
X90471669Y-126827000D01*
X90500000Y-126829790D01*
X90528331Y-126827000D01*
X90528336Y-126827000D01*
X90558045Y-126824074D01*
X90613111Y-126818651D01*
X90657770Y-126805103D01*
X90721876Y-126785657D01*
X90822115Y-126732079D01*
X90909974Y-126659974D01*
X90928039Y-126637962D01*
X93489001Y-124077000D01*
X93581452Y-124077000D01*
X93741227Y-124045218D01*
X93891731Y-123982877D01*
X94027181Y-123892372D01*
X94142372Y-123777181D01*
X94232877Y-123641731D01*
X94295218Y-123491227D01*
X94327000Y-123331452D01*
X94327000Y-123168548D01*
X94295218Y-123008773D01*
X94232877Y-122858269D01*
X94142372Y-122722819D01*
X94027181Y-122607628D01*
X93891731Y-122517123D01*
X93741227Y-122454782D01*
X93581452Y-122423000D01*
X93418548Y-122423000D01*
X93258773Y-122454782D01*
X93108269Y-122517123D01*
X92972819Y-122607628D01*
X92857628Y-122722819D01*
X92767123Y-122858269D01*
X92704782Y-123008773D01*
X92673000Y-123168548D01*
X92673000Y-123260999D01*
X90260999Y-125673000D01*
X81859811Y-125673000D01*
X82850703Y-124682108D01*
X82855263Y-124728409D01*
X82883968Y-124823037D01*
X82930583Y-124910246D01*
X82993315Y-124986685D01*
X83069754Y-125049417D01*
X83156963Y-125096032D01*
X83251591Y-125124737D01*
X83350000Y-125134429D01*
X83926500Y-125132000D01*
X84052000Y-125006500D01*
X84052000Y-124428000D01*
X84548000Y-124428000D01*
X84548000Y-125006500D01*
X84673500Y-125132000D01*
X85250000Y-125134429D01*
X85348409Y-125124737D01*
X85443037Y-125096032D01*
X85530246Y-125049417D01*
X85606685Y-124986685D01*
X85669417Y-124910246D01*
X85716032Y-124823037D01*
X85744737Y-124728409D01*
X85754429Y-124630000D01*
X85752000Y-124553500D01*
X85626500Y-124428000D01*
X84548000Y-124428000D01*
X84052000Y-124428000D01*
X84032000Y-124428000D01*
X84032000Y-123932000D01*
X84052000Y-123932000D01*
X84052000Y-123808728D01*
X84069610Y-123791118D01*
X84077319Y-123848458D01*
X84227585Y-123897221D01*
X84384478Y-123915731D01*
X84541966Y-123903278D01*
X84548000Y-123901574D01*
X84548000Y-123932000D01*
X85626500Y-123932000D01*
X85752000Y-123806500D01*
X85754429Y-123730000D01*
X85744737Y-123631591D01*
X85716032Y-123536963D01*
X85669417Y-123449754D01*
X85606685Y-123373315D01*
X85530246Y-123310583D01*
X85443037Y-123263968D01*
X85348409Y-123235263D01*
X85250000Y-123225571D01*
X85193899Y-123225807D01*
X85205731Y-123125522D01*
X85193278Y-122968034D01*
X85150339Y-122816001D01*
X85138458Y-122787319D01*
X84987619Y-122767040D01*
X84985000Y-122769659D01*
X84850000Y-122634659D01*
X84782825Y-122701835D01*
X84673166Y-122592176D01*
X84742960Y-122522381D01*
X84722681Y-122371542D01*
X84677000Y-122356718D01*
X84677000Y-122318397D01*
X84666349Y-122264849D01*
X84673500Y-122272000D01*
X85112861Y-122273851D01*
X85161835Y-122322825D01*
X85094659Y-122390000D01*
X85437619Y-122732960D01*
X85588458Y-122712681D01*
X85637221Y-122562415D01*
X85655731Y-122405522D01*
X85643278Y-122248034D01*
X85608411Y-122124582D01*
X85669417Y-122050246D01*
X85716032Y-121963037D01*
X85744737Y-121868409D01*
X85754429Y-121770000D01*
X85752000Y-121693500D01*
X85626500Y-121568000D01*
X84548000Y-121568000D01*
X84548000Y-121588000D01*
X84052000Y-121588000D01*
X84052000Y-121568000D01*
X82973500Y-121568000D01*
X82853696Y-121687804D01*
X82837942Y-121690938D01*
X82705636Y-121745741D01*
X82600000Y-121816324D01*
X82494364Y-121745741D01*
X82362058Y-121690938D01*
X82221603Y-121663000D01*
X82078397Y-121663000D01*
X81937942Y-121690938D01*
X81805636Y-121745741D01*
X81700000Y-121816324D01*
X81629784Y-121769407D01*
X81887963Y-121511228D01*
X81909974Y-121493164D01*
X81982079Y-121405305D01*
X82029115Y-121317306D01*
X82035657Y-121305067D01*
X82068651Y-121196302D01*
X82079791Y-121083190D01*
X82077000Y-121054851D01*
X82077000Y-120870000D01*
X82845571Y-120870000D01*
X82848000Y-120946500D01*
X82973500Y-121072000D01*
X84052000Y-121072000D01*
X84052000Y-120493500D01*
X84548000Y-120493500D01*
X84548000Y-121072000D01*
X85626500Y-121072000D01*
X85752000Y-120946500D01*
X85754429Y-120870000D01*
X85744737Y-120771591D01*
X85716032Y-120676963D01*
X85669417Y-120589754D01*
X85606685Y-120513315D01*
X85530246Y-120450583D01*
X85443037Y-120403968D01*
X85348409Y-120375263D01*
X85250000Y-120365571D01*
X84673500Y-120368000D01*
X84548000Y-120493500D01*
X84052000Y-120493500D01*
X83926500Y-120368000D01*
X83350000Y-120365571D01*
X83251591Y-120375263D01*
X83156963Y-120403968D01*
X83069754Y-120450583D01*
X82993315Y-120513315D01*
X82930583Y-120589754D01*
X82883968Y-120676963D01*
X82855263Y-120771591D01*
X82845571Y-120870000D01*
X82077000Y-120870000D01*
X82077000Y-120278328D01*
X82079790Y-120249999D01*
X82077000Y-120221670D01*
X82077000Y-120221664D01*
X82068650Y-120136888D01*
X82035657Y-120028124D01*
X81982079Y-119927885D01*
X81944405Y-119881980D01*
X81928037Y-119862035D01*
X81928035Y-119862033D01*
X81909974Y-119840026D01*
X81887967Y-119821965D01*
X81178039Y-119112038D01*
X81159974Y-119090026D01*
X81072115Y-119017921D01*
X80971876Y-118964343D01*
X80907770Y-118944897D01*
X80863111Y-118931349D01*
X80823737Y-118927472D01*
X80840137Y-118873409D01*
X80849829Y-118775000D01*
X86241771Y-118775000D01*
X86251463Y-118873409D01*
X86280168Y-118968037D01*
X86326783Y-119055246D01*
X86389515Y-119131685D01*
X86465954Y-119194417D01*
X86553163Y-119241032D01*
X86647791Y-119269737D01*
X86746200Y-119279429D01*
X88277700Y-119277000D01*
X88403200Y-119151500D01*
X88403200Y-118007000D01*
X88899200Y-118007000D01*
X88899200Y-119151500D01*
X89024700Y-119277000D01*
X90556200Y-119279429D01*
X90654609Y-119269737D01*
X90749237Y-119241032D01*
X90836446Y-119194417D01*
X90912885Y-119131685D01*
X90975617Y-119055246D01*
X91022232Y-118968037D01*
X91050937Y-118873409D01*
X91060629Y-118775000D01*
X91058200Y-118132500D01*
X90932700Y-118007000D01*
X88899200Y-118007000D01*
X88403200Y-118007000D01*
X86369700Y-118007000D01*
X86244200Y-118132500D01*
X86241771Y-118775000D01*
X80849829Y-118775000D01*
X80847400Y-118132500D01*
X80721900Y-118007000D01*
X78688400Y-118007000D01*
X78688400Y-118027000D01*
X78192400Y-118027000D01*
X78192400Y-118007000D01*
X76158900Y-118007000D01*
X76033400Y-118132500D01*
X76030971Y-118775000D01*
X76040663Y-118873409D01*
X76064866Y-118953197D01*
X76028124Y-118964343D01*
X75927885Y-119017921D01*
X75882405Y-119055246D01*
X75862035Y-119071963D01*
X75862033Y-119071965D01*
X75840026Y-119090026D01*
X75821965Y-119112033D01*
X75452000Y-119481999D01*
X75452000Y-116743000D01*
X76030971Y-116743000D01*
X76033400Y-117385500D01*
X76158900Y-117511000D01*
X78192400Y-117511000D01*
X78192400Y-116366500D01*
X78688400Y-116366500D01*
X78688400Y-117511000D01*
X80721900Y-117511000D01*
X80847400Y-117385500D01*
X80849829Y-116743000D01*
X86241771Y-116743000D01*
X86244200Y-117385500D01*
X86369700Y-117511000D01*
X88403200Y-117511000D01*
X88403200Y-116366500D01*
X88899200Y-116366500D01*
X88899200Y-117511000D01*
X90932700Y-117511000D01*
X91058200Y-117385500D01*
X91060629Y-116743000D01*
X91050937Y-116644591D01*
X91022232Y-116549963D01*
X90975617Y-116462754D01*
X90912885Y-116386315D01*
X90836446Y-116323583D01*
X90749237Y-116276968D01*
X90654609Y-116248263D01*
X90556200Y-116238571D01*
X89024700Y-116241000D01*
X88899200Y-116366500D01*
X88403200Y-116366500D01*
X88277700Y-116241000D01*
X86746200Y-116238571D01*
X86647791Y-116248263D01*
X86553163Y-116276968D01*
X86465954Y-116323583D01*
X86389515Y-116386315D01*
X86326783Y-116462754D01*
X86280168Y-116549963D01*
X86251463Y-116644591D01*
X86241771Y-116743000D01*
X80849829Y-116743000D01*
X80840137Y-116644591D01*
X80811432Y-116549963D01*
X80764817Y-116462754D01*
X80702085Y-116386315D01*
X80625646Y-116323583D01*
X80538437Y-116276968D01*
X80443809Y-116248263D01*
X80345400Y-116238571D01*
X78813900Y-116241000D01*
X78688400Y-116366500D01*
X78192400Y-116366500D01*
X78066900Y-116241000D01*
X76535400Y-116238571D01*
X76436991Y-116248263D01*
X76342363Y-116276968D01*
X76255154Y-116323583D01*
X76178715Y-116386315D01*
X76115983Y-116462754D01*
X76069368Y-116549963D01*
X76040663Y-116644591D01*
X76030971Y-116743000D01*
X75452000Y-116743000D01*
X75452000Y-101757000D01*
X76030971Y-101757000D01*
X76040663Y-101855409D01*
X76069368Y-101950037D01*
X76115983Y-102037246D01*
X76178715Y-102113685D01*
X76255154Y-102176417D01*
X76342363Y-102223032D01*
X76436991Y-102251737D01*
X76535400Y-102261429D01*
X78066900Y-102259000D01*
X78192400Y-102133500D01*
X78192400Y-100989000D01*
X78688400Y-100989000D01*
X78688400Y-102133500D01*
X78813900Y-102259000D01*
X80345400Y-102261429D01*
X80443809Y-102251737D01*
X80538437Y-102223032D01*
X80625646Y-102176417D01*
X80702085Y-102113685D01*
X80764817Y-102037246D01*
X80811432Y-101950037D01*
X80840137Y-101855409D01*
X80849829Y-101757000D01*
X80847400Y-101114500D01*
X80721900Y-100989000D01*
X78688400Y-100989000D01*
X78192400Y-100989000D01*
X76158900Y-100989000D01*
X76033400Y-101114500D01*
X76030971Y-101757000D01*
X75452000Y-101757000D01*
X75452000Y-99275000D01*
X76030971Y-99275000D01*
X76040663Y-99373409D01*
X76069368Y-99468037D01*
X76086453Y-99500000D01*
X76069368Y-99531963D01*
X76040663Y-99626591D01*
X76030971Y-99725000D01*
X76033400Y-100367500D01*
X76158900Y-100493000D01*
X78192400Y-100493000D01*
X78192400Y-98507000D01*
X78688400Y-98507000D01*
X78688400Y-100493000D01*
X80721900Y-100493000D01*
X80847400Y-100367500D01*
X80849829Y-99725000D01*
X80840137Y-99626591D01*
X80811432Y-99531963D01*
X80794347Y-99500000D01*
X80811432Y-99468037D01*
X80840137Y-99373409D01*
X80849829Y-99275000D01*
X80847400Y-98632500D01*
X80721900Y-98507000D01*
X78688400Y-98507000D01*
X78192400Y-98507000D01*
X76158900Y-98507000D01*
X76033400Y-98632500D01*
X76030971Y-99275000D01*
X75452000Y-99275000D01*
X75452000Y-97243000D01*
X76030971Y-97243000D01*
X76033400Y-97885500D01*
X76158900Y-98011000D01*
X78192400Y-98011000D01*
X78192400Y-96866500D01*
X78688400Y-96866500D01*
X78688400Y-98011000D01*
X80721900Y-98011000D01*
X80847400Y-97885500D01*
X80849829Y-97243000D01*
X80840137Y-97144591D01*
X80811432Y-97049963D01*
X80764817Y-96962754D01*
X80702085Y-96886315D01*
X80625646Y-96823583D01*
X80538437Y-96776968D01*
X80443809Y-96748263D01*
X80345400Y-96738571D01*
X78813900Y-96741000D01*
X78688400Y-96866500D01*
X78192400Y-96866500D01*
X78066900Y-96741000D01*
X76535400Y-96738571D01*
X76436991Y-96748263D01*
X76342363Y-96776968D01*
X76255154Y-96823583D01*
X76178715Y-96886315D01*
X76115983Y-96962754D01*
X76069368Y-97049963D01*
X76040663Y-97144591D01*
X76030971Y-97243000D01*
X75452000Y-97243000D01*
X75452000Y-82257000D01*
X76030971Y-82257000D01*
X76040663Y-82355409D01*
X76069368Y-82450037D01*
X76115983Y-82537246D01*
X76178715Y-82613685D01*
X76255154Y-82676417D01*
X76342363Y-82723032D01*
X76436991Y-82751737D01*
X76535400Y-82761429D01*
X78066900Y-82759000D01*
X78192400Y-82633500D01*
X78192400Y-81489000D01*
X78688400Y-81489000D01*
X78688400Y-82633500D01*
X78813900Y-82759000D01*
X80345400Y-82761429D01*
X80443809Y-82751737D01*
X80538437Y-82723032D01*
X80625646Y-82676417D01*
X80702085Y-82613685D01*
X80764817Y-82537246D01*
X80811432Y-82450037D01*
X80840137Y-82355409D01*
X80849829Y-82257000D01*
X80847400Y-81614500D01*
X80721900Y-81489000D01*
X78688400Y-81489000D01*
X78192400Y-81489000D01*
X76158900Y-81489000D01*
X76033400Y-81614500D01*
X76030971Y-82257000D01*
X75452000Y-82257000D01*
X75452000Y-80225000D01*
X76030971Y-80225000D01*
X76033400Y-80867500D01*
X76158900Y-80993000D01*
X78192400Y-80993000D01*
X78192400Y-79848500D01*
X78688400Y-79848500D01*
X78688400Y-80993000D01*
X80721900Y-80993000D01*
X80847400Y-80867500D01*
X80849829Y-80225000D01*
X80840137Y-80126591D01*
X80811432Y-80031963D01*
X80794348Y-80000000D01*
X81817306Y-80000000D01*
X81823000Y-80057812D01*
X81823001Y-113942178D01*
X81817306Y-114000000D01*
X81840031Y-114230731D01*
X81907334Y-114452597D01*
X82008771Y-114642372D01*
X82016627Y-114657070D01*
X82163710Y-114836291D01*
X82208618Y-114873146D01*
X83126857Y-115791387D01*
X83163709Y-115836291D01*
X83208612Y-115873142D01*
X83208614Y-115873144D01*
X83232854Y-115893037D01*
X83342930Y-115983374D01*
X83547403Y-116092667D01*
X83769268Y-116159969D01*
X84000000Y-116182694D01*
X84057812Y-116177000D01*
X91512472Y-116177000D01*
X95126853Y-119791382D01*
X95163709Y-119836291D01*
X95342930Y-119983374D01*
X95547403Y-120092667D01*
X95769268Y-120159969D01*
X95942188Y-120177000D01*
X95942197Y-120177000D01*
X95999999Y-120182693D01*
X96057801Y-120177000D01*
X110510474Y-120177000D01*
X113624855Y-123291382D01*
X113661711Y-123336291D01*
X113840932Y-123483374D01*
X114045405Y-123592667D01*
X114267270Y-123659969D01*
X114440190Y-123677000D01*
X114440199Y-123677000D01*
X114498001Y-123682693D01*
X114555803Y-123677000D01*
X136012472Y-123677000D01*
X138823000Y-126487529D01*
X138823000Y-127398441D01*
X138795218Y-127258773D01*
X138732877Y-127108269D01*
X138642372Y-126972819D01*
X138527181Y-126857628D01*
X138391731Y-126767123D01*
X138241227Y-126704782D01*
X138081452Y-126673000D01*
X137918548Y-126673000D01*
X137758773Y-126704782D01*
X137608269Y-126767123D01*
X137524643Y-126823000D01*
X136533241Y-126823000D01*
X136499999Y-126819726D01*
X136466757Y-126823000D01*
X136466748Y-126823000D01*
X136367285Y-126832796D01*
X136239670Y-126871508D01*
X136122059Y-126934372D01*
X136018973Y-127018973D01*
X135997774Y-127044804D01*
X132719578Y-130323000D01*
X123280422Y-130323000D01*
X119814840Y-126857418D01*
X119795218Y-126758773D01*
X119732877Y-126608269D01*
X119642372Y-126472819D01*
X119527181Y-126357628D01*
X119391731Y-126267123D01*
X119241227Y-126204782D01*
X119081452Y-126173000D01*
X118918548Y-126173000D01*
X118758773Y-126204782D01*
X118608269Y-126267123D01*
X118472819Y-126357628D01*
X118357628Y-126472819D01*
X118267123Y-126608269D01*
X118204782Y-126758773D01*
X118173000Y-126918548D01*
X118173000Y-127081452D01*
X118204782Y-127241227D01*
X118267123Y-127391731D01*
X118357628Y-127527181D01*
X118472819Y-127642372D01*
X118608269Y-127732877D01*
X118758773Y-127795218D01*
X118857418Y-127814840D01*
X122497774Y-131455196D01*
X122518973Y-131481027D01*
X122622059Y-131565628D01*
X122739670Y-131628492D01*
X122867285Y-131667204D01*
X122966748Y-131677000D01*
X122966757Y-131677000D01*
X122999999Y-131680274D01*
X123033241Y-131677000D01*
X132966755Y-131677000D01*
X133000000Y-131680274D01*
X133033245Y-131677000D01*
X133033252Y-131677000D01*
X133132715Y-131667204D01*
X133260330Y-131628492D01*
X133377941Y-131565628D01*
X133481027Y-131481027D01*
X133502226Y-131455196D01*
X136780422Y-128177000D01*
X137524643Y-128177000D01*
X137608269Y-128232877D01*
X137758773Y-128295218D01*
X137918548Y-128327000D01*
X138081452Y-128327000D01*
X138241227Y-128295218D01*
X138391731Y-128232877D01*
X138527181Y-128142372D01*
X138642372Y-128027181D01*
X138732877Y-127891731D01*
X138795218Y-127741227D01*
X138823000Y-127601559D01*
X138823001Y-129742188D01*
X138823000Y-133942188D01*
X138817306Y-134000000D01*
X138823000Y-134057811D01*
X138840031Y-134230731D01*
X138879750Y-134361668D01*
X137308610Y-132790528D01*
X137263923Y-132736077D01*
X137046634Y-132557752D01*
X136798731Y-132425245D01*
X136529741Y-132343648D01*
X136320098Y-132323000D01*
X136320088Y-132323000D01*
X136250000Y-132316097D01*
X136179912Y-132323000D01*
X118320087Y-132323000D01*
X118249999Y-132316097D01*
X118179911Y-132323000D01*
X118179902Y-132323000D01*
X117970259Y-132343648D01*
X117701269Y-132425245D01*
X117453366Y-132557752D01*
X117453364Y-132557753D01*
X117453365Y-132557753D01*
X117290525Y-132691392D01*
X117290522Y-132691395D01*
X117236077Y-132736077D01*
X117191395Y-132790522D01*
X114408918Y-135573000D01*
X97929902Y-135573000D01*
X97720259Y-135593648D01*
X97451269Y-135675245D01*
X97203366Y-135807752D01*
X96986077Y-135986077D01*
X96807752Y-136203366D01*
X96677000Y-136447986D01*
X96677000Y-134530422D01*
X97955196Y-133252226D01*
X97981027Y-133231027D01*
X98047524Y-133150000D01*
X111220934Y-133150000D01*
X111220934Y-134850000D01*
X111229178Y-134933707D01*
X111253595Y-135014196D01*
X111293245Y-135088376D01*
X111346605Y-135153395D01*
X111411624Y-135206755D01*
X111485804Y-135246405D01*
X111566293Y-135270822D01*
X111650000Y-135279066D01*
X113350000Y-135279066D01*
X113433707Y-135270822D01*
X113514196Y-135246405D01*
X113588376Y-135206755D01*
X113653395Y-135153395D01*
X113706755Y-135088376D01*
X113746405Y-135014196D01*
X113770822Y-134933707D01*
X113779066Y-134850000D01*
X113779066Y-133150000D01*
X113770822Y-133066293D01*
X113746405Y-132985804D01*
X113706755Y-132911624D01*
X113653395Y-132846605D01*
X113588376Y-132793245D01*
X113514196Y-132753595D01*
X113433707Y-132729178D01*
X113350000Y-132720934D01*
X112706544Y-132720934D01*
X112872487Y-132687926D01*
X113104886Y-132591663D01*
X113314040Y-132451911D01*
X113491911Y-132274040D01*
X113583478Y-132137000D01*
X120006755Y-132137000D01*
X120040000Y-132140274D01*
X120073245Y-132137000D01*
X120073252Y-132137000D01*
X120172715Y-132127204D01*
X120300330Y-132088492D01*
X120417941Y-132025628D01*
X120521027Y-131941027D01*
X120542226Y-131915196D01*
X120642582Y-131814840D01*
X120741227Y-131795218D01*
X120891731Y-131732877D01*
X121027181Y-131642372D01*
X121142372Y-131527181D01*
X121232877Y-131391731D01*
X121295218Y-131241227D01*
X121327000Y-131081452D01*
X121327000Y-130918548D01*
X121295218Y-130758773D01*
X121232877Y-130608269D01*
X121142372Y-130472819D01*
X121027181Y-130357628D01*
X120891731Y-130267123D01*
X120741227Y-130204782D01*
X120581452Y-130173000D01*
X120418548Y-130173000D01*
X120258773Y-130204782D01*
X120108269Y-130267123D01*
X119972819Y-130357628D01*
X119857628Y-130472819D01*
X119767123Y-130608269D01*
X119704782Y-130758773D01*
X119699963Y-130783000D01*
X113583478Y-130783000D01*
X113491911Y-130645960D01*
X113314040Y-130468089D01*
X113104886Y-130328337D01*
X112872487Y-130232074D01*
X112625774Y-130183000D01*
X112374226Y-130183000D01*
X112127513Y-130232074D01*
X111895114Y-130328337D01*
X111685960Y-130468089D01*
X111508089Y-130645960D01*
X111368337Y-130855114D01*
X111272074Y-131087513D01*
X111223000Y-131334226D01*
X111223000Y-131585774D01*
X111272074Y-131832487D01*
X111368337Y-132064886D01*
X111508089Y-132274040D01*
X111685960Y-132451911D01*
X111895114Y-132591663D01*
X112127513Y-132687926D01*
X112293456Y-132720934D01*
X111650000Y-132720934D01*
X111566293Y-132729178D01*
X111485804Y-132753595D01*
X111411624Y-132793245D01*
X111346605Y-132846605D01*
X111293245Y-132911624D01*
X111253595Y-132985804D01*
X111229178Y-133066293D01*
X111220934Y-133150000D01*
X98047524Y-133150000D01*
X98065628Y-133127941D01*
X98128492Y-133010330D01*
X98167204Y-132882715D01*
X98177000Y-132783252D01*
X98177000Y-132783243D01*
X98180274Y-132750001D01*
X98177000Y-132716759D01*
X98177000Y-130783252D01*
X98180275Y-130750000D01*
X98167204Y-130617285D01*
X98128492Y-130489670D01*
X98065628Y-130372059D01*
X98002224Y-130294802D01*
X98002222Y-130294800D01*
X97981026Y-130268973D01*
X97955200Y-130247778D01*
X97645653Y-129938231D01*
X97615629Y-129882060D01*
X97531027Y-129778974D01*
X97505201Y-129757779D01*
X97029066Y-129281644D01*
X97029066Y-128110000D01*
X97020822Y-128026293D01*
X96996405Y-127945804D01*
X96956755Y-127871624D01*
X96903395Y-127806605D01*
X96838376Y-127753245D01*
X96764196Y-127713595D01*
X96683707Y-127689178D01*
X96600000Y-127680934D01*
X94900000Y-127680934D01*
X94816293Y-127689178D01*
X94735804Y-127713595D01*
X94661624Y-127753245D01*
X94596605Y-127806605D01*
X94543245Y-127871624D01*
X94503595Y-127945804D01*
X94479178Y-128026293D01*
X94470934Y-128110000D01*
X94470934Y-129810000D01*
X94479178Y-129893707D01*
X94503595Y-129974196D01*
X94543245Y-130048376D01*
X94596605Y-130113395D01*
X94661624Y-130166755D01*
X94735804Y-130206405D01*
X94816293Y-130230822D01*
X94900000Y-130239066D01*
X95265831Y-130239066D01*
X95169428Y-130278989D01*
X94942376Y-130415714D01*
X94746361Y-130594108D01*
X94588915Y-130807315D01*
X94476089Y-131047141D01*
X94546430Y-131252000D01*
X95502000Y-131252000D01*
X95502000Y-131232000D01*
X95998000Y-131232000D01*
X95998000Y-131252000D01*
X96018000Y-131252000D01*
X96018000Y-131748000D01*
X95998000Y-131748000D01*
X95998000Y-132701165D01*
X96202857Y-132773901D01*
X96330572Y-132721011D01*
X96557624Y-132584286D01*
X96753639Y-132405892D01*
X96823001Y-132311965D01*
X96823001Y-132469577D01*
X95544800Y-133747778D01*
X95518973Y-133768974D01*
X95497778Y-133794800D01*
X95497776Y-133794802D01*
X95474635Y-133823000D01*
X95434372Y-133872060D01*
X95371508Y-133989671D01*
X95332796Y-134117286D01*
X95323000Y-134216749D01*
X95323000Y-134216755D01*
X95319726Y-134250000D01*
X95323000Y-134283245D01*
X95323001Y-138216746D01*
X95319726Y-138250000D01*
X95332796Y-138382714D01*
X95371508Y-138510329D01*
X95434372Y-138627940D01*
X95497776Y-138705198D01*
X95497779Y-138705201D01*
X95518974Y-138731027D01*
X95544800Y-138752222D01*
X96997774Y-140205196D01*
X97018973Y-140231027D01*
X97122059Y-140315628D01*
X97239670Y-140378492D01*
X97367285Y-140417204D01*
X97466748Y-140427000D01*
X97466757Y-140427000D01*
X97499999Y-140430274D01*
X97533241Y-140427000D01*
X125219578Y-140427000D01*
X125823000Y-141030423D01*
X125823001Y-146716745D01*
X125819726Y-146750000D01*
X125832796Y-146882714D01*
X125871508Y-147010329D01*
X125934372Y-147127940D01*
X125997776Y-147205198D01*
X125997779Y-147205201D01*
X126018974Y-147231027D01*
X126044799Y-147252221D01*
X126497778Y-147705201D01*
X126518973Y-147731027D01*
X126544799Y-147752222D01*
X126544801Y-147752224D01*
X126622059Y-147815628D01*
X126739670Y-147878492D01*
X126867285Y-147917204D01*
X127000000Y-147930275D01*
X127033252Y-147927000D01*
X176466755Y-147927000D01*
X176500000Y-147930274D01*
X176533245Y-147927000D01*
X176533252Y-147927000D01*
X176632715Y-147917204D01*
X176760330Y-147878492D01*
X176877941Y-147815628D01*
X176981027Y-147731027D01*
X177002226Y-147705196D01*
X179455206Y-145252217D01*
X179481026Y-145231027D01*
X179502218Y-145205205D01*
X179502224Y-145205199D01*
X179565628Y-145127941D01*
X179593205Y-145076348D01*
X179642372Y-145027181D01*
X179732877Y-144891731D01*
X179795218Y-144741227D01*
X179827000Y-144581452D01*
X179827000Y-144418548D01*
X179795218Y-144258773D01*
X179732877Y-144108269D01*
X179642372Y-143972819D01*
X179527181Y-143857628D01*
X179391731Y-143767123D01*
X179241227Y-143704782D01*
X179081452Y-143673000D01*
X178918548Y-143673000D01*
X178758773Y-143704782D01*
X178608269Y-143767123D01*
X178472819Y-143857628D01*
X178357628Y-143972819D01*
X178267123Y-144108269D01*
X178204782Y-144258773D01*
X178173000Y-144418548D01*
X178173000Y-144581452D01*
X178179325Y-144613252D01*
X176219578Y-146573000D01*
X127280423Y-146573000D01*
X127177000Y-146469578D01*
X127177000Y-140783252D01*
X127180275Y-140750000D01*
X127167204Y-140617285D01*
X127128492Y-140489670D01*
X127065628Y-140372059D01*
X127002224Y-140294801D01*
X127002218Y-140294795D01*
X126981026Y-140268973D01*
X126955205Y-140247782D01*
X126002226Y-139294804D01*
X125981027Y-139268973D01*
X125877941Y-139184372D01*
X125760330Y-139121508D01*
X125632715Y-139082796D01*
X125533252Y-139073000D01*
X125533245Y-139073000D01*
X125500000Y-139069726D01*
X125466755Y-139073000D01*
X97780422Y-139073000D01*
X96677000Y-137969578D01*
X96677000Y-137552014D01*
X96807752Y-137796634D01*
X96986077Y-138013923D01*
X97203366Y-138192248D01*
X97451269Y-138324755D01*
X97720259Y-138406352D01*
X97929902Y-138427000D01*
X114929912Y-138427000D01*
X115000000Y-138433903D01*
X115070088Y-138427000D01*
X115070098Y-138427000D01*
X115279741Y-138406352D01*
X115548731Y-138324755D01*
X115796634Y-138192248D01*
X116013923Y-138013923D01*
X116058609Y-137959473D01*
X118841083Y-135177000D01*
X135658918Y-135177000D01*
X138790525Y-138308607D01*
X138953365Y-138442247D01*
X139201267Y-138574754D01*
X139470258Y-138656351D01*
X139749999Y-138683903D01*
X140029741Y-138656351D01*
X140244165Y-138591306D01*
X137126857Y-141708615D01*
X137016626Y-141842931D01*
X136907334Y-142047403D01*
X136840031Y-142269269D01*
X136817306Y-142500000D01*
X136840031Y-142730731D01*
X136907334Y-142952597D01*
X137016626Y-143157069D01*
X137163710Y-143336290D01*
X137342931Y-143483374D01*
X137547403Y-143592666D01*
X137769269Y-143659969D01*
X138000000Y-143682694D01*
X138230731Y-143659969D01*
X138452597Y-143592666D01*
X138657069Y-143483374D01*
X138791385Y-143373143D01*
X142791384Y-139373145D01*
X142836291Y-139336291D01*
X142983374Y-139157070D01*
X143092667Y-138952597D01*
X143159969Y-138730732D01*
X143177000Y-138557812D01*
X143177000Y-138557803D01*
X143182693Y-138500001D01*
X143177000Y-138442199D01*
X143177000Y-136057812D01*
X143182694Y-136000000D01*
X143159969Y-135769268D01*
X143125934Y-135657070D01*
X143092667Y-135547403D01*
X142983374Y-135342930D01*
X142930962Y-135279066D01*
X142873144Y-135208614D01*
X142873142Y-135208612D01*
X142836291Y-135163709D01*
X142791387Y-135126857D01*
X141914240Y-134249711D01*
X141914236Y-134249706D01*
X141750294Y-134085764D01*
X141750293Y-134085764D01*
X141177000Y-133512471D01*
X141177000Y-126057801D01*
X141182693Y-125999999D01*
X141177000Y-125942197D01*
X141177000Y-125942188D01*
X141159969Y-125769268D01*
X141092667Y-125547403D01*
X140983374Y-125342930D01*
X140836291Y-125163709D01*
X140791384Y-125126855D01*
X137373151Y-121708623D01*
X137336291Y-121663709D01*
X137157070Y-121516626D01*
X136952597Y-121407333D01*
X136730732Y-121340031D01*
X136557812Y-121323000D01*
X136500000Y-121317306D01*
X136442188Y-121323000D01*
X114985531Y-121323000D01*
X114393935Y-120731404D01*
X114527181Y-120642372D01*
X114642372Y-120527181D01*
X114732877Y-120391731D01*
X114795218Y-120241227D01*
X114807994Y-120177000D01*
X114987655Y-120177000D01*
X114997625Y-120209868D01*
X115060377Y-120327269D01*
X115144828Y-120430172D01*
X115247731Y-120514623D01*
X115365132Y-120577375D01*
X115492520Y-120616018D01*
X115624999Y-120629066D01*
X116275001Y-120629066D01*
X116407480Y-120616018D01*
X116534868Y-120577375D01*
X116652269Y-120514623D01*
X116755172Y-120430172D01*
X116839623Y-120327269D01*
X116902375Y-120209868D01*
X116920953Y-120148624D01*
X116920571Y-120200000D01*
X116930263Y-120298409D01*
X116958968Y-120393037D01*
X117005583Y-120480246D01*
X117068315Y-120556685D01*
X117144754Y-120619417D01*
X117231963Y-120666032D01*
X117326591Y-120694737D01*
X117425000Y-120704429D01*
X117626500Y-120702000D01*
X117752000Y-120576500D01*
X117752000Y-119748000D01*
X118248000Y-119748000D01*
X118248000Y-120576500D01*
X118373500Y-120702000D01*
X118575000Y-120704429D01*
X118673409Y-120694737D01*
X118768037Y-120666032D01*
X118855246Y-120619417D01*
X118931685Y-120556685D01*
X118994417Y-120480246D01*
X119041032Y-120393037D01*
X119069737Y-120298409D01*
X119079429Y-120200000D01*
X119077000Y-119873500D01*
X118951500Y-119748000D01*
X118248000Y-119748000D01*
X117752000Y-119748000D01*
X117732000Y-119748000D01*
X117732000Y-119252000D01*
X117752000Y-119252000D01*
X117752000Y-118423500D01*
X118248000Y-118423500D01*
X118248000Y-119252000D01*
X118951500Y-119252000D01*
X119077000Y-119126500D01*
X119079429Y-118800000D01*
X119069737Y-118701591D01*
X119041032Y-118606963D01*
X118994417Y-118519754D01*
X118931685Y-118443315D01*
X118855246Y-118380583D01*
X118768037Y-118333968D01*
X118673409Y-118305263D01*
X118575000Y-118295571D01*
X118373500Y-118298000D01*
X118248000Y-118423500D01*
X117752000Y-118423500D01*
X117626500Y-118298000D01*
X117425000Y-118295571D01*
X117326591Y-118305263D01*
X117231963Y-118333968D01*
X117144754Y-118380583D01*
X117068315Y-118443315D01*
X117005583Y-118519754D01*
X116958968Y-118606963D01*
X116930263Y-118701591D01*
X116920571Y-118800000D01*
X116920953Y-118851376D01*
X116902375Y-118790132D01*
X116839623Y-118672731D01*
X116755172Y-118569828D01*
X116652269Y-118485377D01*
X116534868Y-118422625D01*
X116407480Y-118383982D01*
X116275001Y-118370934D01*
X115624999Y-118370934D01*
X115492520Y-118383982D01*
X115365132Y-118422625D01*
X115247731Y-118485377D01*
X115144828Y-118569828D01*
X115060377Y-118672731D01*
X114997625Y-118790132D01*
X114987655Y-118823000D01*
X114533252Y-118823000D01*
X114500000Y-118819725D01*
X114367285Y-118832796D01*
X114239670Y-118871508D01*
X114122059Y-118934372D01*
X114096683Y-118955198D01*
X114018973Y-119018973D01*
X113997778Y-119044799D01*
X113857417Y-119185160D01*
X113758773Y-119204782D01*
X113608269Y-119267123D01*
X113472819Y-119357628D01*
X113357628Y-119472819D01*
X113268596Y-119606065D01*
X111871153Y-118208623D01*
X111834293Y-118163709D01*
X111655072Y-118016626D01*
X111450599Y-117907333D01*
X111228734Y-117840031D01*
X111055814Y-117823000D01*
X110998002Y-117817306D01*
X110940190Y-117823000D01*
X96487529Y-117823000D01*
X94364529Y-115700000D01*
X114870571Y-115700000D01*
X114880263Y-115798409D01*
X114908968Y-115893037D01*
X114955583Y-115980246D01*
X115018315Y-116056685D01*
X115094754Y-116119417D01*
X115181963Y-116166032D01*
X115276591Y-116194737D01*
X115375000Y-116204429D01*
X115576500Y-116202000D01*
X115702000Y-116076500D01*
X115702000Y-115248000D01*
X114998500Y-115248000D01*
X114873000Y-115373500D01*
X114870571Y-115700000D01*
X94364529Y-115700000D01*
X92964529Y-114300000D01*
X114870571Y-114300000D01*
X114873000Y-114626500D01*
X114998500Y-114752000D01*
X115702000Y-114752000D01*
X115702000Y-113923500D01*
X115576500Y-113798000D01*
X115375000Y-113795571D01*
X115276591Y-113805263D01*
X115181963Y-113833968D01*
X115094754Y-113880583D01*
X115018315Y-113943315D01*
X114955583Y-114019754D01*
X114908968Y-114106963D01*
X114880263Y-114201591D01*
X114870571Y-114300000D01*
X92964529Y-114300000D01*
X92873151Y-114208623D01*
X92836291Y-114163709D01*
X92657070Y-114016626D01*
X92452597Y-113907333D01*
X92230732Y-113840031D01*
X92057812Y-113823000D01*
X92000000Y-113817306D01*
X91942188Y-113823000D01*
X84487529Y-113823000D01*
X84177000Y-113512471D01*
X84177000Y-112918548D01*
X115673000Y-112918548D01*
X115673000Y-113081452D01*
X115704782Y-113241227D01*
X115767123Y-113391731D01*
X115857628Y-113527181D01*
X115972819Y-113642372D01*
X116108269Y-113732877D01*
X116258773Y-113795218D01*
X116315081Y-113806419D01*
X116198000Y-113923500D01*
X116198000Y-114752000D01*
X116218000Y-114752000D01*
X116218000Y-115248000D01*
X116198000Y-115248000D01*
X116198000Y-116076500D01*
X116323500Y-116202000D01*
X116525000Y-116204429D01*
X116623409Y-116194737D01*
X116718037Y-116166032D01*
X116805246Y-116119417D01*
X116881685Y-116056685D01*
X116944417Y-115980246D01*
X116991032Y-115893037D01*
X117019737Y-115798409D01*
X117029429Y-115700000D01*
X117029047Y-115648624D01*
X117047625Y-115709868D01*
X117110377Y-115827269D01*
X117194828Y-115930172D01*
X117297731Y-116014623D01*
X117323000Y-116028130D01*
X117323000Y-116524643D01*
X117267123Y-116608269D01*
X117204782Y-116758773D01*
X117173000Y-116918548D01*
X117173000Y-117081452D01*
X117204782Y-117241227D01*
X117267123Y-117391731D01*
X117357628Y-117527181D01*
X117472819Y-117642372D01*
X117608269Y-117732877D01*
X117758773Y-117795218D01*
X117918548Y-117827000D01*
X118081452Y-117827000D01*
X118241227Y-117795218D01*
X118391731Y-117732877D01*
X118527181Y-117642372D01*
X118642372Y-117527181D01*
X118732877Y-117391731D01*
X118795218Y-117241227D01*
X118827000Y-117081452D01*
X118827000Y-116918548D01*
X118795218Y-116758773D01*
X118732877Y-116608269D01*
X118677000Y-116524643D01*
X118677000Y-116028130D01*
X118702269Y-116014623D01*
X118805172Y-115930172D01*
X118889623Y-115827269D01*
X118952375Y-115709868D01*
X118991018Y-115582480D01*
X119004066Y-115450001D01*
X119004066Y-114549999D01*
X118991018Y-114417520D01*
X118952375Y-114290132D01*
X118889623Y-114172731D01*
X118805172Y-114069828D01*
X118702269Y-113985377D01*
X118584868Y-113922625D01*
X118457480Y-113883982D01*
X118325001Y-113870934D01*
X117674999Y-113870934D01*
X117542520Y-113883982D01*
X117415132Y-113922625D01*
X117297731Y-113985377D01*
X117194828Y-114069828D01*
X117110377Y-114172731D01*
X117047625Y-114290132D01*
X117029047Y-114351376D01*
X117029429Y-114300000D01*
X117019737Y-114201591D01*
X116991032Y-114106963D01*
X116944417Y-114019754D01*
X116881685Y-113943315D01*
X116805246Y-113880583D01*
X116718037Y-113833968D01*
X116650070Y-113813351D01*
X116741227Y-113795218D01*
X116891731Y-113732877D01*
X116975357Y-113677000D01*
X120719578Y-113677000D01*
X124497774Y-117455196D01*
X124518973Y-117481027D01*
X124622059Y-117565628D01*
X124739670Y-117628492D01*
X124867285Y-117667204D01*
X124966748Y-117677000D01*
X124966757Y-117677000D01*
X124999999Y-117680274D01*
X125033241Y-117677000D01*
X145466755Y-117677000D01*
X145500000Y-117680274D01*
X145533245Y-117677000D01*
X145533252Y-117677000D01*
X145632715Y-117667204D01*
X145760330Y-117628492D01*
X145877941Y-117565628D01*
X145981027Y-117481027D01*
X146002226Y-117455196D01*
X146538874Y-116918548D01*
X148173000Y-116918548D01*
X148173000Y-117081452D01*
X148204782Y-117241227D01*
X148267123Y-117391731D01*
X148323000Y-117475357D01*
X148323001Y-120966746D01*
X148319726Y-121000000D01*
X148332796Y-121132714D01*
X148371508Y-121260329D01*
X148434372Y-121377940D01*
X148497776Y-121455198D01*
X148497779Y-121455201D01*
X148518974Y-121481027D01*
X148544800Y-121502222D01*
X169497778Y-142455201D01*
X169518973Y-142481027D01*
X169544799Y-142502222D01*
X169544801Y-142502224D01*
X169622059Y-142565628D01*
X169739670Y-142628492D01*
X169867285Y-142667204D01*
X170000000Y-142680275D01*
X170033252Y-142677000D01*
X184524643Y-142677000D01*
X184608269Y-142732877D01*
X184758773Y-142795218D01*
X184918548Y-142827000D01*
X185081452Y-142827000D01*
X185241227Y-142795218D01*
X185391731Y-142732877D01*
X185527181Y-142642372D01*
X185642372Y-142527181D01*
X185732877Y-142391731D01*
X185795218Y-142241227D01*
X185827000Y-142081452D01*
X185827000Y-141918548D01*
X185795218Y-141758773D01*
X185732877Y-141608269D01*
X185642372Y-141472819D01*
X185527181Y-141357628D01*
X185391731Y-141267123D01*
X185241227Y-141204782D01*
X185081452Y-141173000D01*
X184918548Y-141173000D01*
X184758773Y-141204782D01*
X184608269Y-141267123D01*
X184524643Y-141323000D01*
X170280423Y-141323000D01*
X149677000Y-120719578D01*
X149677000Y-119918548D01*
X150673000Y-119918548D01*
X150673000Y-120081452D01*
X150704782Y-120241227D01*
X150767123Y-120391731D01*
X150857628Y-120527181D01*
X150972819Y-120642372D01*
X151108269Y-120732877D01*
X151258773Y-120795218D01*
X151357418Y-120814840D01*
X166497774Y-135955196D01*
X166518973Y-135981027D01*
X166622059Y-136065628D01*
X166739670Y-136128492D01*
X166867285Y-136167204D01*
X166966748Y-136177000D01*
X166966757Y-136177000D01*
X166999999Y-136180274D01*
X167033241Y-136177000D01*
X168024643Y-136177000D01*
X168108269Y-136232877D01*
X168258773Y-136295218D01*
X168418548Y-136327000D01*
X168581452Y-136327000D01*
X168741227Y-136295218D01*
X168891731Y-136232877D01*
X169027181Y-136142372D01*
X169142372Y-136027181D01*
X169232877Y-135891731D01*
X169295218Y-135741227D01*
X169327000Y-135581452D01*
X169327000Y-135418548D01*
X169295218Y-135258773D01*
X169232877Y-135108269D01*
X169142372Y-134972819D01*
X169027181Y-134857628D01*
X168891731Y-134767123D01*
X168741227Y-134704782D01*
X168581452Y-134673000D01*
X168418548Y-134673000D01*
X168258773Y-134704782D01*
X168108269Y-134767123D01*
X168024643Y-134823000D01*
X167280422Y-134823000D01*
X165134422Y-132677000D01*
X168024643Y-132677000D01*
X168108269Y-132732877D01*
X168258773Y-132795218D01*
X168418548Y-132827000D01*
X168581452Y-132827000D01*
X168741227Y-132795218D01*
X168891731Y-132732877D01*
X169027181Y-132642372D01*
X169142372Y-132527181D01*
X169232877Y-132391731D01*
X169295218Y-132241227D01*
X169327000Y-132081452D01*
X169327000Y-131918548D01*
X169295218Y-131758773D01*
X169232877Y-131608269D01*
X169142372Y-131472819D01*
X169027181Y-131357628D01*
X168891731Y-131267123D01*
X168741227Y-131204782D01*
X168581452Y-131173000D01*
X168418548Y-131173000D01*
X168258773Y-131204782D01*
X168108269Y-131267123D01*
X168024643Y-131323000D01*
X165280423Y-131323000D01*
X153314840Y-119357418D01*
X153304268Y-119304268D01*
X153357418Y-119314840D01*
X158497778Y-124455201D01*
X158518973Y-124481027D01*
X158544799Y-124502222D01*
X158544801Y-124502224D01*
X158622059Y-124565628D01*
X158739670Y-124628492D01*
X158867285Y-124667204D01*
X159000000Y-124680275D01*
X159033252Y-124677000D01*
X181219578Y-124677000D01*
X183823000Y-127280423D01*
X183823001Y-133466745D01*
X183819726Y-133500000D01*
X183832796Y-133632714D01*
X183871508Y-133760329D01*
X183934372Y-133877940D01*
X183997776Y-133955198D01*
X183997779Y-133955201D01*
X184018974Y-133981027D01*
X184044800Y-134002222D01*
X184685160Y-134642583D01*
X184704782Y-134741227D01*
X184767123Y-134891731D01*
X184857628Y-135027181D01*
X184972819Y-135142372D01*
X185108269Y-135232877D01*
X185258773Y-135295218D01*
X185418548Y-135327000D01*
X185581452Y-135327000D01*
X185741227Y-135295218D01*
X185891731Y-135232877D01*
X186027181Y-135142372D01*
X186142372Y-135027181D01*
X186232877Y-134891731D01*
X186295218Y-134741227D01*
X186327000Y-134581452D01*
X186327000Y-134418548D01*
X186295218Y-134258773D01*
X186232877Y-134108269D01*
X186142372Y-133972819D01*
X186027181Y-133857628D01*
X185891731Y-133767123D01*
X185741227Y-133704782D01*
X185642583Y-133685160D01*
X185177000Y-133219578D01*
X185177000Y-127033252D01*
X185180275Y-127000000D01*
X185167204Y-126867285D01*
X185128492Y-126739670D01*
X185065628Y-126622059D01*
X185002224Y-126544801D01*
X185002218Y-126544795D01*
X184981026Y-126518973D01*
X184955206Y-126497783D01*
X182134422Y-123677000D01*
X183219578Y-123677000D01*
X185185160Y-125642583D01*
X185204782Y-125741227D01*
X185267123Y-125891731D01*
X185357628Y-126027181D01*
X185472819Y-126142372D01*
X185608269Y-126232877D01*
X185758773Y-126295218D01*
X185918548Y-126327000D01*
X186081452Y-126327000D01*
X186241227Y-126295218D01*
X186391731Y-126232877D01*
X186527181Y-126142372D01*
X186642372Y-126027181D01*
X186732877Y-125891731D01*
X186795218Y-125741227D01*
X186827000Y-125581452D01*
X186827000Y-125418548D01*
X186795218Y-125258773D01*
X186732877Y-125108269D01*
X186642372Y-124972819D01*
X186527181Y-124857628D01*
X186391731Y-124767123D01*
X186241227Y-124704782D01*
X186142583Y-124685160D01*
X184002226Y-122544804D01*
X183981027Y-122518973D01*
X183877941Y-122434372D01*
X183760330Y-122371508D01*
X183632715Y-122332796D01*
X183533252Y-122323000D01*
X183533245Y-122323000D01*
X183500000Y-122319726D01*
X183466755Y-122323000D01*
X163761346Y-122323000D01*
X163795218Y-122241227D01*
X163827000Y-122081452D01*
X163827000Y-121918548D01*
X163795218Y-121758773D01*
X163732877Y-121608269D01*
X163642372Y-121472819D01*
X163527181Y-121357628D01*
X163391731Y-121267123D01*
X163241227Y-121204782D01*
X163142582Y-121185160D01*
X160002226Y-118044804D01*
X159981027Y-118018973D01*
X159877941Y-117934372D01*
X159760330Y-117871508D01*
X159632715Y-117832796D01*
X159533252Y-117823000D01*
X159533245Y-117823000D01*
X159500000Y-117819726D01*
X159466755Y-117823000D01*
X156975357Y-117823000D01*
X156891731Y-117767123D01*
X156741227Y-117704782D01*
X156581452Y-117673000D01*
X156418548Y-117673000D01*
X156258773Y-117704782D01*
X156108269Y-117767123D01*
X155972819Y-117857628D01*
X155857628Y-117972819D01*
X155767123Y-118108269D01*
X155708125Y-118250703D01*
X155314840Y-117857418D01*
X155295218Y-117758773D01*
X155232877Y-117608269D01*
X155142372Y-117472819D01*
X155027181Y-117357628D01*
X154891731Y-117267123D01*
X154741227Y-117204782D01*
X154581452Y-117173000D01*
X154418548Y-117173000D01*
X154258773Y-117204782D01*
X154108269Y-117267123D01*
X153972819Y-117357628D01*
X153857628Y-117472819D01*
X153767123Y-117608269D01*
X153728218Y-117702194D01*
X153581452Y-117673000D01*
X153418548Y-117673000D01*
X153258773Y-117704782D01*
X153108269Y-117767123D01*
X152972819Y-117857628D01*
X152857628Y-117972819D01*
X152767123Y-118108269D01*
X152704782Y-118258773D01*
X152673000Y-118418548D01*
X152673000Y-118581452D01*
X152695732Y-118695732D01*
X152581452Y-118673000D01*
X152418548Y-118673000D01*
X152258773Y-118704782D01*
X152108269Y-118767123D01*
X151972819Y-118857628D01*
X151857628Y-118972819D01*
X151767123Y-119108269D01*
X151728218Y-119202194D01*
X151581452Y-119173000D01*
X151418548Y-119173000D01*
X151258773Y-119204782D01*
X151108269Y-119267123D01*
X150972819Y-119357628D01*
X150857628Y-119472819D01*
X150767123Y-119608269D01*
X150704782Y-119758773D01*
X150673000Y-119918548D01*
X149677000Y-119918548D01*
X149677000Y-117475357D01*
X149732877Y-117391731D01*
X149795218Y-117241227D01*
X149827000Y-117081452D01*
X149827000Y-116918548D01*
X149795218Y-116758773D01*
X149732877Y-116608269D01*
X149642372Y-116472819D01*
X149527181Y-116357628D01*
X149391731Y-116267123D01*
X149241227Y-116204782D01*
X149081452Y-116173000D01*
X148918548Y-116173000D01*
X148758773Y-116204782D01*
X148608269Y-116267123D01*
X148472819Y-116357628D01*
X148357628Y-116472819D01*
X148267123Y-116608269D01*
X148204782Y-116758773D01*
X148173000Y-116918548D01*
X146538874Y-116918548D01*
X148038874Y-115418548D01*
X156673000Y-115418548D01*
X156673000Y-115581452D01*
X156704782Y-115741227D01*
X156767123Y-115891731D01*
X156857628Y-116027181D01*
X156972819Y-116142372D01*
X157108269Y-116232877D01*
X157258773Y-116295218D01*
X157357418Y-116314840D01*
X157997778Y-116955201D01*
X158018973Y-116981027D01*
X158044799Y-117002222D01*
X158044801Y-117002224D01*
X158122059Y-117065628D01*
X158239670Y-117128492D01*
X158367285Y-117167204D01*
X158500000Y-117180275D01*
X158533252Y-117177000D01*
X159719578Y-117177000D01*
X164497778Y-121955201D01*
X164518973Y-121981027D01*
X164544799Y-122002222D01*
X164544801Y-122002224D01*
X164622059Y-122065628D01*
X164739670Y-122128492D01*
X164867285Y-122167204D01*
X165000000Y-122180275D01*
X165033252Y-122177000D01*
X183466755Y-122177000D01*
X183500000Y-122180274D01*
X183533245Y-122177000D01*
X183533252Y-122177000D01*
X183632715Y-122167204D01*
X183760330Y-122128492D01*
X183877941Y-122065628D01*
X183981027Y-121981027D01*
X184002226Y-121955196D01*
X185642582Y-120314840D01*
X185741227Y-120295218D01*
X185891731Y-120232877D01*
X186027181Y-120142372D01*
X186142372Y-120027181D01*
X186232877Y-119891731D01*
X186295218Y-119741227D01*
X186327000Y-119581452D01*
X186327000Y-119418548D01*
X186295218Y-119258773D01*
X186232877Y-119108269D01*
X186142372Y-118972819D01*
X186027181Y-118857628D01*
X185891731Y-118767123D01*
X185741227Y-118704782D01*
X185581452Y-118673000D01*
X185418548Y-118673000D01*
X185258773Y-118704782D01*
X185108269Y-118767123D01*
X184972819Y-118857628D01*
X184857628Y-118972819D01*
X184767123Y-119108269D01*
X184704782Y-119258773D01*
X184685160Y-119357418D01*
X183219578Y-120823000D01*
X165280423Y-120823000D01*
X160502226Y-116044804D01*
X160481027Y-116018973D01*
X160377941Y-115934372D01*
X160260330Y-115871508D01*
X160132715Y-115832796D01*
X160033252Y-115823000D01*
X160033245Y-115823000D01*
X160000000Y-115819726D01*
X159966755Y-115823000D01*
X158780423Y-115823000D01*
X158314840Y-115357418D01*
X158295218Y-115258773D01*
X158232877Y-115108269D01*
X158142372Y-114972819D01*
X158027181Y-114857628D01*
X157891731Y-114767123D01*
X157741227Y-114704782D01*
X157581452Y-114673000D01*
X157418548Y-114673000D01*
X157258773Y-114704782D01*
X157108269Y-114767123D01*
X156972819Y-114857628D01*
X156857628Y-114972819D01*
X156767123Y-115108269D01*
X156704782Y-115258773D01*
X156673000Y-115418548D01*
X148038874Y-115418548D01*
X150780423Y-112677000D01*
X165966755Y-112677000D01*
X166000000Y-112680274D01*
X166033245Y-112677000D01*
X166033252Y-112677000D01*
X166132715Y-112667204D01*
X166260330Y-112628492D01*
X166377941Y-112565628D01*
X166481027Y-112481027D01*
X166502226Y-112455196D01*
X172184528Y-106772894D01*
X183511000Y-106772894D01*
X183511000Y-107007106D01*
X183556693Y-107236818D01*
X183646322Y-107453203D01*
X183776443Y-107647943D01*
X183942057Y-107813557D01*
X184136797Y-107943678D01*
X184353182Y-108033307D01*
X184582894Y-108079000D01*
X184817106Y-108079000D01*
X185046818Y-108033307D01*
X185263203Y-107943678D01*
X185457943Y-107813557D01*
X185623557Y-107647943D01*
X185753678Y-107453203D01*
X185843307Y-107236818D01*
X185889000Y-107007106D01*
X185889000Y-106772894D01*
X185843307Y-106543182D01*
X185753678Y-106326797D01*
X185623557Y-106132057D01*
X185457943Y-105966443D01*
X185263203Y-105836322D01*
X185046818Y-105746693D01*
X184817106Y-105701000D01*
X184582894Y-105701000D01*
X184353182Y-105746693D01*
X184136797Y-105836322D01*
X183942057Y-105966443D01*
X183776443Y-106132057D01*
X183646322Y-106326797D01*
X183556693Y-106543182D01*
X183511000Y-106772894D01*
X172184528Y-106772894D01*
X174955196Y-104002226D01*
X174981027Y-103981027D01*
X175065628Y-103877941D01*
X175128492Y-103760330D01*
X175167204Y-103632715D01*
X175177000Y-103533252D01*
X175177000Y-103533243D01*
X175180274Y-103500001D01*
X175177000Y-103466759D01*
X175177000Y-97882894D01*
X183511000Y-97882894D01*
X183511000Y-98117106D01*
X183556693Y-98346818D01*
X183646322Y-98563203D01*
X183776443Y-98757943D01*
X183942057Y-98923557D01*
X184136797Y-99053678D01*
X184353182Y-99143307D01*
X184582894Y-99189000D01*
X184817106Y-99189000D01*
X185046818Y-99143307D01*
X185263203Y-99053678D01*
X185457943Y-98923557D01*
X185623557Y-98757943D01*
X185753678Y-98563203D01*
X185843307Y-98346818D01*
X185889000Y-98117106D01*
X185889000Y-97882894D01*
X185843307Y-97653182D01*
X185753678Y-97436797D01*
X185623557Y-97242057D01*
X185457943Y-97076443D01*
X185263203Y-96946322D01*
X185046818Y-96856693D01*
X184817106Y-96811000D01*
X184582894Y-96811000D01*
X184353182Y-96856693D01*
X184136797Y-96946322D01*
X183942057Y-97076443D01*
X183776443Y-97242057D01*
X183646322Y-97436797D01*
X183556693Y-97653182D01*
X183511000Y-97882894D01*
X175177000Y-97882894D01*
X175177000Y-88992894D01*
X183511000Y-88992894D01*
X183511000Y-89227106D01*
X183556693Y-89456818D01*
X183646322Y-89673203D01*
X183776443Y-89867943D01*
X183942057Y-90033557D01*
X184136797Y-90163678D01*
X184353182Y-90253307D01*
X184582894Y-90299000D01*
X184817106Y-90299000D01*
X185046818Y-90253307D01*
X185263203Y-90163678D01*
X185457943Y-90033557D01*
X185623557Y-89867943D01*
X185753678Y-89673203D01*
X185843307Y-89456818D01*
X185889000Y-89227106D01*
X185889000Y-88992894D01*
X185843307Y-88763182D01*
X185753678Y-88546797D01*
X185623557Y-88352057D01*
X185457943Y-88186443D01*
X185263203Y-88056322D01*
X185046818Y-87966693D01*
X184817106Y-87921000D01*
X184582894Y-87921000D01*
X184353182Y-87966693D01*
X184136797Y-88056322D01*
X183942057Y-88186443D01*
X183776443Y-88352057D01*
X183646322Y-88546797D01*
X183556693Y-88763182D01*
X183511000Y-88992894D01*
X175177000Y-88992894D01*
X175177000Y-85975357D01*
X175232877Y-85891731D01*
X175295218Y-85741227D01*
X175327000Y-85581452D01*
X175327000Y-85418548D01*
X175295218Y-85258773D01*
X175232877Y-85108269D01*
X175142372Y-84972819D01*
X175027181Y-84857628D01*
X174891731Y-84767123D01*
X174741227Y-84704782D01*
X174581452Y-84673000D01*
X174418548Y-84673000D01*
X174258773Y-84704782D01*
X174108269Y-84767123D01*
X173972819Y-84857628D01*
X173857628Y-84972819D01*
X173767123Y-85108269D01*
X173704782Y-85258773D01*
X173673000Y-85418548D01*
X173673000Y-85581452D01*
X173704782Y-85741227D01*
X173767123Y-85891731D01*
X173823000Y-85975357D01*
X173823001Y-103219577D01*
X165719578Y-111323000D01*
X153761346Y-111323000D01*
X153795218Y-111241227D01*
X153827000Y-111081452D01*
X153827000Y-110918548D01*
X153795218Y-110758773D01*
X153732877Y-110608269D01*
X153642372Y-110472819D01*
X153527181Y-110357628D01*
X153391731Y-110267123D01*
X153241227Y-110204782D01*
X153142583Y-110185160D01*
X150812925Y-107855502D01*
X158685223Y-107855502D01*
X158768450Y-108043538D01*
X159003707Y-108125073D01*
X159250351Y-108159145D01*
X159498903Y-108144445D01*
X159739811Y-108081537D01*
X159831550Y-108043538D01*
X159914777Y-107855502D01*
X159300000Y-107240725D01*
X158685223Y-107855502D01*
X150812925Y-107855502D01*
X150502226Y-107544804D01*
X150481027Y-107518973D01*
X150377941Y-107434372D01*
X150260330Y-107371508D01*
X150132715Y-107332796D01*
X150033252Y-107323000D01*
X150033245Y-107323000D01*
X150000000Y-107319726D01*
X149966755Y-107323000D01*
X141533252Y-107323000D01*
X141500000Y-107319725D01*
X141466748Y-107323000D01*
X141367285Y-107332796D01*
X141239670Y-107371508D01*
X141122059Y-107434372D01*
X141018973Y-107518973D01*
X140997778Y-107544799D01*
X140544806Y-107997772D01*
X140544801Y-107997776D01*
X139857418Y-108685160D01*
X139758773Y-108704782D01*
X139608269Y-108767123D01*
X139472819Y-108857628D01*
X139357628Y-108972819D01*
X139267123Y-109108269D01*
X139204782Y-109258773D01*
X139173000Y-109418548D01*
X139173000Y-109581452D01*
X139204782Y-109741227D01*
X139267123Y-109891731D01*
X139357628Y-110027181D01*
X139472819Y-110142372D01*
X139608269Y-110232877D01*
X139758773Y-110295218D01*
X139918548Y-110327000D01*
X140081452Y-110327000D01*
X140241227Y-110295218D01*
X140391731Y-110232877D01*
X140527181Y-110142372D01*
X140642372Y-110027181D01*
X140732877Y-109891731D01*
X140795218Y-109741227D01*
X140814840Y-109642582D01*
X141502224Y-108955199D01*
X141502228Y-108955194D01*
X141780423Y-108677000D01*
X149719578Y-108677000D01*
X152185160Y-111142583D01*
X152204782Y-111241227D01*
X152238654Y-111323000D01*
X150533252Y-111323000D01*
X150500000Y-111319725D01*
X150466748Y-111323000D01*
X150367285Y-111332796D01*
X150239670Y-111371508D01*
X150122059Y-111434372D01*
X150018973Y-111518973D01*
X149997778Y-111544799D01*
X147791875Y-113750702D01*
X147732877Y-113608269D01*
X147642372Y-113472819D01*
X147527181Y-113357628D01*
X147391731Y-113267123D01*
X147241227Y-113204782D01*
X147081452Y-113173000D01*
X146918548Y-113173000D01*
X146758773Y-113204782D01*
X146608269Y-113267123D01*
X146524643Y-113323000D01*
X142280423Y-113323000D01*
X135797774Y-106840351D01*
X158030855Y-106840351D01*
X158045555Y-107088903D01*
X158108463Y-107329811D01*
X158146462Y-107421550D01*
X158334498Y-107504777D01*
X158949275Y-106890000D01*
X159650725Y-106890000D01*
X160265502Y-107504777D01*
X160453538Y-107421550D01*
X160535073Y-107186293D01*
X160569145Y-106939649D01*
X160554445Y-106691097D01*
X160491537Y-106450189D01*
X160453538Y-106358450D01*
X160265502Y-106275223D01*
X159650725Y-106890000D01*
X158949275Y-106890000D01*
X158334498Y-106275223D01*
X158146462Y-106358450D01*
X158064927Y-106593707D01*
X158030855Y-106840351D01*
X135797774Y-106840351D01*
X134881921Y-105924498D01*
X158685223Y-105924498D01*
X159300000Y-106539275D01*
X159914777Y-105924498D01*
X159831550Y-105736462D01*
X159596293Y-105654927D01*
X159349649Y-105620855D01*
X159101097Y-105635555D01*
X158860189Y-105698463D01*
X158768450Y-105736462D01*
X158685223Y-105924498D01*
X134881921Y-105924498D01*
X133177000Y-104219578D01*
X133177000Y-100975357D01*
X133232877Y-100891731D01*
X133295218Y-100741227D01*
X133327000Y-100581452D01*
X133327000Y-100418548D01*
X133295218Y-100258773D01*
X133232877Y-100108269D01*
X133142372Y-99972819D01*
X133027181Y-99857628D01*
X132891731Y-99767123D01*
X132741227Y-99704782D01*
X132581452Y-99673000D01*
X132418548Y-99673000D01*
X132258773Y-99704782D01*
X132108269Y-99767123D01*
X132024643Y-99823000D01*
X129533252Y-99823000D01*
X129500000Y-99819725D01*
X129466748Y-99823000D01*
X129367285Y-99832796D01*
X129239670Y-99871508D01*
X129122059Y-99934372D01*
X129018973Y-100018973D01*
X128997778Y-100044799D01*
X126044801Y-102997777D01*
X126018974Y-103018973D01*
X125997779Y-103044799D01*
X125997776Y-103044802D01*
X125934372Y-103122060D01*
X125871508Y-103239671D01*
X125832796Y-103367286D01*
X125819726Y-103500000D01*
X125823001Y-103533252D01*
X125823000Y-105219578D01*
X122394801Y-108647777D01*
X122368975Y-108668972D01*
X122347780Y-108694798D01*
X122347777Y-108694801D01*
X122284373Y-108772059D01*
X122221509Y-108889670D01*
X122182797Y-109017285D01*
X122169727Y-109149999D01*
X122173002Y-109183253D01*
X122173001Y-110369576D01*
X121544803Y-110997775D01*
X121518973Y-111018973D01*
X121497776Y-111044802D01*
X121434372Y-111122060D01*
X121371508Y-111239671D01*
X121332796Y-111367286D01*
X121319726Y-111500000D01*
X121332796Y-111632714D01*
X121371508Y-111760329D01*
X121434372Y-111877940D01*
X121518973Y-111981027D01*
X121544802Y-112002224D01*
X121685160Y-112142582D01*
X121704782Y-112241227D01*
X121767123Y-112391731D01*
X121857628Y-112527181D01*
X121972819Y-112642372D01*
X122108269Y-112732877D01*
X122258773Y-112795218D01*
X122418548Y-112827000D01*
X122581452Y-112827000D01*
X122741227Y-112795218D01*
X122891731Y-112732877D01*
X123027181Y-112642372D01*
X123142372Y-112527181D01*
X123232877Y-112391731D01*
X123295218Y-112241227D01*
X123327000Y-112081452D01*
X123327000Y-111918548D01*
X123295218Y-111758773D01*
X123232877Y-111608269D01*
X123142372Y-111472819D01*
X123063488Y-111393935D01*
X123305206Y-111152217D01*
X123331027Y-111131026D01*
X123352219Y-111105204D01*
X123352225Y-111105198D01*
X123415629Y-111027940D01*
X123478493Y-110910329D01*
X123517205Y-110782714D01*
X123521444Y-110739670D01*
X123527001Y-110683251D01*
X123527001Y-110683244D01*
X123530275Y-110649999D01*
X123527001Y-110616754D01*
X123527001Y-109430421D01*
X126955200Y-106002222D01*
X126981026Y-105981027D01*
X127065628Y-105877941D01*
X127128492Y-105760330D01*
X127167204Y-105632715D01*
X127177000Y-105533252D01*
X127177000Y-105533243D01*
X127180274Y-105500001D01*
X127177000Y-105466759D01*
X127177000Y-103780422D01*
X129780423Y-101177000D01*
X131823001Y-101177000D01*
X131823000Y-104466755D01*
X131819726Y-104500000D01*
X131823000Y-104533245D01*
X131823000Y-104533251D01*
X131832796Y-104632714D01*
X131871508Y-104760329D01*
X131934372Y-104877940D01*
X132018973Y-104981026D01*
X132044800Y-105002222D01*
X141497778Y-114455201D01*
X141518973Y-114481027D01*
X141544799Y-114502222D01*
X141544801Y-114502224D01*
X141622059Y-114565628D01*
X141739670Y-114628492D01*
X141867285Y-114667204D01*
X142000000Y-114680275D01*
X142033252Y-114677000D01*
X146524643Y-114677000D01*
X146608269Y-114732877D01*
X146750703Y-114791875D01*
X145219578Y-116323000D01*
X125280422Y-116323000D01*
X121502226Y-112544804D01*
X121481027Y-112518973D01*
X121377941Y-112434372D01*
X121260330Y-112371508D01*
X121132715Y-112332796D01*
X121033252Y-112323000D01*
X121033245Y-112323000D01*
X121000000Y-112319726D01*
X120966755Y-112323000D01*
X116975357Y-112323000D01*
X116891731Y-112267123D01*
X116741227Y-112204782D01*
X116581452Y-112173000D01*
X116418548Y-112173000D01*
X116258773Y-112204782D01*
X116108269Y-112267123D01*
X115972819Y-112357628D01*
X115857628Y-112472819D01*
X115767123Y-112608269D01*
X115704782Y-112758773D01*
X115673000Y-112918548D01*
X84177000Y-112918548D01*
X84177000Y-109107877D01*
X90307000Y-109107877D01*
X90307000Y-109392123D01*
X90362454Y-109670908D01*
X90471230Y-109933517D01*
X90629149Y-110169859D01*
X90830141Y-110370851D01*
X91066483Y-110528770D01*
X91329092Y-110637546D01*
X91607877Y-110693000D01*
X91892123Y-110693000D01*
X92170908Y-110637546D01*
X92433517Y-110528770D01*
X92669859Y-110370851D01*
X92870851Y-110169859D01*
X93028770Y-109933517D01*
X93045400Y-109893369D01*
X93062030Y-109933517D01*
X93219949Y-110169859D01*
X93420941Y-110370851D01*
X93657283Y-110528770D01*
X93919892Y-110637546D01*
X94198677Y-110693000D01*
X94482923Y-110693000D01*
X94761708Y-110637546D01*
X95024317Y-110528770D01*
X95260659Y-110370851D01*
X95461651Y-110169859D01*
X95619570Y-109933517D01*
X95728346Y-109670908D01*
X95783800Y-109392123D01*
X95783800Y-109107877D01*
X95728346Y-108829092D01*
X95619570Y-108566483D01*
X95461651Y-108330141D01*
X95260659Y-108129149D01*
X95024317Y-107971230D01*
X94761708Y-107862454D01*
X94482923Y-107807000D01*
X94198677Y-107807000D01*
X93919892Y-107862454D01*
X93657283Y-107971230D01*
X93420941Y-108129149D01*
X93219949Y-108330141D01*
X93062030Y-108566483D01*
X93045400Y-108606631D01*
X93028770Y-108566483D01*
X92870851Y-108330141D01*
X92669859Y-108129149D01*
X92433517Y-107971230D01*
X92170908Y-107862454D01*
X91892123Y-107807000D01*
X91607877Y-107807000D01*
X91329092Y-107862454D01*
X91066483Y-107971230D01*
X90830141Y-108129149D01*
X90629149Y-108330141D01*
X90471230Y-108566483D01*
X90362454Y-108829092D01*
X90307000Y-109107877D01*
X84177000Y-109107877D01*
X84177000Y-101757000D01*
X86241771Y-101757000D01*
X86251463Y-101855409D01*
X86280168Y-101950037D01*
X86326783Y-102037246D01*
X86389515Y-102113685D01*
X86465954Y-102176417D01*
X86553163Y-102223032D01*
X86647791Y-102251737D01*
X86746200Y-102261429D01*
X88277700Y-102259000D01*
X88403200Y-102133500D01*
X88403200Y-100989000D01*
X88899200Y-100989000D01*
X88899200Y-102133500D01*
X89024700Y-102259000D01*
X90556200Y-102261429D01*
X90654609Y-102251737D01*
X90749237Y-102223032D01*
X90836446Y-102176417D01*
X90912885Y-102113685D01*
X90975617Y-102037246D01*
X91022232Y-101950037D01*
X91050937Y-101855409D01*
X91060629Y-101757000D01*
X91058200Y-101114500D01*
X90932700Y-100989000D01*
X88899200Y-100989000D01*
X88403200Y-100989000D01*
X86369700Y-100989000D01*
X86244200Y-101114500D01*
X86241771Y-101757000D01*
X84177000Y-101757000D01*
X84177000Y-99275000D01*
X86241771Y-99275000D01*
X86251463Y-99373409D01*
X86280168Y-99468037D01*
X86297253Y-99500000D01*
X86280168Y-99531963D01*
X86251463Y-99626591D01*
X86241771Y-99725000D01*
X86244200Y-100367500D01*
X86369700Y-100493000D01*
X88403200Y-100493000D01*
X88403200Y-98507000D01*
X88899200Y-98507000D01*
X88899200Y-100493000D01*
X90932700Y-100493000D01*
X91058200Y-100367500D01*
X91060629Y-99725000D01*
X91050937Y-99626591D01*
X91022232Y-99531963D01*
X91005147Y-99500000D01*
X91022232Y-99468037D01*
X91050937Y-99373409D01*
X91060629Y-99275000D01*
X91058200Y-98632500D01*
X90932700Y-98507000D01*
X88899200Y-98507000D01*
X88403200Y-98507000D01*
X86369700Y-98507000D01*
X86244200Y-98632500D01*
X86241771Y-99275000D01*
X84177000Y-99275000D01*
X84177000Y-97243000D01*
X86241771Y-97243000D01*
X86244200Y-97885500D01*
X86369700Y-98011000D01*
X88403200Y-98011000D01*
X88403200Y-96866500D01*
X88899200Y-96866500D01*
X88899200Y-98011000D01*
X90932700Y-98011000D01*
X91058200Y-97885500D01*
X91060629Y-97243000D01*
X91050937Y-97144591D01*
X91022232Y-97049963D01*
X90975617Y-96962754D01*
X90912885Y-96886315D01*
X90836446Y-96823583D01*
X90749237Y-96776968D01*
X90654609Y-96748263D01*
X90556200Y-96738571D01*
X89024700Y-96741000D01*
X88899200Y-96866500D01*
X88403200Y-96866500D01*
X88277700Y-96741000D01*
X86746200Y-96738571D01*
X86647791Y-96748263D01*
X86553163Y-96776968D01*
X86465954Y-96823583D01*
X86389515Y-96886315D01*
X86326783Y-96962754D01*
X86280168Y-97049963D01*
X86251463Y-97144591D01*
X86241771Y-97243000D01*
X84177000Y-97243000D01*
X84177000Y-94418548D01*
X112173000Y-94418548D01*
X112173000Y-94581452D01*
X112204782Y-94741227D01*
X112267123Y-94891731D01*
X112357628Y-95027181D01*
X112472819Y-95142372D01*
X112579368Y-95213566D01*
X115405044Y-98039243D01*
X115430157Y-98069843D01*
X115552277Y-98170065D01*
X115691603Y-98244536D01*
X115842780Y-98290395D01*
X115856215Y-98291718D01*
X115960606Y-98302000D01*
X115960614Y-98302000D01*
X116000000Y-98305879D01*
X116039386Y-98302000D01*
X124292868Y-98302000D01*
X124418548Y-98327000D01*
X124581452Y-98327000D01*
X124741227Y-98295218D01*
X124891731Y-98232877D01*
X125027181Y-98142372D01*
X125142372Y-98027181D01*
X125232877Y-97891731D01*
X125295218Y-97741227D01*
X125327000Y-97581452D01*
X125327000Y-97418548D01*
X125295218Y-97258773D01*
X125232877Y-97108269D01*
X125142372Y-96972819D01*
X125027181Y-96857628D01*
X124891731Y-96767123D01*
X124741227Y-96704782D01*
X124581452Y-96673000D01*
X124418548Y-96673000D01*
X124292868Y-96698000D01*
X116332199Y-96698000D01*
X113713566Y-94079368D01*
X113642372Y-93972819D01*
X113527181Y-93857628D01*
X113391731Y-93767123D01*
X113241227Y-93704782D01*
X113081452Y-93673000D01*
X112918548Y-93673000D01*
X112758773Y-93704782D01*
X112608269Y-93767123D01*
X112472819Y-93857628D01*
X112357628Y-93972819D01*
X112267123Y-94108269D01*
X112204782Y-94258773D01*
X112173000Y-94418548D01*
X84177000Y-94418548D01*
X84177000Y-89607877D01*
X90307000Y-89607877D01*
X90307000Y-89892123D01*
X90362454Y-90170908D01*
X90471230Y-90433517D01*
X90629149Y-90669859D01*
X90830141Y-90870851D01*
X91066483Y-91028770D01*
X91329092Y-91137546D01*
X91607877Y-91193000D01*
X91892123Y-91193000D01*
X92170908Y-91137546D01*
X92433517Y-91028770D01*
X92669859Y-90870851D01*
X92870851Y-90669859D01*
X93028770Y-90433517D01*
X93045400Y-90393369D01*
X93062030Y-90433517D01*
X93219949Y-90669859D01*
X93420941Y-90870851D01*
X93657283Y-91028770D01*
X93919892Y-91137546D01*
X94198677Y-91193000D01*
X94482923Y-91193000D01*
X94761708Y-91137546D01*
X95024317Y-91028770D01*
X95260659Y-90870851D01*
X95461651Y-90669859D01*
X95619570Y-90433517D01*
X95728346Y-90170908D01*
X95783800Y-89892123D01*
X95783800Y-89607877D01*
X95728346Y-89329092D01*
X95619570Y-89066483D01*
X95461651Y-88830141D01*
X95260659Y-88629149D01*
X95024317Y-88471230D01*
X94761708Y-88362454D01*
X94482923Y-88307000D01*
X94198677Y-88307000D01*
X93919892Y-88362454D01*
X93657283Y-88471230D01*
X93420941Y-88629149D01*
X93219949Y-88830141D01*
X93062030Y-89066483D01*
X93045400Y-89106631D01*
X93028770Y-89066483D01*
X92870851Y-88830141D01*
X92669859Y-88629149D01*
X92433517Y-88471230D01*
X92170908Y-88362454D01*
X91892123Y-88307000D01*
X91607877Y-88307000D01*
X91329092Y-88362454D01*
X91066483Y-88471230D01*
X90830141Y-88629149D01*
X90629149Y-88830141D01*
X90471230Y-89066483D01*
X90362454Y-89329092D01*
X90307000Y-89607877D01*
X84177000Y-89607877D01*
X84177000Y-82257000D01*
X86241771Y-82257000D01*
X86251463Y-82355409D01*
X86280168Y-82450037D01*
X86326783Y-82537246D01*
X86389515Y-82613685D01*
X86465954Y-82676417D01*
X86553163Y-82723032D01*
X86647791Y-82751737D01*
X86746200Y-82761429D01*
X88277700Y-82759000D01*
X88403200Y-82633500D01*
X88403200Y-81489000D01*
X88899200Y-81489000D01*
X88899200Y-82633500D01*
X89024700Y-82759000D01*
X90556200Y-82761429D01*
X90654609Y-82751737D01*
X90749237Y-82723032D01*
X90836446Y-82676417D01*
X90912885Y-82613685D01*
X90975617Y-82537246D01*
X91022232Y-82450037D01*
X91050937Y-82355409D01*
X91060629Y-82257000D01*
X91058200Y-81614500D01*
X90932700Y-81489000D01*
X88899200Y-81489000D01*
X88403200Y-81489000D01*
X86369700Y-81489000D01*
X86244200Y-81614500D01*
X86241771Y-82257000D01*
X84177000Y-82257000D01*
X84177000Y-80487528D01*
X84439528Y-80225000D01*
X86241771Y-80225000D01*
X86244200Y-80867500D01*
X86369700Y-80993000D01*
X88403200Y-80993000D01*
X88403200Y-79848500D01*
X88899200Y-79848500D01*
X88899200Y-80993000D01*
X90932700Y-80993000D01*
X91058200Y-80867500D01*
X91060629Y-80225000D01*
X91050937Y-80126591D01*
X91022232Y-80031963D01*
X90975617Y-79944754D01*
X90912885Y-79868315D01*
X90836446Y-79805583D01*
X90749237Y-79758968D01*
X90654609Y-79730263D01*
X90556200Y-79720571D01*
X89024700Y-79723000D01*
X88899200Y-79848500D01*
X88403200Y-79848500D01*
X88277700Y-79723000D01*
X86746200Y-79720571D01*
X86647791Y-79730263D01*
X86553163Y-79758968D01*
X86465954Y-79805583D01*
X86389515Y-79868315D01*
X86326783Y-79944754D01*
X86280168Y-80031963D01*
X86251463Y-80126591D01*
X86241771Y-80225000D01*
X84439528Y-80225000D01*
X84987529Y-79677000D01*
X121012472Y-79677000D01*
X124323001Y-82987530D01*
X124323000Y-86942187D01*
X124317306Y-87000000D01*
X124340031Y-87230732D01*
X124407333Y-87452597D01*
X124516626Y-87657070D01*
X124527291Y-87670065D01*
X124663709Y-87836291D01*
X124842930Y-87983374D01*
X125047403Y-88092667D01*
X125269268Y-88159969D01*
X125500000Y-88182694D01*
X125557812Y-88177000D01*
X138115924Y-88177000D01*
X138172920Y-88165663D01*
X138230732Y-88159969D01*
X138286321Y-88143106D01*
X138343318Y-88131769D01*
X138397009Y-88109529D01*
X138452597Y-88092667D01*
X138503827Y-88065284D01*
X138557519Y-88043044D01*
X138605840Y-88010757D01*
X138657070Y-87983374D01*
X138701973Y-87946523D01*
X138750294Y-87914236D01*
X138791388Y-87873142D01*
X138836291Y-87836291D01*
X138873142Y-87791388D01*
X138914236Y-87750294D01*
X138946523Y-87701973D01*
X138983374Y-87657070D01*
X139010757Y-87605840D01*
X139043044Y-87557519D01*
X139065284Y-87503827D01*
X139092667Y-87452597D01*
X139109529Y-87397009D01*
X139131769Y-87343318D01*
X139143106Y-87286321D01*
X139159969Y-87230732D01*
X139165663Y-87172920D01*
X139177000Y-87115924D01*
X139177000Y-87057811D01*
X139182694Y-87000000D01*
X139177000Y-86942188D01*
X139177000Y-86884076D01*
X139165663Y-86827080D01*
X139159969Y-86769268D01*
X139143106Y-86713679D01*
X139131769Y-86656682D01*
X139109529Y-86602991D01*
X139092667Y-86547403D01*
X139065284Y-86496173D01*
X139043044Y-86442481D01*
X139010757Y-86394160D01*
X138983374Y-86342930D01*
X138946523Y-86298027D01*
X138914236Y-86249706D01*
X138873142Y-86208612D01*
X138836291Y-86163709D01*
X138791388Y-86126858D01*
X138750294Y-86085764D01*
X138701973Y-86053477D01*
X138657070Y-86016626D01*
X138605840Y-85989243D01*
X138557519Y-85956956D01*
X138503827Y-85934716D01*
X138452597Y-85907333D01*
X138397009Y-85890471D01*
X138343318Y-85868231D01*
X138286321Y-85856894D01*
X138230732Y-85840031D01*
X138172920Y-85834337D01*
X138115924Y-85823000D01*
X126677000Y-85823000D01*
X126677000Y-82557801D01*
X126682693Y-82499999D01*
X126677000Y-82442197D01*
X126677000Y-82442188D01*
X126659969Y-82269268D01*
X126592667Y-82047403D01*
X126523793Y-81918548D01*
X142173000Y-81918548D01*
X142173000Y-82081452D01*
X142198001Y-82207137D01*
X142198000Y-83539393D01*
X142198001Y-83539403D01*
X142198000Y-86960614D01*
X142194121Y-87000000D01*
X142198000Y-87039386D01*
X142198000Y-87039393D01*
X142209605Y-87157218D01*
X142255464Y-87308396D01*
X142329935Y-87447722D01*
X142430157Y-87569843D01*
X142460762Y-87594960D01*
X142698001Y-87832199D01*
X142698000Y-93792867D01*
X142673000Y-93918548D01*
X142673000Y-94081452D01*
X142704782Y-94241227D01*
X142767123Y-94391731D01*
X142857628Y-94527181D01*
X142972819Y-94642372D01*
X143108269Y-94732877D01*
X143258773Y-94795218D01*
X143418548Y-94827000D01*
X143581452Y-94827000D01*
X143741227Y-94795218D01*
X143891731Y-94732877D01*
X144027181Y-94642372D01*
X144142372Y-94527181D01*
X144232877Y-94391731D01*
X144295218Y-94241227D01*
X144327000Y-94081452D01*
X144327000Y-93918548D01*
X144302000Y-93792868D01*
X144302000Y-88992894D01*
X158111000Y-88992894D01*
X158111000Y-89227106D01*
X158156693Y-89456818D01*
X158246322Y-89673203D01*
X158376443Y-89867943D01*
X158542057Y-90033557D01*
X158736797Y-90163678D01*
X158953182Y-90253307D01*
X159182894Y-90299000D01*
X159417106Y-90299000D01*
X159646818Y-90253307D01*
X159863203Y-90163678D01*
X160057943Y-90033557D01*
X160223557Y-89867943D01*
X160353678Y-89673203D01*
X160443307Y-89456818D01*
X160489000Y-89227106D01*
X160489000Y-88992894D01*
X160443307Y-88763182D01*
X160353678Y-88546797D01*
X160223557Y-88352057D01*
X160057943Y-88186443D01*
X159863203Y-88056322D01*
X159646818Y-87966693D01*
X159417106Y-87921000D01*
X159182894Y-87921000D01*
X158953182Y-87966693D01*
X158736797Y-88056322D01*
X158542057Y-88186443D01*
X158376443Y-88352057D01*
X158246322Y-88546797D01*
X158156693Y-88763182D01*
X158111000Y-88992894D01*
X144302000Y-88992894D01*
X144302000Y-87539386D01*
X144305879Y-87500000D01*
X144302000Y-87460614D01*
X144302000Y-87460606D01*
X144290395Y-87342781D01*
X144244536Y-87191603D01*
X144170065Y-87052277D01*
X144069843Y-86930157D01*
X144039238Y-86905040D01*
X143802000Y-86667802D01*
X143802000Y-82207132D01*
X143827000Y-82081452D01*
X143827000Y-81918548D01*
X143795218Y-81758773D01*
X143732877Y-81608269D01*
X143642372Y-81472819D01*
X143527181Y-81357628D01*
X143391731Y-81267123D01*
X143241227Y-81204782D01*
X143081452Y-81173000D01*
X142918548Y-81173000D01*
X142758773Y-81204782D01*
X142608269Y-81267123D01*
X142472819Y-81357628D01*
X142357628Y-81472819D01*
X142267123Y-81608269D01*
X142204782Y-81758773D01*
X142173000Y-81918548D01*
X126523793Y-81918548D01*
X126483374Y-81842930D01*
X126336291Y-81663709D01*
X126291382Y-81626853D01*
X122373151Y-77708623D01*
X122336291Y-77663709D01*
X122157070Y-77516626D01*
X121952597Y-77407333D01*
X121730732Y-77340031D01*
X121557812Y-77323000D01*
X121500000Y-77317306D01*
X121442188Y-77323000D01*
X84557801Y-77323000D01*
X84499999Y-77317307D01*
X84442197Y-77323000D01*
X84442188Y-77323000D01*
X84269268Y-77340031D01*
X84047403Y-77407333D01*
X83842930Y-77516626D01*
X83663709Y-77663709D01*
X83626853Y-77708618D01*
X82208623Y-79126849D01*
X82163709Y-79163709D01*
X82016626Y-79342931D01*
X81907333Y-79547404D01*
X81854067Y-79723000D01*
X81840031Y-79769269D01*
X81817306Y-80000000D01*
X80794348Y-80000000D01*
X80764817Y-79944754D01*
X80702085Y-79868315D01*
X80625646Y-79805583D01*
X80538437Y-79758968D01*
X80443809Y-79730263D01*
X80345400Y-79720571D01*
X78813900Y-79723000D01*
X78688400Y-79848500D01*
X78192400Y-79848500D01*
X78066900Y-79723000D01*
X76535400Y-79720571D01*
X76436991Y-79730263D01*
X76342363Y-79758968D01*
X76255154Y-79805583D01*
X76178715Y-79868315D01*
X76115983Y-79944754D01*
X76069368Y-80031963D01*
X76040663Y-80126591D01*
X76030971Y-80225000D01*
X75452000Y-80225000D01*
X75452000Y-75452000D01*
X194048000Y-75452000D01*
X194048001Y-149048000D01*
G37*
X194048001Y-149048000D02*
X75452000Y-149048000D01*
X75452000Y-145268145D01*
X77582580Y-145268145D01*
X77710803Y-145493103D01*
X78008686Y-145611343D01*
X78323911Y-145669197D01*
X78644367Y-145664442D01*
X78957737Y-145597261D01*
X79209197Y-145493103D01*
X79337420Y-145268145D01*
X82662580Y-145268145D01*
X82790803Y-145493103D01*
X83088686Y-145611343D01*
X83403911Y-145669197D01*
X83724367Y-145664442D01*
X84037737Y-145597261D01*
X84289197Y-145493103D01*
X84417420Y-145268145D01*
X83540000Y-144390725D01*
X82662580Y-145268145D01*
X79337420Y-145268145D01*
X78460000Y-144390725D01*
X77582580Y-145268145D01*
X75452000Y-145268145D01*
X75452000Y-143903911D01*
X76830803Y-143903911D01*
X76835558Y-144224367D01*
X76902739Y-144537737D01*
X77006897Y-144789197D01*
X77231855Y-144917420D01*
X78109275Y-144040000D01*
X78810725Y-144040000D01*
X79688145Y-144917420D01*
X79913103Y-144789197D01*
X80031343Y-144491314D01*
X80089197Y-144176089D01*
X80085159Y-143903911D01*
X81910803Y-143903911D01*
X81915558Y-144224367D01*
X81982739Y-144537737D01*
X82086897Y-144789197D01*
X82311855Y-144917420D01*
X83189275Y-144040000D01*
X83890725Y-144040000D01*
X84768145Y-144917420D01*
X84993103Y-144789197D01*
X85111343Y-144491314D01*
X85169197Y-144176089D01*
X85164442Y-143855633D01*
X85097261Y-143542263D01*
X84993103Y-143290803D01*
X84768145Y-143162580D01*
X83890725Y-144040000D01*
X83189275Y-144040000D01*
X82311855Y-143162580D01*
X82086897Y-143290803D01*
X81968657Y-143588686D01*
X81910803Y-143903911D01*
X80085159Y-143903911D01*
X80084442Y-143855633D01*
X80017261Y-143542263D01*
X79913103Y-143290803D01*
X79688145Y-143162580D01*
X78810725Y-144040000D01*
X78109275Y-144040000D01*
X77231855Y-143162580D01*
X77006897Y-143290803D01*
X76888657Y-143588686D01*
X76830803Y-143903911D01*
X75452000Y-143903911D01*
X75452000Y-142811855D01*
X77582580Y-142811855D01*
X78460000Y-143689275D01*
X79337420Y-142811855D01*
X79209197Y-142586897D01*
X78911314Y-142468657D01*
X78596089Y-142410803D01*
X78275633Y-142415558D01*
X77962263Y-142482739D01*
X77710803Y-142586897D01*
X77582580Y-142811855D01*
X75452000Y-142811855D01*
X75452000Y-141347141D01*
X79448000Y-141347141D01*
X79448000Y-141652859D01*
X79507643Y-141952702D01*
X79624636Y-142235147D01*
X79794483Y-142489342D01*
X80010658Y-142705517D01*
X80264853Y-142875364D01*
X80547298Y-142992357D01*
X80847141Y-143052000D01*
X81152859Y-143052000D01*
X81452702Y-142992357D01*
X81735147Y-142875364D01*
X81830195Y-142811855D01*
X82662580Y-142811855D01*
X83540000Y-143689275D01*
X84417420Y-142811855D01*
X84289197Y-142586897D01*
X83991314Y-142468657D01*
X83676089Y-142410803D01*
X83355633Y-142415558D01*
X83042263Y-142482739D01*
X82790803Y-142586897D01*
X82662580Y-142811855D01*
X81830195Y-142811855D01*
X81989342Y-142705517D01*
X82205517Y-142489342D01*
X82375364Y-142235147D01*
X82492357Y-141952702D01*
X82552000Y-141652859D01*
X82552000Y-141347141D01*
X82492357Y-141047298D01*
X82375364Y-140764853D01*
X82205517Y-140510658D01*
X81989342Y-140294483D01*
X81830196Y-140188145D01*
X82662580Y-140188145D01*
X82790803Y-140413103D01*
X83088686Y-140531343D01*
X83403911Y-140589197D01*
X83724367Y-140584442D01*
X84037737Y-140517261D01*
X84289197Y-140413103D01*
X84417420Y-140188145D01*
X83540000Y-139310725D01*
X82662580Y-140188145D01*
X81830196Y-140188145D01*
X81735147Y-140124636D01*
X81452702Y-140007643D01*
X81152859Y-139948000D01*
X80847141Y-139948000D01*
X80547298Y-140007643D01*
X80264853Y-140124636D01*
X80010658Y-140294483D01*
X79794483Y-140510658D01*
X79624636Y-140764853D01*
X79507643Y-141047298D01*
X79448000Y-141347141D01*
X75452000Y-141347141D01*
X75452000Y-140188145D01*
X77582580Y-140188145D01*
X77710803Y-140413103D01*
X78008686Y-140531343D01*
X78323911Y-140589197D01*
X78644367Y-140584442D01*
X78957737Y-140517261D01*
X79209197Y-140413103D01*
X79337420Y-140188145D01*
X78460000Y-139310725D01*
X77582580Y-140188145D01*
X75452000Y-140188145D01*
X75452000Y-138823911D01*
X76830803Y-138823911D01*
X76835558Y-139144367D01*
X76902739Y-139457737D01*
X77006897Y-139709197D01*
X77231855Y-139837420D01*
X78109275Y-138960000D01*
X78810725Y-138960000D01*
X79688145Y-139837420D01*
X79913103Y-139709197D01*
X80031343Y-139411314D01*
X80089197Y-139096089D01*
X80085159Y-138823911D01*
X81910803Y-138823911D01*
X81915558Y-139144367D01*
X81982739Y-139457737D01*
X82086897Y-139709197D01*
X82311855Y-139837420D01*
X83189275Y-138960000D01*
X83890725Y-138960000D01*
X84768145Y-139837420D01*
X84993103Y-139709197D01*
X85111343Y-139411314D01*
X85169197Y-139096089D01*
X85164442Y-138775633D01*
X85097261Y-138462263D01*
X84993103Y-138210803D01*
X84768145Y-138082580D01*
X83890725Y-138960000D01*
X83189275Y-138960000D01*
X82311855Y-138082580D01*
X82086897Y-138210803D01*
X81968657Y-138508686D01*
X81910803Y-138823911D01*
X80085159Y-138823911D01*
X80084442Y-138775633D01*
X80017261Y-138462263D01*
X79913103Y-138210803D01*
X79688145Y-138082580D01*
X78810725Y-138960000D01*
X78109275Y-138960000D01*
X77231855Y-138082580D01*
X77006897Y-138210803D01*
X76888657Y-138508686D01*
X76830803Y-138823911D01*
X75452000Y-138823911D01*
X75452000Y-137731855D01*
X77582580Y-137731855D01*
X78460000Y-138609275D01*
X79337420Y-137731855D01*
X82662580Y-137731855D01*
X83540000Y-138609275D01*
X84417420Y-137731855D01*
X84289197Y-137506897D01*
X83991314Y-137388657D01*
X83676089Y-137330803D01*
X83355633Y-137335558D01*
X83042263Y-137402739D01*
X82790803Y-137506897D01*
X82662580Y-137731855D01*
X79337420Y-137731855D01*
X79209197Y-137506897D01*
X78911314Y-137388657D01*
X78596089Y-137330803D01*
X78275633Y-137335558D01*
X77962263Y-137402739D01*
X77710803Y-137506897D01*
X77582580Y-137731855D01*
X75452000Y-137731855D01*
X75452000Y-136554018D01*
X81246707Y-136554018D01*
X81396352Y-136796868D01*
X81724289Y-136932723D01*
X82072428Y-137001990D01*
X82427390Y-137002008D01*
X82775537Y-136932776D01*
X83103486Y-136796954D01*
X83103648Y-136796868D01*
X83253293Y-136554018D01*
X82250000Y-135550725D01*
X81246707Y-136554018D01*
X75452000Y-136554018D01*
X75452000Y-135377390D01*
X80447992Y-135377390D01*
X80517224Y-135725537D01*
X80653046Y-136053486D01*
X80653132Y-136053648D01*
X80895982Y-136203293D01*
X81899275Y-135200000D01*
X82600725Y-135200000D01*
X83604018Y-136203293D01*
X83846868Y-136053648D01*
X83982723Y-135725711D01*
X84051990Y-135377572D01*
X84052008Y-135022610D01*
X83982776Y-134674463D01*
X83846954Y-134346514D01*
X83846868Y-134346352D01*
X83604018Y-134196707D01*
X82600725Y-135200000D01*
X81899275Y-135200000D01*
X80895982Y-134196707D01*
X80653132Y-134346352D01*
X80517277Y-134674289D01*
X80448010Y-135022428D01*
X80447992Y-135377390D01*
X75452000Y-135377390D01*
X75452000Y-133845982D01*
X81246707Y-133845982D01*
X82250000Y-134849275D01*
X83253293Y-133845982D01*
X83103648Y-133603132D01*
X82775711Y-133467277D01*
X82427572Y-133398010D01*
X82072610Y-133397992D01*
X81724463Y-133467224D01*
X81396514Y-133603046D01*
X81396352Y-133603132D01*
X81246707Y-133845982D01*
X75452000Y-133845982D01*
X75452000Y-131854018D01*
X78246707Y-131854018D01*
X78396352Y-132096868D01*
X78724289Y-132232723D01*
X79072428Y-132301990D01*
X79427390Y-132302008D01*
X79775537Y-132232776D01*
X80103486Y-132096954D01*
X80103648Y-132096868D01*
X80253293Y-131854018D01*
X79250000Y-130850725D01*
X78246707Y-131854018D01*
X75452000Y-131854018D01*
X75452000Y-130677390D01*
X77447992Y-130677390D01*
X77517224Y-131025537D01*
X77653046Y-131353486D01*
X77653132Y-131353648D01*
X77895982Y-131503293D01*
X78899275Y-130500000D01*
X79600725Y-130500000D01*
X80604018Y-131503293D01*
X80846868Y-131353648D01*
X80982723Y-131025711D01*
X81051990Y-130677572D01*
X81052008Y-130322610D01*
X80982776Y-129974463D01*
X80846954Y-129646514D01*
X80846868Y-129646352D01*
X80604018Y-129496707D01*
X79600725Y-130500000D01*
X78899275Y-130500000D01*
X77895982Y-129496707D01*
X77653132Y-129646352D01*
X77517277Y-129974289D01*
X77448010Y-130322428D01*
X77447992Y-130677390D01*
X75452000Y-130677390D01*
X75452000Y-129145982D01*
X78246707Y-129145982D01*
X79250000Y-130149275D01*
X80199275Y-129200000D01*
X83520934Y-129200000D01*
X83520934Y-131800000D01*
X83529178Y-131883707D01*
X83553595Y-131964196D01*
X83593245Y-132038376D01*
X83646605Y-132103395D01*
X83711624Y-132156755D01*
X83785804Y-132196405D01*
X83866293Y-132220822D01*
X83950000Y-132229066D01*
X86550000Y-132229066D01*
X86633707Y-132220822D01*
X86714196Y-132196405D01*
X86788376Y-132156755D01*
X86853395Y-132103395D01*
X86906755Y-132038376D01*
X86946405Y-131964196D01*
X86949844Y-131952859D01*
X94476089Y-131952859D01*
X94588915Y-132192685D01*
X94746361Y-132405892D01*
X94942376Y-132584286D01*
X95169428Y-132721011D01*
X95297143Y-132773901D01*
X95502000Y-132701165D01*
X95502000Y-131748000D01*
X94546430Y-131748000D01*
X94476089Y-131952859D01*
X86949844Y-131952859D01*
X86970822Y-131883707D01*
X86979066Y-131800000D01*
X86979066Y-129200000D01*
X86970822Y-129116293D01*
X86946405Y-129035804D01*
X86906755Y-128961624D01*
X86853395Y-128896605D01*
X86788376Y-128843245D01*
X86714196Y-128803595D01*
X86633707Y-128779178D01*
X86550000Y-128770934D01*
X83950000Y-128770934D01*
X83866293Y-128779178D01*
X83785804Y-128803595D01*
X83711624Y-128843245D01*
X83646605Y-128896605D01*
X83593245Y-128961624D01*
X83553595Y-129035804D01*
X83529178Y-129116293D01*
X83520934Y-129200000D01*
X80199275Y-129200000D01*
X80253293Y-129145982D01*
X80103648Y-128903132D01*
X79775711Y-128767277D01*
X79427572Y-128698010D01*
X79072610Y-128697992D01*
X78724463Y-128767224D01*
X78396514Y-128903046D01*
X78396352Y-128903132D01*
X78246707Y-129145982D01*
X75452000Y-129145982D01*
X75452000Y-126518001D01*
X75571961Y-126637962D01*
X75590026Y-126659974D01*
X75677885Y-126732079D01*
X75778124Y-126785657D01*
X75822782Y-126799204D01*
X75886888Y-126818651D01*
X75944886Y-126824363D01*
X75971664Y-126827000D01*
X75971669Y-126827000D01*
X76000000Y-126829790D01*
X76028331Y-126827000D01*
X80471669Y-126827000D01*
X80500000Y-126829790D01*
X80528331Y-126827000D01*
X80528336Y-126827000D01*
X80558045Y-126824074D01*
X80613111Y-126818651D01*
X80657770Y-126805103D01*
X80721876Y-126785657D01*
X80822115Y-126732079D01*
X80909974Y-126659974D01*
X80928039Y-126637962D01*
X80983405Y-126582596D01*
X81038771Y-126637962D01*
X81056836Y-126659974D01*
X81144695Y-126732079D01*
X81244934Y-126785657D01*
X81289592Y-126799204D01*
X81353698Y-126818651D01*
X81411696Y-126824363D01*
X81438474Y-126827000D01*
X81438479Y-126827000D01*
X81466810Y-126829790D01*
X81495141Y-126827000D01*
X90471669Y-126827000D01*
X90500000Y-126829790D01*
X90528331Y-126827000D01*
X90528336Y-126827000D01*
X90558045Y-126824074D01*
X90613111Y-126818651D01*
X90657770Y-126805103D01*
X90721876Y-126785657D01*
X90822115Y-126732079D01*
X90909974Y-126659974D01*
X90928039Y-126637962D01*
X93489001Y-124077000D01*
X93581452Y-124077000D01*
X93741227Y-124045218D01*
X93891731Y-123982877D01*
X94027181Y-123892372D01*
X94142372Y-123777181D01*
X94232877Y-123641731D01*
X94295218Y-123491227D01*
X94327000Y-123331452D01*
X94327000Y-123168548D01*
X94295218Y-123008773D01*
X94232877Y-122858269D01*
X94142372Y-122722819D01*
X94027181Y-122607628D01*
X93891731Y-122517123D01*
X93741227Y-122454782D01*
X93581452Y-122423000D01*
X93418548Y-122423000D01*
X93258773Y-122454782D01*
X93108269Y-122517123D01*
X92972819Y-122607628D01*
X92857628Y-122722819D01*
X92767123Y-122858269D01*
X92704782Y-123008773D01*
X92673000Y-123168548D01*
X92673000Y-123260999D01*
X90260999Y-125673000D01*
X81859811Y-125673000D01*
X82850703Y-124682108D01*
X82855263Y-124728409D01*
X82883968Y-124823037D01*
X82930583Y-124910246D01*
X82993315Y-124986685D01*
X83069754Y-125049417D01*
X83156963Y-125096032D01*
X83251591Y-125124737D01*
X83350000Y-125134429D01*
X83926500Y-125132000D01*
X84052000Y-125006500D01*
X84052000Y-124428000D01*
X84548000Y-124428000D01*
X84548000Y-125006500D01*
X84673500Y-125132000D01*
X85250000Y-125134429D01*
X85348409Y-125124737D01*
X85443037Y-125096032D01*
X85530246Y-125049417D01*
X85606685Y-124986685D01*
X85669417Y-124910246D01*
X85716032Y-124823037D01*
X85744737Y-124728409D01*
X85754429Y-124630000D01*
X85752000Y-124553500D01*
X85626500Y-124428000D01*
X84548000Y-124428000D01*
X84052000Y-124428000D01*
X84032000Y-124428000D01*
X84032000Y-123932000D01*
X84052000Y-123932000D01*
X84052000Y-123808728D01*
X84069610Y-123791118D01*
X84077319Y-123848458D01*
X84227585Y-123897221D01*
X84384478Y-123915731D01*
X84541966Y-123903278D01*
X84548000Y-123901574D01*
X84548000Y-123932000D01*
X85626500Y-123932000D01*
X85752000Y-123806500D01*
X85754429Y-123730000D01*
X85744737Y-123631591D01*
X85716032Y-123536963D01*
X85669417Y-123449754D01*
X85606685Y-123373315D01*
X85530246Y-123310583D01*
X85443037Y-123263968D01*
X85348409Y-123235263D01*
X85250000Y-123225571D01*
X85193899Y-123225807D01*
X85205731Y-123125522D01*
X85193278Y-122968034D01*
X85150339Y-122816001D01*
X85138458Y-122787319D01*
X84987619Y-122767040D01*
X84985000Y-122769659D01*
X84850000Y-122634659D01*
X84782825Y-122701835D01*
X84673166Y-122592176D01*
X84742960Y-122522381D01*
X84722681Y-122371542D01*
X84677000Y-122356718D01*
X84677000Y-122318397D01*
X84666349Y-122264849D01*
X84673500Y-122272000D01*
X85112861Y-122273851D01*
X85161835Y-122322825D01*
X85094659Y-122390000D01*
X85437619Y-122732960D01*
X85588458Y-122712681D01*
X85637221Y-122562415D01*
X85655731Y-122405522D01*
X85643278Y-122248034D01*
X85608411Y-122124582D01*
X85669417Y-122050246D01*
X85716032Y-121963037D01*
X85744737Y-121868409D01*
X85754429Y-121770000D01*
X85752000Y-121693500D01*
X85626500Y-121568000D01*
X84548000Y-121568000D01*
X84548000Y-121588000D01*
X84052000Y-121588000D01*
X84052000Y-121568000D01*
X82973500Y-121568000D01*
X82853696Y-121687804D01*
X82837942Y-121690938D01*
X82705636Y-121745741D01*
X82600000Y-121816324D01*
X82494364Y-121745741D01*
X82362058Y-121690938D01*
X82221603Y-121663000D01*
X82078397Y-121663000D01*
X81937942Y-121690938D01*
X81805636Y-121745741D01*
X81700000Y-121816324D01*
X81629784Y-121769407D01*
X81887963Y-121511228D01*
X81909974Y-121493164D01*
X81982079Y-121405305D01*
X82029115Y-121317306D01*
X82035657Y-121305067D01*
X82068651Y-121196302D01*
X82079791Y-121083190D01*
X82077000Y-121054851D01*
X82077000Y-120870000D01*
X82845571Y-120870000D01*
X82848000Y-120946500D01*
X82973500Y-121072000D01*
X84052000Y-121072000D01*
X84052000Y-120493500D01*
X84548000Y-120493500D01*
X84548000Y-121072000D01*
X85626500Y-121072000D01*
X85752000Y-120946500D01*
X85754429Y-120870000D01*
X85744737Y-120771591D01*
X85716032Y-120676963D01*
X85669417Y-120589754D01*
X85606685Y-120513315D01*
X85530246Y-120450583D01*
X85443037Y-120403968D01*
X85348409Y-120375263D01*
X85250000Y-120365571D01*
X84673500Y-120368000D01*
X84548000Y-120493500D01*
X84052000Y-120493500D01*
X83926500Y-120368000D01*
X83350000Y-120365571D01*
X83251591Y-120375263D01*
X83156963Y-120403968D01*
X83069754Y-120450583D01*
X82993315Y-120513315D01*
X82930583Y-120589754D01*
X82883968Y-120676963D01*
X82855263Y-120771591D01*
X82845571Y-120870000D01*
X82077000Y-120870000D01*
X82077000Y-120278328D01*
X82079790Y-120249999D01*
X82077000Y-120221670D01*
X82077000Y-120221664D01*
X82068650Y-120136888D01*
X82035657Y-120028124D01*
X81982079Y-119927885D01*
X81944405Y-119881980D01*
X81928037Y-119862035D01*
X81928035Y-119862033D01*
X81909974Y-119840026D01*
X81887967Y-119821965D01*
X81178039Y-119112038D01*
X81159974Y-119090026D01*
X81072115Y-119017921D01*
X80971876Y-118964343D01*
X80907770Y-118944897D01*
X80863111Y-118931349D01*
X80823737Y-118927472D01*
X80840137Y-118873409D01*
X80849829Y-118775000D01*
X86241771Y-118775000D01*
X86251463Y-118873409D01*
X86280168Y-118968037D01*
X86326783Y-119055246D01*
X86389515Y-119131685D01*
X86465954Y-119194417D01*
X86553163Y-119241032D01*
X86647791Y-119269737D01*
X86746200Y-119279429D01*
X88277700Y-119277000D01*
X88403200Y-119151500D01*
X88403200Y-118007000D01*
X88899200Y-118007000D01*
X88899200Y-119151500D01*
X89024700Y-119277000D01*
X90556200Y-119279429D01*
X90654609Y-119269737D01*
X90749237Y-119241032D01*
X90836446Y-119194417D01*
X90912885Y-119131685D01*
X90975617Y-119055246D01*
X91022232Y-118968037D01*
X91050937Y-118873409D01*
X91060629Y-118775000D01*
X91058200Y-118132500D01*
X90932700Y-118007000D01*
X88899200Y-118007000D01*
X88403200Y-118007000D01*
X86369700Y-118007000D01*
X86244200Y-118132500D01*
X86241771Y-118775000D01*
X80849829Y-118775000D01*
X80847400Y-118132500D01*
X80721900Y-118007000D01*
X78688400Y-118007000D01*
X78688400Y-118027000D01*
X78192400Y-118027000D01*
X78192400Y-118007000D01*
X76158900Y-118007000D01*
X76033400Y-118132500D01*
X76030971Y-118775000D01*
X76040663Y-118873409D01*
X76064866Y-118953197D01*
X76028124Y-118964343D01*
X75927885Y-119017921D01*
X75882405Y-119055246D01*
X75862035Y-119071963D01*
X75862033Y-119071965D01*
X75840026Y-119090026D01*
X75821965Y-119112033D01*
X75452000Y-119481999D01*
X75452000Y-116743000D01*
X76030971Y-116743000D01*
X76033400Y-117385500D01*
X76158900Y-117511000D01*
X78192400Y-117511000D01*
X78192400Y-116366500D01*
X78688400Y-116366500D01*
X78688400Y-117511000D01*
X80721900Y-117511000D01*
X80847400Y-117385500D01*
X80849829Y-116743000D01*
X86241771Y-116743000D01*
X86244200Y-117385500D01*
X86369700Y-117511000D01*
X88403200Y-117511000D01*
X88403200Y-116366500D01*
X88899200Y-116366500D01*
X88899200Y-117511000D01*
X90932700Y-117511000D01*
X91058200Y-117385500D01*
X91060629Y-116743000D01*
X91050937Y-116644591D01*
X91022232Y-116549963D01*
X90975617Y-116462754D01*
X90912885Y-116386315D01*
X90836446Y-116323583D01*
X90749237Y-116276968D01*
X90654609Y-116248263D01*
X90556200Y-116238571D01*
X89024700Y-116241000D01*
X88899200Y-116366500D01*
X88403200Y-116366500D01*
X88277700Y-116241000D01*
X86746200Y-116238571D01*
X86647791Y-116248263D01*
X86553163Y-116276968D01*
X86465954Y-116323583D01*
X86389515Y-116386315D01*
X86326783Y-116462754D01*
X86280168Y-116549963D01*
X86251463Y-116644591D01*
X86241771Y-116743000D01*
X80849829Y-116743000D01*
X80840137Y-116644591D01*
X80811432Y-116549963D01*
X80764817Y-116462754D01*
X80702085Y-116386315D01*
X80625646Y-116323583D01*
X80538437Y-116276968D01*
X80443809Y-116248263D01*
X80345400Y-116238571D01*
X78813900Y-116241000D01*
X78688400Y-116366500D01*
X78192400Y-116366500D01*
X78066900Y-116241000D01*
X76535400Y-116238571D01*
X76436991Y-116248263D01*
X76342363Y-116276968D01*
X76255154Y-116323583D01*
X76178715Y-116386315D01*
X76115983Y-116462754D01*
X76069368Y-116549963D01*
X76040663Y-116644591D01*
X76030971Y-116743000D01*
X75452000Y-116743000D01*
X75452000Y-101757000D01*
X76030971Y-101757000D01*
X76040663Y-101855409D01*
X76069368Y-101950037D01*
X76115983Y-102037246D01*
X76178715Y-102113685D01*
X76255154Y-102176417D01*
X76342363Y-102223032D01*
X76436991Y-102251737D01*
X76535400Y-102261429D01*
X78066900Y-102259000D01*
X78192400Y-102133500D01*
X78192400Y-100989000D01*
X78688400Y-100989000D01*
X78688400Y-102133500D01*
X78813900Y-102259000D01*
X80345400Y-102261429D01*
X80443809Y-102251737D01*
X80538437Y-102223032D01*
X80625646Y-102176417D01*
X80702085Y-102113685D01*
X80764817Y-102037246D01*
X80811432Y-101950037D01*
X80840137Y-101855409D01*
X80849829Y-101757000D01*
X80847400Y-101114500D01*
X80721900Y-100989000D01*
X78688400Y-100989000D01*
X78192400Y-100989000D01*
X76158900Y-100989000D01*
X76033400Y-101114500D01*
X76030971Y-101757000D01*
X75452000Y-101757000D01*
X75452000Y-99275000D01*
X76030971Y-99275000D01*
X76040663Y-99373409D01*
X76069368Y-99468037D01*
X76086453Y-99500000D01*
X76069368Y-99531963D01*
X76040663Y-99626591D01*
X76030971Y-99725000D01*
X76033400Y-100367500D01*
X76158900Y-100493000D01*
X78192400Y-100493000D01*
X78192400Y-98507000D01*
X78688400Y-98507000D01*
X78688400Y-100493000D01*
X80721900Y-100493000D01*
X80847400Y-100367500D01*
X80849829Y-99725000D01*
X80840137Y-99626591D01*
X80811432Y-99531963D01*
X80794347Y-99500000D01*
X80811432Y-99468037D01*
X80840137Y-99373409D01*
X80849829Y-99275000D01*
X80847400Y-98632500D01*
X80721900Y-98507000D01*
X78688400Y-98507000D01*
X78192400Y-98507000D01*
X76158900Y-98507000D01*
X76033400Y-98632500D01*
X76030971Y-99275000D01*
X75452000Y-99275000D01*
X75452000Y-97243000D01*
X76030971Y-97243000D01*
X76033400Y-97885500D01*
X76158900Y-98011000D01*
X78192400Y-98011000D01*
X78192400Y-96866500D01*
X78688400Y-96866500D01*
X78688400Y-98011000D01*
X80721900Y-98011000D01*
X80847400Y-97885500D01*
X80849829Y-97243000D01*
X80840137Y-97144591D01*
X80811432Y-97049963D01*
X80764817Y-96962754D01*
X80702085Y-96886315D01*
X80625646Y-96823583D01*
X80538437Y-96776968D01*
X80443809Y-96748263D01*
X80345400Y-96738571D01*
X78813900Y-96741000D01*
X78688400Y-96866500D01*
X78192400Y-96866500D01*
X78066900Y-96741000D01*
X76535400Y-96738571D01*
X76436991Y-96748263D01*
X76342363Y-96776968D01*
X76255154Y-96823583D01*
X76178715Y-96886315D01*
X76115983Y-96962754D01*
X76069368Y-97049963D01*
X76040663Y-97144591D01*
X76030971Y-97243000D01*
X75452000Y-97243000D01*
X75452000Y-82257000D01*
X76030971Y-82257000D01*
X76040663Y-82355409D01*
X76069368Y-82450037D01*
X76115983Y-82537246D01*
X76178715Y-82613685D01*
X76255154Y-82676417D01*
X76342363Y-82723032D01*
X76436991Y-82751737D01*
X76535400Y-82761429D01*
X78066900Y-82759000D01*
X78192400Y-82633500D01*
X78192400Y-81489000D01*
X78688400Y-81489000D01*
X78688400Y-82633500D01*
X78813900Y-82759000D01*
X80345400Y-82761429D01*
X80443809Y-82751737D01*
X80538437Y-82723032D01*
X80625646Y-82676417D01*
X80702085Y-82613685D01*
X80764817Y-82537246D01*
X80811432Y-82450037D01*
X80840137Y-82355409D01*
X80849829Y-82257000D01*
X80847400Y-81614500D01*
X80721900Y-81489000D01*
X78688400Y-81489000D01*
X78192400Y-81489000D01*
X76158900Y-81489000D01*
X76033400Y-81614500D01*
X76030971Y-82257000D01*
X75452000Y-82257000D01*
X75452000Y-80225000D01*
X76030971Y-80225000D01*
X76033400Y-80867500D01*
X76158900Y-80993000D01*
X78192400Y-80993000D01*
X78192400Y-79848500D01*
X78688400Y-79848500D01*
X78688400Y-80993000D01*
X80721900Y-80993000D01*
X80847400Y-80867500D01*
X80849829Y-80225000D01*
X80840137Y-80126591D01*
X80811432Y-80031963D01*
X80794348Y-80000000D01*
X81817306Y-80000000D01*
X81823000Y-80057812D01*
X81823001Y-113942178D01*
X81817306Y-114000000D01*
X81840031Y-114230731D01*
X81907334Y-114452597D01*
X82008771Y-114642372D01*
X82016627Y-114657070D01*
X82163710Y-114836291D01*
X82208618Y-114873146D01*
X83126857Y-115791387D01*
X83163709Y-115836291D01*
X83208612Y-115873142D01*
X83208614Y-115873144D01*
X83232854Y-115893037D01*
X83342930Y-115983374D01*
X83547403Y-116092667D01*
X83769268Y-116159969D01*
X84000000Y-116182694D01*
X84057812Y-116177000D01*
X91512472Y-116177000D01*
X95126853Y-119791382D01*
X95163709Y-119836291D01*
X95342930Y-119983374D01*
X95547403Y-120092667D01*
X95769268Y-120159969D01*
X95942188Y-120177000D01*
X95942197Y-120177000D01*
X95999999Y-120182693D01*
X96057801Y-120177000D01*
X110510474Y-120177000D01*
X113624855Y-123291382D01*
X113661711Y-123336291D01*
X113840932Y-123483374D01*
X114045405Y-123592667D01*
X114267270Y-123659969D01*
X114440190Y-123677000D01*
X114440199Y-123677000D01*
X114498001Y-123682693D01*
X114555803Y-123677000D01*
X136012472Y-123677000D01*
X138823000Y-126487529D01*
X138823000Y-127398441D01*
X138795218Y-127258773D01*
X138732877Y-127108269D01*
X138642372Y-126972819D01*
X138527181Y-126857628D01*
X138391731Y-126767123D01*
X138241227Y-126704782D01*
X138081452Y-126673000D01*
X137918548Y-126673000D01*
X137758773Y-126704782D01*
X137608269Y-126767123D01*
X137524643Y-126823000D01*
X136533241Y-126823000D01*
X136499999Y-126819726D01*
X136466757Y-126823000D01*
X136466748Y-126823000D01*
X136367285Y-126832796D01*
X136239670Y-126871508D01*
X136122059Y-126934372D01*
X136018973Y-127018973D01*
X135997774Y-127044804D01*
X132719578Y-130323000D01*
X123280422Y-130323000D01*
X119814840Y-126857418D01*
X119795218Y-126758773D01*
X119732877Y-126608269D01*
X119642372Y-126472819D01*
X119527181Y-126357628D01*
X119391731Y-126267123D01*
X119241227Y-126204782D01*
X119081452Y-126173000D01*
X118918548Y-126173000D01*
X118758773Y-126204782D01*
X118608269Y-126267123D01*
X118472819Y-126357628D01*
X118357628Y-126472819D01*
X118267123Y-126608269D01*
X118204782Y-126758773D01*
X118173000Y-126918548D01*
X118173000Y-127081452D01*
X118204782Y-127241227D01*
X118267123Y-127391731D01*
X118357628Y-127527181D01*
X118472819Y-127642372D01*
X118608269Y-127732877D01*
X118758773Y-127795218D01*
X118857418Y-127814840D01*
X122497774Y-131455196D01*
X122518973Y-131481027D01*
X122622059Y-131565628D01*
X122739670Y-131628492D01*
X122867285Y-131667204D01*
X122966748Y-131677000D01*
X122966757Y-131677000D01*
X122999999Y-131680274D01*
X123033241Y-131677000D01*
X132966755Y-131677000D01*
X133000000Y-131680274D01*
X133033245Y-131677000D01*
X133033252Y-131677000D01*
X133132715Y-131667204D01*
X133260330Y-131628492D01*
X133377941Y-131565628D01*
X133481027Y-131481027D01*
X133502226Y-131455196D01*
X136780422Y-128177000D01*
X137524643Y-128177000D01*
X137608269Y-128232877D01*
X137758773Y-128295218D01*
X137918548Y-128327000D01*
X138081452Y-128327000D01*
X138241227Y-128295218D01*
X138391731Y-128232877D01*
X138527181Y-128142372D01*
X138642372Y-128027181D01*
X138732877Y-127891731D01*
X138795218Y-127741227D01*
X138823000Y-127601559D01*
X138823001Y-129742188D01*
X138823000Y-133942188D01*
X138817306Y-134000000D01*
X138823000Y-134057811D01*
X138840031Y-134230731D01*
X138879750Y-134361668D01*
X137308610Y-132790528D01*
X137263923Y-132736077D01*
X137046634Y-132557752D01*
X136798731Y-132425245D01*
X136529741Y-132343648D01*
X136320098Y-132323000D01*
X136320088Y-132323000D01*
X136250000Y-132316097D01*
X136179912Y-132323000D01*
X118320087Y-132323000D01*
X118249999Y-132316097D01*
X118179911Y-132323000D01*
X118179902Y-132323000D01*
X117970259Y-132343648D01*
X117701269Y-132425245D01*
X117453366Y-132557752D01*
X117453364Y-132557753D01*
X117453365Y-132557753D01*
X117290525Y-132691392D01*
X117290522Y-132691395D01*
X117236077Y-132736077D01*
X117191395Y-132790522D01*
X114408918Y-135573000D01*
X97929902Y-135573000D01*
X97720259Y-135593648D01*
X97451269Y-135675245D01*
X97203366Y-135807752D01*
X96986077Y-135986077D01*
X96807752Y-136203366D01*
X96677000Y-136447986D01*
X96677000Y-134530422D01*
X97955196Y-133252226D01*
X97981027Y-133231027D01*
X98047524Y-133150000D01*
X111220934Y-133150000D01*
X111220934Y-134850000D01*
X111229178Y-134933707D01*
X111253595Y-135014196D01*
X111293245Y-135088376D01*
X111346605Y-135153395D01*
X111411624Y-135206755D01*
X111485804Y-135246405D01*
X111566293Y-135270822D01*
X111650000Y-135279066D01*
X113350000Y-135279066D01*
X113433707Y-135270822D01*
X113514196Y-135246405D01*
X113588376Y-135206755D01*
X113653395Y-135153395D01*
X113706755Y-135088376D01*
X113746405Y-135014196D01*
X113770822Y-134933707D01*
X113779066Y-134850000D01*
X113779066Y-133150000D01*
X113770822Y-133066293D01*
X113746405Y-132985804D01*
X113706755Y-132911624D01*
X113653395Y-132846605D01*
X113588376Y-132793245D01*
X113514196Y-132753595D01*
X113433707Y-132729178D01*
X113350000Y-132720934D01*
X112706544Y-132720934D01*
X112872487Y-132687926D01*
X113104886Y-132591663D01*
X113314040Y-132451911D01*
X113491911Y-132274040D01*
X113583478Y-132137000D01*
X120006755Y-132137000D01*
X120040000Y-132140274D01*
X120073245Y-132137000D01*
X120073252Y-132137000D01*
X120172715Y-132127204D01*
X120300330Y-132088492D01*
X120417941Y-132025628D01*
X120521027Y-131941027D01*
X120542226Y-131915196D01*
X120642582Y-131814840D01*
X120741227Y-131795218D01*
X120891731Y-131732877D01*
X121027181Y-131642372D01*
X121142372Y-131527181D01*
X121232877Y-131391731D01*
X121295218Y-131241227D01*
X121327000Y-131081452D01*
X121327000Y-130918548D01*
X121295218Y-130758773D01*
X121232877Y-130608269D01*
X121142372Y-130472819D01*
X121027181Y-130357628D01*
X120891731Y-130267123D01*
X120741227Y-130204782D01*
X120581452Y-130173000D01*
X120418548Y-130173000D01*
X120258773Y-130204782D01*
X120108269Y-130267123D01*
X119972819Y-130357628D01*
X119857628Y-130472819D01*
X119767123Y-130608269D01*
X119704782Y-130758773D01*
X119699963Y-130783000D01*
X113583478Y-130783000D01*
X113491911Y-130645960D01*
X113314040Y-130468089D01*
X113104886Y-130328337D01*
X112872487Y-130232074D01*
X112625774Y-130183000D01*
X112374226Y-130183000D01*
X112127513Y-130232074D01*
X111895114Y-130328337D01*
X111685960Y-130468089D01*
X111508089Y-130645960D01*
X111368337Y-130855114D01*
X111272074Y-131087513D01*
X111223000Y-131334226D01*
X111223000Y-131585774D01*
X111272074Y-131832487D01*
X111368337Y-132064886D01*
X111508089Y-132274040D01*
X111685960Y-132451911D01*
X111895114Y-132591663D01*
X112127513Y-132687926D01*
X112293456Y-132720934D01*
X111650000Y-132720934D01*
X111566293Y-132729178D01*
X111485804Y-132753595D01*
X111411624Y-132793245D01*
X111346605Y-132846605D01*
X111293245Y-132911624D01*
X111253595Y-132985804D01*
X111229178Y-133066293D01*
X111220934Y-133150000D01*
X98047524Y-133150000D01*
X98065628Y-133127941D01*
X98128492Y-133010330D01*
X98167204Y-132882715D01*
X98177000Y-132783252D01*
X98177000Y-132783243D01*
X98180274Y-132750001D01*
X98177000Y-132716759D01*
X98177000Y-130783252D01*
X98180275Y-130750000D01*
X98167204Y-130617285D01*
X98128492Y-130489670D01*
X98065628Y-130372059D01*
X98002224Y-130294802D01*
X98002222Y-130294800D01*
X97981026Y-130268973D01*
X97955200Y-130247778D01*
X97645653Y-129938231D01*
X97615629Y-129882060D01*
X97531027Y-129778974D01*
X97505201Y-129757779D01*
X97029066Y-129281644D01*
X97029066Y-128110000D01*
X97020822Y-128026293D01*
X96996405Y-127945804D01*
X96956755Y-127871624D01*
X96903395Y-127806605D01*
X96838376Y-127753245D01*
X96764196Y-127713595D01*
X96683707Y-127689178D01*
X96600000Y-127680934D01*
X94900000Y-127680934D01*
X94816293Y-127689178D01*
X94735804Y-127713595D01*
X94661624Y-127753245D01*
X94596605Y-127806605D01*
X94543245Y-127871624D01*
X94503595Y-127945804D01*
X94479178Y-128026293D01*
X94470934Y-128110000D01*
X94470934Y-129810000D01*
X94479178Y-129893707D01*
X94503595Y-129974196D01*
X94543245Y-130048376D01*
X94596605Y-130113395D01*
X94661624Y-130166755D01*
X94735804Y-130206405D01*
X94816293Y-130230822D01*
X94900000Y-130239066D01*
X95265831Y-130239066D01*
X95169428Y-130278989D01*
X94942376Y-130415714D01*
X94746361Y-130594108D01*
X94588915Y-130807315D01*
X94476089Y-131047141D01*
X94546430Y-131252000D01*
X95502000Y-131252000D01*
X95502000Y-131232000D01*
X95998000Y-131232000D01*
X95998000Y-131252000D01*
X96018000Y-131252000D01*
X96018000Y-131748000D01*
X95998000Y-131748000D01*
X95998000Y-132701165D01*
X96202857Y-132773901D01*
X96330572Y-132721011D01*
X96557624Y-132584286D01*
X96753639Y-132405892D01*
X96823001Y-132311965D01*
X96823001Y-132469577D01*
X95544800Y-133747778D01*
X95518973Y-133768974D01*
X95497778Y-133794800D01*
X95497776Y-133794802D01*
X95474635Y-133823000D01*
X95434372Y-133872060D01*
X95371508Y-133989671D01*
X95332796Y-134117286D01*
X95323000Y-134216749D01*
X95323000Y-134216755D01*
X95319726Y-134250000D01*
X95323000Y-134283245D01*
X95323001Y-138216746D01*
X95319726Y-138250000D01*
X95332796Y-138382714D01*
X95371508Y-138510329D01*
X95434372Y-138627940D01*
X95497776Y-138705198D01*
X95497779Y-138705201D01*
X95518974Y-138731027D01*
X95544800Y-138752222D01*
X96997774Y-140205196D01*
X97018973Y-140231027D01*
X97122059Y-140315628D01*
X97239670Y-140378492D01*
X97367285Y-140417204D01*
X97466748Y-140427000D01*
X97466757Y-140427000D01*
X97499999Y-140430274D01*
X97533241Y-140427000D01*
X125219578Y-140427000D01*
X125823000Y-141030423D01*
X125823001Y-146716745D01*
X125819726Y-146750000D01*
X125832796Y-146882714D01*
X125871508Y-147010329D01*
X125934372Y-147127940D01*
X125997776Y-147205198D01*
X125997779Y-147205201D01*
X126018974Y-147231027D01*
X126044799Y-147252221D01*
X126497778Y-147705201D01*
X126518973Y-147731027D01*
X126544799Y-147752222D01*
X126544801Y-147752224D01*
X126622059Y-147815628D01*
X126739670Y-147878492D01*
X126867285Y-147917204D01*
X127000000Y-147930275D01*
X127033252Y-147927000D01*
X176466755Y-147927000D01*
X176500000Y-147930274D01*
X176533245Y-147927000D01*
X176533252Y-147927000D01*
X176632715Y-147917204D01*
X176760330Y-147878492D01*
X176877941Y-147815628D01*
X176981027Y-147731027D01*
X177002226Y-147705196D01*
X179455206Y-145252217D01*
X179481026Y-145231027D01*
X179502218Y-145205205D01*
X179502224Y-145205199D01*
X179565628Y-145127941D01*
X179593205Y-145076348D01*
X179642372Y-145027181D01*
X179732877Y-144891731D01*
X179795218Y-144741227D01*
X179827000Y-144581452D01*
X179827000Y-144418548D01*
X179795218Y-144258773D01*
X179732877Y-144108269D01*
X179642372Y-143972819D01*
X179527181Y-143857628D01*
X179391731Y-143767123D01*
X179241227Y-143704782D01*
X179081452Y-143673000D01*
X178918548Y-143673000D01*
X178758773Y-143704782D01*
X178608269Y-143767123D01*
X178472819Y-143857628D01*
X178357628Y-143972819D01*
X178267123Y-144108269D01*
X178204782Y-144258773D01*
X178173000Y-144418548D01*
X178173000Y-144581452D01*
X178179325Y-144613252D01*
X176219578Y-146573000D01*
X127280423Y-146573000D01*
X127177000Y-146469578D01*
X127177000Y-140783252D01*
X127180275Y-140750000D01*
X127167204Y-140617285D01*
X127128492Y-140489670D01*
X127065628Y-140372059D01*
X127002224Y-140294801D01*
X127002218Y-140294795D01*
X126981026Y-140268973D01*
X126955205Y-140247782D01*
X126002226Y-139294804D01*
X125981027Y-139268973D01*
X125877941Y-139184372D01*
X125760330Y-139121508D01*
X125632715Y-139082796D01*
X125533252Y-139073000D01*
X125533245Y-139073000D01*
X125500000Y-139069726D01*
X125466755Y-139073000D01*
X97780422Y-139073000D01*
X96677000Y-137969578D01*
X96677000Y-137552014D01*
X96807752Y-137796634D01*
X96986077Y-138013923D01*
X97203366Y-138192248D01*
X97451269Y-138324755D01*
X97720259Y-138406352D01*
X97929902Y-138427000D01*
X114929912Y-138427000D01*
X115000000Y-138433903D01*
X115070088Y-138427000D01*
X115070098Y-138427000D01*
X115279741Y-138406352D01*
X115548731Y-138324755D01*
X115796634Y-138192248D01*
X116013923Y-138013923D01*
X116058609Y-137959473D01*
X118841083Y-135177000D01*
X135658918Y-135177000D01*
X138790525Y-138308607D01*
X138953365Y-138442247D01*
X139201267Y-138574754D01*
X139470258Y-138656351D01*
X139749999Y-138683903D01*
X140029741Y-138656351D01*
X140244165Y-138591306D01*
X137126857Y-141708615D01*
X137016626Y-141842931D01*
X136907334Y-142047403D01*
X136840031Y-142269269D01*
X136817306Y-142500000D01*
X136840031Y-142730731D01*
X136907334Y-142952597D01*
X137016626Y-143157069D01*
X137163710Y-143336290D01*
X137342931Y-143483374D01*
X137547403Y-143592666D01*
X137769269Y-143659969D01*
X138000000Y-143682694D01*
X138230731Y-143659969D01*
X138452597Y-143592666D01*
X138657069Y-143483374D01*
X138791385Y-143373143D01*
X142791384Y-139373145D01*
X142836291Y-139336291D01*
X142983374Y-139157070D01*
X143092667Y-138952597D01*
X143159969Y-138730732D01*
X143177000Y-138557812D01*
X143177000Y-138557803D01*
X143182693Y-138500001D01*
X143177000Y-138442199D01*
X143177000Y-136057812D01*
X143182694Y-136000000D01*
X143159969Y-135769268D01*
X143125934Y-135657070D01*
X143092667Y-135547403D01*
X142983374Y-135342930D01*
X142930962Y-135279066D01*
X142873144Y-135208614D01*
X142873142Y-135208612D01*
X142836291Y-135163709D01*
X142791387Y-135126857D01*
X141914240Y-134249711D01*
X141914236Y-134249706D01*
X141750294Y-134085764D01*
X141750293Y-134085764D01*
X141177000Y-133512471D01*
X141177000Y-126057801D01*
X141182693Y-125999999D01*
X141177000Y-125942197D01*
X141177000Y-125942188D01*
X141159969Y-125769268D01*
X141092667Y-125547403D01*
X140983374Y-125342930D01*
X140836291Y-125163709D01*
X140791384Y-125126855D01*
X137373151Y-121708623D01*
X137336291Y-121663709D01*
X137157070Y-121516626D01*
X136952597Y-121407333D01*
X136730732Y-121340031D01*
X136557812Y-121323000D01*
X136500000Y-121317306D01*
X136442188Y-121323000D01*
X114985531Y-121323000D01*
X114393935Y-120731404D01*
X114527181Y-120642372D01*
X114642372Y-120527181D01*
X114732877Y-120391731D01*
X114795218Y-120241227D01*
X114807994Y-120177000D01*
X114987655Y-120177000D01*
X114997625Y-120209868D01*
X115060377Y-120327269D01*
X115144828Y-120430172D01*
X115247731Y-120514623D01*
X115365132Y-120577375D01*
X115492520Y-120616018D01*
X115624999Y-120629066D01*
X116275001Y-120629066D01*
X116407480Y-120616018D01*
X116534868Y-120577375D01*
X116652269Y-120514623D01*
X116755172Y-120430172D01*
X116839623Y-120327269D01*
X116902375Y-120209868D01*
X116920953Y-120148624D01*
X116920571Y-120200000D01*
X116930263Y-120298409D01*
X116958968Y-120393037D01*
X117005583Y-120480246D01*
X117068315Y-120556685D01*
X117144754Y-120619417D01*
X117231963Y-120666032D01*
X117326591Y-120694737D01*
X117425000Y-120704429D01*
X117626500Y-120702000D01*
X117752000Y-120576500D01*
X117752000Y-119748000D01*
X118248000Y-119748000D01*
X118248000Y-120576500D01*
X118373500Y-120702000D01*
X118575000Y-120704429D01*
X118673409Y-120694737D01*
X118768037Y-120666032D01*
X118855246Y-120619417D01*
X118931685Y-120556685D01*
X118994417Y-120480246D01*
X119041032Y-120393037D01*
X119069737Y-120298409D01*
X119079429Y-120200000D01*
X119077000Y-119873500D01*
X118951500Y-119748000D01*
X118248000Y-119748000D01*
X117752000Y-119748000D01*
X117732000Y-119748000D01*
X117732000Y-119252000D01*
X117752000Y-119252000D01*
X117752000Y-118423500D01*
X118248000Y-118423500D01*
X118248000Y-119252000D01*
X118951500Y-119252000D01*
X119077000Y-119126500D01*
X119079429Y-118800000D01*
X119069737Y-118701591D01*
X119041032Y-118606963D01*
X118994417Y-118519754D01*
X118931685Y-118443315D01*
X118855246Y-118380583D01*
X118768037Y-118333968D01*
X118673409Y-118305263D01*
X118575000Y-118295571D01*
X118373500Y-118298000D01*
X118248000Y-118423500D01*
X117752000Y-118423500D01*
X117626500Y-118298000D01*
X117425000Y-118295571D01*
X117326591Y-118305263D01*
X117231963Y-118333968D01*
X117144754Y-118380583D01*
X117068315Y-118443315D01*
X117005583Y-118519754D01*
X116958968Y-118606963D01*
X116930263Y-118701591D01*
X116920571Y-118800000D01*
X116920953Y-118851376D01*
X116902375Y-118790132D01*
X116839623Y-118672731D01*
X116755172Y-118569828D01*
X116652269Y-118485377D01*
X116534868Y-118422625D01*
X116407480Y-118383982D01*
X116275001Y-118370934D01*
X115624999Y-118370934D01*
X115492520Y-118383982D01*
X115365132Y-118422625D01*
X115247731Y-118485377D01*
X115144828Y-118569828D01*
X115060377Y-118672731D01*
X114997625Y-118790132D01*
X114987655Y-118823000D01*
X114533252Y-118823000D01*
X114500000Y-118819725D01*
X114367285Y-118832796D01*
X114239670Y-118871508D01*
X114122059Y-118934372D01*
X114096683Y-118955198D01*
X114018973Y-119018973D01*
X113997778Y-119044799D01*
X113857417Y-119185160D01*
X113758773Y-119204782D01*
X113608269Y-119267123D01*
X113472819Y-119357628D01*
X113357628Y-119472819D01*
X113268596Y-119606065D01*
X111871153Y-118208623D01*
X111834293Y-118163709D01*
X111655072Y-118016626D01*
X111450599Y-117907333D01*
X111228734Y-117840031D01*
X111055814Y-117823000D01*
X110998002Y-117817306D01*
X110940190Y-117823000D01*
X96487529Y-117823000D01*
X94364529Y-115700000D01*
X114870571Y-115700000D01*
X114880263Y-115798409D01*
X114908968Y-115893037D01*
X114955583Y-115980246D01*
X115018315Y-116056685D01*
X115094754Y-116119417D01*
X115181963Y-116166032D01*
X115276591Y-116194737D01*
X115375000Y-116204429D01*
X115576500Y-116202000D01*
X115702000Y-116076500D01*
X115702000Y-115248000D01*
X114998500Y-115248000D01*
X114873000Y-115373500D01*
X114870571Y-115700000D01*
X94364529Y-115700000D01*
X92964529Y-114300000D01*
X114870571Y-114300000D01*
X114873000Y-114626500D01*
X114998500Y-114752000D01*
X115702000Y-114752000D01*
X115702000Y-113923500D01*
X115576500Y-113798000D01*
X115375000Y-113795571D01*
X115276591Y-113805263D01*
X115181963Y-113833968D01*
X115094754Y-113880583D01*
X115018315Y-113943315D01*
X114955583Y-114019754D01*
X114908968Y-114106963D01*
X114880263Y-114201591D01*
X114870571Y-114300000D01*
X92964529Y-114300000D01*
X92873151Y-114208623D01*
X92836291Y-114163709D01*
X92657070Y-114016626D01*
X92452597Y-113907333D01*
X92230732Y-113840031D01*
X92057812Y-113823000D01*
X92000000Y-113817306D01*
X91942188Y-113823000D01*
X84487529Y-113823000D01*
X84177000Y-113512471D01*
X84177000Y-112918548D01*
X115673000Y-112918548D01*
X115673000Y-113081452D01*
X115704782Y-113241227D01*
X115767123Y-113391731D01*
X115857628Y-113527181D01*
X115972819Y-113642372D01*
X116108269Y-113732877D01*
X116258773Y-113795218D01*
X116315081Y-113806419D01*
X116198000Y-113923500D01*
X116198000Y-114752000D01*
X116218000Y-114752000D01*
X116218000Y-115248000D01*
X116198000Y-115248000D01*
X116198000Y-116076500D01*
X116323500Y-116202000D01*
X116525000Y-116204429D01*
X116623409Y-116194737D01*
X116718037Y-116166032D01*
X116805246Y-116119417D01*
X116881685Y-116056685D01*
X116944417Y-115980246D01*
X116991032Y-115893037D01*
X117019737Y-115798409D01*
X117029429Y-115700000D01*
X117029047Y-115648624D01*
X117047625Y-115709868D01*
X117110377Y-115827269D01*
X117194828Y-115930172D01*
X117297731Y-116014623D01*
X117323000Y-116028130D01*
X117323000Y-116524643D01*
X117267123Y-116608269D01*
X117204782Y-116758773D01*
X117173000Y-116918548D01*
X117173000Y-117081452D01*
X117204782Y-117241227D01*
X117267123Y-117391731D01*
X117357628Y-117527181D01*
X117472819Y-117642372D01*
X117608269Y-117732877D01*
X117758773Y-117795218D01*
X117918548Y-117827000D01*
X118081452Y-117827000D01*
X118241227Y-117795218D01*
X118391731Y-117732877D01*
X118527181Y-117642372D01*
X118642372Y-117527181D01*
X118732877Y-117391731D01*
X118795218Y-117241227D01*
X118827000Y-117081452D01*
X118827000Y-116918548D01*
X118795218Y-116758773D01*
X118732877Y-116608269D01*
X118677000Y-116524643D01*
X118677000Y-116028130D01*
X118702269Y-116014623D01*
X118805172Y-115930172D01*
X118889623Y-115827269D01*
X118952375Y-115709868D01*
X118991018Y-115582480D01*
X119004066Y-115450001D01*
X119004066Y-114549999D01*
X118991018Y-114417520D01*
X118952375Y-114290132D01*
X118889623Y-114172731D01*
X118805172Y-114069828D01*
X118702269Y-113985377D01*
X118584868Y-113922625D01*
X118457480Y-113883982D01*
X118325001Y-113870934D01*
X117674999Y-113870934D01*
X117542520Y-113883982D01*
X117415132Y-113922625D01*
X117297731Y-113985377D01*
X117194828Y-114069828D01*
X117110377Y-114172731D01*
X117047625Y-114290132D01*
X117029047Y-114351376D01*
X117029429Y-114300000D01*
X117019737Y-114201591D01*
X116991032Y-114106963D01*
X116944417Y-114019754D01*
X116881685Y-113943315D01*
X116805246Y-113880583D01*
X116718037Y-113833968D01*
X116650070Y-113813351D01*
X116741227Y-113795218D01*
X116891731Y-113732877D01*
X116975357Y-113677000D01*
X120719578Y-113677000D01*
X124497774Y-117455196D01*
X124518973Y-117481027D01*
X124622059Y-117565628D01*
X124739670Y-117628492D01*
X124867285Y-117667204D01*
X124966748Y-117677000D01*
X124966757Y-117677000D01*
X124999999Y-117680274D01*
X125033241Y-117677000D01*
X145466755Y-117677000D01*
X145500000Y-117680274D01*
X145533245Y-117677000D01*
X145533252Y-117677000D01*
X145632715Y-117667204D01*
X145760330Y-117628492D01*
X145877941Y-117565628D01*
X145981027Y-117481027D01*
X146002226Y-117455196D01*
X146538874Y-116918548D01*
X148173000Y-116918548D01*
X148173000Y-117081452D01*
X148204782Y-117241227D01*
X148267123Y-117391731D01*
X148323000Y-117475357D01*
X148323001Y-120966746D01*
X148319726Y-121000000D01*
X148332796Y-121132714D01*
X148371508Y-121260329D01*
X148434372Y-121377940D01*
X148497776Y-121455198D01*
X148497779Y-121455201D01*
X148518974Y-121481027D01*
X148544800Y-121502222D01*
X169497778Y-142455201D01*
X169518973Y-142481027D01*
X169544799Y-142502222D01*
X169544801Y-142502224D01*
X169622059Y-142565628D01*
X169739670Y-142628492D01*
X169867285Y-142667204D01*
X170000000Y-142680275D01*
X170033252Y-142677000D01*
X184524643Y-142677000D01*
X184608269Y-142732877D01*
X184758773Y-142795218D01*
X184918548Y-142827000D01*
X185081452Y-142827000D01*
X185241227Y-142795218D01*
X185391731Y-142732877D01*
X185527181Y-142642372D01*
X185642372Y-142527181D01*
X185732877Y-142391731D01*
X185795218Y-142241227D01*
X185827000Y-142081452D01*
X185827000Y-141918548D01*
X185795218Y-141758773D01*
X185732877Y-141608269D01*
X185642372Y-141472819D01*
X185527181Y-141357628D01*
X185391731Y-141267123D01*
X185241227Y-141204782D01*
X185081452Y-141173000D01*
X184918548Y-141173000D01*
X184758773Y-141204782D01*
X184608269Y-141267123D01*
X184524643Y-141323000D01*
X170280423Y-141323000D01*
X149677000Y-120719578D01*
X149677000Y-119918548D01*
X150673000Y-119918548D01*
X150673000Y-120081452D01*
X150704782Y-120241227D01*
X150767123Y-120391731D01*
X150857628Y-120527181D01*
X150972819Y-120642372D01*
X151108269Y-120732877D01*
X151258773Y-120795218D01*
X151357418Y-120814840D01*
X166497774Y-135955196D01*
X166518973Y-135981027D01*
X166622059Y-136065628D01*
X166739670Y-136128492D01*
X166867285Y-136167204D01*
X166966748Y-136177000D01*
X166966757Y-136177000D01*
X166999999Y-136180274D01*
X167033241Y-136177000D01*
X168024643Y-136177000D01*
X168108269Y-136232877D01*
X168258773Y-136295218D01*
X168418548Y-136327000D01*
X168581452Y-136327000D01*
X168741227Y-136295218D01*
X168891731Y-136232877D01*
X169027181Y-136142372D01*
X169142372Y-136027181D01*
X169232877Y-135891731D01*
X169295218Y-135741227D01*
X169327000Y-135581452D01*
X169327000Y-135418548D01*
X169295218Y-135258773D01*
X169232877Y-135108269D01*
X169142372Y-134972819D01*
X169027181Y-134857628D01*
X168891731Y-134767123D01*
X168741227Y-134704782D01*
X168581452Y-134673000D01*
X168418548Y-134673000D01*
X168258773Y-134704782D01*
X168108269Y-134767123D01*
X168024643Y-134823000D01*
X167280422Y-134823000D01*
X165134422Y-132677000D01*
X168024643Y-132677000D01*
X168108269Y-132732877D01*
X168258773Y-132795218D01*
X168418548Y-132827000D01*
X168581452Y-132827000D01*
X168741227Y-132795218D01*
X168891731Y-132732877D01*
X169027181Y-132642372D01*
X169142372Y-132527181D01*
X169232877Y-132391731D01*
X169295218Y-132241227D01*
X169327000Y-132081452D01*
X169327000Y-131918548D01*
X169295218Y-131758773D01*
X169232877Y-131608269D01*
X169142372Y-131472819D01*
X169027181Y-131357628D01*
X168891731Y-131267123D01*
X168741227Y-131204782D01*
X168581452Y-131173000D01*
X168418548Y-131173000D01*
X168258773Y-131204782D01*
X168108269Y-131267123D01*
X168024643Y-131323000D01*
X165280423Y-131323000D01*
X153314840Y-119357418D01*
X153304268Y-119304268D01*
X153357418Y-119314840D01*
X158497778Y-124455201D01*
X158518973Y-124481027D01*
X158544799Y-124502222D01*
X158544801Y-124502224D01*
X158622059Y-124565628D01*
X158739670Y-124628492D01*
X158867285Y-124667204D01*
X159000000Y-124680275D01*
X159033252Y-124677000D01*
X181219578Y-124677000D01*
X183823000Y-127280423D01*
X183823001Y-133466745D01*
X183819726Y-133500000D01*
X183832796Y-133632714D01*
X183871508Y-133760329D01*
X183934372Y-133877940D01*
X183997776Y-133955198D01*
X183997779Y-133955201D01*
X184018974Y-133981027D01*
X184044800Y-134002222D01*
X184685160Y-134642583D01*
X184704782Y-134741227D01*
X184767123Y-134891731D01*
X184857628Y-135027181D01*
X184972819Y-135142372D01*
X185108269Y-135232877D01*
X185258773Y-135295218D01*
X185418548Y-135327000D01*
X185581452Y-135327000D01*
X185741227Y-135295218D01*
X185891731Y-135232877D01*
X186027181Y-135142372D01*
X186142372Y-135027181D01*
X186232877Y-134891731D01*
X186295218Y-134741227D01*
X186327000Y-134581452D01*
X186327000Y-134418548D01*
X186295218Y-134258773D01*
X186232877Y-134108269D01*
X186142372Y-133972819D01*
X186027181Y-133857628D01*
X185891731Y-133767123D01*
X185741227Y-133704782D01*
X185642583Y-133685160D01*
X185177000Y-133219578D01*
X185177000Y-127033252D01*
X185180275Y-127000000D01*
X185167204Y-126867285D01*
X185128492Y-126739670D01*
X185065628Y-126622059D01*
X185002224Y-126544801D01*
X185002218Y-126544795D01*
X184981026Y-126518973D01*
X184955206Y-126497783D01*
X182134422Y-123677000D01*
X183219578Y-123677000D01*
X185185160Y-125642583D01*
X185204782Y-125741227D01*
X185267123Y-125891731D01*
X185357628Y-126027181D01*
X185472819Y-126142372D01*
X185608269Y-126232877D01*
X185758773Y-126295218D01*
X185918548Y-126327000D01*
X186081452Y-126327000D01*
X186241227Y-126295218D01*
X186391731Y-126232877D01*
X186527181Y-126142372D01*
X186642372Y-126027181D01*
X186732877Y-125891731D01*
X186795218Y-125741227D01*
X186827000Y-125581452D01*
X186827000Y-125418548D01*
X186795218Y-125258773D01*
X186732877Y-125108269D01*
X186642372Y-124972819D01*
X186527181Y-124857628D01*
X186391731Y-124767123D01*
X186241227Y-124704782D01*
X186142583Y-124685160D01*
X184002226Y-122544804D01*
X183981027Y-122518973D01*
X183877941Y-122434372D01*
X183760330Y-122371508D01*
X183632715Y-122332796D01*
X183533252Y-122323000D01*
X183533245Y-122323000D01*
X183500000Y-122319726D01*
X183466755Y-122323000D01*
X163761346Y-122323000D01*
X163795218Y-122241227D01*
X163827000Y-122081452D01*
X163827000Y-121918548D01*
X163795218Y-121758773D01*
X163732877Y-121608269D01*
X163642372Y-121472819D01*
X163527181Y-121357628D01*
X163391731Y-121267123D01*
X163241227Y-121204782D01*
X163142582Y-121185160D01*
X160002226Y-118044804D01*
X159981027Y-118018973D01*
X159877941Y-117934372D01*
X159760330Y-117871508D01*
X159632715Y-117832796D01*
X159533252Y-117823000D01*
X159533245Y-117823000D01*
X159500000Y-117819726D01*
X159466755Y-117823000D01*
X156975357Y-117823000D01*
X156891731Y-117767123D01*
X156741227Y-117704782D01*
X156581452Y-117673000D01*
X156418548Y-117673000D01*
X156258773Y-117704782D01*
X156108269Y-117767123D01*
X155972819Y-117857628D01*
X155857628Y-117972819D01*
X155767123Y-118108269D01*
X155708125Y-118250703D01*
X155314840Y-117857418D01*
X155295218Y-117758773D01*
X155232877Y-117608269D01*
X155142372Y-117472819D01*
X155027181Y-117357628D01*
X154891731Y-117267123D01*
X154741227Y-117204782D01*
X154581452Y-117173000D01*
X154418548Y-117173000D01*
X154258773Y-117204782D01*
X154108269Y-117267123D01*
X153972819Y-117357628D01*
X153857628Y-117472819D01*
X153767123Y-117608269D01*
X153728218Y-117702194D01*
X153581452Y-117673000D01*
X153418548Y-117673000D01*
X153258773Y-117704782D01*
X153108269Y-117767123D01*
X152972819Y-117857628D01*
X152857628Y-117972819D01*
X152767123Y-118108269D01*
X152704782Y-118258773D01*
X152673000Y-118418548D01*
X152673000Y-118581452D01*
X152695732Y-118695732D01*
X152581452Y-118673000D01*
X152418548Y-118673000D01*
X152258773Y-118704782D01*
X152108269Y-118767123D01*
X151972819Y-118857628D01*
X151857628Y-118972819D01*
X151767123Y-119108269D01*
X151728218Y-119202194D01*
X151581452Y-119173000D01*
X151418548Y-119173000D01*
X151258773Y-119204782D01*
X151108269Y-119267123D01*
X150972819Y-119357628D01*
X150857628Y-119472819D01*
X150767123Y-119608269D01*
X150704782Y-119758773D01*
X150673000Y-119918548D01*
X149677000Y-119918548D01*
X149677000Y-117475357D01*
X149732877Y-117391731D01*
X149795218Y-117241227D01*
X149827000Y-117081452D01*
X149827000Y-116918548D01*
X149795218Y-116758773D01*
X149732877Y-116608269D01*
X149642372Y-116472819D01*
X149527181Y-116357628D01*
X149391731Y-116267123D01*
X149241227Y-116204782D01*
X149081452Y-116173000D01*
X148918548Y-116173000D01*
X148758773Y-116204782D01*
X148608269Y-116267123D01*
X148472819Y-116357628D01*
X148357628Y-116472819D01*
X148267123Y-116608269D01*
X148204782Y-116758773D01*
X148173000Y-116918548D01*
X146538874Y-116918548D01*
X148038874Y-115418548D01*
X156673000Y-115418548D01*
X156673000Y-115581452D01*
X156704782Y-115741227D01*
X156767123Y-115891731D01*
X156857628Y-116027181D01*
X156972819Y-116142372D01*
X157108269Y-116232877D01*
X157258773Y-116295218D01*
X157357418Y-116314840D01*
X157997778Y-116955201D01*
X158018973Y-116981027D01*
X158044799Y-117002222D01*
X158044801Y-117002224D01*
X158122059Y-117065628D01*
X158239670Y-117128492D01*
X158367285Y-117167204D01*
X158500000Y-117180275D01*
X158533252Y-117177000D01*
X159719578Y-117177000D01*
X164497778Y-121955201D01*
X164518973Y-121981027D01*
X164544799Y-122002222D01*
X164544801Y-122002224D01*
X164622059Y-122065628D01*
X164739670Y-122128492D01*
X164867285Y-122167204D01*
X165000000Y-122180275D01*
X165033252Y-122177000D01*
X183466755Y-122177000D01*
X183500000Y-122180274D01*
X183533245Y-122177000D01*
X183533252Y-122177000D01*
X183632715Y-122167204D01*
X183760330Y-122128492D01*
X183877941Y-122065628D01*
X183981027Y-121981027D01*
X184002226Y-121955196D01*
X185642582Y-120314840D01*
X185741227Y-120295218D01*
X185891731Y-120232877D01*
X186027181Y-120142372D01*
X186142372Y-120027181D01*
X186232877Y-119891731D01*
X186295218Y-119741227D01*
X186327000Y-119581452D01*
X186327000Y-119418548D01*
X186295218Y-119258773D01*
X186232877Y-119108269D01*
X186142372Y-118972819D01*
X186027181Y-118857628D01*
X185891731Y-118767123D01*
X185741227Y-118704782D01*
X185581452Y-118673000D01*
X185418548Y-118673000D01*
X185258773Y-118704782D01*
X185108269Y-118767123D01*
X184972819Y-118857628D01*
X184857628Y-118972819D01*
X184767123Y-119108269D01*
X184704782Y-119258773D01*
X184685160Y-119357418D01*
X183219578Y-120823000D01*
X165280423Y-120823000D01*
X160502226Y-116044804D01*
X160481027Y-116018973D01*
X160377941Y-115934372D01*
X160260330Y-115871508D01*
X160132715Y-115832796D01*
X160033252Y-115823000D01*
X160033245Y-115823000D01*
X160000000Y-115819726D01*
X159966755Y-115823000D01*
X158780423Y-115823000D01*
X158314840Y-115357418D01*
X158295218Y-115258773D01*
X158232877Y-115108269D01*
X158142372Y-114972819D01*
X158027181Y-114857628D01*
X157891731Y-114767123D01*
X157741227Y-114704782D01*
X157581452Y-114673000D01*
X157418548Y-114673000D01*
X157258773Y-114704782D01*
X157108269Y-114767123D01*
X156972819Y-114857628D01*
X156857628Y-114972819D01*
X156767123Y-115108269D01*
X156704782Y-115258773D01*
X156673000Y-115418548D01*
X148038874Y-115418548D01*
X150780423Y-112677000D01*
X165966755Y-112677000D01*
X166000000Y-112680274D01*
X166033245Y-112677000D01*
X166033252Y-112677000D01*
X166132715Y-112667204D01*
X166260330Y-112628492D01*
X166377941Y-112565628D01*
X166481027Y-112481027D01*
X166502226Y-112455196D01*
X172184528Y-106772894D01*
X183511000Y-106772894D01*
X183511000Y-107007106D01*
X183556693Y-107236818D01*
X183646322Y-107453203D01*
X183776443Y-107647943D01*
X183942057Y-107813557D01*
X184136797Y-107943678D01*
X184353182Y-108033307D01*
X184582894Y-108079000D01*
X184817106Y-108079000D01*
X185046818Y-108033307D01*
X185263203Y-107943678D01*
X185457943Y-107813557D01*
X185623557Y-107647943D01*
X185753678Y-107453203D01*
X185843307Y-107236818D01*
X185889000Y-107007106D01*
X185889000Y-106772894D01*
X185843307Y-106543182D01*
X185753678Y-106326797D01*
X185623557Y-106132057D01*
X185457943Y-105966443D01*
X185263203Y-105836322D01*
X185046818Y-105746693D01*
X184817106Y-105701000D01*
X184582894Y-105701000D01*
X184353182Y-105746693D01*
X184136797Y-105836322D01*
X183942057Y-105966443D01*
X183776443Y-106132057D01*
X183646322Y-106326797D01*
X183556693Y-106543182D01*
X183511000Y-106772894D01*
X172184528Y-106772894D01*
X174955196Y-104002226D01*
X174981027Y-103981027D01*
X175065628Y-103877941D01*
X175128492Y-103760330D01*
X175167204Y-103632715D01*
X175177000Y-103533252D01*
X175177000Y-103533243D01*
X175180274Y-103500001D01*
X175177000Y-103466759D01*
X175177000Y-97882894D01*
X183511000Y-97882894D01*
X183511000Y-98117106D01*
X183556693Y-98346818D01*
X183646322Y-98563203D01*
X183776443Y-98757943D01*
X183942057Y-98923557D01*
X184136797Y-99053678D01*
X184353182Y-99143307D01*
X184582894Y-99189000D01*
X184817106Y-99189000D01*
X185046818Y-99143307D01*
X185263203Y-99053678D01*
X185457943Y-98923557D01*
X185623557Y-98757943D01*
X185753678Y-98563203D01*
X185843307Y-98346818D01*
X185889000Y-98117106D01*
X185889000Y-97882894D01*
X185843307Y-97653182D01*
X185753678Y-97436797D01*
X185623557Y-97242057D01*
X185457943Y-97076443D01*
X185263203Y-96946322D01*
X185046818Y-96856693D01*
X184817106Y-96811000D01*
X184582894Y-96811000D01*
X184353182Y-96856693D01*
X184136797Y-96946322D01*
X183942057Y-97076443D01*
X183776443Y-97242057D01*
X183646322Y-97436797D01*
X183556693Y-97653182D01*
X183511000Y-97882894D01*
X175177000Y-97882894D01*
X175177000Y-88992894D01*
X183511000Y-88992894D01*
X183511000Y-89227106D01*
X183556693Y-89456818D01*
X183646322Y-89673203D01*
X183776443Y-89867943D01*
X183942057Y-90033557D01*
X184136797Y-90163678D01*
X184353182Y-90253307D01*
X184582894Y-90299000D01*
X184817106Y-90299000D01*
X185046818Y-90253307D01*
X185263203Y-90163678D01*
X185457943Y-90033557D01*
X185623557Y-89867943D01*
X185753678Y-89673203D01*
X185843307Y-89456818D01*
X185889000Y-89227106D01*
X185889000Y-88992894D01*
X185843307Y-88763182D01*
X185753678Y-88546797D01*
X185623557Y-88352057D01*
X185457943Y-88186443D01*
X185263203Y-88056322D01*
X185046818Y-87966693D01*
X184817106Y-87921000D01*
X184582894Y-87921000D01*
X184353182Y-87966693D01*
X184136797Y-88056322D01*
X183942057Y-88186443D01*
X183776443Y-88352057D01*
X183646322Y-88546797D01*
X183556693Y-88763182D01*
X183511000Y-88992894D01*
X175177000Y-88992894D01*
X175177000Y-85975357D01*
X175232877Y-85891731D01*
X175295218Y-85741227D01*
X175327000Y-85581452D01*
X175327000Y-85418548D01*
X175295218Y-85258773D01*
X175232877Y-85108269D01*
X175142372Y-84972819D01*
X175027181Y-84857628D01*
X174891731Y-84767123D01*
X174741227Y-84704782D01*
X174581452Y-84673000D01*
X174418548Y-84673000D01*
X174258773Y-84704782D01*
X174108269Y-84767123D01*
X173972819Y-84857628D01*
X173857628Y-84972819D01*
X173767123Y-85108269D01*
X173704782Y-85258773D01*
X173673000Y-85418548D01*
X173673000Y-85581452D01*
X173704782Y-85741227D01*
X173767123Y-85891731D01*
X173823000Y-85975357D01*
X173823001Y-103219577D01*
X165719578Y-111323000D01*
X153761346Y-111323000D01*
X153795218Y-111241227D01*
X153827000Y-111081452D01*
X153827000Y-110918548D01*
X153795218Y-110758773D01*
X153732877Y-110608269D01*
X153642372Y-110472819D01*
X153527181Y-110357628D01*
X153391731Y-110267123D01*
X153241227Y-110204782D01*
X153142583Y-110185160D01*
X150812925Y-107855502D01*
X158685223Y-107855502D01*
X158768450Y-108043538D01*
X159003707Y-108125073D01*
X159250351Y-108159145D01*
X159498903Y-108144445D01*
X159739811Y-108081537D01*
X159831550Y-108043538D01*
X159914777Y-107855502D01*
X159300000Y-107240725D01*
X158685223Y-107855502D01*
X150812925Y-107855502D01*
X150502226Y-107544804D01*
X150481027Y-107518973D01*
X150377941Y-107434372D01*
X150260330Y-107371508D01*
X150132715Y-107332796D01*
X150033252Y-107323000D01*
X150033245Y-107323000D01*
X150000000Y-107319726D01*
X149966755Y-107323000D01*
X141533252Y-107323000D01*
X141500000Y-107319725D01*
X141466748Y-107323000D01*
X141367285Y-107332796D01*
X141239670Y-107371508D01*
X141122059Y-107434372D01*
X141018973Y-107518973D01*
X140997778Y-107544799D01*
X140544806Y-107997772D01*
X140544801Y-107997776D01*
X139857418Y-108685160D01*
X139758773Y-108704782D01*
X139608269Y-108767123D01*
X139472819Y-108857628D01*
X139357628Y-108972819D01*
X139267123Y-109108269D01*
X139204782Y-109258773D01*
X139173000Y-109418548D01*
X139173000Y-109581452D01*
X139204782Y-109741227D01*
X139267123Y-109891731D01*
X139357628Y-110027181D01*
X139472819Y-110142372D01*
X139608269Y-110232877D01*
X139758773Y-110295218D01*
X139918548Y-110327000D01*
X140081452Y-110327000D01*
X140241227Y-110295218D01*
X140391731Y-110232877D01*
X140527181Y-110142372D01*
X140642372Y-110027181D01*
X140732877Y-109891731D01*
X140795218Y-109741227D01*
X140814840Y-109642582D01*
X141502224Y-108955199D01*
X141502228Y-108955194D01*
X141780423Y-108677000D01*
X149719578Y-108677000D01*
X152185160Y-111142583D01*
X152204782Y-111241227D01*
X152238654Y-111323000D01*
X150533252Y-111323000D01*
X150500000Y-111319725D01*
X150466748Y-111323000D01*
X150367285Y-111332796D01*
X150239670Y-111371508D01*
X150122059Y-111434372D01*
X150018973Y-111518973D01*
X149997778Y-111544799D01*
X147791875Y-113750702D01*
X147732877Y-113608269D01*
X147642372Y-113472819D01*
X147527181Y-113357628D01*
X147391731Y-113267123D01*
X147241227Y-113204782D01*
X147081452Y-113173000D01*
X146918548Y-113173000D01*
X146758773Y-113204782D01*
X146608269Y-113267123D01*
X146524643Y-113323000D01*
X142280423Y-113323000D01*
X135797774Y-106840351D01*
X158030855Y-106840351D01*
X158045555Y-107088903D01*
X158108463Y-107329811D01*
X158146462Y-107421550D01*
X158334498Y-107504777D01*
X158949275Y-106890000D01*
X159650725Y-106890000D01*
X160265502Y-107504777D01*
X160453538Y-107421550D01*
X160535073Y-107186293D01*
X160569145Y-106939649D01*
X160554445Y-106691097D01*
X160491537Y-106450189D01*
X160453538Y-106358450D01*
X160265502Y-106275223D01*
X159650725Y-106890000D01*
X158949275Y-106890000D01*
X158334498Y-106275223D01*
X158146462Y-106358450D01*
X158064927Y-106593707D01*
X158030855Y-106840351D01*
X135797774Y-106840351D01*
X134881921Y-105924498D01*
X158685223Y-105924498D01*
X159300000Y-106539275D01*
X159914777Y-105924498D01*
X159831550Y-105736462D01*
X159596293Y-105654927D01*
X159349649Y-105620855D01*
X159101097Y-105635555D01*
X158860189Y-105698463D01*
X158768450Y-105736462D01*
X158685223Y-105924498D01*
X134881921Y-105924498D01*
X133177000Y-104219578D01*
X133177000Y-100975357D01*
X133232877Y-100891731D01*
X133295218Y-100741227D01*
X133327000Y-100581452D01*
X133327000Y-100418548D01*
X133295218Y-100258773D01*
X133232877Y-100108269D01*
X133142372Y-99972819D01*
X133027181Y-99857628D01*
X132891731Y-99767123D01*
X132741227Y-99704782D01*
X132581452Y-99673000D01*
X132418548Y-99673000D01*
X132258773Y-99704782D01*
X132108269Y-99767123D01*
X132024643Y-99823000D01*
X129533252Y-99823000D01*
X129500000Y-99819725D01*
X129466748Y-99823000D01*
X129367285Y-99832796D01*
X129239670Y-99871508D01*
X129122059Y-99934372D01*
X129018973Y-100018973D01*
X128997778Y-100044799D01*
X126044801Y-102997777D01*
X126018974Y-103018973D01*
X125997779Y-103044799D01*
X125997776Y-103044802D01*
X125934372Y-103122060D01*
X125871508Y-103239671D01*
X125832796Y-103367286D01*
X125819726Y-103500000D01*
X125823001Y-103533252D01*
X125823000Y-105219578D01*
X122394801Y-108647777D01*
X122368975Y-108668972D01*
X122347780Y-108694798D01*
X122347777Y-108694801D01*
X122284373Y-108772059D01*
X122221509Y-108889670D01*
X122182797Y-109017285D01*
X122169727Y-109149999D01*
X122173002Y-109183253D01*
X122173001Y-110369576D01*
X121544803Y-110997775D01*
X121518973Y-111018973D01*
X121497776Y-111044802D01*
X121434372Y-111122060D01*
X121371508Y-111239671D01*
X121332796Y-111367286D01*
X121319726Y-111500000D01*
X121332796Y-111632714D01*
X121371508Y-111760329D01*
X121434372Y-111877940D01*
X121518973Y-111981027D01*
X121544802Y-112002224D01*
X121685160Y-112142582D01*
X121704782Y-112241227D01*
X121767123Y-112391731D01*
X121857628Y-112527181D01*
X121972819Y-112642372D01*
X122108269Y-112732877D01*
X122258773Y-112795218D01*
X122418548Y-112827000D01*
X122581452Y-112827000D01*
X122741227Y-112795218D01*
X122891731Y-112732877D01*
X123027181Y-112642372D01*
X123142372Y-112527181D01*
X123232877Y-112391731D01*
X123295218Y-112241227D01*
X123327000Y-112081452D01*
X123327000Y-111918548D01*
X123295218Y-111758773D01*
X123232877Y-111608269D01*
X123142372Y-111472819D01*
X123063488Y-111393935D01*
X123305206Y-111152217D01*
X123331027Y-111131026D01*
X123352219Y-111105204D01*
X123352225Y-111105198D01*
X123415629Y-111027940D01*
X123478493Y-110910329D01*
X123517205Y-110782714D01*
X123521444Y-110739670D01*
X123527001Y-110683251D01*
X123527001Y-110683244D01*
X123530275Y-110649999D01*
X123527001Y-110616754D01*
X123527001Y-109430421D01*
X126955200Y-106002222D01*
X126981026Y-105981027D01*
X127065628Y-105877941D01*
X127128492Y-105760330D01*
X127167204Y-105632715D01*
X127177000Y-105533252D01*
X127177000Y-105533243D01*
X127180274Y-105500001D01*
X127177000Y-105466759D01*
X127177000Y-103780422D01*
X129780423Y-101177000D01*
X131823001Y-101177000D01*
X131823000Y-104466755D01*
X131819726Y-104500000D01*
X131823000Y-104533245D01*
X131823000Y-104533251D01*
X131832796Y-104632714D01*
X131871508Y-104760329D01*
X131934372Y-104877940D01*
X132018973Y-104981026D01*
X132044800Y-105002222D01*
X141497778Y-114455201D01*
X141518973Y-114481027D01*
X141544799Y-114502222D01*
X141544801Y-114502224D01*
X141622059Y-114565628D01*
X141739670Y-114628492D01*
X141867285Y-114667204D01*
X142000000Y-114680275D01*
X142033252Y-114677000D01*
X146524643Y-114677000D01*
X146608269Y-114732877D01*
X146750703Y-114791875D01*
X145219578Y-116323000D01*
X125280422Y-116323000D01*
X121502226Y-112544804D01*
X121481027Y-112518973D01*
X121377941Y-112434372D01*
X121260330Y-112371508D01*
X121132715Y-112332796D01*
X121033252Y-112323000D01*
X121033245Y-112323000D01*
X121000000Y-112319726D01*
X120966755Y-112323000D01*
X116975357Y-112323000D01*
X116891731Y-112267123D01*
X116741227Y-112204782D01*
X116581452Y-112173000D01*
X116418548Y-112173000D01*
X116258773Y-112204782D01*
X116108269Y-112267123D01*
X115972819Y-112357628D01*
X115857628Y-112472819D01*
X115767123Y-112608269D01*
X115704782Y-112758773D01*
X115673000Y-112918548D01*
X84177000Y-112918548D01*
X84177000Y-109107877D01*
X90307000Y-109107877D01*
X90307000Y-109392123D01*
X90362454Y-109670908D01*
X90471230Y-109933517D01*
X90629149Y-110169859D01*
X90830141Y-110370851D01*
X91066483Y-110528770D01*
X91329092Y-110637546D01*
X91607877Y-110693000D01*
X91892123Y-110693000D01*
X92170908Y-110637546D01*
X92433517Y-110528770D01*
X92669859Y-110370851D01*
X92870851Y-110169859D01*
X93028770Y-109933517D01*
X93045400Y-109893369D01*
X93062030Y-109933517D01*
X93219949Y-110169859D01*
X93420941Y-110370851D01*
X93657283Y-110528770D01*
X93919892Y-110637546D01*
X94198677Y-110693000D01*
X94482923Y-110693000D01*
X94761708Y-110637546D01*
X95024317Y-110528770D01*
X95260659Y-110370851D01*
X95461651Y-110169859D01*
X95619570Y-109933517D01*
X95728346Y-109670908D01*
X95783800Y-109392123D01*
X95783800Y-109107877D01*
X95728346Y-108829092D01*
X95619570Y-108566483D01*
X95461651Y-108330141D01*
X95260659Y-108129149D01*
X95024317Y-107971230D01*
X94761708Y-107862454D01*
X94482923Y-107807000D01*
X94198677Y-107807000D01*
X93919892Y-107862454D01*
X93657283Y-107971230D01*
X93420941Y-108129149D01*
X93219949Y-108330141D01*
X93062030Y-108566483D01*
X93045400Y-108606631D01*
X93028770Y-108566483D01*
X92870851Y-108330141D01*
X92669859Y-108129149D01*
X92433517Y-107971230D01*
X92170908Y-107862454D01*
X91892123Y-107807000D01*
X91607877Y-107807000D01*
X91329092Y-107862454D01*
X91066483Y-107971230D01*
X90830141Y-108129149D01*
X90629149Y-108330141D01*
X90471230Y-108566483D01*
X90362454Y-108829092D01*
X90307000Y-109107877D01*
X84177000Y-109107877D01*
X84177000Y-101757000D01*
X86241771Y-101757000D01*
X86251463Y-101855409D01*
X86280168Y-101950037D01*
X86326783Y-102037246D01*
X86389515Y-102113685D01*
X86465954Y-102176417D01*
X86553163Y-102223032D01*
X86647791Y-102251737D01*
X86746200Y-102261429D01*
X88277700Y-102259000D01*
X88403200Y-102133500D01*
X88403200Y-100989000D01*
X88899200Y-100989000D01*
X88899200Y-102133500D01*
X89024700Y-102259000D01*
X90556200Y-102261429D01*
X90654609Y-102251737D01*
X90749237Y-102223032D01*
X90836446Y-102176417D01*
X90912885Y-102113685D01*
X90975617Y-102037246D01*
X91022232Y-101950037D01*
X91050937Y-101855409D01*
X91060629Y-101757000D01*
X91058200Y-101114500D01*
X90932700Y-100989000D01*
X88899200Y-100989000D01*
X88403200Y-100989000D01*
X86369700Y-100989000D01*
X86244200Y-101114500D01*
X86241771Y-101757000D01*
X84177000Y-101757000D01*
X84177000Y-99275000D01*
X86241771Y-99275000D01*
X86251463Y-99373409D01*
X86280168Y-99468037D01*
X86297253Y-99500000D01*
X86280168Y-99531963D01*
X86251463Y-99626591D01*
X86241771Y-99725000D01*
X86244200Y-100367500D01*
X86369700Y-100493000D01*
X88403200Y-100493000D01*
X88403200Y-98507000D01*
X88899200Y-98507000D01*
X88899200Y-100493000D01*
X90932700Y-100493000D01*
X91058200Y-100367500D01*
X91060629Y-99725000D01*
X91050937Y-99626591D01*
X91022232Y-99531963D01*
X91005147Y-99500000D01*
X91022232Y-99468037D01*
X91050937Y-99373409D01*
X91060629Y-99275000D01*
X91058200Y-98632500D01*
X90932700Y-98507000D01*
X88899200Y-98507000D01*
X88403200Y-98507000D01*
X86369700Y-98507000D01*
X86244200Y-98632500D01*
X86241771Y-99275000D01*
X84177000Y-99275000D01*
X84177000Y-97243000D01*
X86241771Y-97243000D01*
X86244200Y-97885500D01*
X86369700Y-98011000D01*
X88403200Y-98011000D01*
X88403200Y-96866500D01*
X88899200Y-96866500D01*
X88899200Y-98011000D01*
X90932700Y-98011000D01*
X91058200Y-97885500D01*
X91060629Y-97243000D01*
X91050937Y-97144591D01*
X91022232Y-97049963D01*
X90975617Y-96962754D01*
X90912885Y-96886315D01*
X90836446Y-96823583D01*
X90749237Y-96776968D01*
X90654609Y-96748263D01*
X90556200Y-96738571D01*
X89024700Y-96741000D01*
X88899200Y-96866500D01*
X88403200Y-96866500D01*
X88277700Y-96741000D01*
X86746200Y-96738571D01*
X86647791Y-96748263D01*
X86553163Y-96776968D01*
X86465954Y-96823583D01*
X86389515Y-96886315D01*
X86326783Y-96962754D01*
X86280168Y-97049963D01*
X86251463Y-97144591D01*
X86241771Y-97243000D01*
X84177000Y-97243000D01*
X84177000Y-94418548D01*
X112173000Y-94418548D01*
X112173000Y-94581452D01*
X112204782Y-94741227D01*
X112267123Y-94891731D01*
X112357628Y-95027181D01*
X112472819Y-95142372D01*
X112579368Y-95213566D01*
X115405044Y-98039243D01*
X115430157Y-98069843D01*
X115552277Y-98170065D01*
X115691603Y-98244536D01*
X115842780Y-98290395D01*
X115856215Y-98291718D01*
X115960606Y-98302000D01*
X115960614Y-98302000D01*
X116000000Y-98305879D01*
X116039386Y-98302000D01*
X124292868Y-98302000D01*
X124418548Y-98327000D01*
X124581452Y-98327000D01*
X124741227Y-98295218D01*
X124891731Y-98232877D01*
X125027181Y-98142372D01*
X125142372Y-98027181D01*
X125232877Y-97891731D01*
X125295218Y-97741227D01*
X125327000Y-97581452D01*
X125327000Y-97418548D01*
X125295218Y-97258773D01*
X125232877Y-97108269D01*
X125142372Y-96972819D01*
X125027181Y-96857628D01*
X124891731Y-96767123D01*
X124741227Y-96704782D01*
X124581452Y-96673000D01*
X124418548Y-96673000D01*
X124292868Y-96698000D01*
X116332199Y-96698000D01*
X113713566Y-94079368D01*
X113642372Y-93972819D01*
X113527181Y-93857628D01*
X113391731Y-93767123D01*
X113241227Y-93704782D01*
X113081452Y-93673000D01*
X112918548Y-93673000D01*
X112758773Y-93704782D01*
X112608269Y-93767123D01*
X112472819Y-93857628D01*
X112357628Y-93972819D01*
X112267123Y-94108269D01*
X112204782Y-94258773D01*
X112173000Y-94418548D01*
X84177000Y-94418548D01*
X84177000Y-89607877D01*
X90307000Y-89607877D01*
X90307000Y-89892123D01*
X90362454Y-90170908D01*
X90471230Y-90433517D01*
X90629149Y-90669859D01*
X90830141Y-90870851D01*
X91066483Y-91028770D01*
X91329092Y-91137546D01*
X91607877Y-91193000D01*
X91892123Y-91193000D01*
X92170908Y-91137546D01*
X92433517Y-91028770D01*
X92669859Y-90870851D01*
X92870851Y-90669859D01*
X93028770Y-90433517D01*
X93045400Y-90393369D01*
X93062030Y-90433517D01*
X93219949Y-90669859D01*
X93420941Y-90870851D01*
X93657283Y-91028770D01*
X93919892Y-91137546D01*
X94198677Y-91193000D01*
X94482923Y-91193000D01*
X94761708Y-91137546D01*
X95024317Y-91028770D01*
X95260659Y-90870851D01*
X95461651Y-90669859D01*
X95619570Y-90433517D01*
X95728346Y-90170908D01*
X95783800Y-89892123D01*
X95783800Y-89607877D01*
X95728346Y-89329092D01*
X95619570Y-89066483D01*
X95461651Y-88830141D01*
X95260659Y-88629149D01*
X95024317Y-88471230D01*
X94761708Y-88362454D01*
X94482923Y-88307000D01*
X94198677Y-88307000D01*
X93919892Y-88362454D01*
X93657283Y-88471230D01*
X93420941Y-88629149D01*
X93219949Y-88830141D01*
X93062030Y-89066483D01*
X93045400Y-89106631D01*
X93028770Y-89066483D01*
X92870851Y-88830141D01*
X92669859Y-88629149D01*
X92433517Y-88471230D01*
X92170908Y-88362454D01*
X91892123Y-88307000D01*
X91607877Y-88307000D01*
X91329092Y-88362454D01*
X91066483Y-88471230D01*
X90830141Y-88629149D01*
X90629149Y-88830141D01*
X90471230Y-89066483D01*
X90362454Y-89329092D01*
X90307000Y-89607877D01*
X84177000Y-89607877D01*
X84177000Y-82257000D01*
X86241771Y-82257000D01*
X86251463Y-82355409D01*
X86280168Y-82450037D01*
X86326783Y-82537246D01*
X86389515Y-82613685D01*
X86465954Y-82676417D01*
X86553163Y-82723032D01*
X86647791Y-82751737D01*
X86746200Y-82761429D01*
X88277700Y-82759000D01*
X88403200Y-82633500D01*
X88403200Y-81489000D01*
X88899200Y-81489000D01*
X88899200Y-82633500D01*
X89024700Y-82759000D01*
X90556200Y-82761429D01*
X90654609Y-82751737D01*
X90749237Y-82723032D01*
X90836446Y-82676417D01*
X90912885Y-82613685D01*
X90975617Y-82537246D01*
X91022232Y-82450037D01*
X91050937Y-82355409D01*
X91060629Y-82257000D01*
X91058200Y-81614500D01*
X90932700Y-81489000D01*
X88899200Y-81489000D01*
X88403200Y-81489000D01*
X86369700Y-81489000D01*
X86244200Y-81614500D01*
X86241771Y-82257000D01*
X84177000Y-82257000D01*
X84177000Y-80487528D01*
X84439528Y-80225000D01*
X86241771Y-80225000D01*
X86244200Y-80867500D01*
X86369700Y-80993000D01*
X88403200Y-80993000D01*
X88403200Y-79848500D01*
X88899200Y-79848500D01*
X88899200Y-80993000D01*
X90932700Y-80993000D01*
X91058200Y-80867500D01*
X91060629Y-80225000D01*
X91050937Y-80126591D01*
X91022232Y-80031963D01*
X90975617Y-79944754D01*
X90912885Y-79868315D01*
X90836446Y-79805583D01*
X90749237Y-79758968D01*
X90654609Y-79730263D01*
X90556200Y-79720571D01*
X89024700Y-79723000D01*
X88899200Y-79848500D01*
X88403200Y-79848500D01*
X88277700Y-79723000D01*
X86746200Y-79720571D01*
X86647791Y-79730263D01*
X86553163Y-79758968D01*
X86465954Y-79805583D01*
X86389515Y-79868315D01*
X86326783Y-79944754D01*
X86280168Y-80031963D01*
X86251463Y-80126591D01*
X86241771Y-80225000D01*
X84439528Y-80225000D01*
X84987529Y-79677000D01*
X121012472Y-79677000D01*
X124323001Y-82987530D01*
X124323000Y-86942187D01*
X124317306Y-87000000D01*
X124340031Y-87230732D01*
X124407333Y-87452597D01*
X124516626Y-87657070D01*
X124527291Y-87670065D01*
X124663709Y-87836291D01*
X124842930Y-87983374D01*
X125047403Y-88092667D01*
X125269268Y-88159969D01*
X125500000Y-88182694D01*
X125557812Y-88177000D01*
X138115924Y-88177000D01*
X138172920Y-88165663D01*
X138230732Y-88159969D01*
X138286321Y-88143106D01*
X138343318Y-88131769D01*
X138397009Y-88109529D01*
X138452597Y-88092667D01*
X138503827Y-88065284D01*
X138557519Y-88043044D01*
X138605840Y-88010757D01*
X138657070Y-87983374D01*
X138701973Y-87946523D01*
X138750294Y-87914236D01*
X138791388Y-87873142D01*
X138836291Y-87836291D01*
X138873142Y-87791388D01*
X138914236Y-87750294D01*
X138946523Y-87701973D01*
X138983374Y-87657070D01*
X139010757Y-87605840D01*
X139043044Y-87557519D01*
X139065284Y-87503827D01*
X139092667Y-87452597D01*
X139109529Y-87397009D01*
X139131769Y-87343318D01*
X139143106Y-87286321D01*
X139159969Y-87230732D01*
X139165663Y-87172920D01*
X139177000Y-87115924D01*
X139177000Y-87057811D01*
X139182694Y-87000000D01*
X139177000Y-86942188D01*
X139177000Y-86884076D01*
X139165663Y-86827080D01*
X139159969Y-86769268D01*
X139143106Y-86713679D01*
X139131769Y-86656682D01*
X139109529Y-86602991D01*
X139092667Y-86547403D01*
X139065284Y-86496173D01*
X139043044Y-86442481D01*
X139010757Y-86394160D01*
X138983374Y-86342930D01*
X138946523Y-86298027D01*
X138914236Y-86249706D01*
X138873142Y-86208612D01*
X138836291Y-86163709D01*
X138791388Y-86126858D01*
X138750294Y-86085764D01*
X138701973Y-86053477D01*
X138657070Y-86016626D01*
X138605840Y-85989243D01*
X138557519Y-85956956D01*
X138503827Y-85934716D01*
X138452597Y-85907333D01*
X138397009Y-85890471D01*
X138343318Y-85868231D01*
X138286321Y-85856894D01*
X138230732Y-85840031D01*
X138172920Y-85834337D01*
X138115924Y-85823000D01*
X126677000Y-85823000D01*
X126677000Y-82557801D01*
X126682693Y-82499999D01*
X126677000Y-82442197D01*
X126677000Y-82442188D01*
X126659969Y-82269268D01*
X126592667Y-82047403D01*
X126523793Y-81918548D01*
X142173000Y-81918548D01*
X142173000Y-82081452D01*
X142198001Y-82207137D01*
X142198000Y-83539393D01*
X142198001Y-83539403D01*
X142198000Y-86960614D01*
X142194121Y-87000000D01*
X142198000Y-87039386D01*
X142198000Y-87039393D01*
X142209605Y-87157218D01*
X142255464Y-87308396D01*
X142329935Y-87447722D01*
X142430157Y-87569843D01*
X142460762Y-87594960D01*
X142698001Y-87832199D01*
X142698000Y-93792867D01*
X142673000Y-93918548D01*
X142673000Y-94081452D01*
X142704782Y-94241227D01*
X142767123Y-94391731D01*
X142857628Y-94527181D01*
X142972819Y-94642372D01*
X143108269Y-94732877D01*
X143258773Y-94795218D01*
X143418548Y-94827000D01*
X143581452Y-94827000D01*
X143741227Y-94795218D01*
X143891731Y-94732877D01*
X144027181Y-94642372D01*
X144142372Y-94527181D01*
X144232877Y-94391731D01*
X144295218Y-94241227D01*
X144327000Y-94081452D01*
X144327000Y-93918548D01*
X144302000Y-93792868D01*
X144302000Y-88992894D01*
X158111000Y-88992894D01*
X158111000Y-89227106D01*
X158156693Y-89456818D01*
X158246322Y-89673203D01*
X158376443Y-89867943D01*
X158542057Y-90033557D01*
X158736797Y-90163678D01*
X158953182Y-90253307D01*
X159182894Y-90299000D01*
X159417106Y-90299000D01*
X159646818Y-90253307D01*
X159863203Y-90163678D01*
X160057943Y-90033557D01*
X160223557Y-89867943D01*
X160353678Y-89673203D01*
X160443307Y-89456818D01*
X160489000Y-89227106D01*
X160489000Y-88992894D01*
X160443307Y-88763182D01*
X160353678Y-88546797D01*
X160223557Y-88352057D01*
X160057943Y-88186443D01*
X159863203Y-88056322D01*
X159646818Y-87966693D01*
X159417106Y-87921000D01*
X159182894Y-87921000D01*
X158953182Y-87966693D01*
X158736797Y-88056322D01*
X158542057Y-88186443D01*
X158376443Y-88352057D01*
X158246322Y-88546797D01*
X158156693Y-88763182D01*
X158111000Y-88992894D01*
X144302000Y-88992894D01*
X144302000Y-87539386D01*
X144305879Y-87500000D01*
X144302000Y-87460614D01*
X144302000Y-87460606D01*
X144290395Y-87342781D01*
X144244536Y-87191603D01*
X144170065Y-87052277D01*
X144069843Y-86930157D01*
X144039238Y-86905040D01*
X143802000Y-86667802D01*
X143802000Y-82207132D01*
X143827000Y-82081452D01*
X143827000Y-81918548D01*
X143795218Y-81758773D01*
X143732877Y-81608269D01*
X143642372Y-81472819D01*
X143527181Y-81357628D01*
X143391731Y-81267123D01*
X143241227Y-81204782D01*
X143081452Y-81173000D01*
X142918548Y-81173000D01*
X142758773Y-81204782D01*
X142608269Y-81267123D01*
X142472819Y-81357628D01*
X142357628Y-81472819D01*
X142267123Y-81608269D01*
X142204782Y-81758773D01*
X142173000Y-81918548D01*
X126523793Y-81918548D01*
X126483374Y-81842930D01*
X126336291Y-81663709D01*
X126291382Y-81626853D01*
X122373151Y-77708623D01*
X122336291Y-77663709D01*
X122157070Y-77516626D01*
X121952597Y-77407333D01*
X121730732Y-77340031D01*
X121557812Y-77323000D01*
X121500000Y-77317306D01*
X121442188Y-77323000D01*
X84557801Y-77323000D01*
X84499999Y-77317307D01*
X84442197Y-77323000D01*
X84442188Y-77323000D01*
X84269268Y-77340031D01*
X84047403Y-77407333D01*
X83842930Y-77516626D01*
X83663709Y-77663709D01*
X83626853Y-77708618D01*
X82208623Y-79126849D01*
X82163709Y-79163709D01*
X82016626Y-79342931D01*
X81907333Y-79547404D01*
X81854067Y-79723000D01*
X81840031Y-79769269D01*
X81817306Y-80000000D01*
X80794348Y-80000000D01*
X80764817Y-79944754D01*
X80702085Y-79868315D01*
X80625646Y-79805583D01*
X80538437Y-79758968D01*
X80443809Y-79730263D01*
X80345400Y-79720571D01*
X78813900Y-79723000D01*
X78688400Y-79848500D01*
X78192400Y-79848500D01*
X78066900Y-79723000D01*
X76535400Y-79720571D01*
X76436991Y-79730263D01*
X76342363Y-79758968D01*
X76255154Y-79805583D01*
X76178715Y-79868315D01*
X76115983Y-79944754D01*
X76069368Y-80031963D01*
X76040663Y-80126591D01*
X76030971Y-80225000D01*
X75452000Y-80225000D01*
X75452000Y-75452000D01*
X194048000Y-75452000D01*
X194048001Y-149048000D01*
G36*
X80923000Y-120489002D02*
G01*
X80923000Y-120699933D01*
X80916032Y-120676963D01*
X80869417Y-120589754D01*
X80806685Y-120513315D01*
X80730246Y-120450583D01*
X80643037Y-120403968D01*
X80548409Y-120375263D01*
X80450000Y-120365571D01*
X79873500Y-120368000D01*
X79748000Y-120493500D01*
X79748000Y-121072000D01*
X79768000Y-121072000D01*
X79768000Y-121568000D01*
X79748000Y-121568000D01*
X79748000Y-121643533D01*
X79622415Y-121602779D01*
X79465522Y-121584269D01*
X79308034Y-121596722D01*
X79252000Y-121612548D01*
X79252000Y-121568000D01*
X78173500Y-121568000D01*
X78048000Y-121693500D01*
X78045571Y-121770000D01*
X78055263Y-121868409D01*
X78083968Y-121963037D01*
X78130583Y-122050246D01*
X78193315Y-122126685D01*
X78269754Y-122189417D01*
X78356963Y-122236032D01*
X78451591Y-122264737D01*
X78550000Y-122274429D01*
X78656125Y-122273982D01*
X78644269Y-122374478D01*
X78656722Y-122531966D01*
X78699661Y-122683999D01*
X78711542Y-122712681D01*
X78862381Y-122732960D01*
X78865000Y-122730341D01*
X79000000Y-122865341D01*
X79067176Y-122798166D01*
X79176835Y-122907825D01*
X79107040Y-122977619D01*
X79127319Y-123128458D01*
X79173000Y-123143282D01*
X79173000Y-123181603D01*
X79195299Y-123293711D01*
X79193755Y-123295255D01*
X79126500Y-123228000D01*
X78737351Y-123226361D01*
X78688166Y-123177176D01*
X78755341Y-123110000D01*
X78412381Y-122767040D01*
X78261542Y-122787319D01*
X78212779Y-122937585D01*
X78194269Y-123094478D01*
X78206722Y-123251966D01*
X78232023Y-123341548D01*
X78193315Y-123373315D01*
X78130583Y-123449754D01*
X78083968Y-123536963D01*
X78055263Y-123631591D01*
X78045571Y-123730000D01*
X78048000Y-123806500D01*
X78173500Y-123932000D01*
X79252000Y-123932000D01*
X79252000Y-123912000D01*
X79748000Y-123912000D01*
X79748000Y-123932000D01*
X80826500Y-123932000D01*
X80933889Y-123824611D01*
X81012058Y-123809062D01*
X81144364Y-123754259D01*
X81250000Y-123683676D01*
X81355636Y-123754259D01*
X81487942Y-123809062D01*
X81628397Y-123837000D01*
X81771603Y-123837000D01*
X81912058Y-123809062D01*
X82044364Y-123754259D01*
X82150000Y-123683676D01*
X82190244Y-123710565D01*
X80578847Y-125321962D01*
X80556836Y-125340026D01*
X80484731Y-125427885D01*
X80460179Y-125473819D01*
X80260999Y-125673000D01*
X76239001Y-125673000D01*
X76077000Y-125510999D01*
X76077000Y-124630000D01*
X78045571Y-124630000D01*
X78055263Y-124728409D01*
X78083968Y-124823037D01*
X78130583Y-124910246D01*
X78193315Y-124986685D01*
X78269754Y-125049417D01*
X78356963Y-125096032D01*
X78451591Y-125124737D01*
X78550000Y-125134429D01*
X79126500Y-125132000D01*
X79252000Y-125006500D01*
X79252000Y-124428000D01*
X79748000Y-124428000D01*
X79748000Y-125006500D01*
X79873500Y-125132000D01*
X80450000Y-125134429D01*
X80548409Y-125124737D01*
X80643037Y-125096032D01*
X80730246Y-125049417D01*
X80806685Y-124986685D01*
X80869417Y-124910246D01*
X80916032Y-124823037D01*
X80944737Y-124728409D01*
X80954429Y-124630000D01*
X80952000Y-124553500D01*
X80826500Y-124428000D01*
X79748000Y-124428000D01*
X79252000Y-124428000D01*
X78173500Y-124428000D01*
X78048000Y-124553500D01*
X78045571Y-124630000D01*
X76077000Y-124630000D01*
X76077000Y-120870000D01*
X78045571Y-120870000D01*
X78048000Y-120946500D01*
X78173500Y-121072000D01*
X79252000Y-121072000D01*
X79252000Y-120493500D01*
X79126500Y-120368000D01*
X78550000Y-120365571D01*
X78451591Y-120375263D01*
X78356963Y-120403968D01*
X78269754Y-120450583D01*
X78193315Y-120513315D01*
X78130583Y-120589754D01*
X78083968Y-120676963D01*
X78055263Y-120771591D01*
X78045571Y-120870000D01*
X76077000Y-120870000D01*
X76077000Y-120489001D01*
X76489002Y-120077000D01*
X80510999Y-120077000D01*
X80923000Y-120489002D01*
G37*
X80923000Y-120489002D02*
X80923000Y-120699933D01*
X80916032Y-120676963D01*
X80869417Y-120589754D01*
X80806685Y-120513315D01*
X80730246Y-120450583D01*
X80643037Y-120403968D01*
X80548409Y-120375263D01*
X80450000Y-120365571D01*
X79873500Y-120368000D01*
X79748000Y-120493500D01*
X79748000Y-121072000D01*
X79768000Y-121072000D01*
X79768000Y-121568000D01*
X79748000Y-121568000D01*
X79748000Y-121643533D01*
X79622415Y-121602779D01*
X79465522Y-121584269D01*
X79308034Y-121596722D01*
X79252000Y-121612548D01*
X79252000Y-121568000D01*
X78173500Y-121568000D01*
X78048000Y-121693500D01*
X78045571Y-121770000D01*
X78055263Y-121868409D01*
X78083968Y-121963037D01*
X78130583Y-122050246D01*
X78193315Y-122126685D01*
X78269754Y-122189417D01*
X78356963Y-122236032D01*
X78451591Y-122264737D01*
X78550000Y-122274429D01*
X78656125Y-122273982D01*
X78644269Y-122374478D01*
X78656722Y-122531966D01*
X78699661Y-122683999D01*
X78711542Y-122712681D01*
X78862381Y-122732960D01*
X78865000Y-122730341D01*
X79000000Y-122865341D01*
X79067176Y-122798166D01*
X79176835Y-122907825D01*
X79107040Y-122977619D01*
X79127319Y-123128458D01*
X79173000Y-123143282D01*
X79173000Y-123181603D01*
X79195299Y-123293711D01*
X79193755Y-123295255D01*
X79126500Y-123228000D01*
X78737351Y-123226361D01*
X78688166Y-123177176D01*
X78755341Y-123110000D01*
X78412381Y-122767040D01*
X78261542Y-122787319D01*
X78212779Y-122937585D01*
X78194269Y-123094478D01*
X78206722Y-123251966D01*
X78232023Y-123341548D01*
X78193315Y-123373315D01*
X78130583Y-123449754D01*
X78083968Y-123536963D01*
X78055263Y-123631591D01*
X78045571Y-123730000D01*
X78048000Y-123806500D01*
X78173500Y-123932000D01*
X79252000Y-123932000D01*
X79252000Y-123912000D01*
X79748000Y-123912000D01*
X79748000Y-123932000D01*
X80826500Y-123932000D01*
X80933889Y-123824611D01*
X81012058Y-123809062D01*
X81144364Y-123754259D01*
X81250000Y-123683676D01*
X81355636Y-123754259D01*
X81487942Y-123809062D01*
X81628397Y-123837000D01*
X81771603Y-123837000D01*
X81912058Y-123809062D01*
X82044364Y-123754259D01*
X82150000Y-123683676D01*
X82190244Y-123710565D01*
X80578847Y-125321962D01*
X80556836Y-125340026D01*
X80484731Y-125427885D01*
X80460179Y-125473819D01*
X80260999Y-125673000D01*
X76239001Y-125673000D01*
X76077000Y-125510999D01*
X76077000Y-124630000D01*
X78045571Y-124630000D01*
X78055263Y-124728409D01*
X78083968Y-124823037D01*
X78130583Y-124910246D01*
X78193315Y-124986685D01*
X78269754Y-125049417D01*
X78356963Y-125096032D01*
X78451591Y-125124737D01*
X78550000Y-125134429D01*
X79126500Y-125132000D01*
X79252000Y-125006500D01*
X79252000Y-124428000D01*
X79748000Y-124428000D01*
X79748000Y-125006500D01*
X79873500Y-125132000D01*
X80450000Y-125134429D01*
X80548409Y-125124737D01*
X80643037Y-125096032D01*
X80730246Y-125049417D01*
X80806685Y-124986685D01*
X80869417Y-124910246D01*
X80916032Y-124823037D01*
X80944737Y-124728409D01*
X80954429Y-124630000D01*
X80952000Y-124553500D01*
X80826500Y-124428000D01*
X79748000Y-124428000D01*
X79252000Y-124428000D01*
X78173500Y-124428000D01*
X78048000Y-124553500D01*
X78045571Y-124630000D01*
X76077000Y-124630000D01*
X76077000Y-120870000D01*
X78045571Y-120870000D01*
X78048000Y-120946500D01*
X78173500Y-121072000D01*
X79252000Y-121072000D01*
X79252000Y-120493500D01*
X79126500Y-120368000D01*
X78550000Y-120365571D01*
X78451591Y-120375263D01*
X78356963Y-120403968D01*
X78269754Y-120450583D01*
X78193315Y-120513315D01*
X78130583Y-120589754D01*
X78083968Y-120676963D01*
X78055263Y-120771591D01*
X78045571Y-120870000D01*
X76077000Y-120870000D01*
X76077000Y-120489001D01*
X76489002Y-120077000D01*
X80510999Y-120077000D01*
X80923000Y-120489002D01*
G36*
X84455955Y-123134773D02*
G01*
X84519610Y-123071118D01*
X84527319Y-123128458D01*
X84677585Y-123177221D01*
X84708180Y-123180830D01*
X84467176Y-123421835D01*
X84400000Y-123354659D01*
X84332825Y-123421835D01*
X84204701Y-123293711D01*
X84227000Y-123181603D01*
X84227000Y-123062162D01*
X84294364Y-123034259D01*
X84330977Y-123009795D01*
X84455955Y-123134773D01*
G37*
X84455955Y-123134773D02*
X84519610Y-123071118D01*
X84527319Y-123128458D01*
X84677585Y-123177221D01*
X84708180Y-123180830D01*
X84467176Y-123421835D01*
X84400000Y-123354659D01*
X84332825Y-123421835D01*
X84204701Y-123293711D01*
X84227000Y-123181603D01*
X84227000Y-123062162D01*
X84294364Y-123034259D01*
X84330977Y-123009795D01*
X84455955Y-123134773D01*
G36*
X79645299Y-122206289D02*
G01*
X79623000Y-122318397D01*
X79623000Y-122437838D01*
X79555636Y-122465741D01*
X79519023Y-122490205D01*
X79394045Y-122365227D01*
X79330390Y-122428882D01*
X79322681Y-122371542D01*
X79172415Y-122322779D01*
X79141820Y-122319170D01*
X79382825Y-122078166D01*
X79450000Y-122145341D01*
X79517176Y-122078166D01*
X79645299Y-122206289D01*
G37*
X79645299Y-122206289D02*
X79623000Y-122318397D01*
X79623000Y-122437838D01*
X79555636Y-122465741D01*
X79519023Y-122490205D01*
X79394045Y-122365227D01*
X79330390Y-122428882D01*
X79322681Y-122371542D01*
X79172415Y-122322779D01*
X79141820Y-122319170D01*
X79382825Y-122078166D01*
X79450000Y-122145341D01*
X79517176Y-122078166D01*
X79645299Y-122206289D01*
%TD*%
M02*
