M48
; DRILL file {KiCad (5.1.6)-1} date 10/16/20 13:50:55
; FORMAT={-:-/ absolute / inch / decimal}
; #@! TF.CreationDate,2020-10-16T13:50:55-05:00
; #@! TF.GenerationSoftware,Kicad,Pcbnew,(5.1.6)-1
; #@! TF.FileFunction,Plated,1,2,PTH
FMAT,2
INCH
T1C0.0118
T2C0.0157
T3C0.0236
T4C0.0295
T5C0.0350
T6C0.0394
T7C0.0450
T8C0.0500
T9C0.0591
T10C0.0630
T11C0.0669
%
G90
G05
T1
X3.0118Y-4.7343
X3.0118Y-4.7736
X3.0118Y-4.813
X3.0118Y-4.8524
X3.0118Y-4.8917
X3.0118Y-4.9311
X3.0906Y-4.7343
X3.0906Y-4.9311
X3.1299Y-4.7343
X3.1299Y-4.9311
X3.1693Y-4.7343
X3.1693Y-4.9311
X3.2776Y-4.9311
X3.3169Y-4.9311
X3.3563Y-4.9311
X3.3957Y-4.7736
X3.3957Y-4.813
X3.3957Y-4.8524
X3.3957Y-4.8917
X3.3957Y-4.9311
X5.4331Y-5.6102
T2
X2.9921Y-5.4528
X2.9921Y-5.5118
X2.9921Y-5.5709
X2.9921Y-5.6299
X2.9921Y-5.689
X2.9921Y-5.8465
X3.0315Y-5.4134
X3.0315Y-5.7283
X3.0512Y-2.9921
X3.0512Y-5.5709
X3.0709Y-5.8465
X3.0906Y-5.748
X3.1102Y-5.5709
X3.1299Y-2.9921
X3.1496Y-5.7283
X3.1496Y-5.8465
X3.189Y-5.4528
X3.189Y-5.689
X3.2087Y-2.9921
X3.2283Y-5.4134
X3.2283Y-5.7283
X3.2283Y-5.8465
X3.2874Y-2.9921
X3.2874Y-5.748
X3.3071Y-5.8465
X3.3465Y-5.4134
X3.3465Y-5.7283
X3.3661Y-2.9921
X3.3858Y-5.4528
X3.3858Y-5.689
X3.3858Y-5.8465
X3.4055Y-5.5118
X3.4055Y-5.6299
X3.4449Y-2.9921
X3.4646Y-5.5118
X3.4646Y-5.6299
X3.4646Y-5.8465
X3.4843Y-3.4252
X3.4843Y-3.5039
X3.4843Y-3.5827
X3.5039Y-4.1142
X3.5039Y-4.1929
X3.5039Y-4.2717
X3.5039Y-4.3504
X3.5236Y-2.9921
X3.5236Y-3.3071
X3.5236Y-3.3858
X3.5236Y-3.4646
X3.5236Y-3.5433
X3.5236Y-3.622
X3.5236Y-5.5118
X3.5236Y-5.6299
X3.5433Y-4.0748
X3.5433Y-4.1535
X3.5433Y-4.2323
X3.5433Y-4.3898
X3.5433Y-5.8465
X3.563Y-3.2677
X3.563Y-3.3465
X3.563Y-3.6614
X3.5827Y-4.0354
X3.5827Y-4.4291
X3.5827Y-5.5118
X3.5827Y-5.6299
X3.6024Y-2.9921
X3.6024Y-3.2283
X3.6024Y-3.3071
X3.6024Y-3.622
X3.622Y-3.9961
X3.622Y-4.3898
X3.622Y-5.8465
X3.6417Y-3.2677
X3.6417Y-3.6614
X3.6417Y-5.5118
X3.6417Y-5.6299
X3.6614Y-3.189
X3.6614Y-4.4291
X3.6811Y-2.9921
X3.6811Y-3.622
X3.6811Y-3.7008
X3.6811Y-3.9961
X3.6811Y-4.8524
X3.7008Y-3.2283
X3.7008Y-4.3898
X3.7008Y-4.4685
X3.7008Y-5.5118
X3.7008Y-5.6299
X3.7008Y-5.8465
X3.7205Y-3.3465
X3.7205Y-3.6614
X3.7205Y-3.7402
X3.7205Y-3.9567
X3.7402Y-3.189
X3.7402Y-3.9961
X3.7402Y-4.1142
X3.7402Y-4.4291
X3.7402Y-4.5079
X3.7598Y-2.9921
X3.7598Y-3.3858
X3.7598Y-3.7008
X3.7598Y-5.5118
X3.7598Y-5.6693
X3.7795Y-3.2283
X3.7795Y-3.9567
X3.7795Y-4.1535
X3.7795Y-4.2323
X3.7795Y-4.4685
X3.7795Y-5.8465
X3.7992Y-3.3465
X3.7992Y-3.5039
X3.7992Y-3.6614
X3.7992Y-3.7402
X3.8189Y-3.189
X3.8189Y-3.9961
X3.8189Y-4.1142
X3.8189Y-4.1929
X3.8189Y-4.2717
X3.8189Y-4.4291
X3.8189Y-4.5079
X3.8189Y-5.5512
X3.8189Y-5.6693
X3.8386Y-2.9921
X3.8386Y-3.3858
X3.8386Y-3.5433
X3.8386Y-3.7008
X3.8583Y-3.2283
X3.8583Y-3.9567
X3.8583Y-4.1535
X3.8583Y-4.2323
X3.8583Y-4.311
X3.8583Y-4.4685
X3.8583Y-5.8465
X3.878Y-3.3465
X3.878Y-3.5039
X3.878Y-3.6614
X3.878Y-3.7402
X3.878Y-5.5512
X3.878Y-5.6693
X3.8976Y-3.189
X3.8976Y-3.9961
X3.8976Y-4.1142
X3.8976Y-4.1929
X3.8976Y-4.2717
X3.8976Y-4.4291
X3.8976Y-4.5079
X3.9173Y-2.9921
X3.9173Y-3.3858
X3.9173Y-3.5433
X3.9173Y-3.7008
X3.937Y-3.2283
X3.937Y-3.9567
X3.937Y-4.1535
X3.937Y-4.2323
X3.937Y-4.311
X3.937Y-4.4685
X3.937Y-5.5512
X3.937Y-5.6693
X3.937Y-5.8465
X3.9567Y-3.3465
X3.9567Y-3.4252
X3.9567Y-3.5039
X3.9567Y-3.6614
X3.9567Y-3.7402
X3.9764Y-3.189
X3.9764Y-3.9173
X3.9764Y-3.9961
X3.9764Y-4.1142
X3.9764Y-4.1929
X3.9764Y-4.2717
X3.9764Y-4.4291
X3.9961Y-2.9921
X3.9961Y-3.3858
X3.9961Y-3.4646
X3.9961Y-3.5433
X3.9961Y-3.7008
X3.9961Y-5.5512
X3.9961Y-5.6693
X4.0157Y-3.2283
X4.0157Y-3.878
X4.0157Y-3.9567
X4.0157Y-4.4685
X4.0157Y-5.8465
X4.0354Y-3.6614
X4.0354Y-3.7402
X4.0551Y-3.189
X4.0551Y-3.8386
X4.0551Y-3.9173
X4.0551Y-4.4291
X4.0551Y-5.5512
X4.0551Y-5.6693
X4.0748Y-2.9921
X4.0748Y-3.7008
X4.0945Y-3.2283
X4.0945Y-3.7992
X4.0945Y-3.878
X4.0945Y-5.8465
X4.1142Y-3.3858
X4.1142Y-3.4646
X4.1142Y-3.5433
X4.1142Y-3.6614
X4.1142Y-3.7402
X4.1142Y-4.2323
X4.1142Y-4.311
X4.1142Y-4.3898
X4.1142Y-4.4685
X4.1142Y-5.5512
X4.1142Y-5.6693
X4.1339Y-3.2677
X4.1339Y-3.8386
X4.1339Y-4.0157
X4.1339Y-4.1142
X4.1535Y-2.9921
X4.1535Y-3.5039
X4.1535Y-3.7008
X4.1535Y-3.7795
X4.1535Y-4.2717
X4.1535Y-4.3504
X4.1535Y-4.4291
X4.1732Y-5.5512
X4.1732Y-5.6693
X4.1732Y-5.8465
X4.1929Y-3.4646
X4.1929Y-3.5433
X4.1929Y-3.6614
X4.1929Y-3.7402
X4.1929Y-3.8189
X4.1929Y-4.1142
X4.1929Y-4.2323
X4.1929Y-4.311
X4.1929Y-4.3898
X4.2323Y-2.9921
X4.2323Y-3.7008
X4.2323Y-4.2717
X4.2323Y-4.3504
X4.2323Y-5.5512
X4.2323Y-5.6693
X4.252Y-4.1142
X4.252Y-5.8465
X4.2717Y-3.6614
X4.2717Y-4.2323
X4.2717Y-4.311
X4.2913Y-5.5512
X4.2913Y-5.6693
X4.311Y-2.9921
X4.311Y-4.0551
X4.311Y-4.1142
X4.311Y-4.2717
X4.311Y-4.4882
X4.3307Y-5.8465
X4.3504Y-4.2323
X4.3504Y-5.5512
X4.3504Y-5.6693
X4.3701Y-4.1142
X4.3898Y-2.9921
X4.3898Y-4.2717
X4.3898Y-4.7835
X4.4094Y-3.4843
X4.4094Y-3.6024
X4.4094Y-5.5512
X4.4094Y-5.6693
X4.4094Y-5.8465
X4.4291Y-4.2126
X4.4291Y-4.6457
X4.4488Y-3.7205
X4.4685Y-2.9921
X4.4685Y-3.4843
X4.4685Y-3.6024
X4.4685Y-4.1732
X4.4685Y-4.685
X4.4685Y-5.5512
X4.4685Y-5.6693
X4.4882Y-3.3071
X4.4882Y-3.937
X4.4882Y-4.7244
X4.4882Y-5.8465
X4.5079Y-4.1339
X4.5079Y-4.252
X4.5079Y-4.6457
X4.5276Y-3.2677
X4.5276Y-3.5827
X4.5276Y-3.8976
X4.5276Y-5.5512
X4.5276Y-5.6693
X4.5472Y-2.9921
X4.5472Y-4.2126
X4.5669Y-3.3071
X4.5669Y-3.5433
X4.5669Y-3.622
X4.5669Y-3.937
X4.5669Y-4.1142
X4.5669Y-5.8465
X4.5866Y-4.4488
X4.5866Y-5.5512
X4.5866Y-5.6693
X4.6063Y-3.2677
X4.6063Y-3.5039
X4.6063Y-3.5827
X4.6063Y-3.8976
X4.6063Y-4.1929
X4.6063Y-4.252
X4.6063Y-4.311
X4.626Y-2.9921
X4.626Y-4.1142
X4.6457Y-3.3071
X4.6457Y-3.4646
X4.6457Y-3.5433
X4.6457Y-3.937
X4.6457Y-4.6063
X4.6457Y-5.5512
X4.6457Y-5.6693
X4.6457Y-5.8465
X4.6654Y-4.1929
X4.685Y-3.2677
X4.685Y-3.5039
X4.685Y-3.8976
X4.685Y-4.1142
X4.685Y-5.0
X4.7047Y-2.9921
X4.7047Y-4.6457
X4.7047Y-4.7244
X4.7047Y-5.5512
X4.7047Y-5.6693
X4.7244Y-3.3071
X4.7244Y-3.4646
X4.7244Y-3.5433
X4.7244Y-3.622
X4.7244Y-3.7008
X4.7244Y-3.7795
X4.7244Y-3.937
X4.7244Y-4.1929
X4.7244Y-5.8465
X4.7441Y-4.1142
X4.7441Y-4.685
X4.7441Y-5.1575
X4.7441Y-5.3543
X4.7638Y-3.2677
X4.7638Y-3.5039
X4.7638Y-3.5827
X4.7638Y-3.6614
X4.7638Y-3.7402
X4.7638Y-3.8976
X4.7638Y-4.2323
X4.7638Y-5.5512
X4.7638Y-5.6693
X4.7835Y-2.9921
X4.7835Y-4.6457
X4.7835Y-5.3937
X4.8031Y-3.3071
X4.8031Y-4.1535
X4.8031Y-5.8465
X4.8228Y-4.4094
X4.8228Y-5.3543
X4.8425Y-3.2677
X4.8425Y-4.1142
X4.8425Y-4.1929
X4.8425Y-5.6102
X4.8622Y-2.9921
X4.8819Y-3.3071
X4.8819Y-3.4646
X4.8819Y-3.6614
X4.8819Y-3.7402
X4.8819Y-3.9173
X4.8819Y-3.9961
X4.8819Y-4.0748
X4.8819Y-4.1535
X4.8819Y-5.8465
X4.9016Y-3.8386
X4.9016Y-5.5512
X4.9016Y-5.6102
X4.9016Y-5.6693
X4.9213Y-3.5039
X4.9213Y-3.7008
X4.9213Y-3.7795
X4.9213Y-3.9567
X4.9213Y-4.0354
X4.9213Y-4.1142
X4.9213Y-4.2717
X4.9409Y-2.9921
X4.9409Y-4.5276
X4.9606Y-3.5433
X4.9606Y-3.6614
X4.9606Y-3.7402
X4.9606Y-3.8189
X4.9606Y-3.9961
X4.9606Y-5.3543
X4.9606Y-5.8465
X4.9803Y-4.5669
X4.9803Y-4.9409
X5.0Y-3.5039
X5.0Y-3.7008
X5.0Y-3.7795
X5.0Y-3.8583
X5.0Y-5.3937
X5.0197Y-2.9921
X5.0197Y-4.5276
X5.0197Y-4.9803
X5.0394Y-3.5433
X5.0394Y-3.6614
X5.0394Y-3.8189
X5.0394Y-3.8976
X5.0394Y-5.3543
X5.0394Y-5.8465
X5.0591Y-4.5669
X5.0787Y-3.1299
X5.0787Y-3.2087
X5.0787Y-3.2874
X5.0787Y-3.5039
X5.0787Y-3.7008
X5.0787Y-3.8583
X5.0787Y-5.3937
X5.0787Y-5.5118
X5.0787Y-5.5906
X5.0787Y-5.6693
X5.0984Y-2.9921
X5.0984Y-4.5276
X5.0984Y-5.0197
X5.1083Y-3.1693
X5.1083Y-3.248
X5.1083Y-3.3268
X5.1083Y-5.5512
X5.1083Y-5.6299
X5.1083Y-5.7087
X5.1181Y-3.5433
X5.1181Y-3.6614
X5.1181Y-3.8976
X5.1181Y-5.3543
X5.1181Y-5.8465
X5.1378Y-3.1299
X5.1378Y-3.2087
X5.1378Y-3.2874
X5.1378Y-4.5669
X5.1378Y-5.0591
X5.1378Y-5.5118
X5.1378Y-5.5906
X5.1378Y-5.6693
X5.1575Y-3.5039
X5.1575Y-3.7008
X5.1575Y-3.8583
X5.1575Y-5.3937
X5.1673Y-3.1693
X5.1673Y-3.248
X5.1673Y-3.3268
X5.1673Y-5.5512
X5.1673Y-5.6299
X5.1673Y-5.7087
X5.1772Y-2.9921
X5.1772Y-4.5276
X5.1969Y-3.1299
X5.1969Y-3.2087
X5.1969Y-3.2874
X5.1969Y-3.5433
X5.1969Y-3.6614
X5.1969Y-3.8976
X5.1969Y-5.5118
X5.1969Y-5.5906
X5.1969Y-5.6693
X5.1969Y-5.8465
X5.2165Y-3.9567
X5.2165Y-4.5669
X5.2264Y-3.1693
X5.2264Y-3.248
X5.2264Y-3.3268
X5.2264Y-5.5512
X5.2264Y-5.6299
X5.2264Y-5.7087
X5.2362Y-3.5039
X5.2362Y-3.7008
X5.2362Y-3.8583
X5.2559Y-2.9921
X5.2559Y-3.1299
X5.2559Y-3.2087
X5.2559Y-3.2874
X5.2559Y-5.5118
X5.2559Y-5.5906
X5.2559Y-5.6693
X5.2756Y-3.5433
X5.2756Y-3.6614
X5.2756Y-5.8465
X5.2854Y-3.1693
X5.2854Y-3.248
X5.2854Y-3.3268
X5.2854Y-5.5512
X5.2854Y-5.6299
X5.2854Y-5.7087
X5.2953Y-5.3937
X5.315Y-3.1299
X5.315Y-3.2087
X5.315Y-3.2874
X5.315Y-3.5039
X5.315Y-5.5118
X5.315Y-5.5906
X5.315Y-5.6693
X5.3346Y-2.9921
X5.3346Y-5.3543
X5.3543Y-3.5433
X5.3543Y-3.6614
X5.3543Y-5.8465
X5.374Y-5.3937
X5.4134Y-2.9921
X5.4331Y-3.5236
X5.4331Y-3.6614
X5.4331Y-5.0197
X5.4331Y-5.8465
X5.4724Y-3.4843
X5.4921Y-2.9921
X5.5118Y-3.4449
X5.5118Y-3.6417
X5.5118Y-4.311
X5.5118Y-5.8465
X5.5512Y-3.4055
X5.5512Y-3.6024
X5.5709Y-2.9921
X5.5709Y-4.4094
X5.5906Y-3.4449
X5.5906Y-3.563
X5.5906Y-5.8465
X5.6102Y-4.2913
X5.6102Y-4.3701
X5.6299Y-3.2283
X5.6496Y-2.9921
X5.6496Y-3.7008
X5.6496Y-4.4094
X5.6693Y-5.8465
X5.689Y-3.4055
X5.689Y-3.563
X5.689Y-4.2913
X5.689Y-4.3701
X5.7283Y-2.9921
X5.7283Y-3.4449
X5.7283Y-3.6417
X5.7283Y-4.4094
X5.748Y-5.8465
X5.7677Y-3.4055
X5.7677Y-3.563
X5.7677Y-4.2913
X5.7677Y-4.3701
X5.7677Y-4.4488
X5.7874Y-4.4882
X5.8071Y-2.9921
X5.8071Y-3.4449
X5.8071Y-4.4094
X5.8268Y-5.8465
X5.8465Y-3.4055
X5.8465Y-3.5827
X5.8661Y-4.6063
X5.8858Y-2.9921
X5.8858Y-3.4449
X5.8858Y-3.622
X5.9055Y-5.8465
X5.9252Y-3.4055
X5.9252Y-3.6614
X5.935Y-5.187
X5.935Y-5.2362
X5.9449Y-4.4488
X5.9646Y-2.9921
X5.9646Y-3.4449
X5.9646Y-3.622
X5.9646Y-4.7244
X5.9843Y-5.8465
X6.0039Y-3.4055
X6.0039Y-3.6614
X6.0039Y-4.7047
X6.0236Y-4.3701
X6.0236Y-4.4488
X6.0433Y-2.9921
X6.0433Y-3.4449
X6.0433Y-3.622
X6.0433Y-3.7008
X6.0433Y-3.7795
X6.0433Y-3.8583
X6.0433Y-3.937
X6.0433Y-4.0945
X6.0433Y-4.1732
X6.0433Y-4.252
X6.0433Y-4.3307
X6.0433Y-4.6654
X6.063Y-5.8465
X6.0827Y-3.4055
X6.0827Y-3.6614
X6.0827Y-3.7402
X6.0827Y-3.8189
X6.0827Y-3.8976
X6.0827Y-3.9764
X6.0827Y-4.1339
X6.0827Y-4.2126
X6.0827Y-4.2913
X6.0827Y-4.3701
X6.0827Y-4.6457
X6.122Y-2.9921
X6.122Y-3.4449
X6.122Y-3.7008
X6.122Y-3.7795
X6.122Y-3.8583
X6.122Y-3.937
X6.122Y-4.0945
X6.122Y-4.3307
X6.1417Y-5.8465
X6.1614Y-3.4055
X6.1614Y-4.1339
X6.1614Y-4.3701
X6.1614Y-4.4488
X6.1614Y-4.6654
X6.1811Y-3.563
X6.2008Y-2.9921
X6.2008Y-3.4449
X6.2008Y-4.0945
X6.2008Y-4.3307
X6.2008Y-4.4882
X6.2008Y-4.5472
X6.2205Y-5.8465
X6.2402Y-3.4055
X6.2402Y-3.5827
X6.2402Y-3.6614
X6.2402Y-3.7402
X6.2402Y-3.8189
X6.2402Y-3.8976
X6.2402Y-3.9764
X6.2402Y-4.0551
X6.2402Y-4.3701
X6.2402Y-4.4488
X6.2795Y-2.9921
X6.2795Y-3.4449
X6.2795Y-3.622
X6.2795Y-3.7008
X6.2795Y-3.7795
X6.2795Y-3.8583
X6.2795Y-3.937
X6.2795Y-4.0157
X6.2795Y-4.3307
X6.2795Y-4.4882
X6.2992Y-5.8465
X6.3189Y-3.4055
X6.3189Y-3.5827
X6.3189Y-4.3701
X6.3189Y-4.4488
X6.3583Y-2.9921
X6.3583Y-3.4646
X6.3583Y-3.5433
X6.3583Y-4.3307
X6.3583Y-4.4882
X6.378Y-5.8465
X6.3976Y-3.4252
X6.3976Y-3.5039
X6.3976Y-4.3701
X6.3976Y-4.4488
X6.4173Y-4.8031
X6.437Y-2.9921
X6.437Y-4.3307
X6.4567Y-5.8465
X6.4764Y-4.3701
X6.4764Y-4.4488
X6.5157Y-2.9921
X6.5354Y-5.8465
X6.5945Y-2.9921
X6.6142Y-5.8465
X6.6339Y-5.1969
X6.6339Y-5.3346
X6.6732Y-2.9921
X6.6929Y-5.8465
X6.752Y-2.9921
X6.7717Y-5.8465
X6.8307Y-2.9921
X6.8504Y-5.8465
X6.8701Y-3.3661
X6.9094Y-2.9921
X6.9291Y-5.8465
X6.9882Y-2.9921
X7.0079Y-5.8465
X7.0472Y-5.689
X7.0669Y-2.9921
X7.0866Y-5.8465
X7.1457Y-2.9921
X7.1654Y-5.8465
X7.2244Y-2.9921
X7.2441Y-5.8465
X7.2835Y-5.5906
X7.3031Y-2.9921
X7.3031Y-4.7047
X7.3031Y-5.2953
X7.3228Y-4.9409
X7.3228Y-5.8465
X7.3819Y-2.9921
X7.4016Y-5.8465
X7.4606Y-2.9921
X7.4803Y-5.8465
X7.5394Y-2.9921
X7.5591Y-5.8465
X7.6181Y-2.9921
X3.1102Y-4.8469
X3.128Y-4.8185
X3.1457Y-4.8469
X3.1634Y-4.8185
X3.1811Y-4.8469
X3.1988Y-4.8185
X3.2165Y-4.8469
X3.2343Y-4.8185
X3.252Y-4.8469
X3.2697Y-4.8185
X3.2874Y-4.8469
X3.3051Y-4.8185
X3.3228Y-4.8469
X3.3406Y-4.8185
T4
X3.8583Y-5.3937
X5.4331Y-3.4252
X5.502Y-5.4035
X5.5512Y-5.315
T5
X6.2717Y-3.5083
X6.2717Y-4.2083
X7.2717Y-3.5083
X7.2717Y-3.8583
X7.2717Y-4.2083
T6
X4.4291Y-5.1756
X4.4291Y-5.2756
X3.7697Y-5.0772
X3.7697Y-5.1772
T8
X3.6024Y-3.5335
X3.7044Y-3.5335
X3.6024Y-4.3012
X3.7044Y-4.3012
T9
X3.189Y-5.5709
T10
X3.1201Y-5.1378
X3.2382Y-5.3228
X3.3563Y-5.1378
T11
X3.089Y-5.4709
X3.089Y-5.6709
X3.289Y-5.4709
X3.289Y-5.6709
T3
G00X3.1496Y-4.7764
M15
G01X3.1102Y-4.7764
M16
G05
G00X3.1496Y-4.889
M15
G01X3.1102Y-4.889
M16
G05
G00X3.3386Y-4.7764
M15
G01X3.2992Y-4.7764
M16
G05
G00X3.3386Y-4.889
M15
G01X3.2992Y-4.889
M16
G05
T7
G00X3.1159Y-3.1985
M15
G01X3.0409Y-3.1985
M16
G05
G00X3.1159Y-3.8685
M15
G01X3.0409Y-3.8685
M16
G05
G00X3.5179Y-3.1985
M15
G01X3.4429Y-3.1985
M16
G05
G00X3.5179Y-3.8685
M15
G01X3.4429Y-3.8685
M16
G05
G00X3.1159Y-3.9662
M15
G01X3.0409Y-3.9662
M16
G05
G00X3.1159Y-4.6362
M15
G01X3.0409Y-4.6362
M16
G05
G00X3.5179Y-3.9662
M15
G01X3.4429Y-3.9662
M16
G05
G00X3.5179Y-4.6362
M15
G01X3.4429Y-4.6362
M16
G05
T0
M30
